<?xml version="1.0" encoding="UTF-8"?>
<svg width="270px" height="270px" viewBox="0 0 270 270" version="1.1" xmlns="http://www.w3.org/2000/svg" xmlns:xlink="http://www.w3.org/1999/xlink">
    <!-- Generator: Sketch 3.8.3 (29802) - http://www.bohemiancoding.com/sketch -->
    <title>close</title>
    <desc>Created with Sketch.</desc>
    <defs></defs>
    <g id="Page-1" stroke="none" stroke-width="1" fill="none" fill-rule="evenodd">
        <g id="close">
            <circle id="Oval-2" fill="#3C3F45" cx="135" cy="135" r="135"></circle>
            <g id="closeicon" transform="translate(67.000000, 67.000000)" fill="#FFFFFF">
                <g id="Page-1">
                    <g id="openicon">
                        <polygon id="Path-98" points="0.362433138 123.695105 12.6073178 136.545971 74.1870962 74.6101752 89.9926107 91.349464 89.9671266 45.4100003 45.0805424 45.5779483 61.1196566 61.8731715"></polygon>
                        <path d="M56.1036293,127.959275 L79.4438036,105.303378 L111.680597,105.303378 L111.680597,29.0549992 L34.2117745,29.0549992 L34.2117745,60.9950029 L10.2005311,82.5122696 L10.0150669,15.8653902 C10.0150669,15.8653902 11.9451432,8.29401811 15.9216064,4.43354181 C19.8980694,0.57306551 25.9451679,0.3999439 25.9451679,0.3999439 L121.787688,0.249075382 C121.787688,0.249075382 128.113387,1.24258171 131.614459,5.16226521 C135.115532,9.08194869 136.512979,16.7350192 136.512979,16.7350192 L136.566778,110.431485 C136.566778,110.431485 136.090128,118.151495 131.70082,122.866751 C127.311514,127.582008 120.401661,127.797021 120.401661,127.797021 L56.1036293,127.959275 L56.1036293,127.959275 Z" id="Path-99"></path>
                    </g>
                </g>
            </g>
        </g>
    </g>
</svg>