<?xml version="1.0" encoding="UTF-8"?>
<svg width="200px" height="201px" viewBox="0 0 200 201" version="1.1" xmlns="http://www.w3.org/2000/svg" xmlns:xlink="http://www.w3.org/1999/xlink">
    <!-- Generator: Sketch 3.8.3 (29802) - http://www.bohemiancoding.com/sketch -->
    <title>follow</title>
    <desc>Created with Sketch.</desc>
    <defs>
        <rect id="path-1" x="74.8201439" y="81.6326531" width="125.179856" height="118.367347"></rect>
        <mask id="mask-2" maskContentUnits="userSpaceOnUse" maskUnits="objectBoundingBox" x="0" y="0" width="125.179856" height="118.367347" fill="white">
            <use xlink:href="#path-1"></use>
        </mask>
    </defs>
    <g id="Page-1" stroke="none" stroke-width="1" fill="none" fill-rule="evenodd">
        <g id="follow" transform="translate(0.000000, 0.421356)">
            <path d="M4.92215603,137.510079 C1.23812025,150.075569 0,167.656629 0,167.656629 L159.595605,167.657958 C159.595605,167.657958 154.094759,136.868361 151.582172,129.04853 C149.069584,121.2287 142.568289,114.664495 142.568289,114.664495 C142.568289,114.664495 137.959579,111.194875 128.332256,107.811286 C118.704933,104.427696 108.714591,102.766376 108.714591,102.766376 L104.804125,95.9224667 L101.33487,95.8108596 L99.4772932,77.4156108 C99.4772932,77.4156108 101.886863,74.910945 103.375112,71.1064864 C104.863362,67.3020279 105.409735,62.250326 105.409735,62.250326 C105.409735,62.250326 107.863085,61.7082357 108.887421,58.8396656 C109.911758,55.9710955 111.60892,47.2560977 111.515709,45.3690821 C111.422499,43.4820665 108.061207,42.1132086 108.061207,42.1132086 L108.887421,28.134414 L112.352462,25.4531852 C112.352462,25.4531852 108.006957,11.4395823 99.4772932,5.4383044 C90.9476288,-0.562973482 83.662076,0.152459991 77.0683453,0.0034350201 C70.4746147,-0.145589951 63.0135735,4.60390796 63.0135735,4.60390796 C63.0135735,4.60390796 54.2006239,9.0177043 52.0767761,13.2939851 C49.9529283,17.5702659 51.6116794,41.6388783 51.6116794,41.6388783 C51.6116794,41.6388783 48.0672493,43.3016934 47.2417379,45.3690821 C46.4162264,47.4364707 50.0142411,58.0617024 50.6955373,59.7664035 C51.3768335,61.4711046 53.8514501,61.9075326 53.8514501,61.9075326 C53.8514501,61.9075326 54.8174007,66.8866981 56.1670976,70.297999 C57.5167944,73.7092998 59.6166817,76.478908 59.6166817,76.478908 L58.6555755,94.4569586 L54.9031868,96.6273198 L52.0767761,103.067981 C52.0767761,103.067981 39.3989768,104.570085 30.362663,107.811286 C21.3263492,111.052486 17.2682947,113.813492 14.3379047,117.359011 C11.4075146,120.90453 8.6061918,124.944589 4.92215603,137.510079 Z" id="Path-26" fill="#4267B1"></path>
            <use id="Rectangle-17" stroke="#5D92FF" mask="url(#mask-2)" stroke-width="12" fill="#79A6FF" xlink:href="#path-1"></use>
            <path d="M178.416623,178.231293 C178.417051,178.129655 178.417266,178.02797 178.417266,177.926238 C178.417266,138.891935 146.809353,106.838291 106.47482,103.401361 L99.2805755,103.401361 L99.2805755,118.062292 C134.245365,118.062292 162.589928,144.864294 162.589928,177.926238 C162.589928,178.027982 162.58966,178.129667 162.589123,178.231293 L178.416623,178.231293 Z M146.761517,178.231293 C146.762232,178.129687 146.76259,178.028002 146.76259,177.926238 C146.76259,153.12978 125.504168,133.028279 99.2805755,133.028279 L99.2805755,147.994265 C116.76297,147.994265 130.935252,161.395266 130.935252,177.926238 C130.935252,178.028042 130.934714,178.129728 130.933642,178.231293 L146.761517,178.231293 Z M115.104691,178.231293 C115.106836,178.129852 115.107914,178.028164 115.107914,177.926238 C115.107914,169.660752 108.021773,162.960252 99.2805755,162.960252 L99.2805755,178.231293 L115.104691,178.231293 Z" id="Combined-Shape" fill="#FFFFFF"></path>
        </g>
    </g>
</svg>