<?xml version="1.0" encoding="UTF-8"?>
<svg width="199px" height="201px" viewBox="0 0 199 201" version="1.1" xmlns="http://www.w3.org/2000/svg" xmlns:xlink="http://www.w3.org/1999/xlink">
    <!-- Generator: Sketch 3.8.3 (29802) - http://www.bohemiancoding.com/sketch -->
    <title>like</title>
    <desc>Created with Sketch.</desc>
    <defs></defs>
    <g id="Page-1" stroke="none" stroke-width="1" fill="none" fill-rule="evenodd">
        <g id="like" transform="translate(0.000000, 0.421356)">
            <g id="Page-1">
                <g id="likeicon" transform="translate(0.359448, 0.000000)">
                    <ellipse id="Oval-1" fill="#4673CC" cx="99.009901" cy="100" rx="99.009901" ry="100"></ellipse>
                    <polygon id="Path-11" fill="#FFFFFF" points="43.5643564 80.8606992 43.5643564 144.713248 62.5895758 144.713248 63.3095178 77.5141242"></polygon>
                    <path d="M68.7785305,76.8928894 L67.8618198,144.719808 C67.8618198,144.719808 113.799212,146.640712 130.709746,146.640711 C147.620281,146.640709 157.417048,79.9716614 155.15305,75.5547596 C152.889052,71.137858 120.519442,74.9719844 120.519442,74.9719844 C120.519442,74.9719844 125.589613,68.1237482 127.776735,56.203153 C129.963857,44.2825578 130.800572,33.9938748 124.934006,33.3924186 C119.067439,32.7909624 119.003812,36.5854612 104.771,53.844543 C90.5381887,71.103625 68.7785305,76.8928894 68.7785305,76.8928894 L68.7785305,76.8928894 L68.7785305,76.8928894 Z" id="Path-12" fill="#FFFFFF"></path>
                </g>
            </g>
        </g>
    </g>
</svg>