<?xml version="1.0" encoding="UTF-8"?>
<svg width="199px" height="201px" viewBox="0 0 199 201" version="1.1" xmlns="http://www.w3.org/2000/svg" xmlns:xlink="http://www.w3.org/1999/xlink">
    <!-- Generator: Sketch 3.8.3 (29802) - http://www.bohemiancoding.com/sketch -->
    <title>like</title>
    <desc>Created with Sketch.</desc>
    <defs></defs>
    <g id="Page-1" stroke="none" stroke-width="1" fill="none" fill-rule="evenodd">
        <g id="like">
            <g id="Page-1">
                <g id="like" transform="translate(0.000000, 0.421356)">
                    <g id="Page-1">
                        <g id="likeicon" transform="translate(0.359448, 0.000000)">
                            <ellipse id="Oval-1" fill="#4673CC" cx="99.009901" cy="100" rx="99.009901" ry="100"></ellipse>
                            <g id="like" transform="translate(48.000000, 37.000000)">
                                <g id="Page-1">
                                    <g id="like">
                                        <path d="M1.23956919,104.795455 L26.4110553,104.795455" id="Path-56"></path>
                                        <rect id="Rectangle-54" fill="#FFFFFF" x="0" y="46.9772727" width="26.030953" height="59.0227273"></rect>
                                        <path d="M31.221649,100.616012 C31.221649,100.616012 82.8550321,99.7156161 89.2707715,100.08667 C95.68651,100.457724 100.875505,95.4477596 100.843312,92.8194027 C100.811118,90.1910449 96.5556609,87.6342106 96.5556609,87.6342106 C96.5556609,87.6342106 102.286855,83.7341957 102.875769,80.8833451 C103.464684,78.0324945 99.3204811,74.250111 99.3204811,74.250111 C99.3204811,74.250111 105.67197,70.5437056 106.042481,66.7452282 C106.412992,62.9467507 100.843312,58.6380726 100.843312,58.6380726 C100.843312,58.6380726 106.803896,55.8749112 106.947947,50.2486017 C107.091999,44.6222922 100.379683,40.9651322 95.316092,41.06159 C90.2524999,41.1580478 64.7335958,41.06159 64.7335958,41.06159 C64.7335958,41.06159 73.5957892,24.3367587 73.5957892,16.502508 C73.5957892,8.66825724 66.2878993,-1.49409011e-09 63.1478188,0 C60.0077382,1.49408796e-09 56.8265002,4.03710938 56.8265002,7.27432528 C56.8265002,10.5115412 58.1653317,15.010942 56.6255543,18.3399103 C55.085777,21.6688787 30.9892298,45.3716042 30.9892298,50.2486017 C30.9892298,55.1255993 31.221649,100.616012 31.221649,100.616012 L31.221649,100.616012 Z" id="Path-57" fill="#FFFFFF"></path>
                                    </g>
                                </g>
                            </g>
                        </g>
                    </g>
                </g>
            </g>
        </g>
    </g>
</svg>