<?xml version="1.0" encoding="UTF-8"?>
<svg width="270px" height="270px" viewBox="0 0 270 270" version="1.1" xmlns="http://www.w3.org/2000/svg" xmlns:xlink="http://www.w3.org/1999/xlink">
    <!-- Generator: Sketch 3.8.3 (29802) - http://www.bohemiancoding.com/sketch -->
    <title>open</title>
    <desc>Created with Sketch.</desc>
    <defs></defs>
    <g id="Page-1" stroke="none" stroke-width="1" fill="none" fill-rule="evenodd">
        <g id="open">
            <circle id="Oval-2" fill="#5890FF" cx="135" cy="135" r="135"></circle>
            <g id="closeicon" transform="translate(67.000000, 67.000000)" fill="#FFFFFF">
                <g id="Page-1">
                    <g id="openicon">
                        <polygon id="Path-98" transform="translate(45.177522, 90.496621) rotate(180.000000) translate(-45.177522, -90.496621) " points="0.362433138 123.040634 12.6073178 135.823506 74.1870962 74.2154123 89.9926107 90.8661335 89.9671266 45.1697358 45.0805424 45.3367952 61.1196566 61.5458002"></polygon>
                        <path d="M56.1036293,127.282242 L79.4438036,104.746218 L111.680597,104.746218 L111.680597,28.9012691 L34.2117745,28.9012691 L34.2117745,60.672278 L10.2005311,82.0756968 L10.0150669,15.7814464 C10.0150669,15.7814464 11.9451432,8.25013442 15.9216064,4.41008392 C19.8980694,0.570033417 25.9451679,0.397827794 25.9451679,0.397827794 L121.787688,0.247757523 C121.787688,0.247757523 128.113387,1.2360072 131.614459,5.13495164 C135.115532,9.03389605 136.512979,16.6464741 136.512979,16.6464741 L136.566778,109.847191 C136.566778,109.847191 136.090128,117.526355 131.70082,122.216663 C127.311514,126.906971 120.401661,127.120846 120.401661,127.120846 L56.1036293,127.282242 L56.1036293,127.282242 Z" id="Path-99"></path>
                    </g>
                </g>
            </g>
        </g>
    </g>
</svg>