<?xml version="1.0" encoding="UTF-8"?>
<svg width="300px" height="300px" viewBox="0 0 300 300" version="1.1" xmlns="http://www.w3.org/2000/svg" xmlns:xlink="http://www.w3.org/1999/xlink">
    <!-- Generator: Sketch 3.8.3 (29802) - http://www.bohemiancoding.com/sketch -->
    <title>order</title>
    <desc>Created with Sketch.</desc>
    <defs></defs>
    <g id="Page-1" stroke="none" stroke-width="1" fill="none" fill-rule="evenodd">
        <g id="order">
            <circle id="Oval-28" fill="#D0011B" cx="150" cy="150" r="150"></circle>
            <path d="M72.5999454,196.834212 C72.4272127,187.969537 80.4382126,186.093654 80.4382126,186.093654 L192.4529,186.100288 L185.398961,164.105759 L208.182141,81.4793509 L234.610881,66 C234.610881,66 242.688133,65.9987566 245.710701,70.9656505 C248.733269,75.9325445 245.493599,83.8832405 245.493599,83.8832405 L225.224035,95.3149825 L206.771605,163.169144 L216.5023,195.733092 L214.29614,203.390516 L208.669053,207.418225 L81.1296768,207.240453 C81.1296768,207.240453 72.772678,205.698886 72.5999454,196.834212 Z M73.6340043,147.285165 C72.7756354,145.29718 62.6109574,92.8873615 62.121314,89.1871867 C61.6316706,85.4870119 62.6434168,83.5772421 64.8093653,80.5984553 C66.9753138,77.6196686 69.4174536,76.8811824 72.1682509,76.6622851 C74.9190481,76.4433879 187.631475,77.1226326 187.631475,77.1226326 C187.631475,77.1226326 191.872751,77.6864352 194.148305,80.8704186 C196.423858,84.0544019 195.768414,88.507942 195.768414,88.507942 L174.566441,168.177248 C174.566441,168.177248 173.627431,170.933214 171.906627,172.323029 C170.185824,173.712844 165.909962,175.168692 165.909962,175.168692 C165.909962,175.168692 82.7908531,153.472721 79.3771724,152.441191 C75.9634917,151.40966 74.4923733,149.273151 73.6340043,147.285165 Z M91.8392146,132.92816 L84.7062157,99.20472 L171.996353,98.992456 L157.821964,151.262462 L91.8392146,132.92816 Z M93.0376688,251 C104.393033,251 113.598375,241.268537 113.598375,229.264168 C113.598375,217.2598 104.393033,207.528337 93.0376688,207.528337 C81.6823044,207.528337 72.4769626,217.2598 72.4769626,229.264168 C72.4769626,241.268537 81.6823044,251 93.0376688,251 Z M196.162461,251 C207.340398,251 216.401906,241.268537 216.401906,229.264168 C216.401906,217.2598 207.340398,207.528337 196.162461,207.528337 C184.984524,207.528337 175.923016,217.2598 175.923016,229.264168 C175.923016,241.268537 184.984524,251 196.162461,251 Z" fill="#FFFFFF"></path>
        </g>
    </g>
</svg>