<?xml version="1.0" encoding="UTF-8"?>
<svg width="282px" height="283px" viewBox="0 0 282 283" version="1.1" xmlns="http://www.w3.org/2000/svg" xmlns:xlink="http://www.w3.org/1999/xlink">
    <!-- Generator: Sketch 3.8.3 (29802) - http://www.bohemiancoding.com/sketch -->
    <title>received</title>
    <desc>Created with Sketch.</desc>
    <defs></defs>
    <g id="Page-1" stroke="none" stroke-width="1" fill="none" fill-rule="evenodd">
        <g id="received" fill="#42B72A">
            <g id="Page-1">
                <path d="M141,283 C218.87215,283 282,219.648292 282,141.5 C282,63.3517079 218.87215,0 141,0 C63.1278503,0 0,63.3517079 0,141.5 C0,219.648292 63.1278503,283 141,283 L141,283 Z M232.436862,102.886766 L126.753354,206.149658 C126.753354,206.149658 123.088581,210.728477 119.902344,210.84375 C116.716107,210.959023 113.52437,206.628262 113.52437,206.628262 L50.9434586,145.641672 C50.9434586,145.641672 48.9366171,143.953125 48.8671875,140.74707 C48.7977579,137.541016 50.6570641,136.515545 50.6570641,136.515545 L68.0840743,118.304806 C68.0840743,118.304806 69.9357108,116.684334 72.1660156,116.876953 C74.3963205,117.069572 76.2422773,119.009385 76.2422773,119.009385 L121.064453,163.498047 L206.774148,77.3945008 C206.774148,77.3945008 209.254716,74.5743545 211.597656,74.5488281 C213.940596,74.5233017 216.266724,77.2910788 216.266724,77.2910788 L232.608193,93.8886839 C232.608193,93.8886839 234.476191,94.9638672 234.519531,97.8613281 C234.562871,100.758789 232.436862,102.886766 232.436862,102.886766 L232.436862,102.886766 Z" id="received"></path>
            </g>
        </g>
    </g>
</svg>