<?xml version="1.0" encoding="iso-8859-1"?>
<!-- Generator: Adobe Illustrator 19.0.0, SVG Export Plug-In . SVG Version: 6.00 Build 0)  -->
<svg version="1.1" id="Layer_1" xmlns="http://www.w3.org/2000/svg" xmlns:xlink="http://www.w3.org/1999/xlink" x="0px" y="0px"
	 viewBox="0 0 484.8 484.8" style="enable-background:new 0 0 484.8 484.8;" xml:space="preserve">
<g>
	<path style="fill:#109DA0;" d="M484.8,286.4c0,104-95.2,188-242.4,188S0,390.4,0,286.4s95.2-260,242.4-260S484.8,182.4,484.8,286.4
		z"/>
	<path style="fill:#109DA0;" d="M484.8,286.4c0,104-95.2,156-242.4,156S0,390.4,0,286.4s95.2-276,242.4-276S484.8,182.4,484.8,286.4
		z"/>
</g>
<g>
	<path style="fill:#19BCA4;" d="M242.4,10.4c147.2,0,242.4,172,242.4,276s-95.2,156-242.4,156"/>
	<path style="fill:#19BCA4;" d="M484.8,286.4c0,104-95.2,156-242.4,156S0,390.4,0,286.4s95.2-260,242.4-260S484.8,182.4,484.8,286.4
		z"/>
</g>
<path style="fill:#28DDBF;" d="M0,286.4c0-104,95.2-260,242.4-260"/>
<path style="fill:#109DA0;" d="M242.4,26.4c147.2,0,242.4,156,242.4,260s-95.2,188-242.4,188"/>
<path style="fill:#0C838C;" d="M242.4,26.4c147.2,0,242.4,156,242.4,260"/>
<path style="fill:#28DDBF;" d="M205.6,283.2c0,10.4-30.4,14.4-68.8,14.4c-37.6,0-68.8-4-68.8-14.4S98.4,264,136.8,264
	C175.2,264,205.6,272.8,205.6,283.2z"/>
<path style="fill:#19BCA4;" d="M416.8,283.2c0,10.4-30.4,14.4-68.8,14.4c-37.6,0-68.8-4-68.8-14.4S309.6,264,348,264
	C385.6,264,416.8,272.8,416.8,283.2z"/>
<g>
	<circle style="fill:#109DA0;" cx="68.8" cy="262.4" r="4.8"/>
	<circle style="fill:#109DA0;" cx="32.8" cy="278.4" r="8.8"/>
	<circle style="fill:#109DA0;" cx="56.8" cy="246.4" r="1.6"/>
	<circle style="fill:#109DA0;" cx="93.6" cy="260.8" r="1.6"/>
</g>
<g>
	<circle style="fill:#19BCA4;" cx="407.2" cy="264.8" r="6.4"/>
	<circle style="fill:#19BCA4;" cx="427.2" cy="276" r="1.6"/>
	<circle style="fill:#19BCA4;" cx="438.4" cy="299.2" r="4.8"/>
	<circle style="fill:#19BCA4;" cx="440.8" cy="246.4" r="4.8"/>
</g>
<g>
	<circle style="fill:#109DA0;" cx="60.8" cy="294.4" r="4"/>
	<circle style="fill:#109DA0;" cx="67.2" cy="227.2" r="3.2"/>
</g>
<g>
	<circle style="fill:#19BCA4;" cx="24.8" cy="116.8" r="8.8"/>
	<circle style="fill:#19BCA4;" cx="50.4" cy="88.8" r="4.8"/>
</g>
<circle style="fill:#109DA0;" cx="460" cy="136" r="1.6"/>
<g>
	<circle style="fill:#19BCA4;" cx="453.6" cy="112.8" r="6.4"/>
	<path style="fill:#19BCA4;" d="M478.4,116.8c0,2.4-1.6,4-4,4s-4-1.6-4-4c0-2.4,1.6-4,4-4C476,112.8,478.4,115.2,478.4,116.8z"/>
</g>
<g>
	<circle style="fill:#109DA0;" cx="34.4" cy="140.8" r="4.8"/>
	<path style="fill:#109DA0;" d="M301.6,304.8c0,20.8-26.4,64.8-59.2,64.8s-59.2-44-59.2-64.8"/>
</g>
<path style="fill:#02243E;" d="M266.4,330.4h-48c-4.8,0-8-3.2-8-8s3.2-8,8-8h48c4.8,0,8,3.2,8,8S271.2,330.4,266.4,330.4z"/>
<path style="fill:#109DA0;" d="M205.6,258.4c-16.8,24-57.6,24.8-92,0.8c-34.4-23.2-48.8-62.4-32.8-86.4c16.8-24,57.6-24.8,92.8-0.8
	C207.2,195.2,221.6,234.4,205.6,258.4z"/>
<path style="fill:#1E4784;" d="M213.6,245.6c-16.8,24-57.6,24.8-92.8,0.8C86.4,223.2,72,184,88,160c16.8-24,57.6-24.8,92-0.8
	C216,183.2,230.4,221.6,213.6,245.6z"/>
<path style="fill:#00233F;" d="M181.6,159.2c34.4,23.2,48.8,62.4,32.8,86.4c-16.8,24-57.6,24.8-92.8,0.8"/>
<path style="fill:#19BCA4;" d="M279.2,258.4c16.8,24,57.6,24.8,92,0.8c34.4-23.2,48.8-62.4,32.8-86.4c-16.8-24-57.6-24.8-92.8-0.8
	C277.6,195.2,263.2,234.4,279.2,258.4z"/>
<path style="fill:#1E4784;" d="M271.2,245.6c16.8,24,57.6,24.8,92.8,0.8c34.4-23.2,48.8-62.4,32.8-86.4c-16.8-24-57.6-24.8-92.8-0.8
	S254.4,221.6,271.2,245.6z"/>
<path style="fill:#00233F;" d="M303.2,159.2c-34.4,23.2-48.8,62.4-32.8,86.4c16.8,24,57.6,24.8,92.8,0.8"/>
<g>
	
		<rect x="220.017" y="90.87" transform="matrix(-0.7072 -0.707 0.707 -0.7072 333.3726 363.8002)" style="fill:#28DDBF;" width="44" height="44"/>
	<circle style="fill:#28DDBF;" cx="242.4" cy="349.6" r="7.2"/>
	<circle style="fill:#28DDBF;" cx="242.4" cy="382.4" r="7.2"/>
	<circle style="fill:#28DDBF;" cx="242.4" cy="414.4" r="7.2"/>
</g>
<g>
</g>
<g>
</g>
<g>
</g>
<g>
</g>
<g>
</g>
<g>
</g>
<g>
</g>
<g>
</g>
<g>
</g>
<g>
</g>
<g>
</g>
<g>
</g>
<g>
</g>
<g>
</g>
<g>
</g>
</svg>
