<?xml version="1.0" encoding="iso-8859-1"?>
<!-- Generator: Adobe Illustrator 19.0.0, SVG Export Plug-In . SVG Version: 6.00 Build 0)  -->
<svg version="1.1" id="Layer_1" xmlns="http://www.w3.org/2000/svg" xmlns:xlink="http://www.w3.org/1999/xlink" x="0px" y="0px"
	 viewBox="0 0 512 512" style="enable-background:new 0 0 512 512;" xml:space="preserve">
<circle style="fill:#FDDF6D;" cx="256.002" cy="285.076" r="218.059"/>
<path style="fill:#FCC56B;" d="M302.728,470.937c-120.43,0-218.058-97.627-218.058-218.058c0-64.341,27.872-122.166,72.195-162.079
	C86.271,126.897,37.942,200.339,37.942,285.071c0,120.43,97.627,218.058,218.058,218.058c56.089,0,107.226-21.184,145.863-55.978
	C372.12,462.357,338.426,470.937,302.728,470.937z"/>
<g>
	<path style="fill:#7F184C;" d="M295.292,410.604c-23.5,0-45.207-12.765-56.653-33.311c-2.385-4.281-0.847-9.684,3.432-12.067
		c4.281-2.383,9.682-0.847,12.067,3.432c8.316,14.929,24.085,24.203,41.153,24.203c16.634,0,32.582-9.368,41.624-24.447
		c2.518-4.201,7.967-5.567,12.17-3.047c4.202,2.519,5.566,7.968,3.047,12.17C339.905,397.934,318.125,410.604,295.292,410.604z"/>
	<path style="fill:#7F184C;" d="M247.395,246.204c-4.899,0-8.871-3.972-8.871-8.871c0-11.442-9.31-20.751-20.751-20.751
		s-20.751,9.309-20.751,20.751c0,4.899-3.972,8.871-8.871,8.871c-4.899,0-8.871-3.972-8.871-8.871
		c0-21.225,17.268-38.493,38.493-38.493s38.493,17.268,38.493,38.493C256.266,242.232,252.294,246.204,247.395,246.204z"/>
	<path style="fill:#7F184C;" d="M397.225,246.204c-4.899,0-8.871-3.972-8.871-8.871c0-11.442-9.31-20.751-20.751-20.751
		s-20.751,9.309-20.751,20.751c0,4.899-3.972,8.871-8.871,8.871s-8.871-3.972-8.871-8.871c0-21.225,17.269-38.493,38.493-38.493
		c21.224,0,38.493,17.268,38.493,38.493C406.096,242.232,402.124,246.204,397.225,246.204z"/>
</g>
<path style="fill:#0DAED3;" d="M258.224,8.871c-115.911,0-209.877,31.68-209.877,70.759s93.964,70.758,209.877,70.758
	S468.1,118.708,468.1,79.63S374.135,8.871,258.224,8.871z M258.224,117.332c-83.94,0-151.987-17.019-151.987-38.015
	s68.047-38.015,151.987-38.015s151.987,17.019,151.987,38.015S342.164,117.332,258.224,117.332z"/>
<path d="M183.617,88.188c0.977,0,1.971-0.162,2.944-0.505c22.253-7.829,45.617-11.798,69.439-11.798
	c15.341,0,30.641,1.668,45.476,4.955c4.782,1.057,9.519-1.959,10.58-6.741c1.06-4.783-1.958-9.52-6.741-10.58
	c-16.093-3.567-32.685-5.376-49.315-5.376c-25.833,0-51.177,4.308-75.326,12.804c-4.622,1.626-7.051,6.691-5.424,11.312
	C176.532,85.906,179.957,88.188,183.617,88.188z"/>
<path d="M423.708,132.204c42.376-17.621,51.85-37.951,51.85-52.574c0-16.278-11.712-39.628-67.508-58.439
	C367.52,7.525,313.809,0,256.811,0c-56.999,0-110.71,7.525-151.239,21.19C49.776,40.001,38.064,63.353,38.064,79.629
	c0,14.487,9.306,34.573,50.679,52.079c-38.572,41.937-59.672,95.889-59.672,153.363C29.071,410.201,130.87,512,256,512
	s226.929-101.799,226.929-226.929C482.928,227.856,461.986,174.076,423.708,132.204z M55.806,79.629
	c0-14.364,20.724-29.925,55.435-41.627c38.751-13.065,90.449-20.26,145.571-20.26s106.82,7.195,145.571,20.26
	c34.711,11.703,55.435,27.264,55.435,41.627s-20.724,29.925-55.435,41.628c-38.751,13.065-90.449,20.26-145.571,20.26
	s-106.82-7.195-145.571-20.26C76.528,109.555,55.806,93.993,55.806,79.629z M255.999,494.258
	c-115.347,0-209.187-93.84-209.187-209.187c0-55.398,21.257-107.255,59.967-146.604c40.388,13.41,93.593,20.792,150.031,20.792
	c55.867,0,108.566-7.234,148.801-20.388c38.455,39.303,59.575,91.022,59.575,146.199
	C465.186,400.417,371.346,494.258,255.999,494.258z"/>
<path d="M247.395,246.205c4.899,0,8.871-3.972,8.871-8.871c0-21.225-17.269-38.493-38.493-38.493s-38.493,17.268-38.493,38.493
	c0,4.899,3.972,8.871,8.871,8.871c4.899,0,8.871-3.972,8.871-8.871c0-11.442,9.309-20.751,20.751-20.751s20.751,9.31,20.751,20.751
	C238.524,242.233,242.496,246.205,247.395,246.205z"/>
<path d="M367.602,198.84c-21.225,0-38.493,17.268-38.493,38.493c0,4.899,3.972,8.871,8.871,8.871s8.871-3.972,8.871-8.871
	c0-11.442,9.31-20.751,20.751-20.751s20.751,9.31,20.751,20.751c0,4.899,3.972,8.871,8.871,8.871s8.871-3.972,8.871-8.871
	C406.096,216.107,388.827,198.84,367.602,198.84z"/>
<path d="M349.086,365.368c-4.202-2.521-9.652-1.154-12.17,3.047c-9.041,15.081-24.99,24.447-41.624,24.447
	c-17.069,0-32.838-9.274-41.153-24.203c-2.386-4.28-7.786-5.816-12.067-3.432c-4.281,2.384-5.817,7.786-3.432,12.067
	c11.446,20.547,33.154,33.311,56.653,33.311c22.831,0,44.611-12.67,56.84-33.067C354.652,373.337,353.288,367.888,349.086,365.368z"
	/>
<path d="M256.811,126.202c41.302,0,80.233-4.049,109.623-11.4c33.997-8.503,51.234-20.442,51.234-35.486
	s-17.238-26.983-51.234-35.486c-29.39-7.351-68.321-11.4-109.623-11.4s-80.233,4.049-109.624,11.4
	c-33.997,8.503-51.234,20.442-51.234,35.486s17.238,26.983,51.234,35.486C176.577,122.154,215.51,126.202,256.811,126.202z
	 M113.695,79.317c0-1.863,6.414-10.425,37.797-18.274c28.024-7.009,65.426-10.869,105.319-10.869s77.295,3.861,105.318,10.869
	c31.383,7.849,37.797,16.411,37.797,18.274s-6.414,10.425-37.797,18.274c-28.023,7.009-65.426,10.869-105.318,10.869
	c-39.893,0-77.296-3.861-105.319-10.869C120.109,89.742,113.695,81.18,113.695,79.317z"/>
<circle cx="335.001" cy="82.038" r="8.871"/>
<g>
	<path style="fill:#F9A880;" d="M162.291,275.751c-16.194,0-29.321,13.128-29.321,29.321h58.644
		C191.612,288.879,178.485,275.751,162.291,275.751z"/>
	<path style="fill:#F9A880;" d="M418.053,275.751c-16.194,0-29.321,13.128-29.321,29.321h58.644
		C447.375,288.879,434.248,275.751,418.053,275.751z"/>
</g>
<g>
</g>
<g>
</g>
<g>
</g>
<g>
</g>
<g>
</g>
<g>
</g>
<g>
</g>
<g>
</g>
<g>
</g>
<g>
</g>
<g>
</g>
<g>
</g>
<g>
</g>
<g>
</g>
<g>
</g>
</svg>
