<?xml version="1.0" encoding="iso-8859-1"?>
<!-- Generator: Adobe Illustrator 19.0.0, SVG Export Plug-In . SVG Version: 6.00 Build 0)  -->
<svg version="1.1" id="Layer_1" xmlns="http://www.w3.org/2000/svg" xmlns:xlink="http://www.w3.org/1999/xlink" x="0px" y="0px"
	 viewBox="0 0 512 512" style="enable-background:new 0 0 512 512;" xml:space="preserve">
<circle style="fill:#FC4C59;" cx="256.001" cy="256.001" r="245.994"/>
<path style="fill:#BC3B4A;" d="M308.716,465.678c-135.858,0-245.993-110.134-245.993-245.993
	c0-72.584,31.443-137.816,81.444-182.842C64.527,77.562,10.007,160.414,10.007,256c0,135.858,110.134,245.993,245.993,245.993
	c63.274,0,120.962-23.898,164.549-63.149C386.998,455.999,348.987,465.678,308.716,465.678z"/>
<path style="fill:#7C152E;" d="M401.559,406.114c-3.513,0.001-6.921-1.852-8.752-5.14c-12.23-21.953-35.421-35.593-60.52-35.593
	c-24.451,0-47.882,13.745-61.146,35.869c-2.843,4.739-8.992,6.275-13.729,3.437c-4.741-2.842-6.279-8.988-3.437-13.729
	c16.862-28.122,46.869-45.592,78.312-45.592c32.356,0,62.246,17.576,78.005,45.868c2.69,4.828,0.957,10.923-3.872,13.611
	C404.877,405.706,403.205,406.114,401.559,406.114z"/>
<g>
	<circle style="fill:#FFFFFF;" cx="255.481" cy="250.571" r="27.296"/>
	<circle style="fill:#FFFFFF;" cx="401.548" cy="243.192" r="27.296"/>
</g>
<g>
	<path style="fill:#7C152E;" d="M255.965,287.894c-4.549,0-9.109-0.814-13.501-2.45c-9.668-3.601-17.355-10.752-21.645-20.133
		c-4.327-9.463-4.407-20.789-0.221-31.075c2.276-5.592,5.711-10.568,9.985-14.607c-1.791-0.919-3.608-1.857-5.449-2.813
		c-6.834-3.548-12.328-6.792-17.64-9.927c-6.281-3.707-12.776-7.54-22.005-12.216c-4.93-2.497-6.904-8.518-4.406-13.449
		c2.498-4.932,8.518-6.905,13.45-4.406c9.805,4.965,16.582,8.967,23.136,12.835c5.316,3.138,10.338,6.102,16.69,9.4
		c4.271,2.218,8.412,4.333,12.393,6.366c17.03,8.7,31.738,16.213,41.528,24.156c1.197,0.973,2.154,2.207,2.795,3.609
		c4.291,9.383,4.67,19.876,1.07,29.544c-3.601,9.667-10.753,17.355-20.135,21.645C266.885,286.717,261.433,287.894,255.965,287.894z
		 M250.804,230.024c-5.289,2.086-9.43,6.255-11.669,11.758c-2.115,5.198-2.158,10.741-0.115,15.206
		c2.067,4.521,5.771,7.966,10.429,9.702c4.654,1.732,9.71,1.552,14.233-0.515c4.522-2.068,7.967-5.772,9.702-10.43
		c1.474-3.96,1.564-8.206,0.287-12.169C267.939,239.318,260.018,234.858,250.804,230.024z"/>
	<path style="fill:#7C152E;" d="M402.859,281.082c-5.469,0-10.921-1.177-16.042-3.52c-9.382-4.29-16.533-11.978-20.135-21.645
		c-3.6-9.668-3.221-20.16,1.07-29.544c0.705-1.541,1.791-2.879,3.154-3.887c10.518-7.77,24.41-15.848,41.286-24.007
		c25.328-12.246,27.012-13.234,47.608-25.316l3.129-1.835c4.767-2.797,10.899-1.197,13.695,3.571
		c2.797,4.767,1.197,10.9-3.571,13.695l-3.126,1.833c-18.265,10.715-22.167,13.003-40.498,21.935
		c3.652,3.48,6.598,7.639,8.69,12.345c4.734,10.646,4.69,23.278-0.116,33.789c-4.29,9.382-11.978,16.534-21.645,20.135
		C411.969,280.268,407.409,281.082,402.859,281.082z M385.1,236.923c-1.224,3.918-1.118,8.102,0.338,12.009
		c1.736,4.658,5.181,8.363,9.702,10.43c4.521,2.066,9.578,2.247,14.233,0.515c4.658-1.736,8.363-5.181,10.43-9.702
		c2.419-5.291,2.43-11.933,0.028-17.335c-1.489-3.349-4.586-7.712-10.965-10.256C399.615,227.488,391.66,232.287,385.1,236.923z"/>
</g>
<path d="M470.456,116.145C443.978,75.625,406.8,43.533,362.94,23.341c-5.024-2.31-10.964-0.115-13.275,4.905
	c-2.311,5.021-0.115,10.965,4.905,13.275c40.438,18.615,74.716,48.206,99.133,85.572C478.749,165.425,491.987,210,491.987,256
	c0,130.124-105.863,235.984-235.985,235.984S20.015,386.124,20.015,256.001S125.876,20.015,256,20.015
	c5.528,0,10.007-4.479,10.007-10.007S261.528,0,256,0C114.84,0,0,114.842,0,256.001C0,397.16,114.84,512,256,512
	s256-114.84,256-255.999C512,206.101,497.635,157.74,470.456,116.145z"/>
<path d="M253.973,390.96c-2.842,4.741-1.304,10.887,3.437,13.729c4.737,2.839,10.885,1.302,13.729-3.437
	c13.264-22.124,36.695-35.869,61.146-35.869c25.101,0,48.29,13.639,60.52,35.593c1.831,3.288,5.238,5.141,8.752,5.14
	c1.647,0,3.318-0.408,4.861-1.266c4.829-2.69,6.562-8.784,3.872-13.611c-15.76-28.293-45.65-45.868-78.005-45.868
	C300.842,345.368,270.835,362.838,253.973,390.96z"/>
<path d="M234.357,199.053c-6.351-3.298-11.372-6.262-16.69-9.4c-6.554-3.868-13.331-7.87-23.136-12.835
	c-4.93-2.499-10.952-0.527-13.45,4.406c-2.498,4.93-0.524,10.952,4.406,13.449c9.229,4.675,15.725,8.509,22.006,12.216
	c5.312,3.137,10.807,6.379,17.64,9.927c1.841,0.957,3.659,1.893,5.449,2.813c-4.274,4.039-7.71,9.015-9.985,14.607
	c-4.186,10.286-4.106,21.612,0.221,31.075c4.29,9.382,11.977,16.532,21.645,20.133c4.391,1.636,8.951,2.45,13.501,2.45
	c5.469,0,10.921-1.177,16.042-3.52c9.382-4.29,16.534-11.978,20.135-21.645c3.6-9.668,3.221-20.16-1.07-29.544
	c-0.64-1.402-1.597-2.638-2.795-3.609c-9.79-7.943-24.498-15.458-41.528-24.156C242.769,203.385,238.629,201.27,234.357,199.053z
	 M273.673,243.574c1.277,3.963,1.189,8.209-0.287,12.169c-1.736,4.658-5.181,8.363-9.702,10.43
	c-4.523,2.067-9.579,2.247-14.233,0.515c-4.658-1.736-8.363-5.181-10.429-9.702c-2.043-4.466-2.001-10.009,0.115-15.206
	c2.239-5.501,6.379-9.672,11.669-11.758C260.018,234.858,267.939,239.318,273.673,243.574z"/>
<path d="M473.054,188.596c4.767-2.795,6.366-8.927,3.571-13.695c-2.795-4.769-8.927-6.366-13.695-3.571l-3.129,1.835
	c-20.596,12.082-22.279,13.07-47.608,25.316c-16.876,8.159-30.769,16.237-41.286,24.007c-1.364,1.007-2.45,2.346-3.154,3.887
	c-4.291,9.383-4.67,19.876-1.07,29.544c3.601,9.667,10.753,17.355,20.135,21.645c5.122,2.343,10.574,3.52,16.042,3.52
	c4.549,0,9.109-0.814,13.501-2.45c9.667-3.601,17.355-10.753,21.645-20.135c4.806-10.51,4.85-23.142,0.116-33.789
	c-2.091-4.706-5.037-8.865-8.69-12.345c18.329-8.932,22.231-11.22,40.498-21.935L473.054,188.596z M419.804,250.174
	c-2.068,4.522-5.772,7.967-10.43,9.702c-4.655,1.732-9.712,1.55-14.233-0.515c-4.522-2.068-7.967-5.772-9.702-10.43
	c-1.456-3.907-1.561-8.091-0.338-12.009c6.559-4.637,14.515-9.434,23.768-14.339c6.379,2.542,9.476,6.906,10.965,10.256
	C422.234,238.242,422.222,244.885,419.804,250.174z"/>
<circle cx="323.131" cy="20.015" r="10.007"/>
<g>
</g>
<g>
</g>
<g>
</g>
<g>
</g>
<g>
</g>
<g>
</g>
<g>
</g>
<g>
</g>
<g>
</g>
<g>
</g>
<g>
</g>
<g>
</g>
<g>
</g>
<g>
</g>
<g>
</g>
</svg>
