<?xml version="1.0" encoding="iso-8859-1"?>
<!-- Generator: Adobe Illustrator 19.0.0, SVG Export Plug-In . SVG Version: 6.00 Build 0)  -->
<svg version="1.1" id="Layer_1" xmlns="http://www.w3.org/2000/svg" xmlns:xlink="http://www.w3.org/1999/xlink" x="0px" y="0px"
	 viewBox="0 0 484.8 484.8" style="enable-background:new 0 0 484.8 484.8;" xml:space="preserve">
<g>
	<path style="fill:#F7910B;" d="M484.8,286.4c0,104-95.2,188-242.4,188S0,390.4,0,286.4s95.2-260,242.4-260S484.8,182.4,484.8,286.4
		z"/>
	<path style="fill:#F7910B;" d="M484.8,286.4c0,104-95.2,156-242.4,156S0,390.4,0,286.4s95.2-276,242.4-276S484.8,182.4,484.8,286.4
		z"/>
</g>
<g>
	<path style="fill:#F9A908;" d="M242.4,10.4c147.2,0,242.4,172,242.4,276s-95.2,156-242.4,156"/>
	<path style="fill:#F9A908;" d="M484.8,286.4c0,104-95.2,156-242.4,156S0,390.4,0,286.4s95.2-260,242.4-260S484.8,182.4,484.8,286.4
		z"/>
</g>
<path style="fill:#F9C55D;" d="M0,286.4c0-104,95.2-260,242.4-260"/>
<path style="fill:#F7910B;" d="M242.4,26.4c147.2,0,242.4,156,242.4,260s-95.2,188-242.4,188"/>
<g>
	<path style="fill:#EA7103;" d="M242.4,26.4c147.2,0,242.4,156,242.4,260"/>
	<circle style="fill:#EA7103;" cx="159.2" cy="192" r="25.6"/>
	<circle style="fill:#EA7103;" cx="325.6" cy="192" r="25.6"/>
</g>
<circle style="fill:#1E4784;" cx="159.2" cy="184.8" r="25.6"/>
<path style="fill:#00233F;" d="M159.2,159.2c14.4,0,25.6,11.2,25.6,25.6s-11.2,25.6-25.6,25.6"/>
<circle style="fill:#1E4784;" cx="325.6" cy="184.8" r="25.6"/>
<path style="fill:#00233F;" d="M325.6,159.2c14.4,0,25.6,11.2,25.6,25.6s-11.2,25.6-25.6,25.6"/>
<path style="fill:#19BCA4;" d="M133.6,119.2c-5.6-8.8,12-13.6,31.2-25.6C183.2,82.4,196,68,201.6,76.8s-4.8,25.6-23.2,36.8
	C159.2,126.4,139.2,128,133.6,119.2z"/>
<path style="fill:#109DA0;" d="M133.6,119.2c-5.6-8.8,12-13.6,31.2-25.6C183.2,82.4,196,68,201.6,76.8"/>
<path style="fill:#19BCA4;" d="M351.2,119.2c5.6-8.8-12-13.6-31.2-25.6c-18.4-11.2-31.2-25.6-36.8-16.8c-5.6,8.8,4.8,25.6,23.2,36.8
	C325.6,126.4,345.6,128,351.2,119.2z"/>
<path style="fill:#109DA0;" d="M351.2,119.2c5.6-8.8-12-13.6-31.2-25.6c-18.4-11.2-31.2-25.6-36.8-16.8"/>
<path style="fill:#F9C55D;" d="M208.8,232.8c0,9.6-28,5.6-62.4,5.6S84,243.2,84,232.8s28-17.6,62.4-17.6
	C180.8,215.2,208.8,223.2,208.8,232.8z"/>
<path style="fill:#F9A908;" d="M400.8,232.8c0,9.6-28,5.6-62.4,5.6s-62.4,4.8-62.4-5.6s28-17.6,62.4-17.6S400.8,223.2,400.8,232.8z"
	/>
<g>
	<path style="fill:#F7910B;" d="M306.4,267.2c0,38.4-28.8,70.4-64,70.4s-64-31.2-64-70.4"/>
	<circle style="fill:#F7910B;" cx="68.8" cy="262.4" r="4.8"/>
	<circle style="fill:#F7910B;" cx="32.8" cy="278.4" r="8.8"/>
	<circle style="fill:#F7910B;" cx="56.8" cy="246.4" r="1.6"/>
	<circle style="fill:#F7910B;" cx="93.6" cy="260.8" r="1.6"/>
</g>
<g>
	<circle style="fill:#F9A908;" cx="407.2" cy="264.8" r="6.4"/>
	<circle style="fill:#F9A908;" cx="427.2" cy="276" r="1.6"/>
	<circle style="fill:#F9A908;" cx="384.8" cy="205.6" r="2.4"/>
	<circle style="fill:#F9A908;" cx="380.8" cy="298.4" r="10.4"/>
	<circle style="fill:#F9A908;" cx="438.4" cy="299.2" r="4.8"/>
</g>
<g>
	<circle style="fill:#F7910B;" cx="60.8" cy="294.4" r="4"/>
	<circle style="fill:#F7910B;" cx="67.2" cy="227.2" r="3.2"/>
</g>
<g>
	<circle style="fill:#F9A908;" cx="24.8" cy="116.8" r="8.8"/>
	<circle style="fill:#F9A908;" cx="50.4" cy="88.8" r="4.8"/>
	<circle style="fill:#F9A908;" cx="460" cy="136" r="1.6"/>
	<circle style="fill:#F9A908;" cx="453.6" cy="112.8" r="6.4"/>
	<path style="fill:#F9A908;" d="M478.4,116.8c0,2.4-1.6,4-4,4s-4-1.6-4-4c0-2.4,1.6-4,4-4C476,112.8,478.4,115.2,478.4,116.8z"/>
	<circle style="fill:#F9A908;" cx="34.4" cy="140.8" r="4.8"/>
</g>
<path style="fill:#99144A;" d="M150.4,320c0-76.8,41.6-57.6,92.8-57.6S336,255.2,336,320c0,32-41.6-56-92.8-56
	C192,264.8,150.4,352,150.4,320z"/>
<path style="fill:#0EB2CC;" d="M355.2,254.4L355.2,254.4l-2.4-43.2l32.8,28l0,0c1.6,1.6,4,4,4.8,6.4c4.8,9.6,0.8,20.8-8,24.8
	c-9.6,4.8-20.8,0.8-24.8-8C356,260,355.2,256.8,355.2,254.4z"/>
<path style="fill:#19DAF4;" d="M382.4,270.4c-9.6,4.8-20.8,0.8-24.8-8c-1.6-2.4-1.6-4.8-1.6-8l0,0l-2.4-43.2"/>
<g>
</g>
<g>
</g>
<g>
</g>
<g>
</g>
<g>
</g>
<g>
</g>
<g>
</g>
<g>
</g>
<g>
</g>
<g>
</g>
<g>
</g>
<g>
</g>
<g>
</g>
<g>
</g>
<g>
</g>
</svg>
