<?xml version="1.0" encoding="iso-8859-1"?>
<!-- Generator: Adobe Illustrator 19.0.0, SVG Export Plug-In . SVG Version: 6.00 Build 0)  -->
<svg version="1.1" id="Layer_1" xmlns="http://www.w3.org/2000/svg" xmlns:xlink="http://www.w3.org/1999/xlink" x="0px" y="0px"
	 viewBox="0 0 512 512" style="enable-background:new 0 0 512 512;" xml:space="preserve">
<circle style="fill:#CCE7A0;" cx="256.001" cy="256.001" r="245.994"/>
<path style="fill:#AED893;" d="M308.715,465.678c-135.858,0-245.993-110.134-245.993-245.993
	c0-72.584,31.443-137.816,81.444-182.842C64.527,77.562,10.007,160.414,10.007,256c0,135.858,110.134,245.993,245.993,245.993
	c63.274,0,120.962-23.898,164.549-63.149C386.996,455.999,348.987,465.678,308.715,465.678z"/>
<circle style="fill:#7F184C;" cx="315.805" cy="361.319" r="52.868"/>
<path d="M471.984,118.515c-25.477-39.945-61.409-72.014-103.912-92.74c-4.972-2.424-10.957-0.358-13.381,4.609
	c-2.422,4.968-0.36,10.959,4.609,13.38c39.185,19.109,72.316,48.678,95.81,85.513c24.124,37.821,36.876,81.643,36.876,126.724
	c0,130.124-105.863,235.984-235.985,235.984S20.015,386.124,20.015,256.001S125.876,20.015,256,20.015
	c5.528,0,10.007-4.479,10.007-10.007S261.528,0,256,0C114.84,0,0,114.842,0,256.001C0,397.16,114.84,512,256,512
	s256-114.84,256-255.999C512,207.099,498.163,159.556,471.984,118.515z"/>
<path d="M314.899,424.198c34.669,0,62.877-28.206,62.877-62.876s-28.207-62.876-62.877-62.876s-62.876,28.206-62.876,62.876
	S280.23,424.198,314.899,424.198z M314.899,318.462c23.635,0,42.862,19.227,42.862,42.861c0,23.633-19.227,42.861-42.862,42.861
	c-23.633,0-42.861-19.227-42.861-42.861S291.267,318.462,314.899,318.462z"/>
<path d="M188.046,236.771c1.953,1.953,4.515,2.93,7.076,2.93c2.561,0,5.122-0.977,7.076-2.93l19.027-19.027l19.027,19.027
	c1.955,1.953,4.517,2.93,7.077,2.93c2.561,0,5.122-0.977,7.077-2.93c3.908-3.91,3.908-10.245,0-14.153l-19.027-19.026l19.027-19.026
	c3.908-3.91,3.908-10.245,0-14.153c-3.908-3.906-10.244-3.908-14.153,0l-19.027,19.027l-19.027-19.027
	c-3.908-3.907-10.245-3.907-14.152,0c-3.908,3.91-3.908,10.245,0,14.153l19.027,19.026l-19.027,19.026
	C184.137,226.528,184.137,232.863,188.046,236.771z"/>
<path d="M377.517,236.771c1.955,1.953,4.515,2.93,7.077,2.93c2.561,0,5.122-0.977,7.077-2.93l19.027-19.026l19.027,19.026
	c1.955,1.953,4.517,2.93,7.077,2.93s5.122-0.977,7.077-2.93c3.908-3.91,3.908-10.245,0-14.153l-19.027-19.026l19.027-19.026
	c3.908-3.91,3.908-10.245,0-14.153c-3.908-3.906-10.244-3.908-14.153,0L410.7,189.439l-19.027-19.026
	c-3.91-3.907-10.245-3.907-14.153,0c-3.908,3.91-3.908,10.245,0,14.153l19.027,19.026l-19.027,19.026
	C373.609,226.528,373.609,232.863,377.517,236.771z"/>
<circle cx="327.841" cy="20.595" r="10.007"/>
<g>
</g>
<g>
</g>
<g>
</g>
<g>
</g>
<g>
</g>
<g>
</g>
<g>
</g>
<g>
</g>
<g>
</g>
<g>
</g>
<g>
</g>
<g>
</g>
<g>
</g>
<g>
</g>
<g>
</g>
</svg>
