<?xml version="1.0" encoding="iso-8859-1"?>
<!-- Generator: Adobe Illustrator 19.0.0, SVG Export Plug-In . SVG Version: 6.00 Build 0)  -->
<svg version="1.1" id="Layer_1" xmlns="http://www.w3.org/2000/svg" xmlns:xlink="http://www.w3.org/1999/xlink" x="0px" y="0px"
	 viewBox="0 0 484.8 484.8" style="enable-background:new 0 0 484.8 484.8;" xml:space="preserve">
<ellipse transform="matrix(-0.2737 -0.9618 0.9618 -0.2737 -292.125 596.7926)" style="fill:#EA7103;" cx="79.266" cy="408.693" rx="67.999" ry="70.399"/>
<g>
	<path style="fill:#F7910B;" d="M484.8,283.908c0,104-95.2,188-242.4,188s-242.4-84-242.4-188s95.2-260,242.4-260
		S484.8,179.908,484.8,283.908z"/>
	<path style="fill:#F7910B;" d="M484.8,283.908c0,104-95.2,156-242.4,156s-242.4-52-242.4-156s95.2-276,242.4-276
		S484.8,179.908,484.8,283.908z"/>
</g>
<g>
	<path style="fill:#F9A908;" d="M242.4,7.908c147.2,0,242.4,172,242.4,276s-95.2,156-242.4,156"/>
	<path style="fill:#F9A908;" d="M484.8,283.908c0,104-95.2,156-242.4,156s-242.4-52-242.4-156s95.2-260,242.4-260
		S484.8,179.908,484.8,283.908z"/>
</g>
<path style="fill:#F9C55D;" d="M0,283.908c0-104,95.2-260,242.4-260"/>
<path style="fill:#F7910B;" d="M242.4,23.908c147.2,0,242.4,156,242.4,260s-95.2,188-242.4,188"/>
<g>
	<path style="fill:#EA7103;" d="M242.4,23.908c147.2,0,242.4,156,242.4,260"/>
	<circle style="fill:#EA7103;" cx="159.2" cy="189.508" r="25.6"/>
	<circle style="fill:#EA7103;" cx="325.6" cy="189.508" r="25.6"/>
</g>
<circle style="fill:#1E4784;" cx="159.2" cy="182.308" r="25.6"/>
<path style="fill:#00233F;" d="M159.2,156.708c14.4,0,25.6,11.2,25.6,25.6s-11.2,25.6-25.6,25.6"/>
<circle style="fill:#1E4784;" cx="325.6" cy="182.308" r="25.6"/>
<path style="fill:#00233F;" d="M325.6,156.708c14.4,0,25.6,11.2,25.6,25.6s-11.2,25.6-25.6,25.6"/>
<g>
	<path style="fill:#19BCA4;" d="M188,131.908c-2.4,6.4-12-1.6-25.6-7.2c-13.6-5.6-25.6-7.2-22.4-13.6c2.4-6.4,16-7.2,28.8-1.6
		C182.4,115.908,190.4,126.308,188,131.908z"/>
	<path style="fill:#19BCA4;" d="M296,103.108c3.2,6.4,12-2.4,24.8-9.6s24.8-9.6,21.6-15.2c-3.2-6.4-16-5.6-28.8,1.6
		C300,86.308,292.8,96.708,296,103.108z"/>
</g>
<g>
	<path style="fill:#109DA0;" d="M188,131.908c-2.4,6.4-12-1.6-25.6-7.2c-13.6-5.6-25.6-7.2-22.4-13.6"/>
	<path style="fill:#109DA0;" d="M296,103.108c3.2,6.4,12-2.4,24.8-9.6s24.8-9.6,21.6-15.2"/>
</g>
<path style="fill:#F9C55D;" d="M208.8,230.308c0,9.6-28,5.6-62.4,5.6s-62.4,4.8-62.4-5.6c0-9.6,28-17.6,62.4-17.6
	S208.8,220.708,208.8,230.308z"/>
<path style="fill:#F9A908;" d="M400.8,230.308c0,9.6-28,5.6-62.4,5.6s-62.4,4.8-62.4-5.6c0-9.6,28-17.6,62.4-17.6
	S400.8,220.708,400.8,230.308z"/>
<g>
	<circle style="fill:#F7910B;" cx="68.8" cy="259.908" r="4.8"/>
	<circle style="fill:#F7910B;" cx="32.8" cy="275.908" r="8.8"/>
	<circle style="fill:#F7910B;" cx="56.8" cy="243.908" r="1.6"/>
	<circle style="fill:#F7910B;" cx="93.6" cy="258.308" r="1.6"/>
</g>
<g>
	<circle style="fill:#F9A908;" cx="407.2" cy="262.308" r="6.4"/>
	<circle style="fill:#F9A908;" cx="427.2" cy="273.508" r="1.6"/>
	<circle style="fill:#F9A908;" cx="384.8" cy="203.108" r="2.4"/>
	<circle style="fill:#F9A908;" cx="380.8" cy="295.908" r="10.4"/>
	<circle style="fill:#F9A908;" cx="438.4" cy="296.708" r="4.8"/>
</g>
<g>
	<circle style="fill:#F7910B;" cx="60.8" cy="291.908" r="4"/>
	<circle style="fill:#F7910B;" cx="67.2" cy="224.708" r="3.2"/>
</g>
<g>
	<circle style="fill:#F9A908;" cx="24.8" cy="114.308" r="8.8"/>
	<circle style="fill:#F9A908;" cx="50.4" cy="86.308" r="4.8"/>
	<circle style="fill:#F9A908;" cx="460" cy="133.508" r="1.6"/>
	<circle style="fill:#F9A908;" cx="453.6" cy="110.308" r="6.4"/>
	<circle style="fill:#F9A908;" cx="474.4" cy="114.308" r="4"/>
	<circle style="fill:#F9A908;" cx="34.4" cy="138.308" r="4.8"/>
</g>
<path style="fill:#CCF2E3;" d="M184,324.708c2.4,59.2-12,44.8-28.8,45.6c-16.8,0.8-30.4,16.8-32.8-42.4c-2.4-59.2,10.4-83.2,27.2-84
	C167.2,243.108,181.6,265.508,184,324.708z"/>
<path style="fill:#AAD6C3;" d="M150.4,243.908c16.8-0.8,32,22.4,34.4,81.6s-12,44.8-28.8,45.6"/>
<path style="fill:#CCF2E3;" d="M186.4,363.908c2.4,54.4-24,101.6-79.2,104s-101.6-40-104-94.4s41.6-76.8,96.8-79.2
	C154.4,291.908,184,309.508,186.4,363.908z"/>
<path style="fill:#AAD6C3;" d="M186.4,363.908c2.4,54.4-24,101.6-79.2,104s-76.8-45.6-76.8-100c0-42.4-20-64.8,66.4-73.6
	C151.2,289.508,184,307.908,186.4,363.908z"/>
<path style="fill:#CCF2E3;" d="M220.8,354.308c13.6,15.2-6.4,53.6-43.2,85.6s-77.6,32-91.2,16.8c-12.8-15.2,6.4-39.2,43.2-72
	C167.2,352.708,208,339.108,220.8,354.308z"/>
<path style="fill:#AAD6C3;" d="M220.8,354.308c13.6,15.2-6.4,53.6-43.2,85.6s-77.6,32-91.2,16.8"/>
<g>
	<path style="fill:#E7F7EF;" d="M133.6,264.708c-3.2,8-4,14.4-1.6,16c2.4,0.8,7.2-4.8,10.4-12c3.2-8,4-14.4,1.6-16
		S136.8,256.708,133.6,264.708z"/>
	<path style="fill:#E7F7EF;" d="M21.6,359.108c0.8,17.6-1.6,32.8-5.6,32.8s-8-14.4-9.6-32c-0.8-17.6,1.6-22.4,5.6-22.4
		C17.6,336.708,20.8,340.708,21.6,359.108z"/>
	<path style="fill:#E7F7EF;" d="M168,365.508c12.8-8,24.8-12,27.2-8.8s-6.4,12.8-19.2,20.8s-17.6,7.2-20,4
		C154.4,378.308,155.2,373.508,168,365.508z"/>
</g>
<path style="fill:#CCF2E3;" d="M93.6,330.308c2.4,21.6-0.8,40-8,40.8s-14.4-16-16.8-37.6s2.4-28.8,8.8-29.6
	C84.8,303.108,91.2,308.708,93.6,330.308z"/>
<path style="fill:#E7F7EF;" d="M72,331.108c0,8,2.4,15.2,5.6,15.2c2.4,0,4-7.2,4-15.2s-2.4-15.2-5.6-15.2
	C73.6,315.908,72,323.108,72,331.108z"/>
<path style="fill:#F7910B;" d="M301.6,268.708c0,20.8-26.4,37.6-59.2,37.6s-59.2-16.8-59.2-37.6"/>
<path style="fill:#02243E;" d="M298.4,274.308h-112c-4.8,0-8-3.2-8-8s3.2-8,8-8h112c4.8,0,8,3.2,8,8S303.2,274.308,298.4,274.308z"
	/>
<g>
</g>
<g>
</g>
<g>
</g>
<g>
</g>
<g>
</g>
<g>
</g>
<g>
</g>
<g>
</g>
<g>
</g>
<g>
</g>
<g>
</g>
<g>
</g>
<g>
</g>
<g>
</g>
<g>
</g>
</svg>
