<?xml version="1.0" encoding="iso-8859-1"?>
<!-- Generator: Adobe Illustrator 19.0.0, SVG Export Plug-In . SVG Version: 6.00 Build 0)  -->
<svg version="1.1" id="Layer_1" xmlns="http://www.w3.org/2000/svg" xmlns:xlink="http://www.w3.org/1999/xlink" x="0px" y="0px"
	 viewBox="0 0 484.8 484.8" style="enable-background:new 0 0 484.8 484.8;" xml:space="preserve">
<g>
	<path style="fill:#F7910B;" d="M484.8,286.4c0,104-95.2,188-242.4,188S0,390.4,0,286.4s95.2-260,242.4-260S484.8,182.4,484.8,286.4
		z"/>
	<path style="fill:#F7910B;" d="M484.8,286.4c0,104-95.2,156-242.4,156S0,390.4,0,286.4s95.2-276,242.4-276S484.8,182.4,484.8,286.4
		z"/>
</g>
<g>
	<path style="fill:#F9A908;" d="M242.4,10.4c147.2,0,242.4,172,242.4,276s-95.2,156-242.4,156"/>
	<path style="fill:#F9A908;" d="M484.8,286.4c0,104-95.2,156-242.4,156S0,390.4,0,286.4s95.2-260,242.4-260S484.8,182.4,484.8,286.4
		z"/>
</g>
<path style="fill:#F9C55D;" d="M0,286.4c0-104,95.2-260,242.4-260"/>
<path style="fill:#F7910B;" d="M242.4,26.4c147.2,0,242.4,156,242.4,260s-95.2,188-242.4,188"/>
<path style="fill:#EA7103;" d="M242.4,26.4c147.2,0,242.4,156,242.4,260"/>
<path style="fill:#F9C55D;" d="M208.8,151.2c0,9.6-28,5.6-62.4,5.6S84,161.6,84,151.2s28-17.6,62.4-17.6S208.8,141.6,208.8,151.2z"
	/>
<path style="fill:#F9A908;" d="M400.8,151.2c0,9.6-28,5.6-62.4,5.6s-62.4,4.8-62.4-5.6s28-17.6,62.4-17.6S400.8,141.6,400.8,151.2z"
	/>
<g>
	<circle style="fill:#F7910B;" cx="68.8" cy="262.4" r="4.8"/>
	<circle style="fill:#F7910B;" cx="32.8" cy="278.4" r="8.8"/>
	<circle style="fill:#F7910B;" cx="56.8" cy="246.4" r="1.6"/>
	<circle style="fill:#F7910B;" cx="93.6" cy="260.8" r="1.6"/>
</g>
<g>
	<circle style="fill:#F9A908;" cx="407.2" cy="264.8" r="6.4"/>
	<circle style="fill:#F9A908;" cx="427.2" cy="276" r="1.6"/>
	<circle style="fill:#F9A908;" cx="384.8" cy="205.6" r="2.4"/>
	<circle style="fill:#F9A908;" cx="380.8" cy="298.4" r="10.4"/>
	<circle style="fill:#F9A908;" cx="438.4" cy="299.2" r="4.8"/>
</g>
<g>
	<circle style="fill:#F7910B;" cx="60.8" cy="294.4" r="4"/>
	<circle style="fill:#F7910B;" cx="67.2" cy="227.2" r="3.2"/>
</g>
<g>
	<circle style="fill:#061C33;" cx="24.8" cy="116.8" r="8.8"/>
	<circle style="fill:#061C33;" cx="50.4" cy="88.8" r="4.8"/>
	<circle style="fill:#061C33;" cx="460" cy="136" r="1.6"/>
	<circle style="fill:#061C33;" cx="453.6" cy="112.8" r="6.4"/>
	<circle style="fill:#061C33;" cx="474.4" cy="116.8" r="4"/>
	<circle style="fill:#061C33;" cx="34.4" cy="140.8" r="4.8"/>
</g>
<g>
	<path style="fill:#037A66;" d="M191.2,72.8c2.4,7.2-11.2,7.2-26.4,12s-26.4,12-28.8,4.8c-2.4-7.2,8-16.8,23.2-21.6
		C174.4,64,188.8,65.6,191.2,72.8z"/>
	<path style="fill:#037A66;" d="M293.6,72.8c-2.4,7.2,11.2,7.2,26.4,12c15.2,4.8,26.4,12,28.8,4.8s-8-16.8-23.2-21.6
		C310.4,64,296,65.6,293.6,72.8z"/>
</g>
<path style="fill:#F7910B;" d="M284.8,205.6c0,5.6-19.2,32-42.4,32s-41.6-26.4-41.6-32s19.2-0.8,41.6-0.8
	C265.6,204.8,284.8,200,284.8,205.6z"/>
<path style="fill:#99144A;" d="M200.8,204.8c0-5.6,19.2-10.4,41.6-10.4c23.2,0,41.6,4.8,41.6,10.4c0,5.6-19.2,0.8-41.6,0.8
	C219.2,205.6,200.8,210.4,200.8,204.8z"/>
<path style="fill:#02598E;" d="M242.4,10.4C95.2,10.4,0,182.4,0,286.4s95.2,188,242.4,188s242.4-84,242.4-188S389.6,10.4,242.4,10.4
	z M242.4,278.4c-39.2,0-72-31.2-72-70.4c0-38.4,32-42.4,72-42.4s72,4,72,42.4C314.4,247.2,281.6,278.4,242.4,278.4z"/>
<path style="fill:#061C33;" d="M242.4,32.8c-141.6,0-236,160-242.4,264.8C6.4,396,100.8,474.4,242.4,474.4s236-78.4,242.4-176.8
	C478.4,192.8,384,32.8,242.4,32.8z M314.4,231.2c0,38.4-32,70.4-72,70.4s-72-31.2-72-70.4c0-4,0.8-7.2,0.8-11.2c-0.8-4-0.8-8-0.8-12
	c0-38.4,32-42.4,72-42.4s72,4,72,42.4c0,4-0.8,8-0.8,12C313.6,223.2,314.4,227.2,314.4,231.2z"/>
<path style="fill:#F8FCFF;" d="M364.8,152.8c-3.2,0-6.4-1.6-9.6-4c-11.2-11.2-29.6-11.2-40.8,0c-4.8,4.8-13.6,5.6-18.4,0
	c-4.8-4.8-5.6-13.6,0-18.4c21.6-21.6,56.8-21.6,78.4,0c4.8,4.8,4.8,13.6,0,18.4C371.2,152,368,152.8,364.8,152.8z"/>
<path style="fill:#E7E8CD;" d="M373.6,130.4c4.8,4.8,4.8,13.6,0,18.4c-2.4,2.4-5.6,4-9.6,4c-3.2,0-6.4-1.6-9.6-4
	c-11.2-11.2-29.6-11.2-40.8,0c-4.8,4.8-13.6,5.6-18.4,0c-4.8-4.8-5.6-13.6,0-18.4"/>
<path style="fill:#F8FCFF;" d="M120,152.8c3.2,0,6.4-1.6,9.6-4c11.2-11.2,29.6-11.2,40.8,0c4.8,4.8,13.6,5.6,18.4,0
	c4.8-4.8,5.6-13.6,0-18.4c-21.6-21.6-56.8-21.6-78.4,0c-4.8,4.8-4.8,13.6,0,18.4C113.6,152,116.8,152.8,120,152.8z"/>
<path style="fill:#E7E8CD;" d="M111.2,130.4c-4.8,4.8-4.8,13.6,0,18.4c2.4,2.4,5.6,4,9.6,4c3.2,0,6.4-1.6,9.6-4
	c11.2-11.2,29.6-11.2,40.8,0c4.8,4.8,13.6,5.6,18.4,0c4.8-4.8,5.6-13.6,0-18.4"/>
<polygon style="fill:#02598E;" points="46.4,172.8 46.4,10.4 128,92 "/>
<polygon style="fill:#061C33;" points="38.4,172.8 75.2,90.4 46.4,10.4 128,92 "/>
<polygon style="fill:#02598E;" points="438.4,172.8 438.4,10.4 356.8,92 "/>
<polygon style="fill:#061C33;" points="446.4,172.8 409.6,90.4 438.4,10.4 356.8,92 "/>
<g>
	<path style="fill:#02598E;" d="M230.4,130.4L156,84c0,0,16-15.2,32.8-11.2S230.4,130.4,230.4,130.4z"/>
	<path style="fill:#02598E;" d="M254.4,130.4L328,84c0,0-16-15.2-32.8-11.2C279.2,76.8,254.4,130.4,254.4,130.4z"/>
	<ellipse style="fill:#02598E;" cx="145.6" cy="164" rx="46.4" ry="8.8"/>
	<ellipse style="fill:#02598E;" cx="339.2" cy="164" rx="46.4" ry="8.8"/>
</g>
<g>
	<path style="fill:#F8FCFF;" d="M289.6,385.6c0,31.2-20.8,40.8-47.2,40.8s-47.2-9.6-47.2-40.8s21.6-56.8,47.2-56.8
		S289.6,354.4,289.6,385.6z"/>
	<polygon style="fill:#F8FCFF;" points="203.2,372 163.2,340 97.6,384 144.8,378.4 149.6,396.8 165.6,380.8 179.2,400 183.2,382.4 
		203.2,396.8 	"/>
	<polygon style="fill:#F8FCFF;" points="281.6,372 321.6,340 387.2,384 340,378.4 335.2,396.8 319.2,380.8 305.6,400 301.6,382.4 
		281.6,396.8 	"/>
</g>
<g>
</g>
<g>
</g>
<g>
</g>
<g>
</g>
<g>
</g>
<g>
</g>
<g>
</g>
<g>
</g>
<g>
</g>
<g>
</g>
<g>
</g>
<g>
</g>
<g>
</g>
<g>
</g>
<g>
</g>
</svg>
