<?xml version="1.0" encoding="iso-8859-1"?>
<!-- Generator: Adobe Illustrator 19.0.0, SVG Export Plug-In . SVG Version: 6.00 Build 0)  -->
<svg version="1.1" id="Layer_1" xmlns="http://www.w3.org/2000/svg" xmlns:xlink="http://www.w3.org/1999/xlink" x="0px" y="0px"
	 viewBox="0 0 484.8 484.8" style="enable-background:new 0 0 484.8 484.8;" xml:space="preserve">
<g>
	<path style="fill:#F7910B;" d="M484.8,286c0,104-95.2,188-242.4,188S0,390,0,286S95.2,26,242.4,26S484.8,182,484.8,286z"/>
	<path style="fill:#F7910B;" d="M484.8,286c0,104-95.2,156-242.4,156S0,390,0,286S95.2,10,242.4,10S484.8,182,484.8,286z"/>
</g>
<g>
	<path style="fill:#F9A908;" d="M242.4,10c147.2,0,242.4,172,242.4,276s-95.2,156-242.4,156"/>
	<path style="fill:#F9A908;" d="M484.8,286c0,104-95.2,156-242.4,156S0,390,0,286S95.2,26,242.4,26S484.8,182,484.8,286z"/>
</g>
<path style="fill:#F9C55D;" d="M0,286C0,182,95.2,26,242.4,26"/>
<path style="fill:#F7910B;" d="M242.4,26c147.2,0,242.4,156,242.4,260s-95.2,188-242.4,188"/>
<path style="fill:#EA7103;" d="M242.4,26c147.2,0,242.4,156,242.4,260"/>
<g>
	<circle style="fill:#F7910B;" cx="68.8" cy="262" r="4.8"/>
	<circle style="fill:#F7910B;" cx="32.8" cy="278" r="8.8"/>
	<circle style="fill:#F7910B;" cx="56.8" cy="246" r="1.6"/>
	<circle style="fill:#F7910B;" cx="93.6" cy="260.4" r="1.6"/>
</g>
<g>
	<circle style="fill:#F9A908;" cx="407.2" cy="264.4" r="6.4"/>
	<circle style="fill:#F9A908;" cx="427.2" cy="275.6" r="1.6"/>
	<circle style="fill:#F9A908;" cx="384.8" cy="205.2" r="2.4"/>
	<circle style="fill:#F9A908;" cx="380.8" cy="298" r="10.4"/>
	<circle style="fill:#F9A908;" cx="438.4" cy="298.8" r="4.8"/>
</g>
<g>
	<circle style="fill:#F7910B;" cx="60.8" cy="294" r="4"/>
	<circle style="fill:#F7910B;" cx="67.2" cy="226.8" r="3.2"/>
</g>
<g>
	<circle style="fill:#F9A908;" cx="24.8" cy="116.4" r="8.8"/>
	<circle style="fill:#F9A908;" cx="50.4" cy="88.4" r="4.8"/>
	<circle style="fill:#F9A908;" cx="460" cy="135.6" r="1.6"/>
	<circle style="fill:#F9A908;" cx="453.6" cy="112.4" r="6.4"/>
	<circle style="fill:#F9A908;" cx="474.4" cy="116.4" r="4"/>
	<circle style="fill:#F9A908;" cx="34.4" cy="140.4" r="4.8"/>
</g>
<path style="fill:#F7910B;" d="M301.6,219.6c0,20.8-26.4,57.6-59.2,57.6s-59.2-36.8-59.2-57.6"/>
<g>
	<circle style="fill:#D87703;" cx="151.2" cy="156.4" r="28"/>
	<path style="fill:#D87703;" d="M361.6,156.4c0,15.2-12.8,28-28,28s-28-12.8-28-28s12.8-28,28-28
		C349.6,128.4,361.6,141.2,361.6,156.4z"/>
</g>
<circle style="fill:#1E4784;" cx="151.2" cy="148.4" r="28"/>
<path style="fill:#00233F;" d="M151.2,120.4c15.2,0,28,12.8,28,28s-12.8,28-28,28"/>
<path style="fill:#1E4784;" d="M361.6,148.4c0,15.2-12.8,28-28,28s-28-12.8-28-28s12.8-28,28-28
	C349.6,120.4,361.6,133.2,361.6,148.4z"/>
<path style="fill:#00233F;" d="M333.6,120.4c15.2,0,28,12.8,28,28s-12.8,28-28,28"/>
<path style="fill:#F9A908;" d="M118.4,142.8c0-18.4,14.4-40.8,32.8-40.8s32.8,22.4,32.8,40.8"/>
<path style="fill:#F7910B;" d="M300.8,142.8c0-18.4,14.4-40.8,32.8-40.8s32.8,22.4,32.8,40.8"/>
<path style="fill:#F9C55D;" d="M208.8,194.8c0,9.6-28,5.6-62.4,5.6S84,205.2,84,194.8s28-17.6,62.4-17.6S208.8,185.2,208.8,194.8z"
	/>
<path style="fill:#F9A908;" d="M400.8,194.8c0,9.6-28,5.6-62.4,5.6s-62.4,4.8-62.4-5.6s28-17.6,62.4-17.6S400.8,185.2,400.8,194.8z"
	/>
<g>
	<path style="fill:#19BCA4;" d="M199.2,141.2c-2.4,8.8-18.4-0.8-40-6.4c-21.6-6.4-40-6.4-37.6-15.2c2.4-8.8,21.6-10.4,43.2-4.8
		C185.6,120.4,201.6,132.4,199.2,141.2z"/>
	<path style="fill:#19BCA4;" d="M288.8,116.4c3.2,8,18.4-3.2,39.2-12c20.8-8.8,39.2-12,35.2-20c-3.2-8-23.2-8-44,1.6
		C299.2,94.8,285.6,108.4,288.8,116.4z"/>
</g>
<path style="fill:#02243E;" d="M260,224.4h-34.4c-4.8,0-8.8-4-8.8-8.8s4-8.8,8.8-8.8H260c4.8,0,8.8,4,8.8,8.8S264.8,224.4,260,224.4
	z"/>
<path style="fill:#FFFCEE;" d="M16,200.4v246.4c0,20.8,20,28,44.8,28H172c24.8,0,44.8-7.2,44.8-28V200.4H16z"/>
<path style="fill:#E8E3CD;" d="M172,474c24.8,0,44.8-7.2,44.8-28V200.4H16"/>
<path style="fill:#F4CF31;" d="M33.6,249.2v188c0,16.8,16.8,23.2,36.8,23.2h92c20.8,0,36.8-5.6,36.8-23.2v-188H33.6z"/>
<path style="fill:#F2B233;" d="M162.4,460.4c20.8,0,36.8-5.6,36.8-23.2v-188H33.6"/>
<g>
	<path style="fill:#F7DF77;" d="M75.2,428.4c0,4.8-3.2,8.8-7.2,8.8l0,0c-4,0-7.2-4-7.2-8.8v-196c0-4.8,3.2-8.8,7.2-8.8l0,0
		c4,0,7.2,4,7.2,8.8V428.4z"/>
	<path style="fill:#F7DF77;" d="M124,428.4c0,4.8-3.2,8.8-7.2,8.8l0,0c-4,0-7.2-4-7.2-8.8v-196c0-4.8,3.2-8.8,7.2-8.8l0,0
		c4,0,7.2,4,7.2,8.8V428.4z"/>
	<path style="fill:#F7DF77;" d="M172,428.4c0,4.8-3.2,8.8-7.2,8.8l0,0c-4,0-7.2-4-7.2-8.8v-196c0-4.8,3.2-8.8,7.2-8.8l0,0
		c4,0,7.2,4,7.2,8.8V428.4z"/>
</g>
<ellipse style="fill:#FCF0BE;" cx="91.2" cy="208.4" rx="32" ry="26.4"/>
<path style="fill:#F9F9D9;" d="M224,192.4c3.2-3.2,4.8-7.2,4.8-11.2c0-10.4-9.6-18.4-22.4-18.4c-5.6,0-9.6,1.6-13.6,4
	c-4-2.4-8.8-3.2-14.4-3.2c-6.4,0-12.8,2.4-17.6,5.6c-4-4-10.4-6.4-16.8-6.4c-4.8,0-9.6,1.6-12.8,4c-2.4-0.8-5.6-1.6-8-1.6
	s-4,0-6.4,0.8c-1.6-0.8-4-0.8-6.4-0.8c-3.2,0-5.6,0.8-8,1.6c-4-2.4-8-4-12.8-4c-7.2,0-12.8,2.4-16.8,6.4c-4.8-3.2-10.4-5.6-17.6-5.6
	c-4.8,0-9.6,1.6-13.6,3.2c-4-2.4-8.8-4-13.6-4c-12,0-22.4,8-22.4,18.4c0,4,1.6,8,4.8,11.2c-5.6,4.8-9.6,11.2-9.6,19.2
	c0,14.4,14.4,26.4,32,26.4c4,0,8.8-0.8,12-2.4C50.4,242,59.2,246,69.6,246c11.2,0,20-4.8,26.4-11.2c3.2,4.8,10.4,8,17.6,8
	c1.6,0,3.2,0,4.8-0.8c1.6,0,3.2,0.8,4.8,0.8c7.2,0,13.6-3.2,17.6-8c5.6,7.2,15.2,11.2,26.4,11.2c10.4,0,19.2-4,24.8-10.4
	c4,1.6,8,2.4,12,2.4c17.6,0,32-12,32-26.4C233.6,203.6,229.6,197.2,224,192.4z"/>
<path style="fill:#FFF399;" d="M101.6,275.6c0,3.2-2.4,4.8-6.4,4.8s-6.4-2.4-6.4-4.8c0-3.2,2.4-4.8,6.4-4.8S101.6,273.2,101.6,275.6
	z"/>
<ellipse style="fill:#F2B233;" cx="90.4" cy="395.6" rx="6.4" ry="4.8"/>
<g>
	<ellipse style="fill:#FFF399;" cx="88" cy="295.6" rx="4" ry="3.2"/>
	<ellipse style="fill:#FFF399;" cx="85.6" cy="359.6" rx="4" ry="3.2"/>
	<path style="fill:#FFF399;" d="M97.6,306.8c0,1.6-1.6,2.4-3.2,2.4s-3.2-0.8-3.2-2.4s1.6-2.4,3.2-2.4S97.6,305.2,97.6,306.8z"/>
</g>
<ellipse style="fill:#F2B233;" cx="82.4" cy="347.6" rx="3.2" ry="2.4"/>
<g>
	<ellipse style="fill:#FFF399;" cx="102.4" cy="383.6" rx="2.4" ry="1.6"/>
	<ellipse style="fill:#FFF399;" cx="88.8" cy="375.6" rx="2.4" ry="1.6"/>
</g>
<ellipse style="fill:#F2B233;" cx="92" cy="366" rx="2.4" ry="1.6"/>
<g>
	<path style="fill:#FFF0B3;" d="M47.2,437.2c0,1.6-1.6,3.2-4,3.2l0,0c-2.4,0-4-1.6-4-3.2V326c0-1.6,1.6-3.2,4-3.2l0,0
		c2.4,0,4,1.6,4,3.2V437.2z"/>
	<path style="fill:#FFF0B3;" d="M47.2,311.6c0,0.8-1.6,0.8-4,0.8l0,0c-2.4,0-4-0.8-4-0.8v-36c0-0.8,1.6-0.8,4-0.8l0,0
		c2.4,0,4,0.8,4,0.8V311.6z"/>
</g>
<path style="fill:#FCF0BE;" d="M224,192.4c3.2-3.2,4.8-7.2,4.8-11.2c0-10.4-9.6-18.4-22.4-18.4c-5.6,0-9.6,1.6-13.6,4
	c-4-2.4-8.8-3.2-14.4-3.2c-6.4,0-12.8,2.4-17.6,5.6c-4-4-10.4-6.4-16.8-6.4c-4.8,0-9.6,1.6-12.8,4c-2.4-0.8-5.6-1.6-8-1.6
	c-1.6,0-4,0-5.6,0.8v76c1.6,0,2.4,0.8,4,0.8c7.2,0,13.6-3.2,17.6-8c5.6,7.2,15.2,11.2,26.4,11.2c10.4,0,19.2-4,24.8-10.4
	c4,1.6,8,2.4,12,2.4c17.6,0,32-12,32-26.4C233.6,203.6,229.6,197.2,224,192.4z"/>
<path style="fill:#FFFCEE;" d="M219.2,251.6c-0.8,0-1.6,0-1.6,0v15.2c0.8,0,1.6,0,1.6,0c12,0,21.6,8,21.6,18.4v99.2
	c0,9.6-9.6,18.4-21.6,18.4c-0.8,0-1.6,0-1.6,0V418c0.8,0,1.6,0,1.6,0c21.6,0,39.2-14.4,39.2-32.8V284.4
	C258.4,266.8,240.8,251.6,219.2,251.6z"/>
<g>
	<ellipse style="fill:#FFFFFF;" cx="25.6" cy="177.2" rx="9.6" ry="8"/>
	<path style="fill:#FFFFFF;" d="M70.4,182c0,4.8-4,8-9.6,8s-9.6-3.2-9.6-8c0-4,4-8,9.6-8S70.4,178,70.4,182z"/>
	<ellipse style="fill:#FFFFFF;" cx="22.4" cy="210" rx="4.8" ry="4"/>
</g>
<g>
</g>
<g>
</g>
<g>
</g>
<g>
</g>
<g>
</g>
<g>
</g>
<g>
</g>
<g>
</g>
<g>
</g>
<g>
</g>
<g>
</g>
<g>
</g>
<g>
</g>
<g>
</g>
<g>
</g>
</svg>
