<?xml version="1.0" encoding="iso-8859-1"?>
<!-- Generator: Adobe Illustrator 19.0.0, SVG Export Plug-In . SVG Version: 6.00 Build 0)  -->
<svg version="1.1" id="Layer_1" xmlns="http://www.w3.org/2000/svg" xmlns:xlink="http://www.w3.org/1999/xlink" x="0px" y="0px"
	 viewBox="0 0 484.8 484.8" style="enable-background:new 0 0 484.8 484.8;" xml:space="preserve">
<g>
	<path style="fill:#F7910B;" d="M484.8,286.4c0,104-95.2,188-242.4,188S0,390.4,0,286.4s95.2-260,242.4-260S484.8,182.4,484.8,286.4
		z"/>
	<path style="fill:#F7910B;" d="M484.8,286.4c0,104-95.2,156-242.4,156S0,390.4,0,286.4s95.2-276,242.4-276S484.8,182.4,484.8,286.4
		z"/>
</g>
<g>
	<path style="fill:#F9A908;" d="M242.4,10.4c147.2,0,242.4,172,242.4,276s-95.2,156-242.4,156"/>
	<path style="fill:#F9A908;" d="M484.8,286.4c0,104-95.2,156-242.4,156S0,390.4,0,286.4s95.2-260,242.4-260S484.8,182.4,484.8,286.4
		z"/>
</g>
<path style="fill:#F9C55D;" d="M0,286.4c0-104,95.2-260,242.4-260"/>
<path style="fill:#F7910B;" d="M242.4,26.4c147.2,0,242.4,156,242.4,260s-95.2,188-242.4,188"/>
<g>
	<path style="fill:#EA7103;" d="M242.4,26.4c147.2,0,242.4,156,242.4,260"/>
	<circle style="fill:#EA7103;" cx="159.2" cy="256.8" r="25.6"/>
	<circle style="fill:#EA7103;" cx="325.6" cy="256.8" r="25.6"/>
</g>
<circle style="fill:#1E4784;" cx="159.2" cy="249.6" r="25.6"/>
<path style="fill:#00233F;" d="M159.2,224c14.4,0,25.6,11.2,25.6,25.6c0,14.4-11.2,25.6-25.6,25.6"/>
<circle style="fill:#1E4784;" cx="325.6" cy="249.6" r="25.6"/>
<path style="fill:#00233F;" d="M325.6,224c14.4,0,25.6,11.2,25.6,25.6c0,14.4-11.2,25.6-25.6,25.6"/>
<g>
	<path style="fill:#FF4200;" d="M205.6,305.6c0,10.4-30.4,14.4-68.8,14.4c-37.6,0-68.8-4-68.8-14.4s30.4-19.2,68.8-19.2
		S205.6,295.2,205.6,305.6z"/>
	<path style="fill:#FF4200;" d="M416.8,305.6c0,10.4-30.4,14.4-68.8,14.4s-68.8-4-68.8-14.4s30.4-19.2,68.8-19.2
		S416.8,295.2,416.8,305.6z"/>
</g>
<g>
	<path style="fill:#19BCA4;" d="M192,114.4c0,7.2-11.2,4-26.4,4.8c-14.4,0.8-26.4,4.8-26.4-2.4s11.2-12.8,25.6-13.6
		C180,102.4,192,107.2,192,114.4z"/>
	<path style="fill:#19BCA4;" d="M292.8,114.4c0,7.2,11.2,4,26.4,4.8c14.4,0.8,26.4,4.8,26.4-2.4S334.4,104,320,103.2
		C304.8,102.4,292.8,107.2,292.8,114.4z"/>
</g>
<g>
	<path style="fill:#109DA0;" d="M192,114.4c0,7.2-11.2,4-26.4,4.8c-14.4,0.8-26.4,4.8-26.4-2.4"/>
	<path style="fill:#109DA0;" d="M292.8,114.4c0,7.2,11.2,4,26.4,4.8c14.4,0.8,26.4,4.8,26.4-2.4"/>
</g>
<g>
	<circle style="fill:#F7910B;" cx="68.8" cy="262.4" r="4.8"/>
	<circle style="fill:#F7910B;" cx="32.8" cy="278.4" r="8.8"/>
	<circle style="fill:#F7910B;" cx="56.8" cy="246.4" r="1.6"/>
	<circle style="fill:#F7910B;" cx="93.6" cy="260.8" r="1.6"/>
</g>
<g>
	<circle style="fill:#F9A908;" cx="407.2" cy="264.8" r="6.4"/>
	<circle style="fill:#F9A908;" cx="427.2" cy="276" r="1.6"/>
	<circle style="fill:#F9A908;" cx="384.8" cy="205.6" r="2.4"/>
	<circle style="fill:#F9A908;" cx="345.6" cy="196.8" r="10.4"/>
	<circle style="fill:#F9A908;" cx="438.4" cy="299.2" r="4.8"/>
</g>
<g>
	<circle style="fill:#F7910B;" cx="60.8" cy="294.4" r="4"/>
	<circle style="fill:#F7910B;" cx="67.2" cy="227.2" r="3.2"/>
</g>
<g>
	<circle style="fill:#F9A908;" cx="24.8" cy="116.8" r="8.8"/>
	<circle style="fill:#F9A908;" cx="50.4" cy="88.8" r="4.8"/>
	<circle style="fill:#F9A908;" cx="460" cy="136" r="1.6"/>
	<circle style="fill:#F9A908;" cx="453.6" cy="112.8" r="6.4"/>
	<circle style="fill:#F9A908;" cx="474.4" cy="116.8" r="4"/>
	<circle style="fill:#F9A908;" cx="34.4" cy="140.8" r="4.8"/>
</g>
<path style="fill:#F7910B;" d="M301.6,360c0,20.8-26.4,64.8-59.2,64.8s-59.2-44-59.2-64.8"/>
<path style="fill:#02243E;" d="M242.4,372c-28,0-52-6.4-63.2-17.6c-3.2-3.2-3.2-8.8,0-12.8c3.2-3.2,8.8-3.2,12.8,0
	c8,8,28,12.8,50.4,12.8s43.2-4.8,50.4-12.8c3.2-3.2,8.8-3.2,12.8,0c3.2,3.2,3.2,8.8,0,12.8C294.4,365.6,270.4,372,242.4,372z"/>
<g>
</g>
<g>
</g>
<g>
</g>
<g>
</g>
<g>
</g>
<g>
</g>
<g>
</g>
<g>
</g>
<g>
</g>
<g>
</g>
<g>
</g>
<g>
</g>
<g>
</g>
<g>
</g>
<g>
</g>
</svg>
