<?xml version="1.0" encoding="iso-8859-1"?>
<!-- Generator: Adobe Illustrator 19.0.0, SVG Export Plug-In . SVG Version: 6.00 Build 0)  -->
<svg version="1.1" id="Layer_1" xmlns="http://www.w3.org/2000/svg" xmlns:xlink="http://www.w3.org/1999/xlink" x="0px" y="0px"
	 viewBox="0 0 496 496" style="enable-background:new 0 0 496 496;" xml:space="preserve">
<g>
	
		<ellipse transform="matrix(-0.9504 -0.3109 0.3109 -0.9504 268.2361 879.8045)" style="fill:#EA7103;" cx="204.241" cy="418.523" rx="54.398" ry="77.597"/>
	
		<ellipse transform="matrix(-0.9504 0.3109 -0.3109 -0.9504 701.7774 723.9553)" style="fill:#EA7103;" cx="293.187" cy="417.912" rx="54.398" ry="77.597"/>
</g>
<g>
	<path style="fill:#F7910B;" d="M490.4,276c0,104-95.2,188-242.4,188S5.6,380,5.6,276S100.8,16,248,16S490.4,172,490.4,276z"/>
	<path style="fill:#F7910B;" d="M490.4,276c0,104-95.2,156-242.4,156S5.6,380,5.6,276S100.8,0,248,0S490.4,172,490.4,276z"/>
</g>
<g>
	<path style="fill:#F9A908;" d="M248,0c147.2,0,242.4,172,242.4,276S395.2,432,248,432"/>
	<path style="fill:#F9A908;" d="M490.4,276c0,104-95.2,156-242.4,156S5.6,380,5.6,276S100.8,16,248,16S490.4,172,490.4,276z"/>
</g>
<path style="fill:#F9C55D;" d="M5.6,276C5.6,172,100.8,16,248,16"/>
<path style="fill:#F7910B;" d="M248,16c147.2,0,242.4,156,242.4,260S395.2,464,248,464"/>
<g>
	<path style="fill:#EA7103;" d="M248,16c147.2,0,242.4,156,242.4,260"/>
	<circle style="fill:#EA7103;" cx="164.8" cy="244.8" r="25.6"/>
	<circle style="fill:#EA7103;" cx="331.2" cy="244.8" r="25.6"/>
</g>
<circle style="fill:#1E4784;" cx="164.8" cy="236.8" r="25.6"/>
<path style="fill:#00233F;" d="M164.8,212c14.4,0,25.6,11.2,25.6,25.6c0,14.4-11.2,25.6-25.6,25.6"/>
<circle style="fill:#1E4784;" cx="331.2" cy="236.8" r="25.6"/>
<path style="fill:#00233F;" d="M331.2,212c14.4,0,25.6,11.2,25.6,25.6c0,14.4-11.2,25.6-25.6,25.6"/>
<path style="fill:#19BCA4;" d="M220.8,220.8c-6.4,8-16.8-7.2-34.4-20.8c-16.8-13.6-34.4-20.8-28-28.8s25.6-4,43.2,9.6
	C219.2,194.4,227.2,212.8,220.8,220.8z"/>
<path style="fill:#109DA0;" d="M220.8,220.8c-6.4,8-16.8-7.2-34.4-20.8c-16.8-13.6-34.4-20.8-28-28.8"/>
<path style="fill:#19BCA4;" d="M280.8,214.4c6.4,8.8,17.6-6.4,35.2-19.2s35.2-19.2,28.8-27.2c-6.4-8.8-25.6-4.8-43.2,8
	C284,188.8,274.4,206.4,280.8,214.4z"/>
<path style="fill:#109DA0;" d="M280.8,214.4c6.4,8.8,17.6-6.4,35.2-19.2s35.2-19.2,28.8-27.2"/>
<path style="fill:#F9C55D;" d="M214.4,285.6c0,9.6-28,5.6-62.4,5.6s-62.4,4.8-62.4-5.6s28-17.6,62.4-17.6S214.4,276,214.4,285.6z"/>
<path style="fill:#F9A908;" d="M406.4,285.6c0,9.6-28,5.6-62.4,5.6s-62.4,4.8-62.4-5.6s28-17.6,62.4-17.6S406.4,276,406.4,285.6z"/>
<g>
	<path style="fill:#F7910B;" d="M312,345.6c0,38.4-28.8,70.4-64,70.4s-64-31.2-64-70.4"/>
	<circle style="fill:#F7910B;" cx="74.4" cy="251.2" r="4.8"/>
	<circle style="fill:#F7910B;" cx="38.4" cy="267.2" r="8.8"/>
	<circle style="fill:#F7910B;" cx="62.4" cy="235.2" r="1.6"/>
	<circle style="fill:#F7910B;" cx="99.2" cy="249.6" r="1.6"/>
</g>
<g>
	<circle style="fill:#F9A908;" cx="412.8" cy="254.4" r="6.4"/>
	<circle style="fill:#F9A908;" cx="432.8" cy="265.6" r="1.6"/>
	<circle style="fill:#F9A908;" cx="390.4" cy="195.2" r="2.4"/>
	<circle style="fill:#F9A908;" cx="386.4" cy="288" r="10.4"/>
	<circle style="fill:#F9A908;" cx="444" cy="288.8" r="4.8"/>
</g>
<g>
	<circle style="fill:#F7910B;" cx="66.4" cy="284" r="4"/>
	<circle style="fill:#F7910B;" cx="72.8" cy="216.8" r="3.2"/>
</g>
<g>
	<circle style="fill:#F9A908;" cx="30.4" cy="106.4" r="8.8"/>
	<circle style="fill:#F9A908;" cx="56" cy="77.6" r="4.8"/>
	<circle style="fill:#F9A908;" cx="465.6" cy="125.6" r="1.6"/>
	<circle style="fill:#F9A908;" cx="459.2" cy="101.6" r="6.4"/>
	<circle style="fill:#F9A908;" cx="480" cy="106.4" r="4"/>
	<circle style="fill:#F9A908;" cx="40" cy="129.6" r="4.8"/>
</g>
<path style="fill:#00233F;" d="M400,402.4c0-28-22.4-50.4-50.4-50.4h-18.4c-28,0-50.4,22.4-50.4,50.4v42.4c0,28,22.4,50.4,50.4,50.4
	h18.4c28,0,50.4-22.4,50.4-50.4V402.4z"/>
<path style="fill:#BFD4E0;" d="M384,386.4c0-28-22.4-50.4-50.4-50.4h-18.4c-28,0-50.4,22.4-50.4,50.4v42.4c0,28,22.4,50.4,50.4,50.4
	h18.4c28,0,50.4-22.4,50.4-50.4V386.4z"/>
<path style="fill:#720A2D;" d="M259.2,444c4,18.4,27.2,28.8,52,24l14.4-3.2c24.8-5.6,40.8-24.8,36.8-43.2l-5.6-25.6
	c-4-18.4-27.2-28.8-52-24l-14.4,3.2c-24.8,5.6-40.8,24.8-36.8,43.2L259.2,444z"/>
<path style="fill:#890E37;" d="M400,340c0-37.6-30.4-68-68-68h-23.2c-37.6,0-68,30.4-68,68v55.2c0,37.6,30.4,68,68,68H332
	c37.6,0,68-30.4,68-68V340z"/>
<path style="fill:#DD436F;" d="M384,340c0-2.4-1.6-4-4-4l0,0c-2.4,0-4,1.6-4,4v56c0,2.4,1.6,4,4,4l0,0c2.4,0,4-1.6,4-4V340z"/>
<path style="fill:#00233F;" d="M224,443.2c0,28.8-26.4,52.8-56,52.8h-17.6c-28.8,0-54.4-23.2-54.4-52.8v-40.8
	c0-28.8,25.6-51.2,54.4-51.2H168c28.8,0,56,21.6,56,51.2V443.2z"/>
<path style="fill:#BFD4E0;" d="M232,424c0,28.8-20.8,56-49.6,56h-17.6c-28.8,0-52.8-27.2-52.8-56v-40.8c0-28.8,23.2-55.2,52.8-55.2
	h17.6c28.8,0,49.6,26.4,49.6,55.2V424z"/>
<path style="fill:#720A2D;" d="M242.4,441.6c-4,19.2-28,30.4-53.6,24.8l-15.2-3.2c-25.6-5.6-42.4-25.6-38.4-44.8l5.6-26.4
	c4-19.2,28-30.4,53.6-24.8l15.2,3.2C235.2,376,252,396,248,415.2L242.4,441.6z"/>
<path style="fill:#AA2444;" d="M264,392.8c0,39.2-32,71.2-71.2,71.2h-25.6C128,464,96,432,96,392.8v-57.6c0-39.2,32-71.2,71.2-71.2
	h25.6c39.2,0,71.2,32,71.2,71.2V392.8z"/>
<path style="fill:#DD436F;" d="M120,396c0,2.4-1.6,4-4,4l0,0c-2.4,0-4-1.6-4-4v-64c0-2.4,1.6-4,4-4l0,0c2.4,0,4,1.6,4,4V396z"/>
<g>
</g>
<g>
</g>
<g>
</g>
<g>
</g>
<g>
</g>
<g>
</g>
<g>
</g>
<g>
</g>
<g>
</g>
<g>
</g>
<g>
</g>
<g>
</g>
<g>
</g>
<g>
</g>
<g>
</g>
</svg>
