<?xml version="1.0" encoding="iso-8859-1"?>
<!-- Generator: Adobe Illustrator 19.0.0, SVG Export Plug-In . SVG Version: 6.00 Build 0)  -->
<svg version="1.1" id="Layer_1" xmlns="http://www.w3.org/2000/svg" xmlns:xlink="http://www.w3.org/1999/xlink" x="0px" y="0px"
	 viewBox="0 0 499.2 499.2" style="enable-background:new 0 0 499.2 499.2;" xml:space="preserve">
<g>
	<path style="fill:#F7910B;" d="M485.6,295.2c0,100.8-92.8,183.2-236,183.2s-236-81.6-236-183.2s92.8-252.8,236-252.8
		S485.6,194.4,485.6,295.2z"/>
	<path style="fill:#F7910B;" d="M485.6,295.2c0,100.8-92.8,152-236,152s-236-50.4-236-152s92.8-268,236-268S485.6,194.4,485.6,295.2
		z"/>
</g>
<g>
	<path style="fill:#F9A908;" d="M249.6,27.2c143.2,0,236,167.2,236,268.8s-92.8,152-236,152"/>
	<path style="fill:#F9A908;" d="M485.6,295.2c0,100.8-92.8,152-236,152s-236-50.4-236-152s92.8-252.8,236-252.8
		S485.6,194.4,485.6,295.2z"/>
</g>
<path style="fill:#F9C55D;" d="M13.6,295.2c0-100.8,92.8-252.8,236-252.8"/>
<path style="fill:#F7910B;" d="M249.6,42.4c143.2,0,236,152,236,252.8s-92.8,183.2-236,183.2"/>
<path style="fill:#EA7103;" d="M249.6,42.4c143.2,0,236,152,236,252.8"/>
<path style="fill:#19BCA4;" d="M202.4,122.4c1.6,6.4-10.4,6.4-24,9.6c-13.6,4-24,9.6-25.6,3.2c-1.6-6.4,8-15.2,21.6-18.4
	C188,113.6,200.8,116,202.4,122.4z"/>
<path style="fill:#109DA0;" d="M202.4,122.4c1.6,6.4-10.4,6.4-24,9.6c-13.6,4-24,9.6-25.6,3.2"/>
<path style="fill:#19BCA4;" d="M297.6,98.4c-2.4,6.4,8.8,7.2,22.4,12.8c12.8,5.6,22.4,13.6,24.8,7.2c2.4-6.4-5.6-16-18.4-21.6
	C312.8,92,300.8,92.8,297.6,98.4z"/>
<path style="fill:#109DA0;" d="M297.6,98.4c-2.4,6.4,8.8,7.2,22.4,12.8c12.8,5.6,22.4,13.6,24.8,7.2"/>
<g>
	<circle style="fill:#F7910B;" cx="80.8" cy="272" r="4.8"/>
	<circle style="fill:#F7910B;" cx="46.4" cy="287.2" r="8.8"/>
	<circle style="fill:#F7910B;" cx="69.6" cy="256" r="1.6"/>
	<circle style="fill:#F7910B;" cx="104.8" cy="270.4" r="1.6"/>
</g>
<g>
	<circle style="fill:#F9A908;" cx="409.6" cy="274.4" r="5.6"/>
	<circle style="fill:#F9A908;" cx="428.8" cy="285.6" r="1.6"/>
	<circle style="fill:#F9A908;" cx="388" cy="216.8" r="2.4"/>
	<circle style="fill:#F9A908;" cx="384" cy="307.2" r="10.4"/>
	<circle style="fill:#F9A908;" cx="440" cy="308" r="4.8"/>
</g>
<g>
	<circle style="fill:#F7910B;" cx="73.6" cy="303.2" r="4"/>
	<circle style="fill:#F7910B;" cx="79.2" cy="237.6" r="3.2"/>
</g>
<g>
	<circle style="fill:#F9A908;" cx="38.4" cy="131.2" r="8.8"/>
	<circle style="fill:#F9A908;" cx="63.2" cy="103.2" r="4"/>
	<circle style="fill:#F9A908;" cx="461.6" cy="149.6" r="1.6"/>
</g>
<path style="fill:#D87703;" d="M352.8,204c0,15.2-12,27.2-27.2,27.2s-27.2-12-27.2-27.2s12-27.2,27.2-27.2S352.8,188.8,352.8,204z"
	/>
<path style="fill:#1E4784;" d="M352.8,196c0,15.2-12,27.2-27.2,27.2s-27.2-12-27.2-27.2s12-27.2,27.2-27.2S352.8,180.8,352.8,196z"
	/>
<path style="fill:#00233F;" d="M325.6,168.8c15.2,0,27.2,12,27.2,27.2s-12,27.2-27.2,27.2"/>
<circle style="fill:#D87703;" cx="176.8" cy="204" r="27.2"/>
<circle style="fill:#1E4784;" cx="176.8" cy="196" r="27.2"/>
<path style="fill:#00233F;" d="M176.8,168.8c15.2,0,27.2,12,27.2,27.2s-12,27.2-27.2,27.2"/>
<g>
	<circle style="fill:#F9A908;" cx="455.2" cy="126.4" r="6.4"/>
	<circle style="fill:#F9A908;" cx="475.2" cy="131.2" r="4"/>
	<circle style="fill:#F9A908;" cx="47.2" cy="153.6" r="4"/>
</g>
<path style="fill:#F9C55D;" d="M216.8,243.2c0,9.6-27.2,4.8-60.8,4.8s-60.8,4.8-60.8-4.8s27.2-17.6,60.8-17.6
	C189.6,226.4,216.8,233.6,216.8,243.2z"/>
<path style="fill:#F9A908;" d="M403.2,243.2c0,9.6-27.2,4.8-60.8,4.8s-60.8,4.8-60.8-4.8s27.2-17.6,60.8-17.6
	C376,226.4,403.2,233.6,403.2,243.2z"/>
<path style="fill:#1E4784;" d="M13.6,299.2c2.4,101.6,94.4,179.2,236,179.2s233.6-83.2,236-179.2H13.6z"/>
<path style="fill:#00233F;" d="M251.2,478.4c141.6,0,232.8-81.6,233.6-179.2H17.6"/>
<path style="fill:#FFFBEE;" d="M249.6,478.4c24.8,0,48-0.8,68.8-4.8l-32-158.4h-73.6l-32,158.4C201.6,477.6,224.8,478.4,249.6,478.4
	z"/>
<rect x="212.357" y="261.469" transform="matrix(-0.707 0.7072 -0.7072 -0.707 638.1814 333.7414)" style="fill:#F7910B;" width="75.199" height="75.199"/>
<path style="fill:#02243E;" d="M281.6,291.2h-64c-4.8,0-8-3.2-8-8s3.2-8,8-8h64c4.8,0,8,3.2,8,8S286.4,291.2,281.6,291.2z"/>
<path style="fill:#FFFBEE;" d="M425.6,355.2c0,4-3.2,8-8,8h-64c-4,0-8-3.2-8-8l0,0c0-4,3.2-8,8-8h64
	C422.4,347.2,425.6,350.4,425.6,355.2L425.6,355.2z"/>
<polygon style="fill:#0C537A;" points="229.6,333.6 240,349.6 224,478.4 242.4,499.2 249.6,499.2 249.6,321.6 "/>
<g>
	<polygon style="fill:#00233F;" points="269.6,333.6 259.2,349.6 275.2,478.4 256.8,499.2 249.6,499.2 249.6,321.6 	"/>
	<polygon style="fill:#00233F;" points="289.6,59.2 209.6,59.2 209.6,0 228.8,19.2 289.6,19.2 	"/>
</g>
<g>
</g>
<g>
</g>
<g>
</g>
<g>
</g>
<g>
</g>
<g>
</g>
<g>
</g>
<g>
</g>
<g>
</g>
<g>
</g>
<g>
</g>
<g>
</g>
<g>
</g>
<g>
</g>
<g>
</g>
</svg>
