<?xml version="1.0" encoding="iso-8859-1"?>
<!-- Generator: Adobe Illustrator 19.0.0, SVG Export Plug-In . SVG Version: 6.00 Build 0)  -->
<svg version="1.1" id="Layer_1" xmlns="http://www.w3.org/2000/svg" xmlns:xlink="http://www.w3.org/1999/xlink" x="0px" y="0px"
	 viewBox="0 0 499.541 499.541" style="enable-background:new 0 0 499.541 499.541;" xml:space="preserve">
<g>
	<path style="fill:#F7910B;" d="M499.541,292.952c0,104-95.2,188-242.4,188s-242.4-84-242.4-188s95.2-260,242.4-260
		S499.541,188.952,499.541,292.952z"/>
	<path style="fill:#F7910B;" d="M499.541,292.952c0,104-95.2,156-242.4,156s-242.4-52-242.4-156s95.2-276,242.4-276
		S499.541,188.952,499.541,292.952z"/>
</g>
<g>
	<path style="fill:#F9A908;" d="M257.141,16.952c147.2,0,242.4,172,242.4,276s-95.2,156-242.4,156"/>
	<path style="fill:#F9A908;" d="M499.541,292.952c0,104-95.2,156-242.4,156s-242.4-52-242.4-156s95.2-260,242.4-260
		S499.541,188.952,499.541,292.952z"/>
</g>
<path style="fill:#F9C55D;" d="M14.741,292.952c0-104,95.2-260,242.4-260"/>
<path style="fill:#F7910B;" d="M257.141,32.952c147.2,0,242.4,156,242.4,260s-95.2,188-242.4,188"/>
<path style="fill:#EA7103;" d="M257.141,32.952c147.2,0,242.4,156,242.4,260"/>
<g>
	<circle style="fill:#F7910B;" cx="83.541" cy="268.152" r="4.8"/>
	<circle style="fill:#F7910B;" cx="47.541" cy="284.152" r="8.8"/>
	<circle style="fill:#F7910B;" cx="71.541" cy="252.152" r="1.6"/>
	<circle style="fill:#F7910B;" cx="108.341" cy="267.352" r="1.6"/>
</g>
<g>
	<circle style="fill:#F9A908;" cx="469.941" cy="291.352" r="6.4"/>
	<circle style="fill:#F9A908;" cx="441.941" cy="282.552" r="1.6"/>
	<circle style="fill:#F9A908;" cx="474.741" cy="338.552" r="2.4"/>
	<circle style="fill:#F9A908;" cx="445.141" cy="368.952" r="10.4"/>
	<circle style="fill:#F9A908;" cx="453.141" cy="305.752" r="4.8"/>
</g>
<g>
	<circle style="fill:#F7910B;" cx="75.541" cy="300.952" r="4"/>
	<circle style="fill:#F7910B;" cx="81.941" cy="233.752" r="3.2"/>
</g>
<g>
	<circle style="fill:#F9A908;" cx="39.541" cy="123.352" r="8.8"/>
	<circle style="fill:#F9A908;" cx="65.141" cy="95.352" r="4.8"/>
	<circle style="fill:#F9A908;" cx="474.741" cy="142.552" r="1.6"/>
	<circle style="fill:#F9A908;" cx="468.341" cy="119.352" r="6.4"/>
	<circle style="fill:#F9A908;" cx="489.141" cy="123.352" r="4"/>
	<circle style="fill:#F9A908;" cx="49.141" cy="147.352" r="4.8"/>
</g>
<g>
	<circle style="fill:#D87703;" cx="224.341" cy="263.352" r="28"/>
	<circle style="fill:#D87703;" cx="407.541" cy="263.352" r="28"/>
</g>
<circle style="fill:#1E4784;" cx="224.341" cy="255.352" r="28"/>
<path style="fill:#00233F;" d="M224.341,227.352c15.2,0,28,12.8,28,28c0,15.2-12.8,28-28,28"/>
<circle style="fill:#1E4784;" cx="407.541" cy="255.352" r="28"/>
<path style="fill:#00233F;" d="M407.541,227.352c15.2,0,28,12.8,28,28c0,15.2-12.8,28-28,28"/>
<g>
	<path style="fill:#19BCA4;" d="M239.541,108.952c-14.4,0.8-25.6,7.2-25.6,14.4l52-3.2
		C265.941,112.952,253.941,108.152,239.541,108.952z"/>
	<path style="fill:#19BCA4;" d="M396.341,159.352c-13.6-4.8-26.4-3.2-28.8,4l49.6,16.8
		C419.541,172.952,409.941,164.152,396.341,159.352z"/>
</g>
<g>
	<path style="fill:#109DA0;" d="M240.341,124.952c14.4-0.8,26.4,1.6,25.6-4.8l-52,3.2
		C213.941,129.752,225.941,125.752,240.341,124.952z"/>
	<path style="fill:#109DA0;" d="M390.741,174.552c13.6,4.8,24,12,25.6,4.8l-49.6-16.8
		C365.141,169.752,377.141,170.552,390.741,174.552z"/>
</g>
<path style="fill:#F9C55D;" d="M221.141,278.552c-34.4,0-62.4,8-62.4,17.6s28,5.6,62.4,5.6s62.4,4.8,62.4-5.6
	S255.541,278.552,221.141,278.552z"/>
<path style="fill:#F9A908;" d="M412.341,278.552c-34.4,0-62.4,8-62.4,17.6s28,5.6,62.4,5.6s62.4,4.8,62.4-5.6
	S446.741,278.552,412.341,278.552z"/>
<path style="fill:#42B78A;" d="M252.341,394.552c-49.6,8-102.4-10.4-136-53.6c-32.8-42.4-38.4-98.4-18.4-144.8l-56.8-73.6
	c-56,80-56,190.4,7.2,271.2s169.6,108.8,260.8,74.4L252.341,394.552z"/>
<path style="fill:#2CA88A;" d="M176.341,385.752c-23.2-8.8-43.2-24-60-44.8c-16-20.8-25.6-44.8-28.8-68.8l-74.4-96
	c-24.8,71.2-14.4,153.6,35.2,217.6s126.4,94.4,201.6,88L176.341,385.752z"/>
<path style="fill:#1B896C;" d="M48.341,393.752c49.6,64,126.4,94.4,201.6,88l-73.6-96c-23.2-8.8-43.2-24-60-44.8
	c-16-20.8-25.6-44.8-28.8-68.8"/>
<path style="fill:#99144A;" d="M332.341,387.352c0,29.6-2.4,39.2-16,39.2s-35.2-9.6-35.2-39.2c0-30.4,20.8-54.4,35.2-54.4
	S332.341,357.752,332.341,387.352z"/>
<path style="fill:#770C3D;" d="M332.341,387.352c0,29.6-2.4,39.2-16,39.2s-35.2-9.6-35.2-39.2"/>
<circle style="fill:#42B78A;" cx="40.341" cy="405.752" r="7.2"/>
<circle style="fill:#1B896C;" cx="35.541" cy="431.352" r="7.2"/>
<circle style="fill:#42B78A;" cx="41.941" cy="455.352" r="7.2"/>
<circle style="fill:#1B896C;" cx="57.941" cy="469.752" r="7.2"/>
<g>
</g>
<g>
</g>
<g>
</g>
<g>
</g>
<g>
</g>
<g>
</g>
<g>
</g>
<g>
</g>
<g>
</g>
<g>
</g>
<g>
</g>
<g>
</g>
<g>
</g>
<g>
</g>
<g>
</g>
</svg>
