<?xml version="1.0" encoding="iso-8859-1"?>
<!-- Generator: Adobe Illustrator 19.0.0, SVG Export Plug-In . SVG Version: 6.00 Build 0)  -->
<svg version="1.1" id="Layer_1" xmlns="http://www.w3.org/2000/svg" xmlns:xlink="http://www.w3.org/1999/xlink" x="0px" y="0px"
	 viewBox="0 0 511.999 511.999" style="enable-background:new 0 0 511.999 511.999;" xml:space="preserve">
<circle style="fill:#FDDF6D;" cx="256.001" cy="256.001" r="245.993"/>
<path d="M191.392,280.553c-3.86,0-7.536-2.246-9.177-6.01c-2.21-5.066,0.107-10.964,5.172-13.174l41.054-17.902l-41.094-18.143
	c-5.057-2.232-7.345-8.141-5.114-13.198c2.232-5.057,8.145-7.344,13.196-5.113l61.96,27.353c3.635,1.604,5.975,5.205,5.966,9.177
	c-0.009,3.974-2.366,7.563-6.007,9.151l-61.96,27.02C194.085,280.285,192.726,280.553,191.392,280.553z"/>
<path d="M445.886,274.545c-1.641,3.764-5.317,6.01-9.177,6.01c-1.334,0-2.693-0.268-3.995-0.837l-61.96-27.02
	c-3.641-1.588-5.998-5.178-6.007-9.151c-0.009-3.972,2.332-7.574,5.966-9.177l61.96-27.353c5.053-2.232,10.964,0.056,13.196,5.113
	c2.232,5.057-0.057,10.965-5.114,13.198l-41.094,18.143l41.054,17.902C445.781,263.582,448.096,269.479,445.886,274.545z"/>
<path style="fill:#FCC56B;" d="M308.715,465.677c-135.858,0-245.992-110.134-245.992-245.992
	c0-72.584,31.443-137.816,81.444-182.842c-79.64,40.719-134.16,123.57-134.16,219.156c0,135.858,110.134,245.992,245.992,245.992
	c63.274,0,120.962-23.897,164.548-63.149C386.997,455.998,348.986,465.677,308.715,465.677z"/>
<path d="M245.377,396.549c-2.561,0-5.122-0.977-7.077-2.93c-3.908-3.91-3.908-10.245,0-14.153l16.196-16.196
	c3.91-3.907,10.246-3.907,14.152,0l8.598,8.597l12.428-12.429c1.877-1.876,4.422-2.93,7.077-2.93l0,0
	c2.654,0,5.198,1.054,7.077,2.931l12.776,12.777l14.17-14.172c3.91-3.907,10.245-3.907,14.153,0l11.731,11.733l9.47-9.468
	c3.908-3.908,10.246-3.906,14.15,0l16.719,16.718c3.91,3.908,3.91,10.245,0.001,14.152c-3.91,3.91-10.246,3.908-14.152,0.001
	l-9.644-9.643l-9.47,9.468c-3.908,3.908-10.245,3.906-14.152,0l-11.731-11.733l-14.17,14.172c-1.877,1.876-4.422,2.93-7.077,2.93
	l0,0c-2.654,0-5.198-1.054-7.077-2.931l-12.776-12.777l-12.428,12.429c-3.91,3.907-10.246,3.907-14.152,0l-8.598-8.597l-9.119,9.12
	C250.499,395.571,247.937,396.549,245.377,396.549z"/>
<path d="M470.486,116.194c-26.457-40.51-63.611-72.601-107.443-92.805c-5.025-2.314-10.964-0.12-13.278,4.9
	c-2.312,5.02-0.12,10.964,4.9,13.278c40.412,18.626,74.668,48.217,99.064,85.572c25.028,38.321,38.256,82.881,38.256,128.862
	c0,130.123-105.863,235.983-235.985,235.983S20.015,386.123,20.015,256.001S125.877,20.015,255.999,20.015
	c5.528,0,10.007-4.479,10.007-10.007S261.527,0,255.999,0C114.84,0,0,114.841,0,256.001c0,141.158,114.84,255.998,255.999,255.998
	s255.999-114.84,255.999-255.998C512,206.122,497.644,157.778,470.486,116.194z"/>
<path d="M254.496,363.267L238.3,379.463c-3.908,3.91-3.908,10.245,0,14.153c1.955,1.953,4.517,2.93,7.077,2.93
	s5.122-0.977,7.077-2.93l9.119-9.12l8.597,8.598c1.877,1.876,4.422,2.93,7.077,2.93c2.655,0,5.198-1.054,7.077-2.931l12.428-12.428
	l12.776,12.776c1.877,1.877,4.422,2.931,7.077,2.931c2.655,0,5.198-1.054,7.077-2.93l14.17-14.172l11.731,11.733
	c1.876,1.877,4.422,2.931,7.077,2.931s5.198-1.054,7.077-2.93l9.468-9.47l9.644,9.643c3.907,3.907,10.243,3.908,14.152-0.001
	c3.908-3.908,3.908-10.245-0.001-14.152l-16.719-16.718c-3.907-3.907-10.243-3.907-14.152,0l-9.468,9.47l-11.731-11.733
	c-1.877-1.877-4.422-2.931-7.077-2.931c-2.655,0-5.198,1.054-7.077,2.93l-14.17,14.172l-12.776-12.777
	c-1.877-1.877-4.422-2.931-7.077-2.931c-2.655,0-5.198,1.054-7.077,2.931l-12.428,12.429l-8.597-8.598
	C264.74,359.362,258.405,359.362,254.496,363.267z"/>
<circle cx="324.744" cy="20.015" r="10.007"/>
<g>
</g>
<g>
</g>
<g>
</g>
<g>
</g>
<g>
</g>
<g>
</g>
<g>
</g>
<g>
</g>
<g>
</g>
<g>
</g>
<g>
</g>
<g>
</g>
<g>
</g>
<g>
</g>
<g>
</g>
</svg>
