<?xml version="1.0" encoding="iso-8859-1"?>
<!-- Generator: Adobe Illustrator 19.0.0, SVG Export Plug-In . SVG Version: 6.00 Build 0)  -->
<svg version="1.1" id="Layer_1" xmlns="http://www.w3.org/2000/svg" xmlns:xlink="http://www.w3.org/1999/xlink" x="0px" y="0px"
	 viewBox="0 0 511.997 511.997" style="enable-background:new 0 0 511.997 511.997;" xml:space="preserve">
<circle style="fill:#FFDB6C;" cx="248.106" cy="255.994" r="238.407"/>
<path style="fill:#FFB04C;" d="M299.194,459.21c-131.668,0-238.406-106.738-238.406-238.406c0-70.345,30.473-133.565,78.932-177.203
	C62.537,83.064,9.699,163.361,9.699,255.999c0,131.668,106.738,238.406,238.406,238.406c61.323,0,117.231-23.161,159.474-61.201
	C375.061,449.829,338.224,459.21,299.194,459.21z"/>
<g>
	<path style="fill:#F9A880;" d="M145.651,259.417c-17.705,0-32.059,14.353-32.059,32.057h64.116
		C177.71,273.769,163.357,259.417,145.651,259.417z"/>
	<path style="fill:#F9A880;" d="M425.281,259.417c-17.705,0-32.059,14.353-32.059,32.057h64.116
		C457.338,273.769,442.985,259.417,425.281,259.417z"/>
</g>
<path style="fill:#56586F;" d="M110.88,126.974c62.25-14.287,112.643-9.37,168.464,3.639c8.278,1.928,17.022,4.079,26.258,4.361
	c15.38,0.471,32.669-3.357,47.575-7.102c58.85-14.783,104.822-7.094,149.123,2.372l-3.273,26.18
	c-6.916,0.153-9.091,3.378-11.067,9.673c-10.34,32.945-1.534,89.63-77.978,82.965c-50.29-4.385-64.692-18.164-88.66-78.746
	c-2.039-5.153-3.365-13.669-15.011-13.354c-6.576,0.177-12.457,1.34-14.508,12.765c-3.823,21.288-32.893,79.129-91.915,79.065
	c-52.132-0.056-72.019-27.116-74.393-86.743c-0.295-7.403-6.746-8.809-10.617-8.896L110.88,126.974L110.88,126.974z"/>
<g>
	<path style="fill:#737891;" d="M201.281,118.734l-36.406,124.155c9.581,3.942,21.146,5.888,35.014,5.902
		c0.244,0,0.485-0.009,0.729-0.01l37.04-126.317C225.544,120.632,213.483,119.35,201.281,118.734z"/>
	<path style="fill:#737891;" d="M427.677,119.74c-12.116-0.388-24.693,0-37.903,1.475l-32.501,110.837
		c8.888,7.464,19.381,11.799,33.234,14.447L427.677,119.74z"/>
</g>
<path style="fill:#7F184C;" d="M297.768,430.656L297.768,430.656c-53.296,0-96.502-43.206-96.502-96.502l0,0h193.004l0,0
	C394.271,387.45,351.065,430.656,297.768,430.656z"/>
<path style="fill:#F2F2F2;" d="M224.812,334.152v15.064c0,6.352,5.149,11.5,11.5,11.5h122.911c6.352,0,11.5-5.149,11.5-11.5v-15.064
	H224.812z"/>
<path style="fill:#FC4C59;" d="M299.794,390.619c-26.086-12.12-55.033-10.358-78.507,2.211
	c17.639,22.99,45.377,37.825,76.593,37.825l0,0c13.757,0,26.829-2.898,38.672-8.085
	C327.864,409.127,315.406,397.873,299.794,390.619z"/>
<path d="M504.326,120.759c-46.316-9.895-92.906-17.517-153.514-2.293c-15.091,3.792-30.997,7.237-44.915,6.815
	c-7.776-0.238-15.526-2.048-23.021-3.801l-1.332-0.312c-48.633-11.335-103.232-19.621-172.835-3.647
	c-4.949,1.135-8.184,5.897-7.418,10.917l4,26.18c0.711,4.655,4.663,8.126,9.37,8.231c0.475,0.01,0.865,0.058,1.164,0.115
	c1.375,33.004,7.968,55.568,20.738,70.982c13.657,16.484,34.367,24.513,63.314,24.543c0.036,0,0.071,0,0.109,0
	c35.594,0,59.792-18.92,73.827-34.802c15.739-17.809,25.171-39.074,27.537-52.249c0.619-3.446,1.478-4.301,1.482-4.305
	c0.141-0.092,0.83-0.4,3.745-0.478c3.02-0.079,3.131-0.081,4.851,4.823c0.296,0.844,0.582,1.654,0.879,2.403
	c11.697,29.566,21.966,50.6,36.999,64.096c15.897,14.273,35.418,18.615,59.836,20.744c4.401,0.384,8.614,0.577,12.642,0.577
	c24.247,0,41.786-6.975,53.395-21.169c0.295-0.361,0.561-0.735,0.844-1.1c0.517,6.299,0.789,12.629,0.789,18.969
	c0,126.11-102.598,228.707-228.707,228.707S19.397,382.109,19.397,255.999S121.994,27.292,248.103,27.292
	c50.53,0,98.423,16.145,138.501,46.69c4.26,3.247,10.347,2.425,13.592-1.835c3.247-4.261,2.426-10.347-1.835-13.594
	c-43.485-33.14-95.444-50.658-150.259-50.658C111.299,7.894,0,119.194,0,255.999s111.299,248.105,248.103,248.105
	c136.806,0,248.105-111.299,248.105-248.105c0-18.09-1.98-36.109-5.841-53.626c0.958-4.499,1.75-8.967,2.507-13.282
	c1.292-7.34,2.511-14.274,4.337-20.089c0.494-1.571,0.848-2.396,1.06-2.814c0.22-0.03,0.537-0.059,0.969-0.069
	c4.809-0.107,8.812-3.72,9.409-8.493l3.272-26.18C512.548,126.452,509.248,121.81,504.326,120.759z M490.25,148.439
	c-7.983,3.41-10.372,11.019-11.545,14.754c-2.202,7.021-3.529,14.558-4.932,22.539c-0.641,3.645-1.276,7.229-1.975,10.714
	c-0.975,1.697-1.441,3.687-1.247,5.733c-5.597,23.578-16.616,40.98-59.727,37.222c-45.575-3.974-57.61-14.838-80.484-72.652
	c-0.207-0.524-0.403-1.09-0.609-1.68c-1.882-5.369-6.239-17.812-22.766-17.812c-0.3,0-0.606,0.004-0.914,0.013
	c-5.517,0.149-20.168,0.543-23.793,20.745c-3.273,18.228-29.875,71.081-82.275,71.081c-0.026,0-0.058,0-0.084,0
	c-44.928-0.049-62.467-21.035-64.712-77.429c-0.31-7.829-4.77-13.86-11.732-16.599l-1.61-10.537
	c61.632-12.475,111.02-4.787,155.298,5.531l1.32,0.308c8.029,1.878,17.13,4.005,26.842,4.302c16.322,0.495,33.785-3.257,50.235-7.39
	c52.841-13.274,94.865-7.813,136.029,0.625L490.25,148.439z"/>
<path d="M403.969,334.152c0-5.356-4.341-9.699-9.699-9.699H201.266c-5.358,0-9.699,4.342-9.699,9.699
	c0,58.56,47.641,106.201,106.201,106.201S403.969,392.712,403.969,334.152z M211.503,343.851h172.531
	c-4.836,43.317-41.679,77.105-86.265,77.105S216.339,387.168,211.503,343.851z"/>
<circle cx="416.32" cy="87.12" r="9.699"/>
<g>
</g>
<g>
</g>
<g>
</g>
<g>
</g>
<g>
</g>
<g>
</g>
<g>
</g>
<g>
</g>
<g>
</g>
<g>
</g>
<g>
</g>
<g>
</g>
<g>
</g>
<g>
</g>
<g>
</g>
</svg>
