<?xml version="1.0" encoding="iso-8859-1"?>
<!-- Generator: Adobe Illustrator 19.0.0, SVG Export Plug-In . SVG Version: 6.00 Build 0)  -->
<svg version="1.1" id="Layer_1" xmlns="http://www.w3.org/2000/svg" xmlns:xlink="http://www.w3.org/1999/xlink" x="0px" y="0px"
	 viewBox="0 0 512 512" style="enable-background:new 0 0 512 512;" xml:space="preserve">
<circle style="fill:#FDDF6D;" cx="256.001" cy="256.001" r="245.993"/>
<path style="fill:#FCC56B;" d="M308.715,465.677c-135.858,0-245.992-110.134-245.992-245.992
	c0-72.584,31.443-137.816,81.444-182.842C64.529,77.562,10.009,160.413,10.009,255.999c0,135.858,110.134,245.992,245.992,245.992
	c63.274,0,120.962-23.897,164.548-63.149C386.997,455.998,348.986,465.677,308.715,465.677z"/>
<g>
	<path style="fill:#3FA9F5;" d="M258.983,501.954c0-89.95,0-179.898,0-269.848c-9.203-14.712-25.495-23.432-42.611-22.733
		c-24.661,1.006-37.616,21.013-38.688,22.733v257.149"/>
	<path style="fill:#3FA9F5;" d="M387.099,209.373c-24.661,1.006-37.616,21.013-38.688,22.733v251.919
		c30.661-12.438,58.251-30.868,81.298-53.855c0-66.02,0-132.042,0-198.064C420.508,217.394,404.216,208.675,387.099,209.373z"/>
</g>
<g>
	<path style="fill:#7F184C;" d="M442.956,250.924c-3.513,0-6.921-1.852-8.752-5.14c-9.087-16.312-26.317-26.443-44.964-26.443
		c-18.173,0-35.602,10.238-45.483,26.72c-2.841,4.739-8.989,6.278-13.729,3.437c-4.741-2.842-6.279-8.988-3.437-13.729
		c13.478-22.479,37.483-36.444,62.65-36.444c25.903,0,49.831,14.07,62.448,36.72c2.69,4.828,0.957,10.923-3.872,13.611
		C446.275,250.515,444.604,250.924,442.956,250.924z"/>
	<path style="fill:#7F184C;" d="M269.173,250.924c-3.513,0.001-6.921-1.852-8.752-5.14c-9.085-16.312-26.315-26.443-44.964-26.443
		c-18.173,0-35.602,10.238-45.483,26.72c-2.842,4.739-8.989,6.278-13.729,3.437c-4.741-2.842-6.279-8.988-3.437-13.729
		c13.478-22.479,37.483-36.444,62.65-36.444c25.903,0,49.832,14.07,62.448,36.72c2.69,4.828,0.955,10.923-3.872,13.611
		C272.493,250.515,270.821,250.924,269.173,250.924z"/>
	<circle style="fill:#7F184C;" cx="303.702" cy="371.272" r="44.714"/>
</g>
<path d="M330.03,249.499c4.739,2.839,10.887,1.302,13.729-3.437c9.881-16.483,27.309-26.72,45.483-26.72
	c18.648,0,35.877,10.133,44.964,26.443c1.831,3.288,5.238,5.14,8.752,5.14c1.648,0,3.318-0.408,4.861-1.266
	c4.829-2.69,6.562-8.784,3.872-13.611c-12.617-22.65-36.545-36.72-62.448-36.72c-25.166,0-49.173,13.965-62.65,36.444
	C323.75,240.511,325.289,246.657,330.03,249.499z"/>
<path d="M152.809,235.77c-2.842,4.741-1.304,10.887,3.437,13.729c4.741,2.839,10.887,1.302,13.729-3.437
	c9.881-16.483,27.309-26.72,45.483-26.72c18.648,0,35.878,10.133,44.964,26.443c1.831,3.288,5.238,5.141,8.752,5.14
	c1.648,0,3.318-0.408,4.861-1.266c4.828-2.69,6.562-8.784,3.872-13.611c-12.617-22.65-36.545-36.72-62.448-36.72
	C190.291,199.327,166.286,213.292,152.809,235.77z"/>
<path d="M268.99,276.014c0-5.528-4.481-10.007-10.007-10.007c-5.527,0-10.007,4.479-10.007,10.007v158.783
	c0,5.528,4.481,10.007,10.007,10.007c5.527,0,10.007-4.479,10.007-10.007v-21.256c9.451,7.774,21.542,12.448,34.707,12.448
	c13.164,0,25.256-4.674,34.707-12.448v2.44c0,5.528,4.481,10.007,10.007,10.007s10.007-4.479,10.007-10.007V276.014
	c0-5.528-4.481-10.007-10.007-10.007s-10.007,4.479-10.007,10.007v52.979c-9.451-7.774-21.542-12.448-34.707-12.448
	c-13.164,0-25.256,4.674-34.707,12.448V276.014z M303.697,336.56c19.138,0,34.707,15.57,34.707,34.708
	c0,19.138-15.569,34.707-34.707,34.707s-34.707-15.569-34.707-34.707C268.99,352.13,284.56,336.56,303.697,336.56z"/>
<path d="M437.791,436.058C483.638,389.773,512,326.14,512,256.001c0-103.117-61.372-195.705-156.349-235.877
	c-5.093-2.151-10.963,0.23-13.116,5.317c-2.152,5.09,0.228,10.963,5.319,13.115c87.556,37.034,144.132,122.386,144.132,217.444
	c0,55.964-19.594,107.431-52.266,147.927V276.015c0-5.528-4.481-10.007-10.007-10.007c-5.527,0-10.007,4.479-10.007,10.007v149.787
	c-42.464,40.954-100.189,66.184-163.702,66.184c-23.744,0-46.674-3.54-68.307-10.094V276.014c0-5.528-4.481-10.007-10.007-10.007
	c-5.527,0-10.007,4.479-10.007,10.007v198.807C81.186,439.784,20.015,354.908,20.015,255.999
	c0-130.122,105.863-235.985,235.985-235.985c5.527,0,10.007-4.479,10.007-10.007S261.526,0,255.999,0C114.841,0,0,114.84,0,255.999
	c0,112.362,72.765,208.044,173.647,242.409c0.574,0.254,1.176,0.452,1.8,0.595c25.34,8.422,52.421,12.996,80.552,12.996
	c69.886,0,133.308-28.159,179.55-73.714C436.41,437.666,437.165,436.913,437.791,436.058z"/>
<circle cx="348.415" cy="449.355" r="10.007"/>
<circle cx="258.976" cy="467.542" r="10.007"/>
<circle cx="315.591" cy="17.884" r="10.007"/>
<g>
</g>
<g>
</g>
<g>
</g>
<g>
</g>
<g>
</g>
<g>
</g>
<g>
</g>
<g>
</g>
<g>
</g>
<g>
</g>
<g>
</g>
<g>
</g>
<g>
</g>
<g>
</g>
<g>
</g>
</svg>
