<?xml version="1.0" encoding="iso-8859-1"?>
<!-- Generator: Adobe Illustrator 19.0.0, SVG Export Plug-In . SVG Version: 6.00 Build 0)  -->
<svg version="1.1" id="Layer_1" xmlns="http://www.w3.org/2000/svg" xmlns:xlink="http://www.w3.org/1999/xlink" x="0px" y="0px"
	 viewBox="0 0 504.264 504.264" style="enable-background:new 0 0 504.264 504.264;" xml:space="preserve">
<g>
	<path style="fill:#F7910B;" d="M492.132,296.132c0,102.4-94.4,185.6-240,185.6s-240-83.2-240-185.6c0-103.2,94.4-256.8,240-256.8
		S492.132,192.932,492.132,296.132z"/>
	<path style="fill:#F7910B;" d="M492.132,296.132c0,102.4-94.4,154.4-240,154.4s-240-51.2-240-154.4s94.4-272.8,240-272.8
		S492.132,192.932,492.132,296.132z"/>
</g>
<g>
	<path style="fill:#F9A908;" d="M252.132,23.332c145.6,0,240,170.4,240,272.8s-94.4,154.4-240,154.4"/>
	<path style="fill:#F9A908;" d="M492.132,296.132c0,102.4-94.4,154.4-240,154.4s-240-51.2-240-154.4s94.4-256.8,240-256.8
		S492.132,192.932,492.132,296.132z"/>
</g>
<path style="fill:#F9C55D;" d="M12.132,296.132c0-103.2,94.4-256.8,240-256.8"/>
<path style="fill:#F7910B;" d="M252.132,39.332c145.6,0,240,154.4,240,256.8s-94.4,185.6-240,185.6"/>
<path style="fill:#EA7103;" d="M252.132,39.332c145.6,0,240,154.4,240,256.8"/>
<path style="fill:#19BCA4;" d="M198.532,139.332c-3.2,5.6-12-2.4-24-9.6c-12.8-7.2-24-9.6-20.8-16c3.2-5.6,16-4.8,28.8,2.4
	C194.532,122.532,201.732,132.932,198.532,139.332z"/>
<path style="fill:#109DA0;" d="M198.532,139.332c-3.2,5.6-12-2.4-24-9.6c-12.8-7.2-24-9.6-20.8-16"/>
<path style="fill:#19BCA4;" d="M304.932,148.932c3.2,6.4,12-2.4,24-9.6c12.8-7.2,24-9.6,20.8-15.2c-3.2-5.6-16-5.6-28.8,1.6
	C308.932,132.132,300.932,142.532,304.932,148.932z"/>
<path style="fill:#109DA0;" d="M304.932,148.932c3.2,6.4,12-2.4,24-9.6c12.8-7.2,24-9.6,20.8-15.2"/>
<path style="fill:#F9C55D;" d="M219.332,243.332c0,9.6-28,4.8-61.6,4.8c-34.4,0-61.6,4.8-61.6-4.8c0-9.6,28-17.6,61.6-17.6
	C191.332,225.732,219.332,232.932,219.332,243.332z"/>
<path style="fill:#F9A908;" d="M408.132,243.332c0,9.6-28,4.8-61.6,4.8c-34.4,0-61.6,4.8-61.6-4.8c0-9.6,27.2-17.6,61.6-17.6
	C380.932,225.732,408.132,232.932,408.132,243.332z"/>
<path style="fill:#F9C55D;" d="M210.532,281.732c0-18.4,18.4-33.6,41.6-33.6s41.6,15.2,41.6,33.6"/>
<g>
	<circle style="fill:#F7910B;" cx="80.932" cy="272.132" r="4.8"/>
	<circle style="fill:#F7910B;" cx="45.732" cy="287.332" r="8.8"/>
	<circle style="fill:#F7910B;" cx="68.932" cy="256.132" r="1.6"/>
	<circle style="fill:#F7910B;" cx="104.932" cy="270.532" r="1.6"/>
</g>
<g>
	<circle style="fill:#F9A908;" cx="414.532" cy="274.532" r="5.6"/>
	<circle style="fill:#F9A908;" cx="434.532" cy="285.732" r="1.6"/>
	<circle style="fill:#F9A908;" cx="392.132" cy="216.132" r="2.4"/>
	<circle style="fill:#F9A908;" cx="388.932" cy="308.132" r="10.4"/>
	<circle style="fill:#F9A908;" cx="445.732" cy="308.132" r="4.8"/>
</g>
<g>
	<circle style="fill:#F7910B;" cx="72.932" cy="303.332" r="4"/>
	<circle style="fill:#F7910B;" cx="79.332" cy="236.932" r="3.2"/>
</g>
<g>
	<circle style="fill:#F9A908;" cx="37.732" cy="128.932" r="8.8"/>
	<circle style="fill:#F9A908;" cx="62.532" cy="100.132" r="4.8"/>
	<circle style="fill:#F9A908;" cx="467.332" cy="147.332" r="1.6"/>
	<circle style="fill:#F9A908;" cx="460.932" cy="124.132" r="6.4"/>
	<circle style="fill:#F9A908;" cx="480.932" cy="128.932" r="4"/>
	<circle style="fill:#F9A908;" cx="46.532" cy="152.132" r="4.8"/>
</g>
<path style="fill:#1E4784;" d="M200.932,212.132c-3.2,0-6.4-0.8-9.6-3.2c-12-9.6-30.4-8-40,4c-4.8,5.6-12.8,6.4-18.4,1.6
	c-5.6-4.8-6.4-12.8-1.6-18.4c19.2-23.2,53.6-27.2,76.8-8c5.6,4.8,6.4,12.8,1.6,18.4
	C207.332,210.532,204.132,212.132,200.932,212.132z"/>
<path style="fill:#02243E;" d="M207.332,189.732c5.6,4.8,6.4,12.8,1.6,18.4c-1.6,2.4-4.8,4-8,4s-6.4-0.8-9.6-3.2
	c-12-9.6-30.4-8-40,4c-4.8,5.6-12.8,6.4-18.4,1.6c-5.6-4.8-6.4-12.8-1.6-18.4"/>
<path style="fill:#1E4784;" d="M303.332,212.132c3.2,0,6.4-0.8,9.6-3.2c12-9.6,30.4-8,40,4c4.8,5.6,12.8,6.4,18.4,1.6
	c5.6-4.8,6.4-12.8,1.6-18.4c-19.2-23.2-53.6-27.2-76.8-8c-5.6,4.8-6.4,12.8-1.6,18.4
	C296.932,210.532,300.132,212.132,303.332,212.132z"/>
<path style="fill:#02243E;" d="M296.932,189.732c-5.6,4.8-6.4,12.8-1.6,18.4c2.4,3.2,5.6,4.8,8.8,4.8c3.2,0,6.4-0.8,9.6-3.2
	c12-9.6,30.4-8,40,4c4.8,5.6,12.8,6.4,18.4,1.6c5.6-4.8,6.4-12.8,1.6-18.4"/>
<path style="fill:#19DAF4;" d="M86.532,250.532L86.532,250.532l66.4-28l-65.6-28l0,0c-4-1.6-8-2.4-12.8-2.4
	c-16.8,0-30.4,13.6-30.4,30.4s13.6,30.4,30.4,30.4C78.532,253.732,82.532,252.932,86.532,250.532z"/>
<path style="fill:#0EB2CC;" d="M43.332,223.332c0,16.8,13.6,30.4,30.4,30.4c4.8,0,8.8-0.8,12.8-2.4l0,0l65.6-28"/>
<path style="fill:#19DAF4;" d="M48.932,324.132L48.932,324.132l40.8-49.6l-64,5.6l0,0c-4,0-7.2,1.6-11.2,3.2
	c-13.6,7.2-18.4,24-11.2,36.8c7.2,13.6,24,18.4,36.8,11.2C44.132,329.732,46.532,327.332,48.932,324.132z"/>
<path style="fill:#0EB2CC;" d="M3.332,320.132c7.2,13.6,24,18.4,36.8,11.2c4-1.6,6.4-4,8.8-7.2l0,0l40-49.6"/>
<path style="fill:#19DAF4;" d="M89.732,381.732L89.732,381.732l-8.8-55.2l-33.6,44.8l0,0c-1.6,2.4-3.2,5.6-4,8.8
	c-3.2,12.8,4.8,25.6,17.6,28.8c12.8,3.2,25.6-4.8,28.8-17.6C90.532,388.132,90.532,384.932,89.732,381.732z"/>
<g>
	<path style="fill:#0EB2CC;" d="M60.932,408.932c12.8,3.2,25.6-4.8,28.8-17.6c0.8-3.2,0.8-7.2,0-10.4l0,0l-8.8-55.2"/>
	<path style="fill:#0EB2CC;" d="M417.732,250.532L417.732,250.532l-66.4-28l65.6-28l0,0c4-1.6,8-2.4,12.8-2.4
		c16.8,0,30.4,13.6,30.4,30.4s-13.6,30.4-30.4,30.4C425.732,253.732,421.732,252.932,417.732,250.532z"/>
</g>
<path style="fill:#19DAF4;" d="M460.932,223.332c0,16.8-13.6,30.4-30.4,30.4c-4.8,0-8.8-0.8-12.8-2.4l0,0l-65.6-28"/>
<path style="fill:#0EB2CC;" d="M455.332,324.132L455.332,324.132l-40.8-49.6l64,5.6l0,0c4,0,7.2,1.6,11.2,3.2
	c13.6,7.2,18.4,24,11.2,36.8c-7.2,13.6-24,18.4-36.8,11.2C460.132,329.732,457.732,327.332,455.332,324.132z"/>
<path style="fill:#19DAF4;" d="M500.932,320.132c-7.2,13.6-24,18.4-36.8,11.2c-3.2-1.6-6.4-4.8-8.8-7.2l0,0l-40-49.6"/>
<path style="fill:#0EB2CC;" d="M414.532,381.732L414.532,381.732l8.8-55.2l33.6,44.8l0,0c2.4,2.4,4,5.6,4.8,8.8
	c3.2,12.8-4.8,25.6-17.6,28.8c-12.8,3.2-25.6-4.8-28.8-17.6C413.732,388.132,413.732,384.932,414.532,381.732z"/>
<path style="fill:#19DAF4;" d="M443.332,408.932c-12.8,3.2-25.6-4.8-28.8-17.6c-0.8-3.2-0.8-7.2,0-10.4l0,0l8.8-55.2"/>
<path style="fill:#F7910B;" d="M310.532,368.132c0,20.8-26.4,36.8-58.4,36.8s-58.4-16.8-58.4-36.8"/>
<path style="fill:#C42260;" d="M135.332,381.732c0-72,52-130.4,116.8-130.4s116.8,58.4,116.8,130.4"/>
<path style="fill:#E2446E;" d="M135.332,381.732c0-24,52-44,116.8-44s116.8,20,116.8,44"/>
<path style="fill:#99144A;" d="M252.132,250.532c-36,0-68,18.4-89.6,46.4c13.6,16.8,32.8,27.2,53.6,27.2c12.8,0,24.8-4,36-10.4
	c10.4,6.4,22.4,10.4,36,10.4c21.6,0,40.8-10.4,53.6-27.2C320.132,268.932,288.132,250.532,252.132,250.532z"/>
<g>
	<circle style="fill:#19DAF4;" cx="408.932" cy="66.532" r="10.4"/>
	<circle style="fill:#19DAF4;" cx="429.732" cy="102.532" r="3.2"/>
	<circle style="fill:#19DAF4;" cx="454.532" cy="38.532" r="16"/>
	<circle style="fill:#19DAF4;" cx="54.532" cy="69.732" r="18.4"/>
	<circle style="fill:#19DAF4;" cx="82.532" cy="169.732" r="5.6"/>
	<circle style="fill:#19DAF4;" cx="85.732" cy="132.132" r="11.2"/>
</g>
<g>
</g>
<g>
</g>
<g>
</g>
<g>
</g>
<g>
</g>
<g>
</g>
<g>
</g>
<g>
</g>
<g>
</g>
<g>
</g>
<g>
</g>
<g>
</g>
<g>
</g>
<g>
</g>
<g>
</g>
</svg>
