<?xml version="1.0" encoding="iso-8859-1"?>
<!-- Generator: Adobe Illustrator 19.0.0, SVG Export Plug-In . SVG Version: 6.00 Build 0)  -->
<svg version="1.1" id="Layer_1" xmlns="http://www.w3.org/2000/svg" xmlns:xlink="http://www.w3.org/1999/xlink" x="0px" y="0px"
	 viewBox="0 0 484.8 484.8" style="enable-background:new 0 0 484.8 484.8;" xml:space="preserve">
<g>
	<path style="fill:#F7910B;" d="M484.8,286.4c0,104-95.2,188-242.4,188S0,390.4,0,286.4s95.2-260,242.4-260S484.8,182.4,484.8,286.4
		z"/>
	<path style="fill:#F7910B;" d="M484.8,286.4c0,104-95.2,156-242.4,156S0,390.4,0,286.4s95.2-276,242.4-276S484.8,182.4,484.8,286.4
		z"/>
</g>
<g>
	<path style="fill:#F9A908;" d="M242.4,10.4c147.2,0,242.4,172,242.4,276s-95.2,156-242.4,156"/>
	<path style="fill:#F9A908;" d="M484.8,286.4c0,104-95.2,156-242.4,156S0,390.4,0,286.4s95.2-260,242.4-260S484.8,182.4,484.8,286.4
		z"/>
</g>
<path style="fill:#F9C55D;" d="M0,286.4c0-104,95.2-260,242.4-260"/>
<path style="fill:#F7910B;" d="M242.4,26.4c147.2,0,242.4,156,242.4,260s-95.2,188-242.4,188"/>
<path style="fill:#EA7103;" d="M242.4,26.4c147.2,0,242.4,156,242.4,260"/>
<g>
	<path style="fill:#19BCA4;" d="M192,114.4c0,7.2-11.2,4-26.4,4.8c-14.4,0.8-26.4,4.8-26.4-2.4s11.2-12.8,25.6-13.6
		C180,102.4,192,107.2,192,114.4z"/>
	<path style="fill:#19BCA4;" d="M292.8,114.4c0,7.2,11.2,4,26.4,4.8c14.4,0.8,26.4,4.8,26.4-2.4S334.4,104,320,103.2
		C304.8,102.4,292.8,107.2,292.8,114.4z"/>
</g>
<g>
	<path style="fill:#109DA0;" d="M192,114.4c0,7.2-11.2,4-26.4,4.8c-14.4,0.8-26.4,4.8-26.4-2.4"/>
	<path style="fill:#109DA0;" d="M292.8,114.4c0,7.2,11.2,4,26.4,4.8c14.4,0.8,26.4,4.8,26.4-2.4"/>
</g>
<path style="fill:#F9C55D;" d="M208.8,232.8c0,9.6-28,5.6-62.4,5.6S84,243.2,84,232.8c0-9.6,28-17.6,62.4-17.6
	C180.8,215.2,208.8,223.2,208.8,232.8z"/>
<path style="fill:#F9A908;" d="M400.8,232.8c0,9.6-28,5.6-62.4,5.6s-62.4,4.8-62.4-5.6c0-9.6,28-17.6,62.4-17.6
	S400.8,223.2,400.8,232.8z"/>
<g>
	<circle style="fill:#F7910B;" cx="68.8" cy="262.4" r="4.8"/>
	<circle style="fill:#F7910B;" cx="32.8" cy="278.4" r="8.8"/>
	<circle style="fill:#F7910B;" cx="56.8" cy="246.4" r="1.6"/>
	<circle style="fill:#F7910B;" cx="93.6" cy="260.8" r="1.6"/>
</g>
<g>
	<circle style="fill:#F9A908;" cx="407.2" cy="264.8" r="6.4"/>
	<circle style="fill:#F9A908;" cx="427.2" cy="276" r="1.6"/>
	<circle style="fill:#F9A908;" cx="384.8" cy="205.6" r="2.4"/>
	<circle style="fill:#F9A908;" cx="380.8" cy="298.4" r="10.4"/>
	<circle style="fill:#F9A908;" cx="438.4" cy="299.2" r="4.8"/>
</g>
<g>
	<circle style="fill:#F7910B;" cx="60.8" cy="294.4" r="4"/>
	<circle style="fill:#F7910B;" cx="67.2" cy="227.2" r="3.2"/>
</g>
<g>
	<circle style="fill:#F9A908;" cx="24.8" cy="116.8" r="8.8"/>
	<circle style="fill:#F9A908;" cx="50.4" cy="88.8" r="4.8"/>
	<circle style="fill:#F9A908;" cx="460" cy="136" r="1.6"/>
	<circle style="fill:#F9A908;" cx="453.6" cy="112.8" r="6.4"/>
	<circle style="fill:#F9A908;" cx="474.4" cy="116.8" r="4"/>
	<circle style="fill:#F9A908;" cx="34.4" cy="140.8" r="4.8"/>
</g>
<g>
	
		<ellipse transform="matrix(0.7071 -0.7071 0.7071 0.7071 -79.067 173.7115)" style="fill:#00233F;" cx="170.155" cy="182.298" rx="14.4" ry="47.2"/>
	
		<ellipse transform="matrix(-0.7071 -0.7071 0.7071 -0.7071 162.3374 431.8607)" style="fill:#00233F;" cx="170.61" cy="182.309" rx="14.4" ry="47.2"/>
	
		<ellipse transform="matrix(0.7071 -0.7071 0.7071 0.7071 -36.8822 275.5832)" style="fill:#00233F;" cx="314.217" cy="182.312" rx="14.4" ry="47.2"/>
	
		<ellipse transform="matrix(-0.7071 -0.7071 0.7071 -0.7071 408.1343 533.7404)" style="fill:#00233F;" cx="314.608" cy="182.343" rx="14.4" ry="47.2"/>
</g>
<path style="fill:#F7910B;" d="M284,357.6c0,19.2-18.4,34.4-41.6,34.4s-41.6-15.2-41.6-34.4"/>
<path style="fill:#C42260;" d="M293.6,310.4c0,48.8-23.2,68-51.2,68s-51.2-19.2-51.2-68s23.2-74.4,51.2-74.4
	C270.4,235.2,293.6,260.8,293.6,310.4z"/>
<path style="fill:#E2446E;" d="M292.8,324c-6.4-2.4-12.8-3.2-20-3.2c-11.2,0-21.6,3.2-30.4,8.8c-8.8-5.6-19.2-8.8-30.4-8.8
	c-7.2,0-13.6,1.6-20,3.2c4,38.4,24.8,54.4,50.4,54.4S288.8,362.4,292.8,324z"/>
<path style="fill:#99144A;" d="M292,290.4c-6.4-40-26.4-55.2-49.6-55.2s-44,15.2-49.6,55.2H292z"/>
<g>
</g>
<g>
</g>
<g>
</g>
<g>
</g>
<g>
</g>
<g>
</g>
<g>
</g>
<g>
</g>
<g>
</g>
<g>
</g>
<g>
</g>
<g>
</g>
<g>
</g>
<g>
</g>
<g>
</g>
</svg>
