<?xml version="1.0" encoding="iso-8859-1"?>
<!-- Generator: Adobe Illustrator 19.0.0, SVG Export Plug-In . SVG Version: 6.00 Build 0)  -->
<svg version="1.1" id="Layer_1" xmlns="http://www.w3.org/2000/svg" xmlns:xlink="http://www.w3.org/1999/xlink" x="0px" y="0px"
	 viewBox="0 0 512 512" style="enable-background:new 0 0 512 512;" xml:space="preserve">
<g>
	<path style="fill:#A66EDD;" d="M444.668,12.474c-3.163-5.268-11.198-2.987-11.191,3.157c0,0.072,0,0.146,0,0.219
		c0,79.421-45.623,148.176-112.086,181.518v116.017c87.031-22.252,151.183-100.394,152.099-194.586
		C473.868,79.895,463.292,43.494,444.668,12.474z"/>
	<circle style="fill:#A66EDD;" cx="256.001" cy="268.223" r="234.247"/>
</g>
<path style="fill:#7D45B2;" d="M306.199,467.89c-129.371,0-234.246-104.875-234.246-234.246c0-69.118,29.942-131.235,77.555-174.111
	C73.671,98.309,21.756,177.203,21.756,268.226c0,129.371,104.875,234.246,234.246,234.246c60.253,0,115.186-22.756,156.691-60.134
	C380.743,458.673,344.547,467.89,306.199,467.89z"/>
<g>
	<circle style="fill:#FC4C59;" cx="255.505" cy="263.065" r="25.993"/>
	<circle style="fill:#FC4C59;" cx="394.598" cy="256.026" r="25.993"/>
</g>
<g>
	<path style="fill:#3A2568;" d="M322.393,411.166c-25.169,0-49.466-10.762-68.871-30.619c-3.678-3.765-3.608-9.798,0.155-13.476
		c3.766-3.68,9.798-3.608,13.476,0.155c16.716,17.105,37.617,25.901,58.901,24.784c20.979-1.109,41.012-12.392,56.415-31.77
		c3.273-4.119,9.269-4.805,13.39-1.53c4.119,3.274,4.804,9.269,1.53,13.39c-18.846,23.711-43.822,37.541-70.33,38.941
		C325.502,411.125,323.945,411.166,322.393,411.166z"/>
	<path style="fill:#3A2568;" d="M256.052,298.575c-13.959,0-27.331-7.982-33.504-21.483c-4.517-9.878-4.358-21.999,0.427-32.427
		c2.042-4.452,4.794-8.312,8.12-11.46c-1.462-0.752-2.941-1.516-4.438-2.293c-6.509-3.38-11.74-6.469-16.801-9.454
		c-5.981-3.53-12.165-7.18-20.952-11.631c-4.695-2.377-6.574-8.112-4.196-12.806c2.377-4.696,8.111-6.577,12.806-4.196
		c9.336,4.728,15.79,8.537,22.03,12.221c5.063,2.99,9.846,5.812,15.895,8.953c4.07,2.113,8.015,4.128,11.806,6.065
		c16.215,8.284,30.219,15.436,39.54,23.003c1.138,0.925,2.049,2.1,2.661,3.436c8.434,18.445,0.291,40.312-18.153,48.744
		C266.348,297.505,261.159,298.575,256.052,298.575z M250.878,243.373c-0.194,0.071-0.395,0.135-0.597,0.193
		c-5.563,1.61-8.499,5.807-9.984,9.044c-2.431,5.296-2.595,11.794-0.418,16.553c4.065,8.887,14.599,12.81,23.486,8.748
		c4.306-1.969,7.587-5.495,9.238-9.931c1.404-3.772,1.489-7.815,0.273-11.589C267.371,252.305,259.745,248.021,250.878,243.373z"/>
	<path style="fill:#3A2568;" d="M395.892,292.111c-5.208,0-10.4-1.121-15.276-3.352c-8.934-4.085-15.744-11.406-19.172-20.612
		c-3.428-9.207-3.067-19.197,1.019-28.134c0.671-1.468,1.705-2.742,3.004-3.701c10.019-7.401,23.247-15.092,39.315-22.861
		c24.113-11.658,25.713-12.597,45.318-24.097l2.996-1.757c4.536-2.663,10.38-1.141,13.04,3.401c2.663,4.54,1.138,10.378-3.401,13.04
		l-2.992,1.756c-17.178,10.077-21.008,12.322-37.929,20.576c3.68,3.706,6.574,8.164,8.49,13.17
		c3.838,10.033,3.495,21.356-0.944,31.062c-4.085,8.934-11.406,15.744-20.612,19.173
		C404.567,291.334,400.224,292.111,395.892,292.111z M378.983,250.059c-1.165,3.73-1.065,7.715,0.321,11.437
		c1.652,4.436,4.932,7.963,9.239,9.931c4.303,1.967,9.12,2.14,13.553,0.49c4.436-1.653,7.964-4.934,9.932-9.238
		c2.291-5.011,2.469-11.114,0.475-16.326c-1.267-3.311-4.005-7.782-9.87-10.485C393.389,240.722,385.47,245.475,378.983,250.059z"/>
</g>
<path style="fill:#A66EDD;" d="M135.172,138.911c-29.84-31.314-48.161-73.702-48.161-120.374c0-0.064,0-0.126,0-0.188
	c0.005-5.283-6.904-7.245-9.624-2.715c-16.016,26.675-25.11,57.98-24.786,91.433c0.273,28.061,7.072,54.467,18.955,77.79
	c0,0,3.705,7.785,7.993,13.026L135.172,138.911z"/>
<path d="M477.313,166.08c3.617-15.376,5.55-31.229,5.706-47.19c0.381-39.308-10.056-77.803-30.182-111.322
	c-3.643-6.067-10.665-8.876-17.475-6.984c-6.836,1.898-11.423,7.949-11.415,15.048v0.22c0,22.645-3.85,44.662-11.432,65.638
	c-42.377-35.577-96.983-57.04-156.515-57.04c-54.194,0-106.749,18.073-149.346,51.109c-6.64-18.053-10.115-37.305-10.115-57.022
	V18.36c0.008-6.72-4.329-12.442-10.792-14.237c-6.443-1.788-13.083,0.865-16.53,6.605c-17.435,29.038-26.474,62.384-26.144,96.431
	c0.281,28.939,7.007,56.536,19.993,82.026c1.684,3.304,5.029,5.206,8.498,5.206c1.456,0,2.934-0.335,4.319-1.041
	c4.689-2.39,6.554-8.127,4.164-12.818c-11.636-22.84-17.664-47.589-17.914-73.557c-0.245-25.262,5.26-50.088,16.017-72.644
	c3.539,41.624,21.025,80.618,50.123,111.154c3.629,3.811,9.662,3.957,13.473,0.325c3.811-3.63,3.955-9.663,0.325-13.473
	c-11.116-11.665-20.338-24.709-27.511-38.724c39.909-32.352,89.869-50.105,141.442-50.105c123.91,0,224.715,100.808,224.715,224.717
	S379.911,492.941,256.002,492.941S31.284,392.135,31.284,268.226c0-15.06,1.498-30.114,4.453-44.745
	c1.042-5.159-2.296-10.185-7.455-11.227c-5.157-1.043-10.186,2.296-11.227,7.455c-3.204,15.868-4.831,32.193-4.831,48.518
	C12.225,402.644,121.582,512,256.001,512c134.418,0,243.774-109.357,243.774-243.774
	C499.776,231.771,491.718,197.168,477.313,166.08z M427.642,95.292c8.631-21.371,13.667-43.786,15.002-66.866
	c14.282,27.782,21.623,58.741,21.316,90.282c-0.066,6.838-0.506,13.651-1.274,20.41C452.698,123.183,440.927,108.479,427.642,95.292
	z"/>
<path d="M267.107,367.226c-3.678-3.764-9.712-3.835-13.476-0.155c-3.764,3.68-3.833,9.712-0.155,13.476
	c19.406,19.857,43.703,30.619,68.87,30.619c1.554,0,3.11-0.041,4.668-0.125c26.507-1.401,51.485-15.231,70.33-38.941
	c3.274-4.121,2.589-10.115-1.53-13.39c-4.121-3.276-10.115-2.589-13.39,1.53c-15.402,19.378-35.438,30.661-56.415,31.77
	C304.727,393.127,283.823,384.331,267.107,367.226z"/>
<path d="M286.738,243.063c-9.321-7.564-23.323-14.717-39.538-23c-3.791-1.936-7.738-3.952-11.808-6.066
	c-6.047-3.141-10.828-5.962-15.89-8.951c-6.241-3.683-12.696-7.493-22.033-12.222c-4.694-2.381-10.428-0.502-12.806,4.196
	c-2.379,4.695-0.501,10.429,4.196,12.806c8.79,4.452,14.974,8.103,20.955,11.634c5.058,2.986,10.291,6.073,16.797,9.452
	c1.497,0.776,2.976,1.541,4.438,2.293c-3.325,3.147-6.077,7.007-8.12,11.46c-4.785,10.428-4.944,22.549-0.427,32.427
	c6.174,13.501,19.546,21.483,33.504,21.483c5.109,0,10.297-1.07,15.24-3.33c18.443-8.433,26.587-30.3,18.156-48.743
	C288.79,245.164,287.877,243.989,286.738,243.063z M263.318,277.913c-8.887,4.062-19.421,0.138-23.486-8.748
	c-2.177-4.76-2.013-11.258,0.418-16.553c1.485-3.237,4.422-7.436,9.984-9.044c0.202-0.058,0.402-0.123,0.598-0.193
	c8.866,4.647,16.49,8.93,21.995,13.017C275.531,264.813,271.558,274.144,263.318,277.913z"/>
<path d="M462.69,204.039c4.54-2.662,6.063-8.499,3.401-13.04c-2.662-4.542-8.502-6.063-13.04-3.401l-2.996,1.757
	c-19.605,11.5-21.205,12.439-45.318,24.097c-16.068,7.768-29.297,15.459-39.315,22.861c-1.299,0.959-2.333,2.234-3.004,3.701
	c-4.086,8.935-4.447,18.927-1.019,28.134c3.429,9.205,10.24,16.527,19.173,20.612c4.878,2.231,10.069,3.352,15.276,3.352
	c4.331,0,8.674-0.775,12.856-2.333c9.205-3.429,16.527-10.24,20.613-19.175c4.437-9.707,4.781-21.03,0.941-31.062
	c-1.916-5.007-4.809-9.462-8.489-13.168c16.919-8.254,20.749-10.5,37.927-20.576L462.69,204.039z M411.983,262.678
	c-1.969,4.306-5.497,7.587-9.932,9.238c-4.433,1.649-9.249,1.476-13.553-0.49c-4.306-1.969-7.587-5.497-9.239-9.932
	c-1.386-3.72-1.487-7.705-0.321-11.435c6.486-4.584,14.406-9.336,23.651-14.191c5.865,2.701,8.603,7.173,9.87,10.484
	C414.452,251.563,414.274,257.666,411.983,262.678z"/>
<circle cx="35.397" cy="188.354" r="9.529"/>
<g>
</g>
<g>
</g>
<g>
</g>
<g>
</g>
<g>
</g>
<g>
</g>
<g>
</g>
<g>
</g>
<g>
</g>
<g>
</g>
<g>
</g>
<g>
</g>
<g>
</g>
<g>
</g>
<g>
</g>
</svg>
