<?xml version="1.0" encoding="iso-8859-1"?>
<!-- Generator: Adobe Illustrator 19.0.0, SVG Export Plug-In . SVG Version: 6.00 Build 0)  -->
<svg version="1.1" id="Layer_1" xmlns="http://www.w3.org/2000/svg" xmlns:xlink="http://www.w3.org/1999/xlink" x="0px" y="0px"
	 viewBox="0 0 489.6 489.6" style="enable-background:new 0 0 489.6 489.6;" xml:space="preserve">
<g>
	<path style="fill:#F7910B;" d="M487.2,301.6c0,104-95.2,188-242.4,188s-242.4-84-242.4-188s95.2-260,242.4-260
		S487.2,197.6,487.2,301.6z"/>
	<path style="fill:#F7910B;" d="M487.2,301.6c0,104-95.2,156-242.4,156s-242.4-52-242.4-156s95.2-276,242.4-276
		S487.2,197.6,487.2,301.6z"/>
</g>
<g>
	<path style="fill:#F9A908;" d="M244.8,25.6c147.2,0,242.4,172,242.4,276s-95.2,156-242.4,156"/>
	<path style="fill:#F9A908;" d="M487.2,301.6c0,104-95.2,156-242.4,156s-242.4-52-242.4-156s95.2-260,242.4-260
		S487.2,197.6,487.2,301.6z"/>
</g>
<path style="fill:#F9C55D;" d="M2.4,301.6c0-104,95.2-260,242.4-260"/>
<path style="fill:#F7910B;" d="M244.8,41.6c147.2,0,242.4,156,242.4,260s-95.2,188-242.4,188"/>
<path style="fill:#EA7103;" d="M244.8,41.6c147.2,0,242.4,156,242.4,260"/>
<g>
	<circle style="fill:#F7910B;" cx="71.2" cy="277.6" r="4.8"/>
	<circle style="fill:#F7910B;" cx="35.2" cy="293.6" r="8.8"/>
	<circle style="fill:#F7910B;" cx="59.2" cy="261.6" r="1.6"/>
	<circle style="fill:#F7910B;" cx="96" cy="276" r="1.6"/>
</g>
<g>
	<circle style="fill:#F9A908;" cx="409.6" cy="280" r="6.4"/>
	<circle style="fill:#F9A908;" cx="429.6" cy="291.2" r="1.6"/>
	<circle style="fill:#F9A908;" cx="387.2" cy="220.8" r="2.4"/>
	<circle style="fill:#F9A908;" cx="383.2" cy="313.6" r="10.4"/>
	<circle style="fill:#F9A908;" cx="440.8" cy="314.4" r="4.8"/>
</g>
<g>
	<circle style="fill:#F7910B;" cx="63.2" cy="309.6" r="4"/>
	<circle style="fill:#F7910B;" cx="69.6" cy="242.4" r="3.2"/>
</g>
<g>
	<circle style="fill:#F9A908;" cx="27.2" cy="132" r="8.8"/>
	<circle style="fill:#F9A908;" cx="52.8" cy="104" r="4.8"/>
	<circle style="fill:#F9A908;" cx="462.4" cy="151.2" r="1.6"/>
	<circle style="fill:#F9A908;" cx="456" cy="128" r="6.4"/>
	<circle style="fill:#F9A908;" cx="476.8" cy="132" r="4"/>
	<circle style="fill:#F9A908;" cx="36.8" cy="156" r="4.8"/>
</g>
<path style="fill:#F7910B;" d="M302.4,384.8c0,20.8-26.4,57.6-59.2,57.6S184,405.6,184,384.8"/>
<g>
	<circle style="fill:#D87703;" cx="153.6" cy="209.6" r="28"/>
	<path style="fill:#D87703;" d="M364,209.6c0,15.2-12.8,28-28,28s-28-12.8-28-28s12.8-28,28-28C352,181.6,364,194.4,364,209.6z"/>
</g>
<circle style="fill:#1E4784;" cx="153.6" cy="201.6" r="28"/>
<path style="fill:#00233F;" d="M153.6,173.6c15.2,0,28,12.8,28,28s-12.8,28-28,28"/>
<path style="fill:#1E4784;" d="M364,201.6c0,15.2-12.8,28-28,28s-28-12.8-28-28s12.8-28,28-28C352,173.6,364,186.4,364,201.6z"/>
<path style="fill:#00233F;" d="M336,173.6c15.2,0,28,12.8,28,28s-12.8,28-28,28"/>
<path style="fill:#F9A908;" d="M120.8,208c0-18.4,14.4-40.8,32.8-40.8s32.8,22.4,32.8,40.8"/>
<path style="fill:#F7910B;" d="M303.2,208c0-18.4,14.4-40.8,32.8-40.8s32.8,22.4,32.8,40.8"/>
<path style="fill:#F9C55D;" d="M211.2,248c0,9.6-28,5.6-62.4,5.6s-62.4,4.8-62.4-5.6c0-9.6,28-17.6,62.4-17.6S211.2,238.4,211.2,248
	z"/>
<path style="fill:#F9A908;" d="M403.2,248c0,9.6-28,5.6-62.4,5.6s-62.4,4.8-62.4-5.6c0-9.6,28-17.6,62.4-17.6S403.2,238.4,403.2,248
	z"/>
<g>
	<path style="fill:#19BCA4;" d="M175.2,173.6c1.6,7.2-0.8,4-11.2,5.6c-11.2,1.6-19.2,7.2-20.8,0s6.4-15.2,17.6-16.8
		C171.2,160,173.6,166.4,175.2,173.6z"/>
	<path style="fill:#19BCA4;" d="M315.2,101.6c0,8,0.8,4,12,4s20,4,20-4s-8.8-13.6-20-13.6C316,88,315.2,94.4,315.2,101.6z"/>
</g>
<path style="fill:#24B9ED;" d="M389.6,156.8v-8c-0.8-17.6,4.8-34.4,20-52.8c10.4-12.8,19.2-24,19.2-35.2c0-12-8-19.2-24.8-20
	c-11.2,0-24.8,4-33.6,10.4l-11.2-36.8C371.2,7.2,392,0.8,416,0.8c44.8,0,64.8,24.8,64.8,52.8c0,25.6-14.4,42.4-28,56.8
	c-12.8,13.6-16,27.2-16,42.4v4H389.6z M380.8,204.8c0-17.6,12.8-31.2,30.4-31.2c18.4,0,30.4,12.8,30.4,31.2
	c0,17.6-12,31.2-30.4,31.2S380.8,223.2,380.8,204.8z"/>
<path style="fill:#02243E;" d="M300.8,300.8h-112c-4.8,0-8-3.2-8-8s3.2-8,8-8h112c4.8,0,8,3.2,8,8S305.6,300.8,300.8,300.8z"/>
<g>
	<path style="fill:#1491DD;" d="M410.4,174.4C409.6,174.4,410.4,174.4,410.4,174.4V236c0,0-1.6,0,0,0c18.4,0,30.4-13.6,30.4-31.2
		C440.8,187.2,428.8,174.4,410.4,174.4z"/>
	<path style="fill:#1491DD;" d="M414.4,0c-2.4,0-1.6,0-9.6,0v40c16,1.6,22.4,9.6,22.4,20.8s-4,17.6-15.2,30.4
		c-0.8,0.8-2.4,3.2-8,9.6v56h32V152c0-15.2,3.2-28.8,16-42.4c12.8-14.4,28-31.2,28-56.8C480.8,24.8,459.2,0,414.4,0z"/>
</g>
<g>
</g>
<g>
</g>
<g>
</g>
<g>
</g>
<g>
</g>
<g>
</g>
<g>
</g>
<g>
</g>
<g>
</g>
<g>
</g>
<g>
</g>
<g>
</g>
<g>
</g>
<g>
</g>
<g>
</g>
</svg>
