<?xml version="1.0" encoding="iso-8859-1"?>
<!-- Generator: Adobe Illustrator 19.0.0, SVG Export Plug-In . SVG Version: 6.00 Build 0)  -->
<svg version="1.1" id="Layer_1" xmlns="http://www.w3.org/2000/svg" xmlns:xlink="http://www.w3.org/1999/xlink" x="0px" y="0px"
	 viewBox="0 0 511.999 511.999" style="enable-background:new 0 0 511.999 511.999;" xml:space="preserve">
<circle style="fill:#FDDF6D;" cx="256.001" cy="256.001" r="245.993"/>
<path style="fill:#FCC56B;" d="M308.715,465.677c-135.858,0-245.992-110.134-245.992-245.992
	c0-72.584,31.443-137.816,81.444-182.842c-79.64,40.719-134.16,123.57-134.16,219.156c0,135.858,110.134,245.992,245.992,245.992
	c63.274,0,120.962-23.897,164.548-63.149C386.997,455.998,348.986,465.677,308.715,465.677z"/>
<g>
	<path style="fill:#7F184C;" d="M439.394,206.619h-81.821c-5.528,0-10.007-4.481-10.007-10.007c0-5.527,4.479-10.007,10.007-10.007
		h81.821c5.528,0,10.007,4.481,10.007,10.007C449.401,202.139,444.92,206.619,439.394,206.619z"/>
	<path style="fill:#7F184C;" d="M251.982,206.619h-81.821c-5.528,0-10.007-4.481-10.007-10.007c0-5.527,4.479-10.007,10.007-10.007
		h81.821c5.528,0,10.007,4.481,10.007,10.007C261.989,202.139,257.508,206.619,251.982,206.619z"/>
	<path style="fill:#7F184C;" d="M398.484,355.172H217.886c-5.528,0-10.007-4.481-10.007-10.007s4.479-10.007,10.007-10.007h180.597
		c5.528,0,10.007,4.481,10.007,10.007S404.01,355.172,398.484,355.172z"/>
</g>
<path d="M467.481,111.696c-28.431-41.588-68.012-73.634-114.465-92.67c-5.112-2.096-10.959,0.351-13.054,5.465
	c-2.096,5.114,0.351,10.959,5.465,13.055c42.823,17.549,79.314,47.096,105.532,85.445c26.84,39.261,41.026,85.256,41.026,133.008
	c0,130.123-105.863,235.985-235.985,235.985S20.015,386.123,20.015,255.999S125.877,20.015,255.999,20.015
	c5.528,0,10.007-4.481,10.007-10.007S261.527,0,255.999,0C114.84,0,0,114.841,0,255.999s114.84,255.999,255.999,255.999
	s255.999-114.84,255.999-255.999C512,204.199,496.606,154.3,467.481,111.696z"/>
<path d="M439.394,206.619c5.528,0,10.007-4.481,10.007-10.007c0-5.527-4.479-10.007-10.007-10.007h-81.821
	c-5.528,0-10.007,4.481-10.007,10.007c0,5.527,4.479,10.007,10.007,10.007H439.394z"/>
<path d="M207.879,345.166c0,5.527,4.479,10.007,10.007,10.007h180.597c5.528,0,10.007-4.481,10.007-10.007
	s-4.479-10.007-10.007-10.007H217.886C212.358,335.159,207.879,339.638,207.879,345.166z"/>
<path d="M261.989,196.612c0-5.527-4.479-10.007-10.007-10.007h-81.821c-5.528,0-10.007,4.481-10.007,10.007
	c0,5.527,4.479,10.007,10.007,10.007h81.821C257.508,206.619,261.989,202.139,261.989,196.612z"/>
<circle cx="314.03" cy="17.74" r="10.007"/>
<g>
</g>
<g>
</g>
<g>
</g>
<g>
</g>
<g>
</g>
<g>
</g>
<g>
</g>
<g>
</g>
<g>
</g>
<g>
</g>
<g>
</g>
<g>
</g>
<g>
</g>
<g>
</g>
<g>
</g>
</svg>
