<?xml version="1.0" encoding="iso-8859-1"?>
<!-- Generator: Adobe Illustrator 19.0.0, SVG Export Plug-In . SVG Version: 6.00 Build 0)  -->
<svg version="1.1" id="Layer_1" xmlns="http://www.w3.org/2000/svg" xmlns:xlink="http://www.w3.org/1999/xlink" x="0px" y="0px"
	 viewBox="0 0 504 504" style="enable-background:new 0 0 504 504;" xml:space="preserve">
<g>
	<path style="fill:#F7910B;" d="M494.4,316c0,104-95.2,188-242.4,188S9.6,419.2,9.6,316S104.8,56,252,56S494.4,212,494.4,316z"/>
	<path style="fill:#F7910B;" d="M494.4,316c0,104-95.2,156-242.4,156S9.6,419.2,9.6,316S104.8,40,252,40S494.4,212,494.4,316z"/>
</g>
<g>
	<path style="fill:#F9A908;" d="M252,40c147.2,0,242.4,172,242.4,276S399.2,472,252,472"/>
	<path style="fill:#F9A908;" d="M494.4,316c0,104-95.2,156-242.4,156S9.6,419.2,9.6,316S104.8,56,252,56S494.4,212,494.4,316z"/>
</g>
<path style="fill:#F9C55D;" d="M9.6,316C9.6,212,104.8,56,252,56"/>
<path style="fill:#F7910B;" d="M252,56c147.2,0,242.4,156,242.4,260S399.2,504,252,504"/>
<g>
	<path style="fill:#EA7103;" d="M252,56c147.2,0,242.4,156,242.4,260"/>
	<circle style="fill:#EA7103;" cx="168.8" cy="284" r="25.6"/>
	<circle style="fill:#EA7103;" cx="335.2" cy="284" r="25.6"/>
</g>
<circle style="fill:#1E4784;" cx="168.8" cy="276.8" r="25.6"/>
<path style="fill:#00233F;" d="M168.8,251.2c14.4,0,25.6,11.2,25.6,25.6s-11.2,25.6-25.6,25.6"/>
<circle style="fill:#1E4784;" cx="335.2" cy="276.8" r="25.6"/>
<path style="fill:#00233F;" d="M335.2,251.2c14.4,0,25.6,11.2,25.6,25.6s-11.2,25.6-25.6,25.6"/>
<path style="fill:#19BCA4;" d="M215.2,216.8c-4,9.6-18.4-1.6-39.2-9.6s-39.2-9.6-35.2-19.2c4-9.6,23.2-11.2,44-3.2
	C205.6,192,219.2,206.4,215.2,216.8z"/>
<path style="fill:#109DA0;" d="M215.2,216.8c-4,9.6-18.4-1.6-39.2-9.6s-39.2-9.6-35.2-19.2"/>
<path style="fill:#19BCA4;" d="M287.2,243.2c3.2,10.4,18.4,0,39.2-7.2c20.8-6.4,39.2-7.2,36-16.8c-3.2-10.4-22.4-12.8-43.2-6.4
	C298.4,219.2,284,232.8,287.2,243.2z"/>
<path style="fill:#109DA0;" d="M287.2,243.2c3.2,10.4,18.4,0,39.2-7.2c20.8-6.4,39.2-7.2,36-16.8"/>
<path style="fill:#F9C55D;" d="M218.4,325.6c0,9.6-28,5.6-62.4,5.6s-62.4,4.8-62.4-5.6s28-17.6,62.4-17.6S218.4,316,218.4,325.6z"/>
<path style="fill:#F9A908;" d="M410.4,325.6c0,9.6-28,5.6-62.4,5.6s-62.4,4.8-62.4-5.6s28-17.6,62.4-17.6S410.4,316,410.4,325.6z"/>
<g>
	<path style="fill:#F7910B;" d="M316,385.6c0,38.4-28.8,70.4-64,70.4s-64-31.2-64-70.4"/>
	<circle style="fill:#F7910B;" cx="78.4" cy="291.2" r="4.8"/>
	<circle style="fill:#F7910B;" cx="42.4" cy="307.2" r="8.8"/>
	<circle style="fill:#F7910B;" cx="66.4" cy="275.2" r="1.6"/>
	<circle style="fill:#F7910B;" cx="103.2" cy="289.6" r="1.6"/>
</g>
<g>
	<circle style="fill:#F9A908;" cx="416.8" cy="294.4" r="6.4"/>
	<circle style="fill:#F9A908;" cx="436.8" cy="305.6" r="1.6"/>
	<circle style="fill:#F9A908;" cx="394.4" cy="235.2" r="2.4"/>
	<circle style="fill:#F9A908;" cx="390.4" cy="328" r="10.4"/>
	<circle style="fill:#F9A908;" cx="448" cy="328" r="4.8"/>
</g>
<g>
	<circle style="fill:#F7910B;" cx="70.4" cy="324" r="4"/>
	<circle style="fill:#F7910B;" cx="76.8" cy="256" r="3.2"/>
</g>
<g>
	<circle style="fill:#F9A908;" cx="34.4" cy="146.4" r="8.8"/>
	<circle style="fill:#F9A908;" cx="60" cy="117.6" r="4.8"/>
	<circle style="fill:#F9A908;" cx="469.6" cy="165.6" r="1.6"/>
	<circle style="fill:#F9A908;" cx="463.2" cy="141.6" r="6.4"/>
	<circle style="fill:#F9A908;" cx="484" cy="146.4" r="4"/>
	<circle style="fill:#F9A908;" cx="44" cy="169.6" r="4.8"/>
</g>
<path style="fill:#00233F;" d="M252,349.6c0,0-53.6-25.6-94.4,14.4c-48,46.4-84,9.6-84,9.6s6.4,67.2,105.6,65.6
	c44-0.8,73.6-43.2,73.6-43.2v-46.4H252z"/>
<g>
	<path style="fill:#1E4784;" d="M252,355.2L252,355.2c-8-1.6-56-6.4-81.6,32.8c-29.6,45.6-64,32-73.6,27.2
		c8.8,8,21.6,15.2,39.2,19.2c13.6-3.2,28-12.8,40-37.6C196.8,356.8,236,354.4,252,355.2z"/>
	<path style="fill:#1E4784;" d="M79.2,380.8c0,0,36,36.8,84-9.6c32.8-32,72.8-21.6,88.8-16v-5.6c0,0-53.6-25.6-94.4,14.4
		c-48,46.4-84,9.6-84,9.6s1.6,16.8,16,34.4C80,392.8,79.2,380.8,79.2,380.8z"/>
</g>
<path style="fill:#00233F;" d="M252,349.6c0,0,53.6-25.6,94.4,14.4c48,46.4,84,9.6,84,9.6s-6.4,67.2-105.6,65.6
	c-44-0.8-73.6-43.2-73.6-43.2v-46.4H252z"/>
<g>
	<path style="fill:#1E4784;" d="M252,355.2L252,355.2c8-1.6,56-6.4,81.6,32.8c29.6,45.6,64,32,73.6,27.2c-8.8,8-21.6,15.2-39.2,19.2
		c-13.6-3.2-28-12.8-40-37.6C307.2,356.8,268,354.4,252,355.2z"/>
	<path style="fill:#1E4784;" d="M424.8,380.8c0,0-36,36.8-84-9.6c-32.8-32-72.8-21.6-88.8-16v-5.6c0,0,53.6-25.6,94.4,14.4
		c48,46.4,84,9.6,84,9.6s-1.6,16.8-16,34.4C424,392.8,424.8,380.8,424.8,380.8z"/>
	<circle style="fill:#1E4784;" cx="338.4" cy="281.6" r="46.4"/>
</g>
<circle style="fill:#9EC6C1;" cx="338.4" cy="281.6" r="35.2"/>
<circle style="fill:#C1DBD8;" cx="341.6" cy="284" r="31.2"/>
<path style="fill:#D8EAE7;" d="M364,262.4c12,12,12,32,0,44s-32,12-44,0"/>
<path style="fill:#1E4784;" d="M116,136C116,60.8,176.8,0,252,0s136,60.8,136,136"/>
<g>
	<path style="fill:#00233F;" d="M252,140h136C388,60,324,0.8,252,0V140z"/>
	<path style="fill:#00233F;" d="M486.4,124.8c0,27.2-104.8,48.8-234.4,48.8S17.6,152,17.6,124.8S122.4,100,252,100
		S486.4,97.6,486.4,124.8z"/>
</g>
<g>
	<rect x="387.2" y="250.4" style="fill:#1E4784;" width="15.2" height="15.2"/>
	<rect x="407.2" y="231.2" style="fill:#1E4784;" width="15.2" height="15.2"/>
	<rect x="427.2" y="211.2" style="fill:#1E4784;" width="15.2" height="15.2"/>
</g>
<path style="fill:#00233F;" d="M420.8,104c0,12.8-10.4,20-22.4,20h-288c-12.8,0-22.4-7.2-22.4-20l0,0c0-12.8,10.4-20,22.4-20h288
	C410.4,84,420.8,91.2,420.8,104L420.8,104z"/>
<g>
	<rect x="468" y="208.8" style="fill:#1E4784;" width="15.2" height="15.2"/>
	<rect x="448.8" y="189.6" style="fill:#1E4784;" width="15.2" height="15.2"/>
	<rect x="428.8" y="169.6" style="fill:#1E4784;" width="15.2" height="15.2"/>
</g>
<g>
</g>
<g>
</g>
<g>
</g>
<g>
</g>
<g>
</g>
<g>
</g>
<g>
</g>
<g>
</g>
<g>
</g>
<g>
</g>
<g>
</g>
<g>
</g>
<g>
</g>
<g>
</g>
<g>
</g>
</svg>
