<?xml version="1.0" encoding="iso-8859-1"?>
<!-- Generator: Adobe Illustrator 19.0.0, SVG Export Plug-In . SVG Version: 6.00 Build 0)  -->
<svg version="1.1" id="Layer_1" xmlns="http://www.w3.org/2000/svg" xmlns:xlink="http://www.w3.org/1999/xlink" x="0px" y="0px"
	 viewBox="0 0 512 512" style="enable-background:new 0 0 512 512;" xml:space="preserve">
<circle style="fill:#FDDF6D;" cx="256.001" cy="256.001" r="245.994"/>
<path style="fill:#FCC56B;" d="M308.715,465.678c-135.858,0-245.993-110.134-245.993-245.993
	c0-72.584,31.443-137.816,81.444-182.842C64.527,77.562,10.007,160.414,10.007,256c0,135.858,110.134,245.993,245.993,245.993
	c63.274,0,120.962-23.898,164.549-63.149C386.996,455.999,348.987,465.678,308.715,465.678z"/>
<path style="fill:#7F184C;" d="M291.792,421.175L291.792,421.175c-54.992,0-99.573-44.581-99.573-99.573l0,0h199.146l0,0
	C391.365,376.594,346.784,421.175,291.792,421.175z"/>
<g>
	<circle style="fill:#FFFFFF;" cx="213.157" cy="179.852" r="30.022"/>
	<circle style="fill:#FFFFFF;" cx="382.187" cy="179.852" r="30.022"/>
</g>
<path style="fill:#FC4C59;" d="M293.765,379.866c-26.916-12.505-56.784-10.688-81.005,2.282c18.2,23.721,46.821,39.029,79.03,39.029
	l0,0c14.194,0,27.683-2.99,39.903-8.342C322.729,398.961,309.874,387.35,293.765,379.866z"/>
<g>
	<path style="fill:#F9A880;" d="M150.286,240.771c-18.268,0-33.078,14.81-33.078,33.078h66.157
		C183.365,255.581,168.556,240.771,150.286,240.771z"/>
	<path style="fill:#F9A880;" d="M438.814,236.339c-18.268,0-33.078,14.81-33.078,33.078h66.157
		C471.892,251.148,457.082,236.339,438.814,236.339z"/>
</g>
<path style="fill:#F2F2F2;" d="M218.391,321.602v15.543c0,6.554,5.313,11.866,11.866,11.866H357.08
	c6.554,0,11.866-5.313,11.866-11.866v-15.543H218.391z"/>
<ellipse transform="matrix(0.2723 -0.9622 0.9622 0.2723 148.0746 352.5933)" style="fill:#FCEB88;" cx="307.149" cy="78.399" rx="28.687" ry="51.37"/>
<path d="M467.721,112.048c-28.273-41.505-67.662-73.558-113.908-92.693c-5.106-2.112-10.961,0.315-13.074,5.421
	c-2.112,5.108,0.314,10.96,5.421,13.074c42.633,17.64,78.947,47.195,105.02,85.467c26.694,39.19,40.806,85.07,40.806,132.684
	c0,130.124-105.862,235.985-235.985,235.985S20.015,386.122,20.015,256S125.876,20.015,256,20.015
	c5.527,0,10.007-4.481,10.007-10.007S261.527,0,256,0C114.84,0,0,114.84,0,256s114.84,256,256,256s256-114.84,256-256
	C512,204.35,496.689,154.572,467.721,112.048z"/>
<path d="M253.193,179.856c0-22.072-17.957-40.029-40.029-40.029s-40.029,17.957-40.029,40.029c0,22.072,17.957,40.029,40.029,40.029
	S253.193,201.928,253.193,179.856z M193.149,179.856c0-11.036,8.979-20.015,20.015-20.015s20.015,8.979,20.015,20.015
	c0,11.036-8.979,20.015-20.015,20.015S193.149,190.892,193.149,179.856z"/>
<path d="M422.215,179.856c0-22.072-17.957-40.029-40.029-40.029s-40.029,17.957-40.029,40.029c0,22.072,17.957,40.029,40.029,40.029
	S422.215,201.928,422.215,179.856z M362.171,179.856c0-11.036,8.979-20.015,20.015-20.015s20.015,8.979,20.015,20.015
	c0,11.036-8.979,20.015-20.015,20.015S362.171,190.892,362.171,179.856z"/>
<path d="M182.211,321.602c0,60.423,49.157,109.58,109.58,109.58s109.58-49.157,109.58-109.58c0-5.527-4.481-10.007-10.007-10.007
	H192.218C186.692,311.594,182.211,316.075,182.211,321.602z M380.802,331.609c-4.992,44.695-43.006,79.558-89.011,79.558l0,0
	c-46.004,0-84.019-34.863-89.011-79.558L380.802,331.609L380.802,331.609z"/>
<circle cx="314.431" cy="16.867" r="10.007"/>
<g>
</g>
<g>
</g>
<g>
</g>
<g>
</g>
<g>
</g>
<g>
</g>
<g>
</g>
<g>
</g>
<g>
</g>
<g>
</g>
<g>
</g>
<g>
</g>
<g>
</g>
<g>
</g>
<g>
</g>
</svg>
