<?xml version="1.0" encoding="iso-8859-1"?>
<!-- Generator: Adobe Illustrator 19.0.0, SVG Export Plug-In . SVG Version: 6.00 Build 0)  -->
<svg version="1.1" id="Layer_1" xmlns="http://www.w3.org/2000/svg" xmlns:xlink="http://www.w3.org/1999/xlink" x="0px" y="0px"
	 viewBox="0 0 504 504" style="enable-background:new 0 0 504 504;" xml:space="preserve">
<g>
	<ellipse style="fill:#EA81B8;" cx="45.6" cy="244" rx="43.2" ry="61.6"/>
	<ellipse style="fill:#EA81B8;" cx="458.4" cy="244" rx="43.2" ry="61.6"/>
</g>
<g>
	<path style="fill:#F7910B;" d="M494.4,314.4c0,104-95.2,188-242.4,188s-242.4-84-242.4-188s95.2-260,242.4-260
		S494.4,211.2,494.4,314.4z"/>
	<path style="fill:#F7910B;" d="M494.4,314.4c0,104-95.2,156-242.4,156s-242.4-52-242.4-156s95.2-276,242.4-276
		S494.4,211.2,494.4,314.4z"/>
</g>
<g>
	<path style="fill:#F9A908;" d="M252,38.4c147.2,0,242.4,172,242.4,276s-95.2,156-242.4,156"/>
	<path style="fill:#F9A908;" d="M494.4,314.4c0,104-95.2,156-242.4,156s-242.4-52-242.4-156s95.2-260,242.4-260
		S494.4,211.2,494.4,314.4z"/>
</g>
<path style="fill:#F9C55D;" d="M9.6,314.4c0-104,95.2-260,242.4-260"/>
<path style="fill:#F7910B;" d="M252,54.4c147.2,0,242.4,156,242.4,260s-95.2,188-242.4,188"/>
<path style="fill:#EA7103;" d="M252,54.4c147.2,0,242.4,156,242.4,260"/>
<path style="fill:#F9C55D;" d="M218.4,297.6c0,9.6-28,5.6-62.4,5.6s-62.4,4.8-62.4-5.6s28-17.6,62.4-17.6
	C190.4,279.2,218.4,287.2,218.4,297.6z"/>
<path style="fill:#F9A908;" d="M410.4,297.6c0,9.6-28,5.6-62.4,5.6s-62.4,4.8-62.4-5.6s28-17.6,62.4-17.6
	C382.4,279.2,410.4,287.2,410.4,297.6z"/>
<g>
	<circle style="fill:#F7910B;" cx="78.4" cy="290.4" r="4.8"/>
	<circle style="fill:#F7910B;" cx="42.4" cy="306.4" r="8.8"/>
	<circle style="fill:#F7910B;" cx="66.4" cy="274.4" r="2.4"/>
	<circle style="fill:#F7910B;" cx="103.2" cy="288.8" r="1.6"/>
</g>
<g>
	<circle style="fill:#F9A908;" cx="416.8" cy="293.6" r="6.4"/>
	<circle style="fill:#F9A908;" cx="436.8" cy="304" r="1.6"/>
	<circle style="fill:#F9A908;" cx="394.4" cy="233.6" r="2.4"/>
	<circle style="fill:#F9A908;" cx="390.4" cy="327.2" r="10.4"/>
	<circle style="fill:#F9A908;" cx="448" cy="327.2" r="4.8"/>
</g>
<g>
	<circle style="fill:#F7910B;" cx="70.4" cy="322.4" r="4"/>
	<circle style="fill:#F7910B;" cx="76.8" cy="255.2" r="3.2"/>
</g>
<g>
	<circle style="fill:#F9A908;" cx="34.4" cy="145.6" r="8.8"/>
	<circle style="fill:#F9A908;" cx="60" cy="116.8" r="4.8"/>
	<circle style="fill:#F9A908;" cx="469.6" cy="164" r="1.6"/>
	<circle style="fill:#F9A908;" cx="463.2" cy="140.8" r="6.4"/>
	<circle style="fill:#F9A908;" cx="484" cy="145.6" r="4"/>
	<circle style="fill:#F9A908;" cx="44" cy="168.8" r="4.8"/>
</g>
<circle style="fill:#FFFFFF;" cx="161.6" cy="227.2" r="74.4"/>
<path style="fill:#756A49;" d="M161.6,315.2c-48.8,0-88-39.2-88-88s39.2-88,88-88s88,39.2,88,88S209.6,315.2,161.6,315.2z
	 M161.6,165.6c-33.6,0-61.6,27.2-61.6,61.6s27.2,61.6,61.6,61.6c33.6,0,61.6-27.2,61.6-61.6S195.2,165.6,161.6,165.6z"/>
<path style="fill:#FFFFFF;" d="M417.6,227.2c0,41.6-33.6,74.4-74.4,74.4c-41.6,0-74.4-33.6-74.4-74.4s33.6-74.4,74.4-74.4
	C384,152.8,417.6,185.6,417.6,227.2z"/>
<path style="fill:#756A49;" d="M342.4,315.2c-48.8,0-88-39.2-88-88s39.2-88,88-88s88,39.2,88,88S391.2,315.2,342.4,315.2z
	 M342.4,165.6c-33.6,0-61.6,27.2-61.6,61.6s27.2,61.6,61.6,61.6c33.6,0,61.6-27.2,61.6-61.6S376.8,165.6,342.4,165.6z"/>
<g>
	<path style="fill:#CECDCC;" d="M188.8,231.2c0,15.2-12.8,28-28,28s-28-12.8-28-28s12.8-28,28-28C176,203.2,188.8,216,188.8,231.2z"
		/>
	<circle style="fill:#CECDCC;" cx="343.2" cy="231.2" r="28"/>
</g>
<path style="fill:#1E4784;" d="M188.8,223.2c0,15.2-12.8,28-28,28s-28-12.8-28-28s12.8-28,28-28S188.8,208,188.8,223.2z"/>
<path style="fill:#00233F;" d="M160.8,195.2c15.2,0,28,12.8,28,28s-12.8,28-28,28"/>
<circle style="fill:#1E4784;" cx="343.2" cy="223.2" r="28"/>
<path style="fill:#00233F;" d="M343.2,195.2c15.2,0,28,12.8,28,28s-12.8,28-28,28"/>
<path style="fill:#756A49;" d="M84,252H12c-6.4,0-12-5.6-12-12s5.6-12,12-12h72c6.4,0,12,5.6,12,12S90.4,252,84,252z"/>
<path style="fill:#756A49;" d="M492,252h-72c-6.4,0-12-5.6-12-12s5.6-12,12-12h72c6.4,0,12,5.6,12,12S498.4,252,492,252z"/>
<g>
	<path style="fill:#00233F;" d="M188,118.4c0,4.8-12,1.6-25.6,0c-14.4-1.6-25.6,0-25.6-4.8s6.4-18.4,20.8-16.8
		C171.2,97.6,188.8,113.6,188,118.4z"/>
	<path style="fill:#00233F;" d="M316,124.8c0,4.8,12,1.6,25.6,0c14.4-1.6,25.6,0,25.6-4.8c-0.8-4.8-6.4-18.4-20.8-16.8
		C332.8,104.8,315.2,120,316,124.8z"/>
</g>
<path style="fill:#F7910B;" d="M311.2,438.4c0,20.8-26.4,37.6-59.2,37.6s-59.2-16.8-59.2-37.6"/>
<path style="fill:#02243E;" d="M268,436h-32c-4.8,0-8-3.2-8-8s3.2-8,8-8h32c4.8,0,8,3.2,8,8S272.8,436,268,436z"/>
<g>
	<polygon style="fill:#00233F;" points="224.8,380 135.2,416.8 252,408 250.4,380 	"/>
	<polygon style="fill:#00233F;" points="279.2,380 368.8,416.8 252,408 253.6,380 	"/>
</g>
<path style="fill:#F9B2DB;" d="M300,332c0,57.6-21.6,58.4-48,58.4s-48-0.8-48-58.4s21.6-104,48-104S300,275.2,300,332z"/>
<path style="fill:#EA81B8;" d="M252,228c26.4,0,48,46.4,48,104s-21.6,58.4-48,58.4"/>
<g>
	<path style="fill:#00233F;" d="M372,56c0,6.4-5.6,12-12,12H144c-6.4,0-12-5.6-12-12l0,0c0-6.4,5.6-12,12-12h216
		C366.4,44,372,49.6,372,56L372,56z"/>
	<path style="fill:#00233F;" d="M165.6,65.6c0-35.2,38.4-64,86.4-64s86.4,28.8,86.4,64"/>
</g>
<g>
</g>
<g>
</g>
<g>
</g>
<g>
</g>
<g>
</g>
<g>
</g>
<g>
</g>
<g>
</g>
<g>
</g>
<g>
</g>
<g>
</g>
<g>
</g>
<g>
</g>
<g>
</g>
<g>
</g>
</svg>
