<?xml version="1.0" encoding="iso-8859-1"?>
<!-- Generator: Adobe Illustrator 19.0.0, SVG Export Plug-In . SVG Version: 6.00 Build 0)  -->
<svg version="1.1" id="Layer_1" xmlns="http://www.w3.org/2000/svg" xmlns:xlink="http://www.w3.org/1999/xlink" x="0px" y="0px"
	 viewBox="0 0 511.998 511.998" style="enable-background:new 0 0 511.998 511.998;" xml:space="preserve">
<circle style="fill:#FDDF6D;" cx="228.921" cy="266.635" r="219.972"/>
<path style="fill:#FCC56B;" d="M276.058,454.135c-121.487,0-219.971-98.484-219.971-219.971c0-64.906,28.117-123.237,72.828-163.501
	C57.701,107.075,8.949,181.163,8.949,266.637c0,121.487,98.484,219.971,219.971,219.971c56.581,0,108.166-21.37,147.142-56.469
	C346.058,445.48,312.069,454.135,276.058,454.135z"/>
<g>
	<path style="fill:#F9A880;" d="M134.389,269.791c-16.336,0-29.58,13.243-29.58,29.579h59.158
		C163.968,283.034,150.725,269.791,134.389,269.791z"/>
	<path style="fill:#F9A880;" d="M392.395,269.791c-16.336,0-29.58,13.243-29.58,29.579h59.158
		C421.973,283.034,408.73,269.791,392.395,269.791z"/>
</g>
<g>
	<path style="fill:#FD4DD7;" d="M194.567,26.026c-27.556,4.013-47.75,24.951-52.599,50.149c-0.43,2.234-2.127,4.004-4.346,4.507l0,0
		c-2.218,0.502-4.513-0.365-5.863-2.194c-15.221-20.633-42.434-30.828-69.01-22.612c-29.377,9.082-47.95,38.854-43.22,69.238
		c2.896,18.606,13.535,33.788,27.953,43.082h-0.001l102,70.584c15.271,10.568,36.318,5.793,45.531-10.332l60.354-105.613
		c10.088-15.036,13.684-34.379,7.825-53.412C254.201,40.224,224.798,21.623,194.567,26.026z"/>
	<path style="fill:#FD4DD7;" d="M465.995,80.418c-21.265-5.397-42.28,3.745-53.414,20.619c-0.987,1.495-2.756,2.272-4.522,1.969l0,0
		c-1.766-0.304-3.174-1.627-3.605-3.367c-4.849-19.608-21.576-35.241-43.395-37.283c-24.12-2.257-46.622,13.804-52.35,37.341
		c-3.508,14.413-0.348,28.673,7.34,39.788h-0.001l52.924,82.152c7.924,12.3,24.681,15.177,36.253,6.224l75.797-58.642
		c11.879-7.898,20.335-20.888,21.815-36.508C505.107,108.749,489.323,86.339,465.995,80.418z"/>
</g>
<g>
	<path style="fill:#E54190;" d="M195.839,215.711l-102-70.584h0.001c-14.418-9.294-25.058-24.475-27.953-43.082
		c-2.787-17.906,2.524-35.594,13.365-48.966c-5.454,0.191-10.99,1.092-16.503,2.796c-29.377,9.082-47.95,38.854-43.22,69.238
		c2.896,18.606,13.535,33.788,27.953,43.082h-0.001l102,70.584c15.271,10.568,36.318,5.793,45.531-10.332l5.697-9.97
		C199.039,217.71,197.408,216.796,195.839,215.711z"/>
	<path style="fill:#E54190;" d="M415.33,198.569l-52.924-82.152h0.001c-7.688-11.116-10.848-25.374-7.34-39.788
		c1.254-5.153,3.312-9.949,6.016-14.271c-0.008-0.001-0.016-0.002-0.024-0.002c-24.12-2.257-46.622,13.804-52.35,37.341
		c-3.508,14.415-0.348,28.673,7.34,39.788h-0.001l52.924,82.152c7.924,12.3,24.681,15.177,36.253,6.224l24.293-18.794
		C423.886,207.478,418.773,203.914,415.33,198.569z"/>
</g>
<path style="fill:#7F184C;" d="M279.359,415.532L279.359,415.532c-49.175,0-89.04-39.865-89.04-89.04l0,0h178.08l0,0
	C368.399,375.668,328.535,415.532,279.359,415.532z"/>
<path style="fill:#F2F2F2;" d="M212.044,326.492v13.899c0,5.861,4.751,10.611,10.611,10.611h113.407
	c5.861,0,10.611-4.751,10.611-10.611v-13.899H212.044z"/>
<path style="fill:#FC4C59;" d="M281.229,378.592c-24.069-11.182-50.777-9.557-72.436,2.04c16.275,21.212,41.868,34.9,70.67,34.9l0,0
	c12.693,0,24.755-2.674,35.682-7.46C307.128,395.669,295.634,385.286,281.229,378.592z"/>
<path d="M42.506,175.635l101.883,70.503c6.839,4.733,14.949,7.214,23.152,7.214c2.992,0,5.998-0.33,8.957-1.002
	c11.07-2.512,20.651-9.606,26.283-19.463l60.199-105.342c11.933-17.96,15.128-40.083,8.763-60.755
	c-10.254-33.307-43.986-54.637-78.466-49.618c-27.965,4.072-50.749,24.134-58.531,50.819c-18.496-20.709-47.672-29.003-74.64-20.666
	C26.524,57.707,5.277,91.74,10.686,126.489C13.828,146.667,25.423,164.57,42.506,175.635z M65.393,64.425
	c5.25-1.623,10.61-2.407,15.913-2.407c16.774,0,32.971,7.844,43.253,21.782c3.461,4.693,9.363,6.892,15.039,5.609
	c5.677-1.285,10.057-5.818,11.157-11.543c4.313-22.411,22.44-39.685,45.103-42.985c25.819-3.757,51.1,12.219,58.781,37.173
	c4.802,15.596,2.36,32.287-6.702,45.792c-0.121,0.178-0.233,0.36-0.339,0.546l-60.354,105.613
	c-3.198,5.596-8.42,9.463-14.705,10.889c-6.288,1.426-12.665,0.191-17.965-3.476L52.577,160.836c-0.08-0.055-0.162-0.11-0.243-0.163
	c-12.864-8.29-21.597-21.753-23.96-36.936C24.318,97.701,40.235,72.202,65.393,64.425z"/>
<path d="M468.195,71.745c-21.232-5.39-43.451,1.583-57.767,17.485c-8.17-19.75-26.754-33.746-48.537-35.784
	c-28.505-2.671-55.106,16.306-61.879,44.135c-3.93,16.146-0.799,33.219,8.587,46.87l52.848,82.032
	c5.132,7.964,13.43,13.452,22.768,15.055c1.897,0.326,3.805,0.486,5.707,0.486c7.462,0,14.806-2.466,20.777-7.085l23.336-18.054
	c3.917,16.214,5.905,32.896,5.905,49.754c0,116.359-94.664,211.022-211.022,211.022S17.897,382.995,17.897,266.637
	c0-8.281,0.484-16.621,1.439-24.788c0.574-4.909-2.94-9.353-7.849-9.927c-4.904-0.576-9.353,2.939-9.927,7.849
	C0.524,248.625,0,257.665,0,266.637c0,126.227,102.692,228.919,228.918,228.919c126.227,0,228.919-102.692,228.919-228.919
	c0-20.957-2.834-41.669-8.413-61.66l36.827-28.493c14.547-9.789,23.833-25.417,25.492-42.93
	C514.423,105.299,495.701,78.726,468.195,71.745z M493.927,131.866c-1.159,12.228-7.668,23.125-17.859,29.9
	c-0.179,0.119-0.353,0.243-0.523,0.375l-75.796,58.64c-3.593,2.779-8.036,3.883-12.504,3.117c-4.474-0.768-8.293-3.293-10.752-7.109
	l-52.922-82.152c-0.052-0.082-0.107-0.163-0.163-0.245c-6.647-9.611-8.779-21.181-6.005-32.581
	c4.394-18.053,20.839-30.722,39.125-30.722c1.223,0,2.459,0.056,3.696,0.173c17.141,1.605,31.424,13.871,35.542,30.522
	c1.284,5.191,5.512,9.131,10.775,10.038c5.263,0.901,10.564-1.395,13.508-5.86c9.458-14.332,27.034-21.113,43.744-16.874
	C482.826,93.922,495.781,112.312,493.927,131.866z"/>
<path d="M181.371,326.492c0,54.031,43.957,97.989,97.989,97.989s97.99-43.957,97.99-97.989c0-4.942-4.005-8.949-8.949-8.949H190.319
	C185.376,317.544,181.371,321.55,181.371,326.492z M358.955,335.441c-4.462,39.967-38.457,71.142-79.596,71.142
	s-75.132-31.175-79.595-71.142H358.955z"/>
<circle cx="291.884" cy="55.615" r="8.949"/>
<circle cx="16.389" cy="210.986" r="8.949"/>
<g>
</g>
<g>
</g>
<g>
</g>
<g>
</g>
<g>
</g>
<g>
</g>
<g>
</g>
<g>
</g>
<g>
</g>
<g>
</g>
<g>
</g>
<g>
</g>
<g>
</g>
<g>
</g>
<g>
</g>
</svg>
