<?xml version="1.0" encoding="iso-8859-1"?>
<!-- Generator: Adobe Illustrator 19.0.0, SVG Export Plug-In . SVG Version: 6.00 Build 0)  -->
<svg version="1.1" id="Layer_1" xmlns="http://www.w3.org/2000/svg" xmlns:xlink="http://www.w3.org/1999/xlink" x="0px" y="0px"
	 viewBox="0 0 512.001 512.001" style="enable-background:new 0 0 512.001 512.001;" xml:space="preserve">
<path style="fill:#FDDF6D;" d="M502.088,255.943c0,50.901-15.976,101.139-45.518,142.604
	c-28.781,40.399-69.714,71.68-116.336,88.656c-48.243,17.567-101.805,19.497-151.211,5.54
	c-47.887-13.527-91.074-41.852-122.755-80.202c-32.147-38.913-51.74-87.425-55.55-137.764
	c-3.858-50.966,8.296-102.538,34.815-146.256C71.131,86.319,109.428,52.252,154.37,31.83
	C201.361,10.477,254.819,4.56,305.384,14.852c48.805,9.935,93.972,35,128.404,70.963c34.545,36.081,57.621,82.467,65.337,131.837
	C501.105,230.313,502.088,243.129,502.088,255.943z"/>
<path style="fill:#FCC56B;" d="M393.613,452.504c-48.243,17.567-101.805,19.497-151.211,5.54
	c-47.887-13.527-91.074-41.852-122.755-80.201c-32.148-38.915-51.741-87.426-55.551-137.765
	C60.237,189.112,72.391,137.54,98.91,93.822c13.722-22.621,31.095-42.901,51.181-59.998C106.997,54.431,70.311,87.663,45.528,128.52
	c-26.519,43.718-38.673,95.29-34.815,146.256c3.81,50.339,23.403,98.85,55.551,137.766c31.681,38.349,74.868,66.674,122.755,80.201
	c49.404,13.957,102.966,12.026,151.211-5.54c27.486-10.008,52.99-24.992,75.196-43.881
	C408.316,446.731,401.037,449.8,393.613,452.504z"/>
<g>
	<path style="fill:#FFFFFF;" d="M268.921,229.209c0,12.468-7.997,23.915-19.705,28.202c-11.842,4.335-25.473,0.617-33.494-9.102
		c-7.918-9.594-9.047-23.518-2.757-34.256c6.441-10.996,19.491-16.818,31.98-14.263C258.737,202.614,268.921,215.14,268.921,229.209
		z"/>
	<path style="fill:#FFFFFF;" d="M437.977,229.209c0,12.468-7.997,23.915-19.705,28.202c-11.842,4.335-25.473,0.617-33.494-9.102
		c-7.917-9.594-9.047-23.518-2.757-34.256c6.441-10.996,19.491-16.818,31.98-14.263C427.794,202.614,437.977,215.14,437.977,229.209
		z"/>
</g>
<g>
	<path style="fill:#F9A880;" d="M156.432,267.066c-18.03,0-33.084,15.054-33.084,33.084h66.169
		C189.516,282.12,174.462,267.066,156.432,267.066z"/>
	<path style="fill:#F9A880;" d="M445.014,262.632c-18.03,0-33.084,15.055-33.084,33.085h66.169
		C478.099,277.686,463.045,262.632,445.014,262.632z"/>
</g>
<path style="fill:#F2F2F2;" d="M82.025,82.073c-13.944,13.942-26.242,29.541-36.498,46.447
	c-12.63,20.823-21.995,43.428-27.93,66.899l449.571-65.77c-9.434-15.771-20.624-30.508-33.386-43.835
	c-17.73-18.519-38.313-34.138-60.767-46.3L82.025,82.073z"/>
<path style="fill:#E6E6E6;" d="M407.224,138.42l45.602-30.112c-5.887-7.858-12.234-15.382-19.043-22.494
	c-17.73-18.518-38.313-34.138-60.767-46.3L134.95,74.332L47.448,125.46c-0.639,1.021-1.296,2.03-1.92,3.06
	c-12.63,20.823-21.995,43.428-27.93,66.899L407.224,138.42z"/>
<path style="fill:#FFFFFF;" d="M433.789,85.815c-24.659-25.756-54.826-45.919-87.889-58.941L21.392,182.036
	c-9.354,29.833-13.047,61.4-10.674,92.741c0.637,8.406,1.723,16.76,3.224,25.027L441.879,94.711
	C439.255,91.683,436.563,88.712,433.789,85.815z"/>
<path style="fill:#7F184C;" d="M394.795,388.989c-4.907,0-7.878-3.941-11.636-6.47c-3.981-2.678-8.35-4.77-12.811-6.518
	c-11.149-4.367-23.121-6.692-35.03-7.642c-12.405-0.99-25.026-0.378-37.213,2.197c-5.282,1.116-10.508,2.608-15.493,4.695
	c-4.209,1.763-8.356,5.518-12.78,6.435c-10.661,2.207-16.05-11.774-7.715-18.042c8.031-6.042,18.461-9.513,28.101-11.879
	c23.655-5.808,49.394-5.111,72.934,0.918c11.202,2.869,22.333,7.103,31.892,13.713c3.996,2.763,9,6.076,9.678,11.285
	C405.489,383.571,400.753,388.989,394.795,388.989z"/>
<path d="M475.732,124.544c-2.262-5.3-6.305-10.294-9.596-14.999c-3.383-4.836-6.932-9.558-10.638-14.152
	c-6.966-8.635-14.48-16.828-22.502-24.491c-16.789-16.035-36.32-31.212-57.314-41.364c-9.031-4.788-19.006-10.399-28.934-13.04
	C274.376-11.005,191.486-3.711,125.063,36.011C107.877,46.288,91.905,58.58,77.559,72.548c-4.037,2.873-7.458,7.316-10.783,10.969
	c-3.506,3.849-6.896,7.803-10.163,11.859c-6.637,8.238-12.767,16.885-18.333,25.88c-11.117,17.963-20.005,37.293-26.375,57.435
	c-4.839,12.338-7.184,26.394-9.116,39.429C0.933,230.632,0.004,243.289,0,255.938c0.019,61.664,22.74,122.006,63.336,168.407
	c39.187,44.791,93.637,75.152,152.452,84.481c59.231,9.395,120.875-2.525,172.221-33.528
	c49.342-29.793,87.954-76.181,108.084-130.21c23.617-63.387,20.837-135.243-7.663-196.612
	C484.621,140.283,480.381,132.291,475.732,124.544C475.546,124.112,498.808,162.983,475.732,124.544z M258.912,229.209
	c0,10.897-9.122,20.019-20.019,20.019s-20.019-9.122-20.019-20.019s9.122-20.019,20.019-20.019S258.912,218.312,258.912,229.209z
	 M21.815,285.073c-3.953-31.983-1.336-64.741,7.763-95.661L344.521,37.13c30.157,12.238,57.228,30.532,79.699,53.372
	l-101.461,49.059c-0.847,0.279-1.636,0.665-2.36,1.141L21.815,285.073z M232.712,68.957l-193.373,93.5
	c11.746-27.122,28.433-51.623,48.929-72.356L232.712,68.957z M438.19,105.983c3.957,4.798,7.718,9.762,11.293,14.866l-60.292,8.826
	L438.19,105.983z M317.394,28.011l-24.672,11.93L116.447,65.743c43.431-31.963,97.246-48.167,151.105-45.557
	C284.384,21.003,301.123,23.627,317.394,28.011z M256.048,491.969c-113.106,0-207.87-79.975-230.751-186.343l174.343-84.299
	c-4.77,23.793,13.44,46.945,37.686,47.886c23.694,0.919,43.45-19.746,41.465-43.378c-1.146-13.658-9.526-26.036-21.715-32.278
	l72.105-34.864l132.038-19.327c35.087,61.512,40.445,137.49,14.357,203.296c-21.984,55.455-65.194,101.423-119.136,126.879
	C325.132,484.314,290.663,491.969,256.048,491.969z"/>
<path d="M407.949,189.172c-16.718,0-32.051,10.818-37.696,26.55c-5.715,15.923-0.502,34.141,12.67,44.717
	c13.056,10.483,31.819,11.652,46.059,2.825c14.172-8.784,21.571-25.899,18.165-42.239
	C443.327,202.714,426.65,189.172,407.949,189.172z M407.949,249.228c-10.897,0-20.019-9.122-20.019-20.019
	s9.122-20.019,20.019-20.019s20.019,9.122,20.019,20.019S418.846,249.228,407.949,249.228z"/>
<path d="M333.037,348.141c-22.508-1.265-47.363,1.468-67.138,13.1c-4.066,2.392-7.893,5.109-8.087,10.268
	c-0.18,4.744,3.106,9.019,7.718,10.111c4.946,1.169,8.362-2.037,12.43-4.183c4.679-2.469,9.718-4.245,14.822-5.611
	c23.235-6.222,49.291-5.17,72.134,2.239c4.861,1.576,9.64,3.495,14.122,5.958c3.897,2.141,6.94,5.389,10.699,7.595
	c10.506,6.167,19.896-8.217,11.564-16.256c-7.757-7.483-18.32-12.315-28.384-15.769C360.09,351.192,346.553,348.896,333.037,348.141
	C304.969,346.562,361.953,349.757,333.037,348.141z"/>
<g>
</g>
<g>
</g>
<g>
</g>
<g>
</g>
<g>
</g>
<g>
</g>
<g>
</g>
<g>
</g>
<g>
</g>
<g>
</g>
<g>
</g>
<g>
</g>
<g>
</g>
<g>
</g>
<g>
</g>
</svg>
