<?xml version="1.0" encoding="iso-8859-1"?>
<!-- Generator: Adobe Illustrator 19.0.0, SVG Export Plug-In . SVG Version: 6.00 Build 0)  -->
<svg version="1.1" id="Layer_1" xmlns="http://www.w3.org/2000/svg" xmlns:xlink="http://www.w3.org/1999/xlink" x="0px" y="0px"
	 viewBox="0 0 511.999 511.999" style="enable-background:new 0 0 511.999 511.999;" xml:space="preserve">
<circle style="fill:#FDDF6D;" cx="256.6" cy="256.001" r="245.993"/>
<path style="fill:#FCC56B;" d="M309.312,465.677c-135.858,0-245.992-110.134-245.992-245.992
	c0-72.584,31.443-137.816,81.444-182.842C65.126,77.562,10.606,160.413,10.606,255.999c0,135.858,110.134,245.992,245.992,245.992
	c63.274,0,120.962-23.897,164.548-63.149C387.594,455.998,349.585,465.677,309.312,465.677z"/>
<g>
	<path style="fill:#7F184C;" d="M417.058,230.363c-3.513,0.001-6.921-1.852-8.752-5.14c-6.421-11.526-18.594-18.686-31.771-18.686
		c-12.851,0-25.189,7.265-32.202,18.962c-2.842,4.739-8.989,6.278-13.729,3.437c-4.741-2.842-6.279-8.988-3.437-13.729
		c10.608-17.694,29.524-28.685,49.368-28.685c20.432,0,39.306,11.096,49.256,28.961c2.69,4.828,0.955,10.923-3.872,13.611
		C420.378,229.956,418.706,230.363,417.058,230.363z"/>
	<path style="fill:#7F184C;" d="M246.33,230.363c-3.513,0.001-6.921-1.852-8.752-5.14c-6.421-11.526-18.594-18.686-31.771-18.686
		c-12.849,0-25.189,7.265-32.202,18.962c-2.841,4.739-8.987,6.278-13.729,3.437c-4.739-2.842-6.279-8.989-3.436-13.729
		c10.608-17.694,29.524-28.685,49.368-28.685c20.432,0,39.306,11.096,49.256,28.961c2.69,4.828,0.955,10.923-3.872,13.611
		C249.649,229.956,247.978,230.363,246.33,230.363z"/>
	<path style="fill:#7F184C;" d="M293.545,437.706L293.545,437.706c-70.981,0-128.522-57.541-128.522-128.522l0,0h257.043l0,0
		C422.066,380.164,364.525,437.706,293.545,437.706z"/>
</g>
<path style="fill:#F2F2F2;" d="M196.382,309.184v20.061c0,8.46,6.857,15.317,15.317,15.317h163.693
	c8.458,0,15.317-6.857,15.317-15.317v-20.061H196.382L196.382,309.184z"/>
<path style="fill:#FC4C59;" d="M296.241,384.385c-34.74-16.14-73.294-13.795-104.554,2.945
	c23.492,30.617,60.432,50.374,102.007,50.374l0,0c18.32,0,35.731-3.859,51.503-10.767
	C333.626,409.034,317.034,394.046,296.241,384.385z"/>
<g>
	<path style="fill:#3FA9F5;" d="M151.119,335.543c-15.016,16.423-40.502,17.565-56.926,2.549s-17.565-40.502-2.549-56.926
		c15.016-16.423,83.911-32.063,83.911-32.063S166.136,319.119,151.119,335.543z"/>
	<path style="fill:#3FA9F5;" d="M427.667,326.564c15.016,16.423,40.502,17.565,56.926,2.549s17.565-40.502,2.549-56.926
		c-15.016-16.423-83.911-32.063-83.911-32.063S412.652,310.142,427.667,326.564z"/>
</g>
<path d="M376.535,186.526c-19.844,0-38.76,10.991-49.368,28.685c-2.842,4.741-1.304,10.887,3.437,13.729
	c4.739,2.841,10.887,1.304,13.729-3.437c7.012-11.697,19.351-18.962,32.202-18.962c13.176,0,25.351,7.16,31.771,18.686
	c1.831,3.288,5.238,5.141,8.752,5.14c1.648,0,3.32-0.408,4.861-1.266c4.829-2.69,6.562-8.784,3.872-13.611
	C415.841,197.622,396.967,186.526,376.535,186.526z"/>
<path d="M205.807,186.526c-19.843,0-38.759,10.991-49.368,28.685c-2.842,4.739-1.304,10.887,3.436,13.729
	c4.742,2.841,10.888,1.304,13.729-3.437c7.013-11.697,19.353-18.962,32.202-18.962c13.176,0,25.351,7.16,31.771,18.686
	c1.831,3.288,5.238,5.141,8.752,5.14c1.648,0,3.32-0.408,4.861-1.266c4.829-2.69,6.562-8.784,3.872-13.611
	C245.113,197.622,226.24,186.526,205.807,186.526z"/>
<path d="M494.527,265.436c-16.304-17.833-77.066-32.342-89.081-35.07c-3.196-0.726-6.547,0.16-8.968,2.372
	c-2.419,2.212-3.603,5.471-3.165,8.72c1.021,7.583,4.889,34.289,11.576,57.718H176.292c5.221-20.883,8.29-42.113,9.181-48.738
	c0.438-3.25-0.746-6.507-3.165-8.72c-2.42-2.212-5.774-3.098-8.968-2.372c-12.015,2.727-72.777,17.237-89.081,35.068
	c-18.715,20.468-17.287,52.348,3.182,71.063c9.347,8.546,21.302,13.179,33.886,13.179c0.766,0,1.534-0.017,2.304-0.052
	c13.422-0.6,25.807-6.393,34.872-16.309c0.136-0.148,0.267-0.326,0.402-0.479c14.711,60.69,69.49,105.897,134.637,105.897
	c65.268,0,120.678-45.527,134.956-107.169c8.61,6.047,18.754,9.109,28.925,9.109c5.774,0,11.552-0.998,17.066-2.981
	c-15.179,36.315-39.433,68.738-70.449,93.591c-42.228,33.837-93.214,51.722-147.444,51.722
	c-130.123,0-235.985-105.863-235.985-235.985S126.475,20.015,256.598,20.015c107.365,0,201.265,72.457,228.348,176.202
	c1.396,5.349,6.862,8.553,12.21,7.155c5.348-1.396,8.552-6.864,7.155-12.21C474.928,78.608,373.066,0,256.598,0
	C115.438,0,0.598,114.84,0.598,255.999s114.84,255.999,255.999,255.999c57.988,0,114.796-19.929,159.958-56.117
	c44.475-35.635,76.146-85.633,89.181-140.78c0.223-0.945,0.298-1.888,0.251-2.811C510.214,296.292,506.499,278.529,494.527,265.436z
	 M122.737,338.609c-8.07,0.367-15.818-2.446-21.789-7.904c-12.325-11.268-13.184-30.462-1.916-42.787
	c7.437-8.134,38.42-18.652,64.359-25.508c-4.511,26.446-12.218,58.244-19.656,66.381
	C138.275,334.761,130.818,338.248,122.737,338.609z M293.543,427.698c-61.979,0-112.999-47.824-118.096-108.507h236.194
	C406.54,380.25,355.177,427.698,293.543,427.698z M456.049,329.632c-8.082-0.362-15.538-3.849-20.997-9.819
	c-1.292-1.413-2.591-3.553-3.88-6.241c-0.179-0.471-0.386-0.929-0.632-1.362c-0.802-1.788-1.599-3.776-2.387-5.944
	c-0.065-0.216-0.147-0.427-0.227-0.636c-4.928-13.81-9.467-34.236-12.53-52.2c25.934,6.853,56.912,17.367,64.359,25.512
	c11.268,12.324,10.409,31.519-1.916,42.787C471.87,327.187,464.135,329.996,456.049,329.632z"/>
<circle cx="501.393" cy="226.032" r="10.007"/>
<g>
</g>
<g>
</g>
<g>
</g>
<g>
</g>
<g>
</g>
<g>
</g>
<g>
</g>
<g>
</g>
<g>
</g>
<g>
</g>
<g>
</g>
<g>
</g>
<g>
</g>
<g>
</g>
<g>
</g>
</svg>
