<?xml version="1.0" encoding="iso-8859-1"?>
<!-- Generator: Adobe Illustrator 19.0.0, SVG Export Plug-In . SVG Version: 6.00 Build 0)  -->
<svg version="1.1" id="Layer_1" xmlns="http://www.w3.org/2000/svg" xmlns:xlink="http://www.w3.org/1999/xlink" x="0px" y="0px"
	 viewBox="0 0 512 512" style="enable-background:new 0 0 512 512;" xml:space="preserve">
<circle style="fill:#FDDF6D;" cx="256.002" cy="256.001" r="245.994"/>
<path style="fill:#FCC56B;" d="M308.715,465.678c-135.858,0-245.993-110.134-245.993-245.993
	c0-72.584,31.443-137.816,81.444-182.842C64.528,77.562,10.008,160.414,10.008,256c0,135.858,110.134,245.993,245.993,245.993
	c63.274,0,120.962-23.898,164.549-63.149C386.997,455.999,348.988,465.678,308.715,465.678z"/>
<path style="fill:#7F184C;" d="M416.461,196.324c-3.513,0-6.921-1.853-8.752-5.14c-6.422-11.527-18.596-18.687-31.773-18.687
	c-12.851,0-25.191,7.265-32.202,18.962c-2.843,4.739-8.988,6.278-13.729,3.437c-4.741-2.842-6.279-8.988-3.437-13.729
	c10.608-17.694,29.524-28.686,49.368-28.686c20.432,0,39.306,11.097,49.256,28.961c2.69,4.829,0.957,10.924-3.872,13.613
	C419.78,195.916,418.108,196.324,416.461,196.324z"/>
<circle style="fill:#FFFFFF;" cx="215.279" cy="182.494" r="30.022"/>
<path d="M342.204,14.879c-5.204-1.859-10.931,0.849-12.793,6.054c-1.861,5.204,0.85,10.931,6.054,12.792
	C429.085,67.199,491.986,156.524,491.986,256c0,130.124-105.862,235.985-235.984,235.985S20.015,386.122,20.015,256
	S125.878,20.015,256.001,20.015c5.528,0,10.007-4.481,10.007-10.007S261.529,0,256.001,0c-141.158,0-256,114.84-256,256
	s114.84,256,256,256c141.158,0,255.999-114.84,255.999-256C512.001,148.09,443.764,51.191,342.204,14.879z"/>
<path d="M330.007,194.898c4.741,2.841,10.885,1.304,13.729-3.437c7.012-11.697,19.352-18.962,32.202-18.962
	c13.178,0,25.352,7.16,31.773,18.686c1.831,3.286,5.238,5.14,8.752,5.14c1.647,0,3.318-0.408,4.861-1.266
	c4.829-2.69,6.562-8.784,3.872-13.613c-9.95-17.864-28.825-28.961-49.256-28.961c-19.844,0-38.76,10.991-49.368,28.685
	C323.728,185.91,325.266,192.057,330.007,194.898z"/>
<path d="M175.249,182.498c0,22.072,17.957,40.029,40.029,40.029s40.029-17.957,40.029-40.029s-17.957-40.029-40.029-40.029
	S175.249,160.426,175.249,182.498z M235.295,182.498c0,11.036-8.979,20.015-20.015,20.015c-11.036,0-20.015-8.979-20.015-20.015
	c0-11.036,8.979-20.015,20.015-20.015C226.316,162.483,235.295,171.462,235.295,182.498z"/>
<path d="M384.091,337.656c11.546-8.552,15.242-25.293,8.489-37.952c-6.322-11.85-19.209-16.67-32.01-14.625
	c-15.371,2.455-30.821,5.464-46.053,8.672c-2.846,0.599-5.481,0.979-7.722,3.193c-4.961,4.902-3.313,13.557,3.073,16.311
	c5.2,2.242,13.437-0.793,18.634-1.771c9.355-1.761,18.711-3.524,28.066-5.285c6.353-1.196,15.828-4.272,18.868,4.011
	c3.206,8.733-5.571,12.729-11.484,16.341c-6.022,3.677-12.784,6.952-18.396,11.234c-5.641,4.305-6.61,12.41-0.4,16.824
	c2.515,1.788,5.915,2.766,8.701,3.982c6.417,2.801,21.015,6.331,21.92,14.367c1.156,10.258-8.238,9.973-14.987,9.502
	c-9.444-0.659-18.889-1.318-28.334-1.977c-5.303-0.37-13.059-2.288-18.313-0.484c-6.579,2.258-8.897,10.755-4.31,16.03
	c2.35,2.702,5.445,3.23,8.748,3.549c16.171,1.56,33.135,3.557,49.378,3.447c13.908-0.095,25.811-11.474,27.674-25.033
	c1.038-7.56-0.971-15.373-5.54-21.486c-4.738-6.339-10.899-8.411-17.693-11.659C376.268,342.481,380.444,340.351,384.091,337.656
	C391.488,332.177,383.852,337.833,384.091,337.656z"/>
<circle cx="305.385" cy="15.039" r="10.007"/>
<g>
	<path style="fill:#F9A880;" d="M150.288,238.252c-18.268,0-33.078,14.81-33.078,33.078h66.157
		C183.366,253.062,168.556,238.252,150.288,238.252z"/>
	<path style="fill:#F9A880;" d="M438.815,238.252c-18.268,0-33.078,14.81-33.078,33.078h66.157
		C471.894,253.062,457.083,238.252,438.815,238.252z"/>
</g>
<g>
</g>
<g>
</g>
<g>
</g>
<g>
</g>
<g>
</g>
<g>
</g>
<g>
</g>
<g>
</g>
<g>
</g>
<g>
</g>
<g>
</g>
<g>
</g>
<g>
</g>
<g>
</g>
<g>
</g>
</svg>
