<?xml version="1.0" encoding="iso-8859-1"?>
<!-- Generator: Adobe Illustrator 19.0.0, SVG Export Plug-In . SVG Version: 6.00 Build 0)  -->
<svg version="1.1" id="Layer_1" xmlns="http://www.w3.org/2000/svg" xmlns:xlink="http://www.w3.org/1999/xlink" x="0px" y="0px"
	 viewBox="0 0 511.999 511.999" style="enable-background:new 0 0 511.999 511.999;" xml:space="preserve">
<circle style="fill:#FDDF6D;" cx="256.001" cy="256.001" r="245.994"/>
<path style="fill:#FCC56B;" d="M308.716,465.678c-135.858,0-245.993-110.134-245.993-245.993
	c0-72.584,31.443-137.816,81.444-182.842C64.527,77.562,10.007,160.414,10.007,256c0,135.858,110.134,245.993,245.993,245.993
	c63.274,0,120.962-23.898,164.549-63.149C386.998,455.999,348.987,465.678,308.716,465.678z"/>
<g>
	<circle style="fill:#FFFFFF;" cx="213.157" cy="179.852" r="30.022"/>
	<circle style="fill:#FFFFFF;" cx="382.187" cy="179.852" r="30.022"/>
	<path style="fill:#FFFFFF;" d="M392.849,416.565H208.486c-13.662,0-24.737-11.075-24.737-24.737v-91.965
		c0-13.662,11.075-24.737,24.737-24.737h184.362c13.662,0,24.737,11.075,24.737,24.737v91.965
		C417.585,405.49,406.511,416.565,392.849,416.565z"/>
</g>
<path style="fill:#F2F2F2;" d="M251.184,381.548c-13.662,0-24.737-11.075-24.737-24.737v-81.684h-17.961
	c-13.662,0-24.737,11.075-24.737,24.737v91.965c0,13.662,11.075,24.737,24.737,24.737h184.362c13.662,0,24.737-11.075,24.737-24.737
	v-10.281H251.184z"/>
<path d="M173.134,179.856c0,22.072,17.957,40.029,40.029,40.029s40.029-17.957,40.029-40.029s-17.957-40.029-40.029-40.029
	S173.134,157.784,173.134,179.856z M233.178,179.856c0,11.036-8.979,20.015-20.015,20.015s-20.015-8.979-20.015-20.015
	s8.979-20.015,20.015-20.015S233.178,168.819,233.178,179.856z"/>
<path d="M382.187,219.886c22.072,0,40.029-17.957,40.029-40.029s-17.957-40.029-40.029-40.029s-40.029,17.957-40.029,40.029
	S360.115,219.886,382.187,219.886z M382.187,159.841c11.036,0,20.015,8.979,20.015,20.015s-8.979,20.015-20.015,20.015
	s-20.015-8.979-20.015-20.015S371.15,159.841,382.187,159.841z"/>
<path d="M475.076,388.323c16.065-26.498,27.456-56.128,33.03-87.74c0.149-0.582,0.251-1.176,0.295-1.775
	c2.354-13.925,3.599-28.223,3.599-42.809c0-48.769-13.767-96.203-39.815-137.171c-25.347-39.867-61.116-71.93-103.437-92.724
	c-4.962-2.436-10.959-0.391-13.395,4.569c-2.436,4.961-0.392,10.959,4.569,13.395c39.021,19.171,72,48.736,95.374,85.499
	c24.002,37.753,36.69,81.473,36.69,126.433c0,12.174-0.927,24.136-2.714,35.82c-5.086,2.543-15.876,6.934-32.385,8.66
	c-14.157,1.48-24.28,1.462-30.432,1.168v-1.781c0-19.158-15.586-34.744-34.744-34.744H207.35c-19.158,0-34.744,15.586-34.744,34.744
	v0.83c-17.793,0.332-57.095,0.35-88.458-4.755l-0.302-0.049c-15.764-2.566-36.988-6.02-62.709-16.894
	c-0.735-7.568-1.122-15.238-1.122-22.997C20.015,125.876,125.878,20.015,256,20.015c5.528,0,10.007-4.479,10.007-10.007
	S261.528,0,256,0C114.84,0,0,114.84,0,255.999c0,10.285,0.627,20.424,1.812,30.394c0.023,0.402,0.067,0.799,0.137,1.193
	c4.768,38.571,18.144,74.512,38.149,105.832c0.419,0.917,0.973,1.765,1.641,2.515c45.766,69.837,124.71,116.065,214.261,116.065
	c91.722,0,172.319-48.498,217.532-121.189C474.166,390.06,474.686,389.221,475.076,388.323z M433.421,321.818
	c6.636,0,15.15-0.347,25.545-1.433c10.273-1.073,18.747-3.022,25.485-5.138c-5.556,21.41-14.061,41.643-25.036,60.254
	c-3.354,0.574-8.873,1.26-16.165,1.26c-6.286,0-12.262-0.515-16.794-1.053v-54.029C428.489,321.762,430.802,321.818,433.421,321.818
	z M192.62,299.864c0-8.122,6.608-14.729,14.729-14.729H391.71c8.122,0,14.729,6.608,14.729,14.729v84.577c0,0.019,0,0.039,0,0.059
	v7.328c0,8.122-6.608,14.729-14.729,14.729H207.35c-8.122,0-14.729-6.608-14.729-14.729V299.864z M80.631,315.647l0.302,0.048
	c26.175,4.26,57.29,5.134,78.311,5.134c5.133,0,9.651-0.052,13.363-0.12v55.321c-9.132,2.276-15.246,3.408-28.967,5.024
	c-30.151,3.549-59.085,3.224-88.292-0.985c-14.668-23.636-25.277-50.037-30.849-78.231
	C47.303,310.216,66.137,313.286,80.631,315.647z M256,491.985c-75.034,0-141.998-35.205-185.251-89.961
	c10.66,0.979,21.32,1.484,32.045,1.484c14.229,0,28.573-0.861,43.182-2.581c12.43-1.462,19.442-2.658,26.957-4.393
	c2.306,16.939,16.855,30.037,34.416,30.037H391.71c17.806,0,32.519-13.466,34.508-30.749c4.834,0.514,10.76,0.95,17.03,0.95
	c0.701,0,1.376-0.011,2.049-0.021C402.242,454.511,333.417,491.985,256,491.985z"/>
<circle cx="330.203" cy="22.667" r="10.007"/>
<g>
</g>
<g>
</g>
<g>
</g>
<g>
</g>
<g>
</g>
<g>
</g>
<g>
</g>
<g>
</g>
<g>
</g>
<g>
</g>
<g>
</g>
<g>
</g>
<g>
</g>
<g>
</g>
<g>
</g>
</svg>
