<?xml version="1.0" encoding="iso-8859-1"?>
<!-- Generator: Adobe Illustrator 19.0.0, SVG Export Plug-In . SVG Version: 6.00 Build 0)  -->
<svg version="1.1" id="Layer_1" xmlns="http://www.w3.org/2000/svg" xmlns:xlink="http://www.w3.org/1999/xlink" x="0px" y="0px"
	 viewBox="0 0 488 488" style="enable-background:new 0 0 488 488;" xml:space="preserve">
<g>
	<path style="fill:#F7910B;" d="M486.4,299.2c0,104-95.2,188-242.4,188s-242.4-84-242.4-188s95.2-260,242.4-260
		C391.2,39.2,486.4,195.2,486.4,299.2z"/>
	<path style="fill:#F7910B;" d="M486.4,299.2c0,104-95.2,156-242.4,156s-242.4-52-242.4-156s95.2-276,242.4-276
		C391.2,23.2,486.4,195.2,486.4,299.2z"/>
</g>
<g>
	<path style="fill:#F9A908;" d="M244,23.2c147.2,0,242.4,172,242.4,276s-95.2,156-242.4,156"/>
	<path style="fill:#F9A908;" d="M486.4,299.2c0,104-95.2,156-242.4,156s-242.4-52-242.4-156s95.2-260,242.4-260
		C391.2,39.2,486.4,195.2,486.4,299.2z"/>
</g>
<path style="fill:#F9C55D;" d="M1.6,299.2c0-104,95.2-260,242.4-260"/>
<path style="fill:#F7910B;" d="M244,39.2c147.2,0,242.4,156,242.4,260s-95.2,188-242.4,188"/>
<path style="fill:#EA7103;" d="M244,39.2c147.2,0,242.4,156,242.4,260"/>
<path style="fill:#F9C55D;" d="M210.4,245.6c0,9.6-28,5.6-62.4,5.6s-62.4,4.8-62.4-5.6c0-9.6,28-17.6,62.4-17.6
	S210.4,236,210.4,245.6z"/>
<path style="fill:#F9A908;" d="M402.4,245.6c0,9.6-28,5.6-62.4,5.6s-62.4,4.8-62.4-5.6c0-9.6,28-17.6,62.4-17.6
	S402.4,236,402.4,245.6z"/>
<g>
	<circle style="fill:#F7910B;" cx="70.4" cy="275.2" r="4.8"/>
	<circle style="fill:#F7910B;" cx="34.4" cy="291.2" r="8.8"/>
	<circle style="fill:#F7910B;" cx="58.4" cy="259.2" r="1.6"/>
	<circle style="fill:#F7910B;" cx="95.2" cy="273.6" r="1.6"/>
</g>
<g>
	<circle style="fill:#F9A908;" cx="408.8" cy="277.6" r="6.4"/>
	<circle style="fill:#F9A908;" cx="428.8" cy="288.8" r="1.6"/>
	<circle style="fill:#F9A908;" cx="386.4" cy="218.4" r="2.4"/>
	<circle style="fill:#F9A908;" cx="382.4" cy="311.2" r="10.4"/>
	<circle style="fill:#F9A908;" cx="440" cy="312" r="4.8"/>
</g>
<g>
	<circle style="fill:#F7910B;" cx="62.4" cy="307.2" r="4"/>
	<circle style="fill:#F7910B;" cx="68.8" cy="240" r="3.2"/>
</g>
<circle style="fill:#F9A908;" cx="26.4" cy="129.6" r="8.8"/>
<path style="fill:#FFFFFF;" d="M413.6,153.6c0-56-76-118.4-169.6-118.4S73.6,97.6,73.6,153.6c0,5.6,0.8,13.6,2.4,23.2
	C75.2,228.8,90.4,292,98.4,308c4,8,11.2,13.6,20.8,17.6C150.4,404.8,195.2,480,244,480c49.6,0,94.4-75.2,124.8-154.4
	c9.6-4,16.8-9.6,20.8-17.6c8-16,23.2-80,22.4-131.2C412.8,167.2,413.6,159.2,413.6,153.6z"/>
<path style="fill:#EA7103;" d="M273.6,485.6c44.8,0,84.8-72.8,113.6-148.8c8.8-4,15.2-9.6,18.4-16.8c7.2-15.2,20.8-76.8,20-126.4
	c1.6-8.8,2.4-16.8,2.4-22.4c0-53.6-68.8-114.4-154.4-114.4"/>
<path style="fill:#E5E5E5;" d="M244,480.8c49.6,0,94.4-75.2,124.8-154.4c9.6-4,16.8-9.6,20.8-17.6c8-16,23.2-80,22.4-131.2
	c1.6-9.6,2.4-17.6,2.4-23.2c0-56-76-118.4-169.6-118.4"/>
<g>
	<circle style="fill:#F9A908;" cx="52" cy="101.6" r="4.8"/>
	<circle style="fill:#F9A908;" cx="461.6" cy="148.8" r="1.6"/>
	<circle style="fill:#F9A908;" cx="455.2" cy="125.6" r="6.4"/>
	<circle style="fill:#F9A908;" cx="476" cy="129.6" r="4"/>
	<circle style="fill:#F9A908;" cx="36" cy="153.6" r="4.8"/>
</g>
<path style="fill:#1E4784;" d="M188,223.2c-3.2-0.8-6.4-2.4-8.8-5.6c-8.8-12.8-27.2-16-40-7.2c-5.6,4-14.4,2.4-18.4-3.2
	c-4-5.6-2.4-14.4,3.2-18.4c24.8-17.6,59.2-11.2,76.8,14.4c4,5.6,2.4,14.4-3.2,18.4C195.2,223.2,192,224,188,223.2z"/>
<path style="fill:#02243E;" d="M201.6,202.4c4,5.6,2.4,14.4-3.2,18.4c-3.2,2.4-6.4,2.4-9.6,2.4c-3.2-0.8-6.4-2.4-8.8-5.6
	c-8.8-12.8-27.2-16-40-7.2c-5.6,4-14.4,2.4-18.4-3.2c-4-5.6-2.4-14.4,3.2-18.4"/>
<path style="fill:#1E4784;" d="M300,223.2c3.2-0.8,6.4-2.4,8.8-5.6c8.8-12.8,27.2-16,40-7.2c6.4,4,14.4,2.4,18.4-3.2
	c4-5.6,2.4-14.4-3.2-18.4c-24.8-17.6-59.2-11.2-76.8,14.4c-4,5.6-2.4,14.4,3.2,18.4C292.8,223.2,296,224,300,223.2z"/>
<path style="fill:#02243E;" d="M286.4,202.4c-4,5.6-2.4,14.4,3.2,18.4c3.2,2.4,6.4,2.4,9.6,2.4c3.2-0.8,6.4-2.4,8.8-5.6
	c8.8-12.8,27.2-16,40-7.2c6.4,4,14.4,2.4,18.4-3.2c4-5.6,2.4-14.4-3.2-18.4"/>
<path style="fill:#19BCA4;" d="M209.6,155.2c-4.8,5.6-15.2-8-30.4-21.6c-16-13.6-30.4-21.6-26.4-26.4c4.8-5.6,20.8,0.8,36.8,14.4
	C204.8,135.2,214.4,150.4,209.6,155.2z"/>
<path style="fill:#109DA0;" d="M209.6,155.2c-4.8,5.6-15.2-8-30.4-21.6c-16-13.6-30.4-21.6-26.4-26.4"/>
<path style="fill:#19BCA4;" d="M278.4,155.2c4.8,5.6,15.2-8,30.4-21.6c16-13.6,30.4-21.6,26.4-26.4c-4.8-5.6-20.8,0.8-36.8,14.4
	C283.2,135.2,273.6,150.4,278.4,155.2z"/>
<path style="fill:#109DA0;" d="M278.4,155.2c4.8,5.6,15.2-8,30.4-21.6c16-13.6,30.4-21.6,26.4-26.4"/>
<polygon style="fill:#1E4784;" points="268.8,479.2 244,488 219.2,479.2 244,398.4 "/>
<polygon style="fill:#02243E;" points="268.8,479.2 244,488 249.6,470.4 244,398.4 "/>
<g>
	<polygon style="fill:#C6C6C2;" points="270.4,332 217.6,332 209.6,308 278.4,308 	"/>
	<polygon style="fill:#C6C6C2;" points="270.4,380 217.6,380 209.6,372 278.4,372 	"/>
</g>
<polygon style="fill:#1E4784;" points="144,285.6 176,340 244,340 244,356 169.6,356 "/>
<polygon style="fill:#02243E;" points="344,285.6 312,340 244,340 244,356 318.4,356 "/>
<polygon style="fill:#E5E5E5;" points="120.8,268 192.8,268 205.6,299.2 "/>
<polygon style="fill:#FFFFFF;" points="367.2,268 295.2,268 282.4,299.2 "/>
<g>
	<circle style="fill:#F7910B;" cx="84.8" cy="36" r="26.4"/>
	<circle style="fill:#F7910B;" cx="312.8" cy="9.6" r="8"/>
	<circle style="fill:#F7910B;" cx="425.6" cy="37.6" r="22.4"/>
	<circle style="fill:#F7910B;" cx="178.4" cy="4.8" r="4.8"/>
</g>
<g>
</g>
<g>
</g>
<g>
</g>
<g>
</g>
<g>
</g>
<g>
</g>
<g>
</g>
<g>
</g>
<g>
</g>
<g>
</g>
<g>
</g>
<g>
</g>
<g>
</g>
<g>
</g>
<g>
</g>
</svg>
