<?xml version="1.0" encoding="iso-8859-1"?>
<!-- Generator: Adobe Illustrator 19.0.0, SVG Export Plug-In . SVG Version: 6.00 Build 0)  -->
<svg version="1.1" id="Layer_1" xmlns="http://www.w3.org/2000/svg" xmlns:xlink="http://www.w3.org/1999/xlink" x="0px" y="0px"
	 viewBox="0 0 511.999 511.999" style="enable-background:new 0 0 511.999 511.999;" xml:space="preserve">
<circle style="fill:#FDDF6D;" cx="256.001" cy="256.001" r="245.993"/>
<path style="fill:#FCC56B;" d="M308.715,465.677c-135.858,0-245.992-110.134-245.992-245.992
	c0-72.584,31.443-137.816,81.444-182.842c-79.64,40.719-134.16,123.57-134.16,219.156c0,135.858,110.134,245.992,245.992,245.992
	c63.274,0,120.962-23.897,164.548-63.149C386.997,455.998,348.986,465.677,308.715,465.677z"/>
<g>
	<circle style="fill:#FFFFFF;" cx="213.156" cy="179.852" r="30.022"/>
	<circle style="fill:#FFFFFF;" cx="382.186" cy="179.852" r="30.022"/>
</g>
<g>
	<path style="fill:#F9A880;" d="M150.287,240.771c-18.268,0-33.079,14.809-33.079,33.079h66.156
		C183.366,255.58,168.555,240.771,150.287,240.771z"/>
	<path style="fill:#F9A880;" d="M438.814,236.338c-18.268,0-33.079,14.809-33.079,33.078h66.156
		C471.892,251.149,457.083,236.338,438.814,236.338z"/>
</g>
<path style="fill:#7F184C;" d="M395.875,355.172H215.279c-5.528,0-10.007-4.481-10.007-10.007s4.479-10.007,10.007-10.007h180.597
	c5.528,0,10.007,4.481,10.007,10.007S401.403,355.172,395.875,355.172z"/>
<path d="M467.285,111.408c-28.561-41.657-68.301-73.694-114.923-92.65c-5.124-2.082-10.959,0.383-13.04,5.501
	c-2.082,5.12,0.382,10.957,5.501,13.039c42.979,17.474,79.618,47.014,105.954,85.427c26.958,39.321,41.209,85.407,41.209,133.274
	c0,130.123-105.863,235.985-235.985,235.985S20.015,386.123,20.015,255.999S125.877,20.015,255.999,20.015
	c5.528,0,10.007-4.481,10.007-10.007S261.527,0,255.999,0C114.84,0,0,114.841,0,255.999s114.84,255.999,255.999,255.999
	s255.999-114.84,255.999-255.999C512,204.075,496.538,154.075,467.285,111.408z"/>
<path d="M253.193,179.856c0-22.072-17.957-40.029-40.029-40.029s-40.029,17.957-40.029,40.029s17.957,40.029,40.029,40.029
	S253.193,201.928,253.193,179.856z M193.149,179.856c0-11.036,8.979-20.015,20.015-20.015s20.015,8.979,20.015,20.015
	s-8.979,20.015-20.015,20.015S193.149,190.892,193.149,179.856z"/>
<path d="M422.216,179.856c0-22.072-17.957-40.029-40.029-40.029s-40.029,17.957-40.029,40.029s17.957,40.029,40.029,40.029
	S422.216,201.928,422.216,179.856z M362.172,179.856c0-11.036,8.979-20.015,20.015-20.015s20.015,8.979,20.015,20.015
	s-8.979,20.015-20.015,20.015S362.172,190.892,362.172,179.856z"/>
<path d="M205.272,345.166c0,5.527,4.479,10.007,10.007,10.007h180.597c5.528,0,10.007-4.481,10.007-10.007
	s-4.479-10.007-10.007-10.007H215.279C209.751,335.159,205.272,339.638,205.272,345.166z"/>
<circle cx="317.005" cy="18.747" r="10.007"/>
<g>
</g>
<g>
</g>
<g>
</g>
<g>
</g>
<g>
</g>
<g>
</g>
<g>
</g>
<g>
</g>
<g>
</g>
<g>
</g>
<g>
</g>
<g>
</g>
<g>
</g>
<g>
</g>
<g>
</g>
</svg>
