<?xml version="1.0" encoding="iso-8859-1"?>
<!-- Generator: Adobe Illustrator 19.0.0, SVG Export Plug-In . SVG Version: 6.00 Build 0)  -->
<svg version="1.1" id="Layer_1" xmlns="http://www.w3.org/2000/svg" xmlns:xlink="http://www.w3.org/1999/xlink" x="0px" y="0px"
	 viewBox="0 0 484.8 484.8" style="enable-background:new 0 0 484.8 484.8;" xml:space="preserve">
<g>
	<path style="fill:#F7910B;" d="M484.8,286.4c0,104-95.2,188-242.4,188S0,390.4,0,286.4s95.2-260,242.4-260S484.8,182.4,484.8,286.4
		z"/>
	<path style="fill:#F7910B;" d="M484.8,286.4c0,104-95.2,156-242.4,156S0,390.4,0,286.4s95.2-276,242.4-276S484.8,182.4,484.8,286.4
		z"/>
</g>
<g>
	<path style="fill:#F9A908;" d="M242.4,10.4c147.2,0,242.4,172,242.4,276s-95.2,156-242.4,156"/>
	<path style="fill:#F9A908;" d="M484.8,286.4c0,104-95.2,156-242.4,156S0,390.4,0,286.4s95.2-260,242.4-260S484.8,182.4,484.8,286.4
		z"/>
</g>
<path style="fill:#F9C55D;" d="M0,286.4c0-104,95.2-260,242.4-260"/>
<path style="fill:#F7910B;" d="M242.4,26.4c147.2,0,242.4,156,242.4,260s-95.2,188-242.4,188"/>
<g>
	<path style="fill:#EA7103;" d="M242.4,26.4c147.2,0,242.4,156,242.4,260"/>
	<circle style="fill:#EA7103;" cx="159.2" cy="256" r="25.6"/>
	<circle style="fill:#EA7103;" cx="325.6" cy="256" r="25.6"/>
</g>
<circle style="fill:#1E4784;" cx="159.2" cy="248.8" r="25.6"/>
<path style="fill:#00233F;" d="M159.2,223.2c14.4,0,25.6,11.2,25.6,25.6s-11.2,25.6-25.6,25.6"/>
<circle style="fill:#1E4784;" cx="325.6" cy="248.8" r="25.6"/>
<path style="fill:#00233F;" d="M325.6,223.2c14.4,0,25.6,11.2,25.6,25.6s-12,25.6-25.6,25.6"/>
<g>
	<path style="fill:#19BCA4;" d="M187.2,216.8c-3.2,6.4-12-1.6-24.8-8s-24.8-8-22.4-14.4c3.2-6.4,16-6.4,28.8,0
		C182.4,200,190.4,210.4,187.2,216.8z"/>
	<path style="fill:#19BCA4;" d="M296,228.8c2.4,6.4,12-0.8,25.6-6.4c13.6-4.8,25.6-6.4,23.2-12.8c-2.4-6.4-15.2-7.2-28.8-2.4
		C302.4,213.6,293.6,222.4,296,228.8z"/>
</g>
<g>
	<path style="fill:#109DA0;" d="M187.2,216.8c-3.2,6.4-12-1.6-24.8-8s-24.8-8-22.4-14.4"/>
	<path style="fill:#109DA0;" d="M296,228.8c2.4,6.4,12-0.8,25.6-6.4c13.6-4.8,25.6-6.4,23.2-12.8"/>
</g>
<path style="fill:#F9C55D;" d="M208.8,291.2c0,9.6-28,5.6-62.4,5.6S84,301.6,84,291.2c0-9.6,28-17.6,62.4-17.6
	C180.8,273.6,208.8,280.8,208.8,291.2z"/>
<path style="fill:#F9A908;" d="M400.8,291.2c0,9.6-28,5.6-62.4,5.6s-62.4,4.8-62.4-5.6c0-9.6,28-17.6,62.4-17.6
	S400.8,280.8,400.8,291.2z"/>
<g>
	<circle style="fill:#F7910B;" cx="68.8" cy="262.4" r="4.8"/>
	<circle style="fill:#F7910B;" cx="32.8" cy="278.4" r="8.8"/>
	<circle style="fill:#F7910B;" cx="56.8" cy="246.4" r="1.6"/>
	<circle style="fill:#F7910B;" cx="93.6" cy="260.8" r="1.6"/>
</g>
<g>
	<circle style="fill:#F9A908;" cx="407.2" cy="264.8" r="6.4"/>
	<circle style="fill:#F9A908;" cx="427.2" cy="276" r="1.6"/>
	<circle style="fill:#F9A908;" cx="384.8" cy="205.6" r="2.4"/>
	<circle style="fill:#F9A908;" cx="380.8" cy="298.4" r="10.4"/>
	<circle style="fill:#F9A908;" cx="438.4" cy="299.2" r="4.8"/>
</g>
<g>
	<circle style="fill:#F7910B;" cx="60.8" cy="294.4" r="4"/>
	<circle style="fill:#F7910B;" cx="67.2" cy="227.2" r="3.2"/>
</g>
<g>
	<circle style="fill:#25A1D8;" cx="24.8" cy="116.8" r="8.8"/>
	<circle style="fill:#25A1D8;" cx="50.4" cy="88.8" r="4.8"/>
</g>
<g>
	<circle style="fill:#0767A8;" cx="460" cy="136" r="1.6"/>
	<circle style="fill:#0767A8;" cx="453.6" cy="112.8" r="6.4"/>
	<circle style="fill:#0767A8;" cx="474.4" cy="116.8" r="4"/>
</g>
<g>
	<circle style="fill:#25A1D8;" cx="34.4" cy="140.8" r="4.8"/>
	<path style="fill:#25A1D8;" d="M242.4,10.4C95.2,10.4,0,182.4,0,286.4s95.2,188,242.4,188s242.4-84,242.4-188
		S389.6,10.4,242.4,10.4z M242.4,306.4C135.2,306.4,48,300,48,227.2c0-72,87.2-42.4,194.4-42.4S436,154.4,436,227.2
		S349.6,306.4,242.4,306.4z"/>
</g>
<path style="fill:#0767A8;" d="M484.8,286.4c0-104-95.2-276-242.4-276c-52,0-98.4,21.6-135.2,54.4C92,100,82.4,140,79.2,183.2
	c34.4-10.4,94.4,2.4,163.2,2.4c107.2,0,193.6-30.4,193.6,42.4c0,72-87.2,79.2-193.6,79.2c-64.8,0-121.6-2.4-156.8-20
	c18.4,91.2,68,162.4,131.2,187.2c8,0,16.8,0,25.6,0C389.6,474.4,484.8,390.4,484.8,286.4z"/>
<path style="fill:#C8D4DB;" d="M242.4,68c84,0,151.2,5.6,151.2,61.6c0,56.8-67.2,56.8-151.2,56.8s-151.2-0.8-151.2-56.8
	S158.4,68,242.4,68z"/>
<path style="fill:#E1EAEF;" d="M91.2,124c4.8,42.4,70.4,43.2,151.2,43.2s146.4-0.8,151.2-43.2c-4.8-51.2-70.4-56-151.2-56
	C161.6,68,96,72.8,91.2,124z"/>
<polygon style="fill:#25A1D8;" points="240,82.4 251.2,105.6 276.8,109.6 258.4,127.2 263.2,152.8 240,140.8 217.6,152.8 
	221.6,127.2 203.2,109.6 228.8,105.6 "/>
<polygon style="fill:#0767A8;" points="240,82.4 251.2,105.6 276.8,109.6 258.4,127.2 263.2,152.8 240,140.8 217.6,152.8 
	228.8,134.4 203.2,109.6 236,112 "/>
<g>
</g>
<g>
</g>
<g>
</g>
<g>
</g>
<g>
</g>
<g>
</g>
<g>
</g>
<g>
</g>
<g>
</g>
<g>
</g>
<g>
</g>
<g>
</g>
<g>
</g>
<g>
</g>
<g>
</g>
</svg>
