<?xml version="1.0" encoding="iso-8859-1"?>
<!-- Generator: Adobe Illustrator 19.0.0, SVG Export Plug-In . SVG Version: 6.00 Build 0)  -->
<svg version="1.1" id="Layer_1" xmlns="http://www.w3.org/2000/svg" xmlns:xlink="http://www.w3.org/1999/xlink" x="0px" y="0px"
	 viewBox="0 0 497.6 497.6" style="enable-background:new 0 0 497.6 497.6;" xml:space="preserve">
<g>
	<path style="fill:#F7910B;" d="M476.858,329.6c0,92.8-85.6,168-216.8,168c-132,0-216.8-75.2-216.8-168s84.8-232.8,216.8-232.8
		C391.258,96.8,476.858,236.8,476.858,329.6z"/>
	<path style="fill:#F7910B;" d="M476.858,329.6c0,92.8-85.6,139.2-216.8,139.2c-132,0-216.8-46.4-216.8-139.2
		s85.6-247.2,216.8-247.2C391.258,82.4,476.858,236.8,476.858,329.6z"/>
</g>
<g>
	<path style="fill:#F9A908;" d="M260.058,82.4c132,0,216.8,154.4,216.8,247.2s-85.6,139.2-216.8,139.2"/>
	<path style="fill:#F9A908;" d="M476.858,329.6c0,92.8-85.6,139.2-216.8,139.2c-132,0-216.8-46.4-216.8-139.2
		s84.8-232.8,216.8-232.8C391.258,96.8,476.858,236.8,476.858,329.6z"/>
</g>
<path style="fill:#F9C55D;" d="M42.458,329.6c0-92.8,85.6-232.8,217.6-232.8"/>
<path style="fill:#F7910B;" d="M260.058,96.8c132,0,216.8,140,216.8,232.8s-85.6,168-216.8,168"/>
<path style="fill:#EA7103;" d="M260.058,96.8c132,0,216.8,140,216.8,232.8"/>
<path style="fill:#19BCA4;" d="M216.058,240.8c2.4,5.6-8.8,6.4-20.8,11.2c-12,4.8-20.8,11.2-23.2,5.6c-2.4-5.6,5.6-14.4,17.6-19.2
	C201.658,234.4,213.658,235.2,216.058,240.8z"/>
<path style="fill:#109DA0;" d="M216.058,240.8c2.4,5.6-8.8,6.4-20.8,11.2c-12,4.8-20.8,11.2-23.2,5.6"/>
<path style="fill:#19BCA4;" d="M304.058,240.8c-2.4,5.6,8.8,6.4,20.8,11.2c12,4.8,20.8,11.2,23.2,5.6c2.4-5.6-5.6-14.4-17.6-19.2
	C317.658,234.4,305.658,235.2,304.058,240.8z"/>
<path style="fill:#109DA0;" d="M304.058,240.8c-2.4,5.6,8.8,6.4,20.8,11.2c12,4.8,20.8,11.2,23.2,5.6"/>
<path style="fill:#F9C55D;" d="M229.658,352.8c0,8.8-24.8,4.8-56,4.8s-56,4-56-4.8s24.8-16,56-16
	C204.858,337.6,229.658,344,229.658,352.8z"/>
<path style="fill:#F9A908;" d="M401.658,352.8c0,8.8-24.8,4.8-56,4.8s-56,4-56-4.8s24.8-16,56-16
	C376.058,337.6,401.658,344,401.658,352.8z"/>
<g>
	<circle style="fill:#F7910B;" cx="104.858" cy="307.2" r="4.8"/>
	<circle style="fill:#F7910B;" cx="72.058" cy="321.6" r="8"/>
	<circle style="fill:#F7910B;" cx="93.658" cy="293.6" r="1.6"/>
	<circle style="fill:#F7910B;" cx="126.458" cy="306.4" r="1.6"/>
</g>
<g>
	<circle style="fill:#F9A908;" cx="407.258" cy="310.4" r="5.6"/>
	<circle style="fill:#F9A908;" cx="424.858" cy="320" r="1.6"/>
	<circle style="fill:#F9A908;" cx="387.258" cy="256.8" r="2.4"/>
	<circle style="fill:#F9A908;" cx="383.258" cy="340" r="9.6"/>
	<circle style="fill:#F9A908;" cx="434.458" cy="340.8" r="4.8"/>
</g>
<g>
	<circle style="fill:#F7910B;" cx="97.658" cy="336.8" r="3.2"/>
	<circle style="fill:#F7910B;" cx="103.258" cy="276" r="3.2"/>
</g>
<g>
	<circle style="fill:#F9A908;" cx="65.658" cy="177.6" r="8"/>
	<circle style="fill:#F9A908;" cx="88.058" cy="152" r="4"/>
	<circle style="fill:#F9A908;" cx="454.458" cy="195.2" r="1.6"/>
	<circle style="fill:#F9A908;" cx="448.858" cy="173.6" r="5.6"/>
	<circle style="fill:#F9A908;" cx="467.258" cy="177.6" r="3.2"/>
	<circle style="fill:#F9A908;" cx="73.658" cy="199.2" r="4"/>
</g>
<path style="fill:#1E4784;" d="M201.658,332.8c-3.2-0.8-5.6-2.4-8-4.8c-8-12-24-14.4-36-6.4c-5.6,4-12.8,2.4-16.8-3.2
	s-2.4-12.8,3.2-16.8c22.4-15.2,53.6-9.6,68.8,12.8c4,5.6,2.4,12.8-3.2,16.8C207.258,332.8,204.058,333.6,201.658,332.8z"/>
<path style="fill:#02243E;" d="M213.658,314.4c4,5.6,2.4,12.8-3.2,16.8c-2.4,1.6-5.6,2.4-8.8,1.6s-5.6-2.4-8-4.8
	c-8-12-24-14.4-36-6.4c-5.6,4-12.8,2.4-16.8-3.2s-2.4-12.8,3.2-16.8"/>
<path style="fill:#1E4784;" d="M317.658,332.8c3.2-0.8,5.6-2.4,8-4.8c8-12,24-14.4,36-6.4c5.6,4,12.8,2.4,16.8-3.2
	s2.4-12.8-3.2-16.8c-22.4-15.2-53.6-9.6-68.8,12.8c-4,5.6-2.4,12.8,3.2,16.8C312.058,332.8,315.258,333.6,317.658,332.8z"/>
<path style="fill:#02243E;" d="M306.458,314.4c-4,5.6-2.4,12.8,3.2,16.8c2.4,1.6,5.6,2.4,8.8,1.6c3.2-0.8,5.6-2.4,8-4.8
	c8-12,24-14.4,36-6.4c5.6,4,12.8,2.4,16.8-3.2s2.4-12.8-3.2-16.8"/>
<polygon style="fill:#1E4784;" points="392.058,176 297.658,194.4 230.458,132 363.258,0 "/>
<polyline style="fill:#00233F;" points="363.258,0 392.058,176 297.658,194.4 "/>
<polygon style="fill:#ED6992;" points="329.658,32.8 373.658,63.2 369.658,39.2 342.458,20.8 "/>
<polyline style="fill:#E2446E;" points="373.658,63.2 369.658,39.2 342.458,20.8 "/>
<polygon style="fill:#ED6992;" points="294.458,68.8 384.858,131.2 380.858,106.4 307.258,56 "/>
<polyline style="fill:#E2446E;" points="384.858,131.2 380.858,106.4 307.258,56 "/>
<polygon style="fill:#ED6992;" points="258.458,104 369.658,180 392.058,176 392.058,174.4 271.258,91.2 "/>
<polyline style="fill:#E2446E;" points="369.658,180 392.058,176 392.058,174.4 271.258,91.2 "/>
<polygon style="fill:#ED6992;" points="325.658,188.8 236.058,127.2 230.458,132 296.858,195.2 301.658,193.6 "/>
<g>
	<polyline style="fill:#E2446E;" points="301.658,193.6 325.658,188.8 236.058,127.2 	"/>
	<circle style="fill:#E2446E;" cx="132.858" cy="168" r="24"/>
	<path style="fill:#E2446E;" d="M207.258,166.4c0,7.2-5.6,12.8-12.8,12.8s-12.8-5.6-12.8-12.8s5.6-12.8,12.8-12.8
		S207.258,160,207.258,166.4z"/>
</g>
<g>
	<circle style="fill:#A2CC2E;" cx="128.058" cy="104" r="16.8"/>
	<path style="fill:#A2CC2E;" d="M448.058,200.8c0,17.6-14.4,32.8-32.8,32.8c-17.6,0-32.8-14.4-32.8-32.8c0-17.6,14.4-32.8,32.8-32.8
		C432.858,168.8,448.058,183.2,448.058,200.8z"/>
</g>
<circle style="fill:#E2446E;" cx="413.658" cy="265.6" r="8.8"/>
<circle style="fill:#A2CC2E;" cx="191.258" cy="90.4" r="10.4"/>
<ellipse style="fill:#02243E;" cx="232.858" cy="412.8" rx="16" ry="20"/>
<ellipse style="fill:#F9A908;" cx="271.258" cy="416" rx="20" ry="32.8"/>
<path style="fill:#E2446E;" d="M112.858,428.8c-13.6,0-28-4.8-40.8-9.6c-24-9.6-41.6-27.2-48-46.4c-5.6-16.8-4-34.4,4-49.6
	s20.8-27.2,37.6-32.8c28-9.6,58.4,5.6,68,33.6c8,23.2-4.8,48.8-28,56c-9.6,3.2-19.2,2.4-28.8-2.4c-8.8-4.8-15.2-12-18.4-21.6
	c-2.4-8-2.4-16.8,1.6-24s10.4-12.8,18.4-16c4-1.6,8.8,0.8,9.6,4.8c1.6,4-0.8,8.8-4.8,9.6c-4,1.6-7.2,4-8.8,8c-1.6,4-2.4,8-0.8,12
	c1.6,5.6,5.6,9.6,10.4,12.8c4.8,2.4,11.2,3.2,16.8,0.8c15.2-4.8,23.2-21.6,18.4-36c-6.4-20-28-30.4-48-24
	c-12.8,4-22.4,12.8-28.8,24.8c-5.6,12-7.2,24.8-2.4,37.6c4.8,15.2,19.2,28.8,39.2,36.8c19.2,8,40.8,12,56.8,6.4
	c0.8,0,1.6-0.8,2.4-0.8h92.8c4,0,8,4,8,8s-3.2,8-8,8h-92.8C130.458,426.4,121.658,428.8,112.858,428.8z"/>
<g>
</g>
<g>
</g>
<g>
</g>
<g>
</g>
<g>
</g>
<g>
</g>
<g>
</g>
<g>
</g>
<g>
</g>
<g>
</g>
<g>
</g>
<g>
</g>
<g>
</g>
<g>
</g>
<g>
</g>
</svg>
