<?xml version="1.0" encoding="iso-8859-1"?>
<!-- Generator: Adobe Illustrator 19.0.0, SVG Export Plug-In . SVG Version: 6.00 Build 0)  -->
<svg version="1.1" id="Layer_1" xmlns="http://www.w3.org/2000/svg" xmlns:xlink="http://www.w3.org/1999/xlink" x="0px" y="0px"
	 viewBox="0 0 501.191 501.191" style="enable-background:new 0 0 501.191 501.191;" xml:space="preserve">
<g>
	<path style="fill:#F7910B;" d="M492.995,313.191c0,104-95.2,188-242.4,188s-242.4-84-242.4-188s95.2-260,242.4-260
		S492.995,209.991,492.995,313.191z"/>
	<path style="fill:#F7910B;" d="M492.995,313.191c0,104-95.2,156-242.4,156s-242.4-52-242.4-156s95.2-276,242.4-276
		S492.995,209.991,492.995,313.191z"/>
</g>
<g>
	<path style="fill:#F9A908;" d="M250.595,37.191c147.2,0,242.4,172,242.4,276s-95.2,156-242.4,156"/>
	<path style="fill:#F9A908;" d="M492.995,313.191c0,104-95.2,156-242.4,156s-242.4-52-242.4-156s95.2-260,242.4-260
		S492.995,209.991,492.995,313.191z"/>
</g>
<path style="fill:#F9C55D;" d="M8.195,313.191c0-104,95.2-260,242.4-260"/>
<path style="fill:#F7910B;" d="M250.595,53.191c147.2,0,242.4,156,242.4,260s-95.2,188-242.4,188"/>
<path style="fill:#EA7103;" d="M250.595,53.191c147.2,0,242.4,156,242.4,260"/>
<g>
	<path style="fill:#19BCA4;" d="M200.195,5.991c2.4,6.4-9.6,7.2-23.2,12c-13.6,4.8-23.2,12-25.6,5.6c-2.4-6.4,6.4-16,20-20.8
		C184.195-2.009,197.795-0.409,200.195,5.991z"/>
	<path style="fill:#19BCA4;" d="M300.995,16.391c0,7.2,11.2,4,26.4,4.8c14.4,0.8,26.4,4.8,26.4-2.4s-11.2-12.8-25.6-13.6
		C312.995,3.591,300.995,9.191,300.995,16.391z"/>
</g>
<g>
	<path style="fill:#109DA0;" d="M200.195,5.991c2.4,6.4-9.6,7.2-23.2,12c-13.6,4.8-23.2,12-25.6,5.6"/>
	<path style="fill:#109DA0;" d="M300.995,16.391c0,7.2,11.2,4,26.4,4.8c14.4,0.8,26.4,4.8,26.4-2.4"/>
</g>
<g>
	<circle style="fill:#F7910B;" cx="76.995" cy="289.191" r="4.8"/>
	<circle style="fill:#F7910B;" cx="40.995" cy="305.191" r="8.8"/>
	<circle style="fill:#F7910B;" cx="64.995" cy="273.191" r="1.6"/>
	<circle style="fill:#F7910B;" cx="101.795" cy="287.591" r="1.6"/>
</g>
<g>
	<circle style="fill:#F9A908;" cx="415.395" cy="292.391" r="6.4"/>
	<circle style="fill:#F9A908;" cx="435.395" cy="303.591" r="1.6"/>
	<circle style="fill:#F9A908;" cx="392.995" cy="232.391" r="2.4"/>
	<circle style="fill:#F9A908;" cx="353.795" cy="224.391" r="10.4"/>
	<circle style="fill:#F9A908;" cx="446.595" cy="325.991" r="4.8"/>
</g>
<g>
	<circle style="fill:#F7910B;" cx="68.995" cy="321.191" r="4"/>
	<circle style="fill:#F7910B;" cx="75.395" cy="253.991" r="3.2"/>
</g>
<g>
	<circle style="fill:#F9A908;" cx="32.995" cy="144.391" r="8.8"/>
	<circle style="fill:#F9A908;" cx="58.595" cy="115.591" r="4.8"/>
	<circle style="fill:#F9A908;" cx="468.195" cy="163.591" r="1.6"/>
	<circle style="fill:#F9A908;" cx="461.795" cy="139.591" r="6.4"/>
	<path style="fill:#F9A908;" d="M486.595,144.391c0,2.4-1.6,4-4,4s-4-1.6-4-4s1.6-4,4-4
		C484.195,140.391,486.595,141.991,486.595,144.391z"/>
	<circle style="fill:#F9A908;" cx="42.595" cy="167.591" r="4.8"/>
</g>
<path style="fill:#F9C55D;" d="M213.795,209.991c0,10.4-30.4,5.6-68.8,5.6c-37.6,0-68.8,4.8-68.8-5.6c0-10.4,30.4-19.2,68.8-19.2
	C183.395,189.991,213.795,198.791,213.795,209.991z"/>
<path style="fill:#F9A908;" d="M424.995,209.991c0,10.4-30.4,5.6-68.8,5.6c-37.6,0-68.8,4.8-68.8-5.6c0-10.4,30.4-19.2,68.8-19.2
	C393.795,189.991,424.995,198.791,424.995,209.991z"/>
<path style="fill:#1E4784;" d="M128.195,152.391c3.2,0,6.4,1.6,9.6,4c11.2,11.2,29.6,11.2,40.8,0c4.8-4.8,13.6-5.6,18.4,0
	c4.8,4.8,5.6,13.6,0,18.4c-21.6,21.6-56.8,21.6-78.4,0c-4.8-4.8-5.6-13.6,0-18.4C121.795,153.191,124.995,152.391,128.195,152.391z"
	/>
<path style="fill:#02243E;" d="M119.395,174.791c-4.8-4.8-5.6-13.6,0-18.4c2.4-2.4,5.6-4,9.6-4c3.2,0,6.4,1.6,9.6,4
	c11.2,11.2,29.6,11.2,40.8,0c4.8-4.8,13.6-5.6,18.4,0c4.8,4.8,5.6,13.6,0,18.4"/>
<path style="fill:#1E4784;" d="M372.995,152.391c-3.2,0-6.4,1.6-9.6,4c-11.2,11.2-29.6,11.2-40.8,0c-4.8-4.8-13.6-5.6-18.4,0
	c-4.8,4.8-5.6,13.6,0,18.4c21.6,21.6,56.8,21.6,78.4,0c4.8-4.8,4.8-13.6,0-18.4C379.395,153.191,376.195,152.391,372.995,152.391z"
	/>
<path style="fill:#02243E;" d="M381.795,174.791c4.8-4.8,4.8-13.6,0-18.4c-2.4-2.4-5.6-4-9.6-4c-3.2,0-6.4,1.6-9.6,4
	c-11.2,11.2-29.6,11.2-40.8,0c-4.8-4.8-13.6-5.6-18.4,0c-4.8,4.8-5.6,13.6,0,18.4"/>
<path style="fill:#F7910B;" d="M309.795,261.991c0,20.8-26.4,58.4-59.2,58.4s-59.2-37.6-59.2-58.4"/>
<g>
	<path style="fill:#02243E;" d="M130.595,245.191c-4.8,0-8.8-4-8.8-8.8s4-8.8,8.8-8.8c7.2,0,12.8-5.6,12.8-12.8c0-4.8,4-8.8,8.8-8.8
		s8.8,4,8.8,8.8C160.195,231.591,146.595,245.191,130.595,245.191z"/>
	<path style="fill:#02243E;" d="M370.595,245.191c-16.8,0-30.4-13.6-30.4-30.4c0-4.8,4-8.8,8.8-8.8s8.8,4,8.8,8.8
		c0,7.2,5.6,12.8,12.8,12.8c4.8,0,8.8,4,8.8,8.8S375.395,245.191,370.595,245.191z"/>
	<path style="fill:#02243E;" d="M250.595,284.391c-40,0-80.8-15.2-111.2-46.4c-3.2-3.2-3.2-8.8,0-12.8c3.2-3.2,8.8-3.2,12.8,0
		c54.4,54.4,143.2,54.4,198.4,0c3.2-3.2,8.8-3.2,12.8,0c3.2,3.2,3.2,8.8,0,12.8C331.395,269.191,290.595,284.391,250.595,284.391z"
		/>
</g>
<g>
	<circle style="fill:#F9A908;" cx="114.595" cy="73.191" r="9.6"/>
	<circle style="fill:#F9A908;" cx="57.795" cy="78.791" r="25.6"/>
	<path style="fill:#F9A908;" d="M376.995,66.791c1.6,0,3.2,1.6,3.2,3.2s-1.6,3.2-3.2,3.2"/>
	<circle style="fill:#F9A908;" cx="414.595" cy="68.391" r="4.8"/>
	<path style="fill:#F9A908;" d="M427.395,98.791c0-4,3.2-8,8-8c4,0,8,3.2,8,8"/>
	<circle style="fill:#F9A908;" cx="456.195" cy="53.191" r="14.4"/>
	<circle style="fill:#F9A908;" cx="472.195" cy="101.991" r="6.4"/>
</g>
<path style="fill:#8E6649;" d="M8.195,314.791c2.4,108,96.8,186.4,242.4,186.4s240-78.4,242.4-186.4H8.195z"/>
<g>
	<path style="fill:#774313;" d="M250.595,501.191c145.6,0,240.8-78.4,242.4-186.4h-482.4"/>
	<polygon style="fill:#774313;" points="123.395,332.391 156.195,298.791 248.995,319.591 	"/>
	<polygon style="fill:#774313;" points="377.795,332.391 344.195,298.791 252.195,319.591 	"/>
</g>
<path style="fill:#FFEBC7;" d="M298.595,334.791c0,2.4-1.6,4-4,4h-88c-2.4,0-4-1.6-4-4l0,0c0-2.4,1.6-4,4-4h88
	C296.995,330.791,298.595,332.391,298.595,334.791L298.595,334.791z"/>
<g>
	<circle style="fill:#F9C55D;" cx="176.995" cy="336.391" r="6.4"/>
	<circle style="fill:#F9C55D;" cx="324.195" cy="336.391" r="6.4"/>
</g>
<g>
	<circle style="fill:#FFEBC7;" cx="248.995" cy="391.591" r="11.2"/>
	<path style="fill:#FFEBC7;" d="M250.595,358.791c-35.2,0-64,28.8-64,64s28.8,64,64,64s64-28.8,64-64
		S285.795,358.791,250.595,358.791z M248.995,467.591c-6.4,0-11.2-4.8-11.2-11.2c0-6.4,4.8-11.2,11.2-11.2c5.6,0,11.2,4.8,11.2,11.2
		C259.395,461.991,254.595,467.591,248.995,467.591z M250.595,422.791c-14.4,4.8-28.8,8.8-28.8,28.8c0,16,12.8,28.8,28.8,28.8
		c-32,0-58.4-25.6-58.4-58.4c0-32,26.4-58.4,58.4-58.4c16,0,28.8,12.8,28.8,28.8C279.395,413.991,264.995,417.991,250.595,422.791z"
		/>
</g>
<g>
	<circle style="fill:#F9C55D;" cx="265.795" cy="95.591" r="5.6"/>
	<path style="fill:#F9C55D;" d="M282.595,96.391c0-17.6-14.4-32-32-32s-32,14.4-32,32s14.4,32,32,32S282.595,113.991,282.595,96.391
		z M228.195,95.591c0-3.2,2.4-5.6,5.6-5.6s5.6,2.4,5.6,5.6s-2.4,5.6-5.6,5.6S228.195,97.991,228.195,95.591z M250.595,96.391
		c-2.4-7.2-4.8-14.4-14.4-14.4c-8,0-14.4,6.4-14.4,14.4c0-16,12.8-28.8,28.8-28.8s28.8,12.8,28.8,28.8c0,8-6.4,14.4-14.4,14.4
		C255.395,110.791,252.995,103.591,250.595,96.391z"/>
</g>
<g>
</g>
<g>
</g>
<g>
</g>
<g>
</g>
<g>
</g>
<g>
</g>
<g>
</g>
<g>
</g>
<g>
</g>
<g>
</g>
<g>
</g>
<g>
</g>
<g>
</g>
<g>
</g>
<g>
</g>
</svg>
