<?xml version="1.0" encoding="iso-8859-1"?>
<!-- Generator: Adobe Illustrator 19.0.0, SVG Export Plug-In . SVG Version: 6.00 Build 0)  -->
<svg version="1.1" id="Layer_1" xmlns="http://www.w3.org/2000/svg" xmlns:xlink="http://www.w3.org/1999/xlink" x="0px" y="0px"
	 viewBox="0 0 505.6 505.6" style="enable-background:new 0 0 505.6 505.6;" xml:space="preserve">
<g>
	<path style="fill:#F7910B;" d="M492.8,320c0,102.4-94.4,185.6-240,185.6s-240-83.2-240-185.6s94.4-256.8,240-256.8
		S492.8,217.6,492.8,320z"/>
	<path style="fill:#F7910B;" d="M492.8,320c0,102.4-94.4,154.4-240,154.4s-240-51.2-240-154.4c0-102.4,94.4-272.8,240-272.8
		S492.8,217.6,492.8,320z"/>
</g>
<g>
	<path style="fill:#F9A908;" d="M252.8,47.2c145.6,0,240,170.4,240,272.8s-94.4,154.4-240,154.4"/>
	<path style="fill:#F9A908;" d="M492.8,320c0,102.4-94.4,154.4-240,154.4s-240-51.2-240-154.4c0-102.4,94.4-256.8,240-256.8
		S492.8,217.6,492.8,320z"/>
</g>
<path style="fill:#F9C55D;" d="M12.8,320c0-102.4,94.4-256.8,240-256.8"/>
<path style="fill:#F7910B;" d="M252.8,63.2c145.6,0,240,154.4,240,256.8s-94.4,185.6-240,185.6"/>
<g>
	<path style="fill:#EA7103;" d="M252.8,63.2c145.6,0,240,154.4,240,256.8"/>
	<circle style="fill:#EA7103;" cx="170.4" cy="226.4" r="24.8"/>
	<circle style="fill:#EA7103;" cx="335.2" cy="226.4" r="24.8"/>
</g>
<circle style="fill:#1E4784;" cx="170.4" cy="219.2" r="24.8"/>
<path style="fill:#00233F;" d="M170.4,194.4c13.6,0,24.8,11.2,24.8,24.8S184,244,170.4,244"/>
<circle style="fill:#1E4784;" cx="335.2" cy="219.2" r="24.8"/>
<path style="fill:#00233F;" d="M335.2,194.4c13.6,0,24.8,11.2,24.8,24.8S348.8,244,335.2,244"/>
<g>
	<path style="fill:#19BCA4;" d="M215.2,195.2c-3.2,6.4-12-2.4-24.8-8c-12.8-6.4-24.8-8-21.6-14.4s16-6.4,28.8,0
		C210.4,178.4,218.4,188.8,215.2,195.2z"/>
	<path style="fill:#19BCA4;" d="M294.4,183.2c4,5.6,11.2-3.2,23.2-11.2s23.2-11.2,20-16.8c-4-5.6-16.8-4-28.8,4
		C296.8,166.4,290.4,177.6,294.4,183.2z"/>
</g>
<g>
	<path style="fill:#109DA0;" d="M215.2,195.2c-3.2,6.4-12-2.4-24.8-8c-12.8-6.4-24.8-8-21.6-14.4"/>
	<path style="fill:#109DA0;" d="M294.4,183.2c4,5.6,11.2-3.2,23.2-11.2s23.2-11.2,20-16.8"/>
</g>
<path style="fill:#F9C55D;" d="M220,267.2c0,9.6-28,4.8-61.6,4.8c-34.4,0-61.6,4.8-61.6-4.8c0-9.6,28-17.6,61.6-17.6
	C192,249.6,220,257.6,220,267.2z"/>
<path style="fill:#F9A908;" d="M409.6,267.2c0,9.6-28,4.8-61.6,4.8c-34.4,0-61.6,4.8-61.6-4.8c0-9.6,28-17.6,61.6-17.6
	C381.6,249.6,409.6,257.6,409.6,267.2z"/>
<g>
	<circle style="fill:#F7910B;" cx="81.6" cy="296" r="4.8"/>
	<circle style="fill:#F7910B;" cx="45.6" cy="312" r="8.8"/>
	<circle style="fill:#F7910B;" cx="69.6" cy="280" r="1.6"/>
	<circle style="fill:#F7910B;" cx="105.6" cy="294.4" r="1.6"/>
</g>
<g>
	<circle style="fill:#F9A908;" cx="416" cy="299.2" r="5.6"/>
	<circle style="fill:#F9A908;" cx="435.2" cy="309.6" r="1.6"/>
	<circle style="fill:#F9A908;" cx="393.6" cy="240" r="2.4"/>
	<circle style="fill:#F9A908;" cx="389.6" cy="332" r="10.4"/>
	<circle style="fill:#F9A908;" cx="446.4" cy="332.8" r="4.8"/>
</g>
<g>
	<circle style="fill:#F7910B;" cx="73.6" cy="328" r="4"/>
	<circle style="fill:#F7910B;" cx="79.2" cy="261.6" r="3.2"/>
</g>
<g>
	<circle style="fill:#F9A908;" cx="37.6" cy="152.8" r="8.8"/>
	<circle style="fill:#F9A908;" cx="63.2" cy="124" r="4.8"/>
	<circle style="fill:#F9A908;" cx="468" cy="171.2" r="1.6"/>
	<circle style="fill:#F9A908;" cx="461.6" cy="148" r="6.4"/>
	<path style="fill:#F9A908;" d="M485.6,152.8c0,2.4-1.6,4-4,4s-4-1.6-4-4s1.6-4,4-4C484,148.8,485.6,150.4,485.6,152.8z"/>
	<path style="fill:#F9A908;" d="M52,176c0,2.4-1.6,4.8-4.8,4.8c-2.4,0-4.8-1.6-4.8-4.8s2.4-4.8,4.8-4.8S52,173.6,52,176z"/>
</g>
<path style="fill:#1E4784;" d="M12.8,324c2.4,100.8,96,181.6,240,181.6s237.6-80.8,240-181.6H12.8z"/>
<path style="fill:#00233F;" d="M252.8,505.6c144,0,237.6-80.8,240-181.6h-480"/>
<path style="fill:#1E4784;" d="M375.2,92.8c0,27.2-21.6,48.8-48.8,48.8H179.2c-27.2,0-48.8-21.6-48.8-48.8l0,0
	c0-27.2,21.6-48.8,48.8-48.8h147.2C353.6,44,375.2,66.4,375.2,92.8L375.2,92.8z"/>
<path style="fill:#00233F;" d="M375.2,92.8L375.2,92.8c0,27.2-21.6,48.8-48.8,48.8H179.2c-27.2,0-48.8-21.6-48.8-48.8l0,0"/>
<polyline style="fill:#F7910B;" points="295.2,318.4 252.8,360.8 210.4,318.4 "/>
<g>
	<path style="fill:#02243E;" d="M187.2,313.6c-3.2,0-7.2-2.4-8-5.6c-1.6-4.8,0.8-9.6,5.6-11.2l61.6-22.4c4.8-1.6,9.6,0.8,11.2,5.6
		c1.6,4.8-0.8,9.6-5.6,11.2l-61.6,22.4C189.6,312.8,188.8,313.6,187.2,313.6z"/>
	<path style="fill:#02243E;" d="M318.4,313.6c-0.8,0-2.4,0-3.2-0.8l-62.4-22.4c-4.8-1.6-7.2-6.4-5.6-11.2c1.6-4.8,6.4-7.2,11.2-5.6
		L320,296c4.8,1.6,7.2,6.4,5.6,11.2C324.8,311.2,321.6,313.6,318.4,313.6z"/>
</g>
<polygon style="fill:#1E4784;" points="152.8,96 90.4,33.6 252.8,0 415.2,33.6 352.8,96 "/>
<polygon style="fill:#00233F;" points="152.8,96 90.4,33.6 251.2,17.6 415.2,33.6 352.8,96 "/>
<polygon style="fill:#F9A908;" points="252.8,44.8 264,68 288.8,71.2 271.2,88.8 275.2,114.4 252.8,102.4 230.4,114.4 234.4,88.8 
	216.8,71.2 241.6,68 "/>
<circle style="fill:#F7910B;" cx="252.8" cy="440" r="20.8"/>
<g>
</g>
<g>
</g>
<g>
</g>
<g>
</g>
<g>
</g>
<g>
</g>
<g>
</g>
<g>
</g>
<g>
</g>
<g>
</g>
<g>
</g>
<g>
</g>
<g>
</g>
<g>
</g>
<g>
</g>
</svg>
