<?xml version="1.0" encoding="iso-8859-1"?>
<!-- Generator: Adobe Illustrator 19.0.0, SVG Export Plug-In . SVG Version: 6.00 Build 0)  -->
<svg version="1.1" id="Layer_1" xmlns="http://www.w3.org/2000/svg" xmlns:xlink="http://www.w3.org/1999/xlink" x="0px" y="0px"
	 viewBox="0 0 512 512" style="enable-background:new 0 0 512 512;" xml:space="preserve">
<circle style="fill:#FDDF6D;" cx="256.001" cy="256.001" r="245.994"/>
<path style="fill:#FCC56B;" d="M308.715,465.678c-135.858,0-245.993-110.134-245.993-245.993
	c0-72.584,31.443-137.816,81.444-182.842C64.527,77.562,10.007,160.414,10.007,256c0,135.858,110.134,245.993,245.993,245.993
	c63.274,0,120.962-23.898,164.549-63.149C386.996,455.999,348.987,465.678,308.715,465.678z"/>
<g>
	<circle style="fill:#FFFFFF;" cx="213.157" cy="179.852" r="55.575"/>
	<circle style="fill:#FFFFFF;" cx="413.277" cy="179.852" r="71.359"/>
</g>
<g>
	<circle style="fill:#7F184C;" cx="222.51" cy="179.852" r="20.015"/>
	<circle style="fill:#7F184C;" cx="428.234" cy="179.852" r="20.015"/>
	<path style="fill:#7F184C;" d="M311.139,318.607L311.139,318.607c42.167,0,76.351,34.184,76.351,76.351v23.222H234.788v-23.222
		C234.788,352.791,268.972,318.607,311.139,318.607z"/>
</g>
<path style="fill:#F2F2F2;" d="M265.304,346.017h97.245c1.967,0,3.783-0.822,5.271-2.204c-13.973-15.475-34.189-25.205-56.68-25.205
	l0,0c-20.845,0-39.729,8.362-53.507,21.904C259.248,343.818,262.076,346.017,265.304,346.017z"/>
<path style="fill:#FC4C59;" d="M300.184,390.016c-20.722-12.556-42.938-15.658-63.787-10.687c-1.05,5.045-1.607,10.272-1.607,15.629
	v23.222h96.151C322.302,406.791,311.989,397.169,300.184,390.016z"/>
<path d="M487.674,146.968c-0.781-1.76-3.31-6.701-3.553-7.059c-13.984-24.702-40.49-41.42-70.844-41.42
	c-44.866,0-81.366,36.5-81.366,81.366s36.5,81.366,81.366,81.366c33.39,0,62.134-20.223,74.66-49.059
	c2.679,14.313,4.048,28.943,4.048,43.836c0,130.124-105.862,235.984-235.985,235.984S20.015,386.124,20.015,256
	S125.876,20.015,256,20.015c41.072,0,81.512,10.709,116.949,30.969c4.798,2.746,10.912,1.078,13.654-3.72
	c2.743-4.798,1.078-10.912-3.72-13.654C344.426,11.622,300.55,0,256,0C114.84,0,0,114.84,0,256c0,141.158,114.84,256,256,256
	s256-114.84,256-255.999C512,217.793,503.813,181.149,487.674,146.968z M474.627,179.856c0,33.83-27.522,61.352-61.352,61.352
	s-61.352-27.523-61.352-61.352s27.522-61.352,61.352-61.352c23.238,0,43.499,12.987,53.908,32.084
	c0.837,1.672,1.651,3.35,2.444,5.036C472.841,163.061,474.627,171.252,474.627,179.856z"/>
<path d="M278.746,179.856c0-36.164-29.42-65.583-65.583-65.583s-65.583,29.42-65.583,65.583s29.42,65.583,65.583,65.583
	S278.746,216.02,278.746,179.856z M213.163,225.424c-25.126,0-45.568-20.442-45.568-45.568s20.442-45.568,45.568-45.568
	s45.568,20.442,45.568,45.568C258.731,204.983,238.29,225.424,213.163,225.424z"/>
<path d="M234.788,428.188H387.49c5.527,0,10.007-4.479,10.007-10.007v-23.222c0-47.619-38.74-86.358-86.358-86.358
	s-86.358,38.739-86.358,86.358v23.222C224.781,423.709,229.262,428.188,234.788,428.188z M244.796,394.958
	c0-36.582,29.762-66.343,66.343-66.343l0,0c36.582,0,66.343,29.762,66.343,66.343v13.215H244.796L244.796,394.958L244.796,394.958z"
	/>
<circle cx="408.22" cy="62.591" r="10.007"/>
<g>
	<path style="fill:#F9A880;" d="M150.288,278.282c-18.268,0-33.078,14.81-33.078,33.078h66.157
		C183.365,293.091,168.556,278.282,150.288,278.282z"/>
	<path style="fill:#F9A880;" d="M438.814,278.282c-18.268,0-33.078,14.81-33.078,33.078h66.157
		C471.893,293.091,457.082,278.282,438.814,278.282z"/>
</g>
<g>
</g>
<g>
</g>
<g>
</g>
<g>
</g>
<g>
</g>
<g>
</g>
<g>
</g>
<g>
</g>
<g>
</g>
<g>
</g>
<g>
</g>
<g>
</g>
<g>
</g>
<g>
</g>
<g>
</g>
</svg>
