<?xml version="1.0" encoding="iso-8859-1"?>
<!-- Generator: Adobe Illustrator 19.0.0, SVG Export Plug-In . SVG Version: 6.00 Build 0)  -->
<svg version="1.1" id="Layer_1" xmlns="http://www.w3.org/2000/svg" xmlns:xlink="http://www.w3.org/1999/xlink" x="0px" y="0px"
	 viewBox="0 0 512 512" style="enable-background:new 0 0 512 512;" xml:space="preserve">
<circle style="fill:#FDDF6D;" cx="256.002" cy="256.001" r="245.994"/>
<path style="fill:#FCC56B;" d="M308.715,465.677c-135.858,0-245.993-110.134-245.993-245.993
	c0-72.584,31.443-137.816,81.444-182.842C64.528,77.561,10.008,160.412,10.008,256c0,135.858,110.134,245.993,245.993,245.993
	c63.274,0,120.962-23.898,164.549-63.149C386.997,455.998,348.988,465.677,308.715,465.677z"/>
<g>
	<circle style="fill:#FFFFFF;" cx="213.157" cy="179.852" r="30.022"/>
	<circle style="fill:#FFFFFF;" cx="382.188" cy="179.852" r="30.022"/>
	<path style="fill:#FFFFFF;" d="M450.053,362.055l-24.974,36.265l-41.943-28.884c-10.014-6.896-12.543-20.604-5.645-30.62l0,0
		c6.896-10.014,20.604-12.543,30.62-5.645L450.053,362.055z"/>
</g>
<path d="M473.266,120.542c-24.643-39.446-59.525-71.47-100.878-92.613c-4.918-2.514-10.951-0.567-13.466,4.355
	c-2.516,4.921-0.567,10.949,4.355,13.466c38.125,19.493,70.29,49.024,93.014,85.397c23.352,37.379,35.694,80.552,35.694,124.853
	c0,130.124-105.862,235.985-235.984,235.985S20.015,386.122,20.015,255.999S125.878,20.015,256.001,20.015
	c5.528,0,10.007-4.479,10.007-10.007S261.529,0,256.001,0c-141.16,0-256,114.84-256,255.999c0,141.16,114.84,256.001,256,256.001
	c141.158,0,255.999-114.84,255.999-256C512.001,207.945,498.607,161.104,473.266,120.542z"/>
<path d="M213.164,219.884c22.072,0,40.029-17.957,40.029-40.029s-17.957-40.029-40.029-40.029s-40.029,17.957-40.029,40.029
	S191.092,219.884,213.164,219.884z M213.164,159.84c11.036,0,20.015,8.979,20.015,20.015c0,11.036-8.979,20.015-20.015,20.015
	s-20.015-8.979-20.015-20.015C193.149,168.819,202.126,159.84,213.164,159.84z"/>
<path d="M382.187,219.884c22.072,0,40.029-17.957,40.029-40.029s-17.957-40.029-40.029-40.029s-40.029,17.957-40.029,40.029
	S360.114,219.884,382.187,219.884z M382.187,159.84c11.036,0,20.015,8.979,20.015,20.015c0,11.036-8.979,20.015-20.015,20.015
	s-20.015-8.979-20.015-20.015C362.172,168.819,371.149,159.84,382.187,159.84z"/>
<path d="M264.858,332.121h-20.015v-12.453c0-5.528-4.479-10.007-10.007-10.007c-5.528,0-10.007,4.479-10.007,10.007v12.453h-18.013
	v-12.453c0-5.528-4.479-10.007-10.007-10.007c-5.528,0-10.007,4.479-10.007,10.007v12.453h-6.768
	c-5.528,0-10.007,4.479-10.007,10.007c0,5.528,4.479,10.007,10.007,10.007h25.239v16.235c0,5.528,4.479,10.007,10.007,10.007
	c5.528,0,10.007-4.479,10.007-10.007v-16.235h19.39v16.235c0,5.528,4.479,10.007,10.007,10.007s10.007-4.479,10.007-10.007v-16.235
	h19.291v16.235c0,5.528,4.479,10.007,10.007,10.007s10.007-4.479,10.007-10.007v-16.235h18.236v16.235
	c0,5.528,4.479,10.007,10.007,10.007c5.528,0,10.007-4.479,10.007-10.007v-16.235h21.377c0.189,9.978,5.008,19.73,13.835,25.81
	l41.943,28.883c1.735,1.194,3.709,1.767,5.667,1.767c3.182,0,6.31-1.514,8.251-4.333l24.974-36.265
	c1.505-2.187,2.082-4.88,1.6-7.491c-0.482-2.61-1.98-4.921-4.166-6.426l-41.944-28.884c-14.108-9.714-33.323-6.539-43.603,6.925
	h-7.253v-12.453c0-5.528-4.479-10.007-10.007-10.007s-10.007,4.479-10.007,10.007v12.453h-20.459v-12.453
	c0-5.528-4.479-10.007-10.007-10.007s-10.007,4.479-10.007,10.007v12.453h-17.569v-12.453c0-5.528-4.479-10.007-10.007-10.007
	c-5.528,0-10.007,4.479-10.007,10.007L264.858,332.121L264.858,332.121z M385.732,344.76c2.327-3.378,6.087-5.194,9.909-5.194
	c2.347,0,4.718,0.686,6.793,2.114l33.702,23.209l-13.622,19.781l-33.701-23.208C383.358,357.705,381.976,350.213,385.732,344.76z"/>
<circle cx="330.337" cy="23.412" r="10.007"/>
<g>
</g>
<g>
</g>
<g>
</g>
<g>
</g>
<g>
</g>
<g>
</g>
<g>
</g>
<g>
</g>
<g>
</g>
<g>
</g>
<g>
</g>
<g>
</g>
<g>
</g>
<g>
</g>
<g>
</g>
</svg>
