<?xml version="1.0" encoding="iso-8859-1"?>
<!-- Generator: Adobe Illustrator 19.0.0, SVG Export Plug-In . SVG Version: 6.00 Build 0)  -->
<svg version="1.1" id="Layer_1" xmlns="http://www.w3.org/2000/svg" xmlns:xlink="http://www.w3.org/1999/xlink" x="0px" y="0px"
	 viewBox="0 0 484.8 484.8" style="enable-background:new 0 0 484.8 484.8;" xml:space="preserve">
<g>
	<path style="fill:#F7910B;" d="M484.8,286.4c0,104-95.2,188-242.4,188S0,390.4,0,286.4s95.2-260,242.4-260S484.8,182.4,484.8,286.4
		z"/>
	<path style="fill:#F7910B;" d="M484.8,286.4c0,104-95.2,156-242.4,156S0,390.4,0,286.4s95.2-276,242.4-276S484.8,182.4,484.8,286.4
		z"/>
</g>
<g>
	<path style="fill:#F9A908;" d="M242.4,10.4c147.2,0,242.4,172,242.4,276s-95.2,156-242.4,156"/>
	<path style="fill:#F9A908;" d="M484.8,286.4c0,104-95.2,156-242.4,156S0,390.4,0,286.4s95.2-260,242.4-260S484.8,182.4,484.8,286.4
		z"/>
</g>
<path style="fill:#F9C55D;" d="M0,286.4c0-104,95.2-260,242.4-260"/>
<path style="fill:#F7910B;" d="M242.4,26.4c147.2,0,242.4,156,242.4,260s-95.2,188-242.4,188"/>
<path style="fill:#EA7103;" d="M242.4,26.4c147.2,0,242.4,156,242.4,260"/>
<g>
	<path style="fill:#19BCA4;" d="M224.8,102.4c-14.4,0.8-25.6,6.4-25.6,13.6l52-2.4C251.2,107.2,239.2,102.4,224.8,102.4z"/>
	<path style="fill:#19BCA4;" d="M379.2,102.4c-14.4-0.8-26.4,4.8-26.4,11.2l52,2.4C404.8,109.6,393.6,103.2,379.2,102.4z"/>
</g>
<g>
	<path style="fill:#109DA0;" d="M224.8,118.4c14.4-0.8,26.4,2.4,26.4-4.8l-52,2.4C199.2,123.2,210.4,119.2,224.8,118.4z"/>
	<path style="fill:#109DA0;" d="M378.4,118.4c14.4,0.8,26.4,4.8,26.4-2.4l-52.8-1.6C352,121.6,364,118.4,378.4,118.4z"/>
</g>
<path style="fill:#F9C55D;" d="M205.6,292.8c-34.4,0-62.4,8-62.4,17.6s28,5.6,62.4,5.6s62.4,4.8,62.4-5.6
	C268,300.8,240.8,292.8,205.6,292.8z"/>
<path style="fill:#F9A908;" d="M397.6,292.8c-34.4,0-62.4,8-62.4,17.6s28,5.6,62.4,5.6s62.4,4.8,62.4-5.6
	C460,300.8,432,292.8,397.6,292.8z"/>
<path style="fill:#1E4784;" d="M199.2,255.2c3.2,0.8,6.4,2.4,8.8,4.8c9.6,12.8,28,15.2,40.8,4.8c5.6-4.8,14.4-3.2,18.4,2.4
	c4.8,5.6,3.2,14.4-2.4,18.4c-24,18.4-59.2,14.4-77.6-9.6c-4.8-5.6-3.2-14.4,2.4-18.4C192,256,196,255.2,199.2,255.2z"/>
<path style="fill:#02243E;" d="M187.2,276.8c-4.8-5.6-3.2-14.4,2.4-18.4c3.2-2.4,6.4-3.2,9.6-2.4c3.2,0.8,6.4,2.4,8.8,4.8
	c9.6,12.8,28,15.2,40.8,4.8c5.6-4.8,14.4-3.2,18.4,2.4c4.8,5.6,3.2,14.4-2.4,18.4"/>
<path style="fill:#1E4784;" d="M404,255.2c-3.2,0.8-6.4,2.4-8.8,4.8c-9.6,12.8-28,15.2-40.8,4.8c-5.6-4.8-14.4-3.2-18.4,2.4
	c-4.8,5.6-3.2,14.4,2.4,18.4c24,18.4,59.2,14.4,77.6-9.6c4.8-5.6,3.2-14.4-2.4-18.4C411.2,256,408,255.2,404,255.2z"/>
<path style="fill:#02243E;" d="M416.8,276.8c4.8-5.6,3.2-14.4-2.4-18.4c-3.2-2.4-6.4-3.2-9.6-2.4c-3.2,0.8-6.4,2.4-8.8,4.8
	c-9.6,12.8-28,15.2-40.8,4.8c-5.6-4.8-14.4-3.2-18.4,2.4c-4.8,5.6-3.2,14.4,2.4,18.4"/>
<path style="fill:#ED7E11;" d="M354.4,375.2c0,20.8-26.4,37.6-59.2,37.6S236,396,236,375.2"/>
<path style="fill:#02243E;" d="M296,386.4c-28,0-52-6.4-63.2-17.6c-3.2-3.2-3.2-8.8,0-12.8c3.2-3.2,8.8-3.2,12.8,0
	c8,8,28,12.8,50.4,12.8s43.2-4.8,50.4-12.8c3.2-3.2,8.8-3.2,12.8,0s3.2,8.8,0,12.8C348,379.2,324.8,386.4,296,386.4z"/>
<g>
	<circle style="fill:#F7910B;" cx="68.8" cy="262.4" r="4.8"/>
	<circle style="fill:#F7910B;" cx="32.8" cy="278.4" r="8.8"/>
	<circle style="fill:#F7910B;" cx="56.8" cy="246.4" r="1.6"/>
	<circle style="fill:#F7910B;" cx="93.6" cy="260.8" r="1.6"/>
</g>
<g>
	<circle style="fill:#F9A908;" cx="455.2" cy="285.6" r="6.4"/>
	<circle style="fill:#F9A908;" cx="427.2" cy="276" r="1.6"/>
	<circle style="fill:#F9A908;" cx="460" cy="332" r="2.4"/>
	<circle style="fill:#F9A908;" cx="429.6" cy="362.4" r="10.4"/>
	<circle style="fill:#F9A908;" cx="438.4" cy="299.2" r="4.8"/>
</g>
<g>
	<circle style="fill:#F7910B;" cx="60.8" cy="294.4" r="4"/>
	<circle style="fill:#F7910B;" cx="67.2" cy="227.2" r="3.2"/>
</g>
<g>
	<circle style="fill:#F9A908;" cx="24.8" cy="116.8" r="8.8"/>
	<circle style="fill:#F9A908;" cx="50.4" cy="88.8" r="4.8"/>
	<circle style="fill:#F9A908;" cx="460" cy="136" r="1.6"/>
	<circle style="fill:#F9A908;" cx="453.6" cy="112.8" r="6.4"/>
	<circle style="fill:#F9A908;" cx="474.4" cy="116.8" r="4"/>
	<circle style="fill:#F9A908;" cx="34.4" cy="140.8" r="4.8"/>
</g>
<g>
</g>
<g>
</g>
<g>
</g>
<g>
</g>
<g>
</g>
<g>
</g>
<g>
</g>
<g>
</g>
<g>
</g>
<g>
</g>
<g>
</g>
<g>
</g>
<g>
</g>
<g>
</g>
<g>
</g>
</svg>
