<?xml version="1.0" encoding="iso-8859-1"?>
<!-- Generator: Adobe Illustrator 19.0.0, SVG Export Plug-In . SVG Version: 6.00 Build 0)  -->
<svg version="1.1" id="Layer_1" xmlns="http://www.w3.org/2000/svg" xmlns:xlink="http://www.w3.org/1999/xlink" x="0px" y="0px"
	 viewBox="0 0 512 512" style="enable-background:new 0 0 512 512;" xml:space="preserve">
<circle style="fill:#FDDF6D;" cx="216.091" cy="255.685" r="207.082"/>
<path style="fill:#FCC56B;" d="M260.471,432.195c-114.368,0-207.081-92.713-207.081-207.081c0-61.103,26.469-116.016,68.561-153.92
	C54.909,105.472,9.013,175.218,9.013,255.684c0,114.368,92.713,207.081,207.081,207.081c53.266,0,101.828-20.117,138.52-53.16
	C326.369,424.047,294.371,432.195,260.471,432.195z"/>
<g>
	<circle style="fill:#FFFFFF;" cx="180.035" cy="232.074" r="25.273"/>
	<circle style="fill:#FFFFFF;" cx="322.317" cy="232.074" r="25.273"/>
</g>
<g>
	<path style="fill:#F9A880;" d="M151.661,297.461c-15.378,0-27.845,12.467-27.845,27.846h55.692
		C179.508,309.929,167.041,297.461,151.661,297.461z"/>
	<path style="fill:#F9A880;" d="M342.144,293.239c0-15.378,12.467-27.845,27.845-27.845c15.378,0,27.845,12.467,27.845,27.845"/>
</g>
<path style="fill:#FFFFFF;" d="M320.147,308.519l-9.852,58.971l60.964-11.019l122.83-133.551
	c13.242-14.114,12.534-36.29-1.58-49.532l0,0c-14.114-13.241-36.29-12.534-49.532,1.58L320.147,308.519z"/>
<path style="fill:#FC4C59;" d="M323.056,362.431c-2.066,0-4.137-0.756-5.762-2.28c-3.393-3.183-3.563-8.514-0.38-11.909
	l138.328-147.446c3.183-3.393,8.514-3.562,11.908-0.38c3.393,3.183,3.563,8.514,0.38,11.909L329.202,359.771
	C327.544,361.538,325.302,362.431,323.056,362.431z"/>
<path style="fill:#7F184C;" d="M187.593,385.943c-2.514,0-5.002-1.12-6.662-3.26c-2.852-3.676-2.184-8.968,1.493-11.82
	c16.603-12.88,45.54-20.882,75.519-20.882c31.339,0,59.484,7.877,75.287,21.072c3.572,2.981,4.049,8.294,1.068,11.865
	c-2.982,3.572-8.295,4.049-11.866,1.067c-12.675-10.582-37.385-17.155-64.489-17.155c-26.421,0-51.401,6.646-65.192,17.345
	C191.215,385.365,189.397,385.943,187.593,385.943z"/>
<path style="fill:#3FA9F5;" d="M369.852,122.769H69.958c-20.48,0-37.083-16.603-37.083-37.083l0,0
	c0-20.48,16.603-37.083,37.083-37.083h299.893c20.48,0,37.083,16.603,37.083,37.083l0,0
	C406.935,106.166,390.332,122.769,369.852,122.769z"/>
<path style="fill:#3784F4;" d="M86.086,85.686L86.086,85.686c0-20.48,16.603-37.083,37.083-37.083H69.958
	c-20.48,0-37.083,16.603-37.083,37.083l0,0c0,20.48,16.603,37.083,37.083,37.083h53.209
	C102.689,122.769,86.086,106.166,86.086,85.686z"/>
<path d="M213.731,232.071c0-18.581-15.117-33.698-33.698-33.698s-33.698,15.117-33.698,33.698s15.117,33.698,33.698,33.698
	S213.731,250.652,213.731,232.071z M163.185,232.071c0-9.29,7.558-16.849,16.849-16.849c9.29,0,16.849,7.558,16.849,16.849
	s-7.558,16.849-16.849,16.849C170.743,248.92,163.185,241.362,163.185,232.071z"/>
<path d="M356.018,232.071c0-18.581-15.117-33.698-33.698-33.698s-33.698,15.117-33.698,33.698s15.117,33.698,33.698,33.698
	S356.018,250.652,356.018,232.071z M305.471,232.071c0-9.29,7.558-16.849,16.849-16.849s16.849,7.558,16.849,16.849
	s-7.558,16.849-16.849,16.849S305.471,241.362,305.471,232.071z"/>
<path d="M511.978,197.558c-0.371-11.604-5.238-22.371-13.705-30.313c-8.467-7.944-19.516-12.117-31.125-11.745
	c-11.604,0.37-22.371,5.237-30.37,13.765L419.823,187.7c-7.265-21.564-18.007-42.069-31.667-60.362
	c16.002-7.06,27.204-23.068,27.204-41.651c0-25.092-20.414-45.507-45.507-45.507H69.958c-25.092,0-45.507,20.415-45.507,45.507
	c0,25.093,20.414,45.508,45.507,45.508h299.834c16.896,20.825,29.558,45.16,36.85,70.834l-92.697,100.788
	c-1.072,1.165-1.793,2.607-2.083,4.162l-6.461,34.733c-0.024,0.125-0.044,0.249-0.061,0.374l-1.966,14.053
	c-13.378-3.98-28.962-6.159-45.432-6.159c-29.978,0-58.917,8.002-75.52,20.883c-3.676,2.852-4.345,8.144-1.493,11.82
	c1.66,2.14,4.148,3.26,6.662,3.26c1.804,0,3.622-0.577,5.158-1.768c13.792-10.699,38.772-17.346,65.192-17.346
	c18.214,0,35.34,2.972,48.466,8.131c0.481,0.25,0.984,0.454,1.503,0.608c5.759,2.394,10.691,5.222,14.519,8.419
	c3.571,2.982,8.884,2.504,11.866-1.067c2.454-2.94,2.56-7.054,0.531-10.082l2.246-0.289c0.245-0.031,0.489-0.074,0.73-0.127
	l35.254-7.72c1.69-0.37,3.227-1.252,4.399-2.526l16.059-17.461c-32.957,66.516-101.301,110.258-178.013,110.258
	c-109.539-0.001-198.656-89.118-198.656-198.658c0-16.941,2.134-33.764,6.343-50c1.167-4.504-1.538-9.102-6.041-10.269
	c-4.504-1.17-9.102,1.535-10.269,6.041C2.316,219.705,0,237.95,0,256.315c0,118.83,96.675,215.506,215.506,215.506
	c97.901,0,183.23-65.692,208.28-160.016l76.447-83.121C508.178,220.217,512.348,209.162,511.978,197.558z M41.301,85.686
	c0-15.802,12.856-28.659,28.659-28.659h299.893c15.802,0,28.659,12.856,28.659,28.659s-12.856,28.66-28.659,28.66H69.958
	C54.156,114.345,41.301,101.487,41.301,85.686z M487.888,217.217L366.858,348.81l-32.293,7.072l-1.698,0.218l134.778-143.661
	c3.183-3.393,3.014-8.725-0.38-11.909c-3.393-3.183-8.725-3.015-11.908,0.38l-132.993,141.76l5.623-30.23l94.186-102.406
	c0.064-0.07,0.129-0.137,0.191-0.208l26.758-29.093c4.865-5.185,11.457-8.166,18.563-8.393c7.119-0.219,13.876,2.327,19.06,7.192
	c5.185,4.865,8.166,11.457,8.393,18.563C495.365,205.201,492.81,211.97,487.888,217.217z"/>
<circle cx="25.302" cy="174.07" r="8.424"/>
<g>
</g>
<g>
</g>
<g>
</g>
<g>
</g>
<g>
</g>
<g>
</g>
<g>
</g>
<g>
</g>
<g>
</g>
<g>
</g>
<g>
</g>
<g>
</g>
<g>
</g>
<g>
</g>
<g>
</g>
</svg>
