<?xml version="1.0" encoding="iso-8859-1"?>
<!-- Generator: Adobe Illustrator 19.0.0, SVG Export Plug-In . SVG Version: 6.00 Build 0)  -->
<svg version="1.1" id="Layer_1" xmlns="http://www.w3.org/2000/svg" xmlns:xlink="http://www.w3.org/1999/xlink" x="0px" y="0px"
	 viewBox="0 0 512 512" style="enable-background:new 0 0 512 512;" xml:space="preserve">
<circle style="fill:#FDDF6D;" cx="221.406" cy="256.003" r="212.751"/>
<path style="fill:#FCC56B;" d="M266.997,437.343c-117.499,0-212.75-95.251-212.75-212.75c0-62.775,27.194-119.192,70.438-158.133
	C55.807,101.677,8.655,173.331,8.655,256.001c0,117.499,95.251,212.75,212.75,212.75c54.724,0,104.616-20.668,142.312-54.615
	C334.7,428.973,301.826,437.343,266.997,437.343z"/>
<circle style="fill:#7F184C;" cx="264.231" cy="378.743" r="35.483"/>
<path d="M191.209,265.149c-16.607,0-32.22-4.076-39.776-10.385c-3.67-3.065-9.126-2.572-12.19,1.096s-2.572,9.127,1.096,12.19
	c10.805,9.022,29.822,14.408,50.869,14.408c20.419,0,39.459-5.313,50.931-14.213c3.776-2.93,4.463-8.368,1.533-12.144
	c-2.931-3.776-8.368-4.461-12.144-1.533C223.245,260.996,207.418,265.149,191.209,265.149z"/>
<path d="M392.269,268.245c3.776-2.93,4.463-8.368,1.533-12.143c-2.93-3.776-8.368-4.461-12.144-1.533
	c-8.283,6.427-24.111,10.58-40.32,10.58c-16.606,0-32.218-4.076-39.775-10.385c-3.671-3.065-9.127-2.572-12.19,1.096
	c-3.064,3.67-2.572,9.127,1.096,12.19c10.805,9.022,29.822,14.408,50.868,14.408C361.758,282.459,380.797,277.145,392.269,268.245z"
	/>
<path d="M264.23,422.876c24.338,0,44.138-19.799,44.138-44.137c0-24.338-19.8-44.138-44.138-44.138
	c-24.338,0-44.138,19.8-44.138,44.138C220.092,403.077,239.892,422.876,264.23,422.876z M264.23,351.911
	c14.793,0,26.828,12.035,26.828,26.828c0,14.792-12.035,26.827-26.828,26.827s-26.828-12.035-26.828-26.827
	C237.402,363.946,249.436,351.911,264.23,351.911z"/>
<path d="M287.981,160.047c-2.703-2.313-6.543-2.734-9.684-1.07l-37.698,20.002c-4.221,2.24-5.829,7.479-3.588,11.703
	c2.24,4.221,7.478,5.83,11.703,3.588l18.286-9.702l-9.567,27.697c-1.14,3.3-0.185,6.963,2.422,9.286
	c1.619,1.444,3.679,2.194,5.761,2.194c1.271,0,2.549-0.279,3.742-0.852l33.667-16.156c4.309-2.068,6.127-7.238,4.059-11.548
	c-2.07-4.309-7.24-6.127-11.548-4.059l-14.972,7.185l9.972-28.868C291.696,166.089,290.683,162.359,287.981,160.047z"/>
<path d="M379.678,101.155c-1.801-1.542-4.108-2.223-6.377-2.025c-1.149,0.153-2.276,0.398-3.306,0.957l-53.526,28.401
	c-4.222,2.24-5.829,7.479-3.588,11.703c2.239,4.22,7.479,5.831,11.703,3.588l34.113-18.102l-16.596,48.048
	c-1.146,3.318-0.174,6.998,2.459,9.319c1.614,1.423,3.658,2.161,5.724,2.161c1.302,0,2.614-0.294,3.83-0.894l47.836-23.629
	c15.379,29.058,23.552,61.608,23.552,95.32c0,112.538-91.556,204.094-204.094,204.094S17.31,368.539,17.31,256.001
	S108.867,51.905,221.405,51.905c25.945,0,51.223,4.801,75.125,14.268c4.445,1.762,9.474-0.413,11.233-4.859
	c1.76-4.444-0.414-9.473-4.859-11.233c-25.941-10.275-53.361-15.485-81.499-15.485C99.321,34.595,0,133.917,0,256.001
	c0,122.083,99.321,221.404,221.405,221.404c122.083,0,221.404-99.321,221.404-221.404c0-57.647-22.014-112.17-61.994-153.639
	C380.474,101.932,380.105,101.521,379.678,101.155C377.877,99.614,380.105,101.521,379.678,101.155z M365.341,159.458l12.097-35.025
	c5.735,6.784,10.985,13.892,15.741,21.273L365.341,159.458z"/>
<path d="M511.146,99.981c-2.069-4.31-7.241-6.124-11.548-4.059l-41.816,20.068l23.32-67.518c1.161-3.36,0.148-7.09-2.554-9.4
	c-2.703-2.313-6.544-2.734-9.684-1.07l-67.758,35.953c-4.222,2.24-5.829,7.479-3.588,11.703c2.239,4.22,7.478,5.83,11.703,3.588
	l48.347-25.652l-22.916,66.347c-1.14,3.3-0.185,6.963,2.422,9.286c1.619,1.444,3.679,2.194,5.761,2.194
	c1.271,0,2.549-0.279,3.742-0.852l60.513-29.039C511.396,109.46,513.214,104.29,511.146,99.981z"/>
<circle cx="329.178" cy="72.206" r="8.655"/>
<g>
</g>
<g>
</g>
<g>
</g>
<g>
</g>
<g>
</g>
<g>
</g>
<g>
</g>
<g>
</g>
<g>
</g>
<g>
</g>
<g>
</g>
<g>
</g>
<g>
</g>
<g>
</g>
<g>
</g>
</svg>
