<?xml version="1.0" encoding="iso-8859-1"?>
<!-- Generator: Adobe Illustrator 19.0.0, SVG Export Plug-In . SVG Version: 6.00 Build 0)  -->
<svg version="1.1" id="Layer_1" xmlns="http://www.w3.org/2000/svg" xmlns:xlink="http://www.w3.org/1999/xlink" x="0px" y="0px"
	 viewBox="0 0 484.8 484.8" style="enable-background:new 0 0 484.8 484.8;" xml:space="preserve">
<g>
	<path style="fill:#F7910B;" d="M484.8,286.4c0,104-95.2,188-242.4,188S0,390.4,0,286.4s95.2-260,242.4-260S484.8,182.4,484.8,286.4
		z"/>
	<path style="fill:#F7910B;" d="M484.8,286.4c0,104-95.2,156-242.4,156S0,390.4,0,286.4s95.2-276,242.4-276S484.8,182.4,484.8,286.4
		z"/>
</g>
<g>
	<path style="fill:#F9A908;" d="M242.4,10.4c147.2,0,242.4,172,242.4,276s-95.2,156-242.4,156"/>
	<path style="fill:#F9A908;" d="M484.8,286.4c0,104-95.2,156-242.4,156S0,390.4,0,286.4s95.2-260,242.4-260S484.8,182.4,484.8,286.4
		z"/>
</g>
<path style="fill:#F9C55D;" d="M0,286.4c0-104,95.2-260,242.4-260"/>
<path style="fill:#F7910B;" d="M242.4,26.4c147.2,0,242.4,156,242.4,260s-95.2,188-242.4,188"/>
<path style="fill:#EA7103;" d="M242.4,26.4c147.2,0,242.4,156,242.4,260"/>
<path style="fill:#19BCA4;" d="M191.2,89.6c1.6,10.4-10.4,7.2-24.8,9.6c-14.4,2.4-24.8,9.6-26.4-0.8c-1.6-10.4,8.8-20.8,23.2-22.4
	C176.8,72.8,189.6,79.2,191.2,89.6z"/>
<path style="fill:#109DA0;" d="M191.2,89.6c1.6,10.4-10.4,7.2-24.8,9.6c-14.4,2.4-24.8,9.6-26.4-0.8"/>
<path style="fill:#19BCA4;" d="M291.2,105.6c-2.4,6.4,9.6,7.2,23.2,12.8c13.6,4.8,23.2,12.8,25.6,6.4c2.4-6.4-6.4-16-20-20.8
	C307.2,98.4,294.4,99.2,291.2,105.6z"/>
<path style="fill:#109DA0;" d="M291.2,105.6c-2.4,6.4,9.6,7.2,23.2,12.8c13.6,4.8,23.2,12.8,25.6,6.4"/>
<path style="fill:#F9C55D;" d="M208.8,232.8c0,9.6-28,5.6-62.4,5.6S84,243.2,84,232.8c0-9.6,28-17.6,62.4-17.6
	C180.8,215.2,208.8,223.2,208.8,232.8z"/>
<path style="fill:#F9A908;" d="M400.8,232.8c0,9.6-28,5.6-62.4,5.6s-62.4,4.8-62.4-5.6c0-9.6,28-17.6,62.4-17.6
	S400.8,223.2,400.8,232.8z"/>
<g>
	<circle style="fill:#F7910B;" cx="68.8" cy="262.4" r="4.8"/>
	<circle style="fill:#F7910B;" cx="32.8" cy="278.4" r="8.8"/>
	<circle style="fill:#F7910B;" cx="56.8" cy="246.4" r="1.6"/>
	<circle style="fill:#F7910B;" cx="93.6" cy="260.8" r="1.6"/>
</g>
<g>
	<circle style="fill:#F9A908;" cx="407.2" cy="264.8" r="6.4"/>
	<circle style="fill:#F9A908;" cx="427.2" cy="276" r="1.6"/>
	<circle style="fill:#F9A908;" cx="384.8" cy="205.6" r="2.4"/>
	<circle style="fill:#F9A908;" cx="380.8" cy="298.4" r="10.4"/>
	<circle style="fill:#F9A908;" cx="438.4" cy="299.2" r="4.8"/>
</g>
<g>
	<circle style="fill:#F7910B;" cx="60.8" cy="294.4" r="4"/>
	<circle style="fill:#F7910B;" cx="67.2" cy="227.2" r="3.2"/>
</g>
<g>
	<circle style="fill:#F9A908;" cx="24.8" cy="116.8" r="8.8"/>
	<circle style="fill:#F9A908;" cx="50.4" cy="88.8" r="4.8"/>
	<circle style="fill:#F9A908;" cx="460" cy="136" r="1.6"/>
	<circle style="fill:#F9A908;" cx="453.6" cy="112.8" r="6.4"/>
	<circle style="fill:#F9A908;" cx="474.4" cy="116.8" r="4"/>
	<circle style="fill:#F9A908;" cx="34.4" cy="140.8" r="4.8"/>
</g>
<path style="fill:#1E4784;" d="M308,169.6c3.2,0.8,6.4,2.4,8.8,5.6c8.8,12.8,27.2,16,40,7.2c6.4-4,14.4-2.4,18.4,3.2
	c4,5.6,2.4,14.4-3.2,18.4c-24.8,17.6-59.2,11.2-76.8-14.4c-4-5.6-2.4-14.4,3.2-18.4C301.6,169.6,304.8,169.6,308,169.6z"/>
<path style="fill:#02243E;" d="M295.2,190.4c-4-5.6-2.4-14.4,3.2-18.4c3.2-2.4,6.4-2.4,9.6-2.4c3.2,0.8,6.4,2.4,8.8,5.6
	c8.8,12.8,27.2,16,40,7.2c6.4-4,14.4-2.4,18.4,3.2c4,5.6,2.4,14.4-3.2,18.4"/>
<path style="fill:#1E4784;" d="M177.6,169.6c-3.2,0.8-6.4,2.4-8.8,5.6c-8.8,12.8-27.2,16-40,7.2c-6.4-4-14.4-2.4-18.4,3.2
	c-4,5.6-2.4,14.4,3.2,18.4c24.8,17.6,59.2,11.2,76.8-14.4c4-5.6,2.4-14.4-3.2-18.4C184.8,169.6,181.6,169.6,177.6,169.6z"/>
<path style="fill:#02243E;" d="M191.2,190.4c4-5.6,2.4-14.4-3.2-18.4c-3.2-2.4-6.4-2.4-9.6-2.4c-3.2,0.8-6.4,2.4-8.8,5.6
	c-8.8,12.8-27.2,16-40,7.2c-6.4-4-14.4-2.4-18.4,3.2c-4,5.6-2.4,14.4,3.2,18.4"/>
<path style="fill:#99144A;" d="M320.8,289.6c0,20.8-35.2,14.4-78.4,14.4s-78.4,7.2-78.4-14.4c0-20.8,35.2-38.4,78.4-38.4
	C285.6,252,320.8,268.8,320.8,289.6z"/>
<path style="fill:#6D0C38;" d="M320.8,289.6c0,20.8-35.2,14.4-78.4,14.4s-78.4,7.2-78.4-14.4"/>
<path id="SVGCleanerId_0" style="fill:#A4D8EA;" d="M263.2,232.8c0,0,127.2,2.4,95.2,110.4s147.2,110.4,120-10.4
	C447.2,194.4,263.2,232.8,263.2,232.8z"/>
<g>
	<path id="SVGCleanerId_0_1_" style="fill:#A4D8EA;" d="M263.2,232.8c0,0,127.2,2.4,95.2,110.4s147.2,110.4,120-10.4
		C447.2,194.4,263.2,232.8,263.2,232.8z"/>
</g>
<path style="fill:#78C7DD;" d="M478.4,332.8C449.6,204.8,289.6,228,265.6,232c56,2.4,120.8,3.2,152,79.2c29.6,73.6,0.8,108-32,106.4
	C428.8,436.8,496,410.4,478.4,332.8z"/>
<g>
</g>
<g>
</g>
<g>
</g>
<g>
</g>
<g>
</g>
<g>
</g>
<g>
</g>
<g>
</g>
<g>
</g>
<g>
</g>
<g>
</g>
<g>
</g>
<g>
</g>
<g>
</g>
<g>
</g>
</svg>
