<?xml version="1.0" encoding="iso-8859-1"?>
<!-- Generator: Adobe Illustrator 19.0.0, SVG Export Plug-In . SVG Version: 6.00 Build 0)  -->
<svg version="1.1" id="Layer_1" xmlns="http://www.w3.org/2000/svg" xmlns:xlink="http://www.w3.org/1999/xlink" x="0px" y="0px"
	 viewBox="0 0 512 512" style="enable-background:new 0 0 512 512;" xml:space="preserve">
<circle style="fill:#FDDF6D;" cx="243.172" cy="273.26" r="229.409"/>
<path style="fill:#FCC56B;" d="M292.329,468.801c-126.699,0-229.408-102.709-229.408-229.408c0-67.69,29.323-128.525,75.953-170.515
	C64.604,106.852,13.76,184.117,13.76,273.259c0,126.699,102.709,229.408,229.408,229.408c59.009,0,112.807-22.286,153.455-58.892
	C365.333,459.774,329.886,468.801,292.329,468.801z"/>
<g>
	<path style="fill:#FFFF00;" d="M166.174,18.24l27.935,56.601c2.327,4.716,6.827,7.985,12.03,8.74l62.463,9.076
		c13.106,1.904,18.338,18.01,8.855,27.254l-45.199,44.058c-3.765,3.671-5.484,8.959-4.595,14.142l10.67,62.21
		c2.239,13.052-11.462,23.006-23.184,16.844l-55.869-29.372c-4.655-2.448-10.216-2.448-14.87,0l-55.869,29.372
		c-11.722,6.162-25.422-3.792-23.184-16.844l10.67-62.21c0.888-5.183-0.83-10.473-4.595-14.142l-45.199-44.058
		c-9.483-9.244-4.251-25.349,8.855-27.254l62.463-9.076c5.204-0.757,9.703-4.024,12.03-8.74l27.935-56.601
		C143.378,6.364,160.313,6.364,166.174,18.24z"/>
	<path style="fill:#FFFF00;" d="M422.946,93.963l18.112,36.697c1.509,3.057,4.426,5.177,7.8,5.667l40.498,5.885
		c8.496,1.234,11.89,11.677,5.741,17.67l-29.305,28.564c-2.441,2.38-3.555,5.809-2.979,9.17l6.917,40.333
		c1.451,8.463-7.431,14.916-15.031,10.92l-36.222-19.044c-3.018-1.587-6.624-1.587-9.641,0l-36.222,19.044
		c-7.599,3.996-16.483-2.458-15.031-10.92l6.917-40.333c0.576-3.361-0.538-6.789-2.979-9.17l-29.305-28.564
		c-6.148-5.993-2.755-16.435,5.741-17.67l40.498-5.885c3.375-0.49,6.291-2.609,7.8-5.667l18.112-36.697
		C408.167,86.262,419.147,86.262,422.946,93.963z"/>
</g>
<g>
	<path style="fill:#FC4C59;" d="M157.705,86.771l11.423,23.146c0.952,1.929,2.791,3.265,4.92,3.574l25.543,3.712
		c5.359,0.779,7.5,7.364,3.621,11.144l-18.484,18.017c-1.541,1.501-2.242,3.663-1.879,5.784l4.363,25.44
		c0.916,5.337-4.687,9.407-9.481,6.888l-22.846-12.011c-1.904-1-4.177-1-6.081,0l-22.846,12.011
		c-4.793,2.52-10.395-1.55-9.481-6.888l4.363-25.44c0.363-2.119-0.34-4.282-1.879-5.784l-18.484-18.017
		c-3.877-3.78-1.738-10.365,3.621-11.144l25.543-3.712c2.128-0.31,3.968-1.646,4.92-3.574l11.423-23.146
		C148.383,81.916,155.308,81.916,157.705,86.771z"/>
	<path style="fill:#FC4C59;" d="M416.666,144.781l5.867,11.889c0.489,0.991,1.434,1.677,2.527,1.835l13.119,1.906
		c2.753,0.399,3.851,3.783,1.86,5.724l-9.493,9.256c-0.791,0.771-1.152,1.881-0.966,2.97l2.241,13.067
		c0.47,2.741-2.408,4.832-4.869,3.538l-11.734-6.17c-0.978-0.514-2.145-0.514-3.123,0l-11.734,6.17
		c-2.463,1.294-5.34-0.796-4.869-3.538l2.241-13.067c0.187-1.089-0.174-2.2-0.966-2.97l-9.493-9.254
		c-1.992-1.941-0.892-5.325,1.86-5.724l13.119-1.906c1.093-0.159,2.038-0.845,2.527-1.835l5.867-11.889
		C411.879,142.287,415.435,142.287,416.666,144.781z"/>
</g>
<path style="fill:#7F184C;" d="M289.948,424.751L289.948,424.751c-51.285,0-92.86-41.575-92.86-92.86l0,0h185.72l0,0
	C382.808,383.176,341.235,424.751,289.948,424.751z"/>
<path style="fill:#F2F2F2;" d="M219.746,331.891v14.495c0,6.112,4.955,11.066,11.066,11.066h118.272
	c6.112,0,11.066-4.955,11.066-11.066v-14.495H219.746z"/>
<path style="fill:#FC4C59;" d="M291.898,386.227c-25.101-11.662-52.956-9.967-75.544,2.128
	c16.973,22.122,43.664,36.397,73.702,36.397l0,0c13.237,0,25.817-2.789,37.212-7.78
	C318.908,404.036,306.921,393.206,291.898,386.227z"/>
<path d="M501.611,166.563c5.407-5.27,7.317-13.005,4.984-20.186c-2.334-7.181-8.426-12.317-15.898-13.403L450.2,127.09
	c-0.335-0.049-0.623-0.259-0.773-0.562L431.316,89.83c-3.342-6.771-10.108-10.976-17.657-10.976
	c-7.551,0-14.318,4.206-17.659,10.976l-0.004,0.006c-21.01-17.548-44.618-31.213-70.343-40.684
	c-4.838-1.783-10.201,0.697-11.982,5.534c-1.782,4.837,0.697,10.201,5.534,11.982c25.12,9.248,48.05,22.845,68.268,40.438
	l-9.584,19.419c-0.149,0.304-0.439,0.514-0.773,0.562l-40.498,5.885c-7.472,1.086-13.563,6.222-15.897,13.402
	c-2.333,7.181-0.423,14.916,4.984,20.186l29.305,28.565c0.241,0.235,0.352,0.576,0.296,0.908l-6.919,40.333
	c-1.277,7.441,1.725,14.822,7.832,19.26c3.452,2.509,7.491,3.783,11.558,3.783c3.13,0,6.275-0.754,9.182-2.282l36.222-19.044
	c0.299-0.158,0.655-0.157,0.954,0l36.222,19.044c3.915,2.058,8.261,2.703,12.42,2c0.299,4.7,0.467,9.412,0.467,14.13
	c0,121.351-98.726,220.075-220.075,220.075S23.093,394.61,23.093,273.259c0-40.087,10.752-78.912,31.182-112.982l10.643,10.375
	c1.567,1.527,2.281,3.727,1.911,5.882l-10.67,62.21c-1.64,9.567,2.217,19.052,10.069,24.756c4.436,3.224,9.626,4.862,14.853,4.862
	c4.023,0,8.066-0.971,11.803-2.934l55.869-29.372c1.936-1.017,4.248-1.018,6.184,0l55.869,29.372
	c8.59,4.516,18.806,3.778,26.655-1.926c7.852-5.704,11.709-15.191,10.069-24.756l-10.67-62.21c-0.37-2.156,0.345-4.355,1.911-5.883
	l45.2-44.058c6.948-6.774,9.404-16.715,6.403-25.945c-2.998-9.229-10.827-15.832-20.432-17.227l-62.464-9.076
	c-2.164-0.314-4.034-1.674-5.004-3.635l-6.168-12.498c15.324-3.32,31.037-5.028,46.859-5.028c5.154,0,9.333-4.179,9.333-9.333
	s-4.179-9.333-9.333-9.333c-18.719,0-37.306,2.184-55.36,6.469L174.539,14.11C170.248,5.407,161.55,0,151.845,0
	s-18.402,5.407-22.697,14.109l-27.935,56.602c-0.968,1.962-2.838,3.32-5.004,3.635l-62.463,9.078
	c-9.604,1.396-17.433,7.996-20.432,17.227c-2.999,9.229-0.545,19.172,6.405,25.946l20.85,20.324
	C16.904,184.781,4.427,228.292,4.427,273.259C4.427,404.902,111.525,512,243.168,512s238.741-107.098,238.741-238.741
	c0-16.566-1.721-33.106-5.091-49.189l-4.807-28.033c-0.057-0.333,0.054-0.674,0.295-0.91L501.611,166.563z M31.066,106.417
	c0.383-1.182,1.675-3.987,5.364-4.523l62.463-9.076c8.246-1.197,15.372-6.374,19.057-13.846l27.935-56.601
	c1.65-3.344,4.717-3.704,5.959-3.704c1.243,0,4.309,0.361,5.959,3.704l27.935,56.601c3.688,7.472,10.812,12.649,19.057,13.846
	l62.463,9.076c3.691,0.536,4.981,3.342,5.366,4.523s0.988,4.21-1.682,6.812l-45.199,44.058c-5.965,5.816-8.687,14.191-7.279,22.403
	l10.67,62.21c0.631,3.675-1.639,5.77-2.644,6.499c-1.004,0.729-3.698,2.24-6.998,0.505l-55.869-29.372
	c-3.688-1.94-7.732-2.908-11.778-2.908c-4.044,0-8.091,0.969-11.778,2.908l-55.869,29.372c-3.299,1.735-5.993,0.224-6.998-0.506
	c-1.005-0.729-3.274-2.825-2.644-6.499l10.67-62.212c1.409-8.213-1.313-16.587-7.279-22.403l-45.199-44.055
	C30.078,110.626,30.682,107.598,31.066,106.417z M459.278,181.762c-4.64,4.524-6.759,11.04-5.663,17.43l4.542,26.482
	c0.035,0.352,0.085,0.706,0.161,1.059c0.051,0.236,0.093,0.474,0.143,0.711l2.072,12.081c0.034,0.204,0.107,0.628-0.408,1.003
	c-0.514,0.375-0.9,0.174-1.081,0.078l-36.222-19.042c-2.869-1.508-6.015-2.262-9.163-2.262c-3.146,0-6.294,0.754-9.162,2.262
	l-36.222,19.044c-0.183,0.097-0.567,0.296-1.081-0.078c-0.515-0.375-0.442-0.8-0.408-1.004l6.92-40.336
	c1.095-6.389-1.023-12.904-5.664-17.428l-29.305-28.565c-0.149-0.144-0.458-0.445-0.26-1.053c0.197-0.607,0.623-0.669,0.827-0.699
	l40.498-5.885c6.415-0.932,11.957-4.959,14.828-10.772l12.712-25.758c0.035-0.07,0.071-0.139,0.103-0.209l5.295-10.729
	c0.091-0.185,0.282-0.572,0.921-0.572c0.638,0,0.829,0.387,0.92,0.572l18.112,36.697c2.871,5.812,8.412,9.839,14.827,10.771
	l40.498,5.885c0.205,0.03,0.632,0.092,0.829,0.699c0.197,0.607-0.112,0.907-0.26,1.053L459.278,181.762z"/>
<path d="M187.756,331.891c0,56.349,45.843,102.193,102.193,102.193s102.193-45.843,102.193-102.193c0-2.475-0.983-4.849-2.733-6.599
	c-1.751-1.751-4.124-2.734-6.6-2.734H197.087C191.934,322.558,187.756,326.737,187.756,331.891z M372.958,341.223
	c-4.654,41.681-40.106,74.195-83.01,74.195s-78.356-32.514-83.01-74.195H372.958z"/>
<circle cx="288.13" cy="48.58" r="9.333"/>
<g>
</g>
<g>
</g>
<g>
</g>
<g>
</g>
<g>
</g>
<g>
</g>
<g>
</g>
<g>
</g>
<g>
</g>
<g>
</g>
<g>
</g>
<g>
</g>
<g>
</g>
<g>
</g>
<g>
</g>
</svg>
