<?xml version="1.0" encoding="iso-8859-1"?>
<!-- Generator: Adobe Illustrator 19.0.0, SVG Export Plug-In . SVG Version: 6.00 Build 0)  -->
<svg version="1.1" id="Layer_1" xmlns="http://www.w3.org/2000/svg" xmlns:xlink="http://www.w3.org/1999/xlink" x="0px" y="0px"
	 viewBox="0 0 512 512" style="enable-background:new 0 0 512 512;" xml:space="preserve">
<circle style="fill:#FDDF6D;" cx="256.001" cy="256.001" r="245.994"/>
<path style="fill:#FCC56B;" d="M308.715,465.677c-135.858,0-245.993-110.134-245.993-245.993
	c0-72.584,31.443-137.816,81.444-182.842C64.527,77.562,10.007,160.414,10.007,256c0,135.858,110.134,245.993,245.993,245.993
	c63.274,0,120.962-23.898,164.549-63.149C386.996,455.999,348.987,465.677,308.715,465.677z"/>
<g>
	<path style="fill:#FFFFFF;" d="M377.398,207.713c0,18.456,14.962,33.417,33.417,33.417c18.456,0,33.417-14.962,33.417-33.417
		H377.398z"/>
	<path style="fill:#FFFFFF;" d="M206.472,207.713c0,18.456,14.962,33.417,33.417,33.417c18.455,0,33.417-14.962,33.417-33.417
		H206.472z"/>
</g>
<g>
	<path style="fill:#F9A880;" d="M150.288,275.488c-18.268,0-33.078,14.81-33.078,33.079h66.157
		C183.365,290.297,168.556,275.488,150.288,275.488z"/>
	<path style="fill:#F9A880;" d="M438.814,271.056c-18.268,0-33.078,14.81-33.078,33.078h66.157
		C471.893,285.866,457.082,271.056,438.814,271.056z"/>
</g>
<path d="M312.824,380.969h-81.509c-5.527,0-10.007-4.481-10.007-10.007c0-5.527,4.481-10.007,10.007-10.007h81.509
	c26.937,0,52.261-10.489,71.31-29.536c3.908-3.908,10.245-3.908,14.152,0c3.908,3.908,3.908,10.245,0,14.152
	C375.458,368.397,345.108,380.969,312.824,380.969z"/>
<path d="M465.887,109.39c-29.483-42.131-70.341-74.105-118.157-92.463c-5.157-1.981-10.948,0.595-12.928,5.755
	c-1.981,5.16,0.595,10.948,5.755,12.928c44.078,16.923,81.745,46.403,108.932,85.253c27.802,39.729,42.497,86.458,42.497,135.134
	c0,130.124-105.862,235.985-235.985,235.985S20.015,386.122,20.015,256S125.876,20.015,256,20.015
	c5.527,0,10.007-4.481,10.007-10.007S261.527,0,256,0C114.84,0,0,114.84,0,256s114.84,256,256,256s256-114.84,256-256
	C512,203.199,496.055,152.501,465.887,109.39z"/>
<path d="M368.553,217.72c4.531,19.135,21.76,33.417,42.26,33.417c23.944,0,43.424-19.48,43.424-43.424
	c0-5.527-4.481-10.007-10.007-10.007h-97.498c-5.527,0-10.007,4.481-10.007,10.007c0,5.527,4.481,10.007,10.007,10.007
	L368.553,217.72L368.553,217.72z M431.976,217.72c-3.759,7.915-11.831,13.402-21.161,13.402c-9.329,0-17.402-5.487-21.161-13.402
	H431.976z"/>
<path d="M170.604,207.713c0,5.527,4.481,10.007,10.007,10.007h17.016c4.531,19.135,21.76,33.417,42.26,33.417
	c23.944,0,43.424-19.48,43.424-43.424c0-5.527-4.481-10.007-10.007-10.007h-92.693C175.085,197.705,170.604,202.186,170.604,207.713
	z M261.049,217.72c-3.759,7.915-11.831,13.402-21.161,13.402c-9.33,0-17.402-5.487-21.161-13.402H261.049z"/>
<path d="M231.315,360.954c-5.527,0-10.007,4.481-10.007,10.007c0,5.527,4.481,10.007,10.007,10.007h81.509
	c32.284,0,62.634-12.572,85.461-35.399c3.908-3.908,3.908-10.245,0-14.152c-3.908-3.908-10.245-3.908-14.152,0
	c-19.047,19.047-44.373,29.538-71.31,29.538h-81.509V360.954z"/>
<circle cx="313.177" cy="17.748" r="10.007"/>
<g>
</g>
<g>
</g>
<g>
</g>
<g>
</g>
<g>
</g>
<g>
</g>
<g>
</g>
<g>
</g>
<g>
</g>
<g>
</g>
<g>
</g>
<g>
</g>
<g>
</g>
<g>
</g>
<g>
</g>
</svg>
