<?xml version="1.0" encoding="iso-8859-1"?>
<!-- Generator: Adobe Illustrator 19.0.0, SVG Export Plug-In . SVG Version: 6.00 Build 0)  -->
<svg version="1.1" id="Layer_1" xmlns="http://www.w3.org/2000/svg" xmlns:xlink="http://www.w3.org/1999/xlink" x="0px" y="0px"
	 viewBox="0 0 484.8 484.8" style="enable-background:new 0 0 484.8 484.8;" xml:space="preserve">
<g>
	<path style="fill:#F7910B;" d="M484.8,286.4c0,104-95.2,188-242.4,188S0,390.4,0,286.4s95.2-260,242.4-260S484.8,182.4,484.8,286.4
		z"/>
	<path style="fill:#F7910B;" d="M484.8,286.4c0,104-95.2,156-242.4,156S0,390.4,0,286.4s95.2-276,242.4-276S484.8,182.4,484.8,286.4
		z"/>
</g>
<g>
	<path style="fill:#F9A908;" d="M242.4,10.4c147.2,0,242.4,172,242.4,276s-95.2,156-242.4,156"/>
	<path style="fill:#F9A908;" d="M484.8,286.4c0,104-95.2,156-242.4,156S0,390.4,0,286.4s95.2-260,242.4-260S484.8,182.4,484.8,286.4
		z"/>
</g>
<path style="fill:#F9C55D;" d="M0,286.4c0-104,95.2-260,242.4-260"/>
<path style="fill:#F7910B;" d="M242.4,26.4c147.2,0,242.4,156,242.4,260s-95.2,188-242.4,188"/>
<path style="fill:#00233F;" d="M290.4,258.4c0,18.4-22.4,33.6-49.6,33.6s-49.6-15.2-49.6-33.6s22.4-33.6,49.6-33.6
	S290.4,240,290.4,258.4z"/>
<path style="fill:#EA7103;" d="M242.4,26.4c147.2,0,242.4,156,242.4,260"/>
<g>
	<circle style="fill:#F7910B;" cx="68.8" cy="262.4" r="4.8"/>
	<circle style="fill:#F7910B;" cx="32.8" cy="278.4" r="8.8"/>
	<circle style="fill:#F7910B;" cx="56.8" cy="246.4" r="1.6"/>
	<circle style="fill:#F7910B;" cx="93.6" cy="260.8" r="1.6"/>
</g>
<g>
	<circle style="fill:#F9A908;" cx="407.2" cy="264.8" r="6.4"/>
	<circle style="fill:#F9A908;" cx="427.2" cy="276" r="1.6"/>
	<circle style="fill:#F9A908;" cx="384.8" cy="205.6" r="2.4"/>
	<circle style="fill:#F9A908;" cx="380.8" cy="298.4" r="10.4"/>
	<circle style="fill:#F9A908;" cx="438.4" cy="299.2" r="4.8"/>
</g>
<g>
	<circle style="fill:#F7910B;" cx="60.8" cy="294.4" r="4"/>
	<circle style="fill:#F7910B;" cx="67.2" cy="227.2" r="3.2"/>
</g>
<g>
	<circle style="fill:#F9A908;" cx="24.8" cy="116.8" r="8.8"/>
	<circle style="fill:#F9A908;" cx="50.4" cy="88.8" r="4.8"/>
	<circle style="fill:#F9A908;" cx="460" cy="136" r="1.6"/>
	<circle style="fill:#F9A908;" cx="453.6" cy="112.8" r="6.4"/>
	<path style="fill:#F9A908;" d="M478.4,116.8c0,2.4-1.6,4-4,4s-4-1.6-4-4c0-2.4,1.6-4,4-4C476,112.8,478.4,115.2,478.4,116.8z"/>
	<circle style="fill:#F9A908;" cx="34.4" cy="140.8" r="4.8"/>
</g>
<path style="fill:#F7910B;" d="M301.6,266.4c0,20.8-26.4,57.6-59.2,57.6s-59.2-36.8-59.2-57.6"/>
<g>
	<circle style="fill:#D87703;" cx="151.2" cy="156.8" r="28"/>
	<path style="fill:#D87703;" d="M361.6,156.8c0,15.2-12.8,28-28,28s-28-12.8-28-28s12.8-28,28-28
		C349.6,128.8,361.6,141.6,361.6,156.8z"/>
</g>
<circle style="fill:#1E4784;" cx="151.2" cy="148.8" r="28"/>
<path style="fill:#00233F;" d="M151.2,120.8c15.2,0,28,12.8,28,28s-12.8,28-28,28"/>
<path style="fill:#1E4784;" d="M361.6,148.8c0,15.2-12.8,28-28,28s-28-12.8-28-28s12.8-28,28-28
	C349.6,120.8,361.6,133.6,361.6,148.8z"/>
<path style="fill:#00233F;" d="M333.6,120.8c15.2,0,28,12.8,28,28s-12.8,28-28,28"/>
<path style="fill:#F9A908;" d="M118.4,143.2c0-18.4,14.4-40.8,32.8-40.8s32.8,22.4,32.8,40.8"/>
<path style="fill:#F7910B;" d="M300.8,143.2c0-18.4,14.4-40.8,32.8-40.8c17.6,0,32.8,22.4,32.8,40.8"/>
<path style="fill:#F9C55D;" d="M208.8,195.2c0,9.6-28,5.6-62.4,5.6S84,205.6,84,195.2s28-17.6,62.4-17.6S208.8,185.6,208.8,195.2z"
	/>
<path style="fill:#F9A908;" d="M400.8,195.2c0,9.6-28,5.6-62.4,5.6s-62.4,4.8-62.4-5.6s28-17.6,62.4-17.6S400.8,185.6,400.8,195.2z"
	/>
<g>
	<path style="fill:#19BCA4;" d="M196,118.4c0,8.8-18.4,4-40.8,3.2s-40.8,3.2-40.8-5.6s18.4-16,40.8-15.2
		C178.4,101.6,196.8,109.6,196,118.4z"/>
	<path style="fill:#19BCA4;" d="M288.8,118.4c0,8.8,18.4,4,40.8,3.2s40.8,3.2,40.8-5.6s-18.4-16-40.8-15.2
		C306.4,101.6,288,109.6,288.8,118.4z"/>
</g>
<path style="fill:#FFFDF3;" d="M220.8,247.2c4,8.8,0.8,19.2-8,23.2l-145.6,72c-8.8,4-19.2,0.8-23.2-8l0,0c-4-8.8-0.8-19.2,8-24
	l145.6-72C205.6,234.4,216,238.4,220.8,247.2L220.8,247.2z"/>
<path style="fill:#DFF6F7;" d="M220.8,247.2L220.8,247.2c4,8.8,0.8,19.2-8,23.2l-145.6,72c-8.8,4-19.2,0.8-23.2-8l0,0"/>
<path style="fill:#F7552F;" d="M50.4,312c-8,4.8-11.2,14.4-7.2,23.2c4,8,14.4,12,22.4,8c8-4.8,11.2-14.4,7.2-23.2
	C68.8,312,58.4,308,50.4,312z"/>
<path style="fill:#E03405;" d="M65.6,343.2c8-4.8,11.2-14.4,7.2-23.2c-4-8-14.4-12-22.4-8"/>
<path style="fill:#754108;" d="M203.2,236l-68.8,34.4c8.8-4,19.2-0.8,23.2,8s0.8,19.2-8,23.2l68.8-34.4c8.8-4,12-15.2,8-23.2
	C222.4,235.2,212,231.2,203.2,236z"/>
<path style="fill:#935914;" d="M196.8,239.2L128,273.6c8.8-4,19.2-0.8,23.2,8s0.8,19.2-8,24l68.8-34.4c8.8-4,12-15.2,8-23.2
	C216,238.4,205.6,234.4,196.8,239.2z"/>
<path style="fill:#754108;" d="M128,272.8c8.8-4,19.2-0.8,23.2,8s0.8,19.2-8,24l68.8-34.4c8.8-4,12-15.2,8-23.2"/>
<path style="fill:#DFF6F7;" d="M168,272.8c-4-8.8-15.2-12-24-8l-18.4,9.6c8.8-4,19.2-0.8,23.2,8s0.8,19.2-8,23.2l18.4-9.6
	C168.8,292,172.8,281.6,168,272.8z"/>
<g>
	<path style="fill:#FFFDF3;" d="M62.4,231.2c0,3.2-2.4,6.4-6.4,6.4l0,0c-3.2-0.8-5.6-3.2-5.6-6.4v-64c0-3.2,2.4-6.4,6.4-6.4l0,0
		c3.2,0,6.4,2.4,6.4,6.4v64H62.4z"/>
	<path style="fill:#FFFDF3;" d="M87.2,280c0,3.2-2.4,6.4-6.4,6.4l0,0c-3.2,0-6.4-2.4-6.4-6.4v-64c0-3.2,2.4-6.4,6.4-6.4l0,0
		c3.2,0,6.4,2.4,6.4,6.4V280z"/>
	<circle style="fill:#FFFDF3;" cx="34.4" cy="252.8" r="4.8"/>
	<circle style="fill:#FFFDF3;" cx="72" cy="144" r="4.8"/>
	<circle style="fill:#FFFDF3;" cx="56" cy="280.8" r="7.2"/>
	<circle style="fill:#FFFDF3;" cx="68" cy="110.4" r="14.4"/>
	<circle style="fill:#FFFDF3;" cx="32.8" cy="220" r="7.2"/>
	<circle style="fill:#FFFDF3;" cx="34.4" cy="297.6" r="5.6"/>
	<circle style="fill:#FFFDF3;" cx="75.2" cy="190.4" r="1.6"/>
</g>
<g>
</g>
<g>
</g>
<g>
</g>
<g>
</g>
<g>
</g>
<g>
</g>
<g>
</g>
<g>
</g>
<g>
</g>
<g>
</g>
<g>
</g>
<g>
</g>
<g>
</g>
<g>
</g>
<g>
</g>
</svg>
