<?xml version="1.0" encoding="iso-8859-1"?>
<!-- Generator: Adobe Illustrator 19.0.0, SVG Export Plug-In . SVG Version: 6.00 Build 0)  -->
<svg version="1.1" id="Layer_1" xmlns="http://www.w3.org/2000/svg" xmlns:xlink="http://www.w3.org/1999/xlink" x="0px" y="0px"
	 viewBox="0 0 507.586 507.586" style="enable-background:new 0 0 507.586 507.586;" xml:space="preserve">
<path style="fill:#EA7103;" d="M506.659,202.512c-2.4-8-9.6-14.4-18.4-15.2l-148-21.6l-66.4-134.4c-4-8-12-12.8-20-12.8
	c-8.8,0-16,4.8-20,12.8l-66.4,134.4l-148,20.8c-8.8,1.6-15.2,7.2-18.4,15.2c-2.4,8-0.8,16.8,5.6,23.2l107.2,104.8l-25.6,147.2
	c-1.6,8.8,2.4,16.8,8.8,22.4c7.2,4.8,16,5.6,24,1.6l132.8-69.6l132.8,69.6c3.2,1.6,7.2,2.4,10.4,2.4c4.8,0,9.6-1.6,13.6-4
	c7.2-4.8,10.4-13.6,8.8-22.4l-25.6-147.2l107.2-104.8C506.659,219.312,509.059,210.512,506.659,202.512z"/>
<path style="fill:#F9A908;" d="M506.659,187.312c-2.4-8-9.6-14.4-18.4-15.2l-148-21.6l-66.4-133.6c-4-8-12-12.8-20-12.8
	c-8.8,0-16,4.8-20,12.8l-66.4,134.4l-148,20.8c-8.8,1.6-15.2,7.2-18.4,15.2c-2.4,8-0.8,16.8,5.6,23.2l107.2,104.8l-25.6,147.2
	c-1.6,8.8,2.4,16.8,8.8,22.4c7.2,4.8,16,5.6,24,1.6l132.8-69.6l132.8,69.6c3.2,1.6,7.2,2.4,10.4,2.4c4.8,0,9.6-1.6,13.6-4
	c7.2-4.8,10.4-13.6,8.8-22.4l-25.6-147.2l107.2-104.8C506.659,204.912,509.059,195.312,506.659,187.312z"/>
<path style="fill:#F7910B;" d="M506.659,187.312c-2.4-8-9.6-14.4-18.4-15.2l-148-21.6l-66.4-133.6c-4-8-11.2-12.8-20-12.8h-0.8
	v412.8l0.8-0.8l132,69.6c3.2,1.6,6.4,2.4,10.4,2.4c4.8,0,9.6-1.6,12.8-4c7.2-4.8,10.4-13.6,8.8-22.4l-25.6-147.2l107.2-104.8
	C506.659,204.912,509.059,195.312,506.659,187.312z"/>
<path style="fill:#1E4784;" d="M205.059,262.512c-2.4-0.8-4.8-1.6-6.4-4c-6.4-9.6-20-12-29.6-5.6c-4.8,3.2-10.4,1.6-13.6-2.4
	c-3.2-4.8-1.6-10.4,2.4-13.6c18.4-12.8,44-8,56.8,10.4c3.2,4.8,1.6,10.4-2.4,13.6C210.659,262.512,207.459,263.312,205.059,262.512z
	"/>
<path style="fill:#02243E;" d="M215.459,247.312c3.2,4.8,1.6,10.4-2.4,13.6c-2.4,1.6-4.8,2.4-7.2,1.6s-4.8-1.6-6.4-4
	c-6.4-9.6-20-12-29.6-5.6c-4.8,3.2-10.4,1.6-13.6-2.4c-3.2-4.8-1.6-10.4,2.4-13.6"/>
<path style="fill:#1E4784;" d="M302.659,262.512c2.4-0.8,4.8-1.6,6.4-4c6.4-9.6,20-12,29.6-5.6c4.8,3.2,10.4,1.6,13.6-2.4
	c3.2-4.8,1.6-10.4-2.4-13.6c-18.4-12.8-44-8-56.8,10.4c-3.2,4.8-1.6,10.4,2.4,13.6C297.059,262.512,300.259,263.312,302.659,262.512
	z"/>
<path style="fill:#02243E;" d="M292.259,247.312c-3.2,4.8-1.6,10.4,2.4,13.6c2.4,1.6,4.8,2.4,7.2,1.6s4.8-1.6,6.4-4
	c6.4-9.6,20-12,29.6-5.6c4.8,3.2,10.4,1.6,13.6-2.4c3.2-4.8,1.6-10.4-2.4-13.6"/>
<path style="fill:#C42260;" d="M319.459,291.312c0,40.8-29.6,73.6-65.6,73.6s-65.6-32.8-65.6-73.6"/>
<path style="fill:#99144A;" d="M319.459,291.312c0,13.6-29.6,24.8-65.6,24.8s-65.6-11.2-65.6-24.8"/>
<path style="fill:#E2446E;" d="M253.859,364.912c20,0,38.4-10.4,50.4-26.4c-7.2-9.6-18.4-15.2-30.4-15.2c-7.2,0-14.4,2.4-20,5.6
	c-5.6-4-12.8-5.6-20-5.6c-12,0-23.2,5.6-30.4,15.2C215.459,354.512,233.859,364.912,253.859,364.912z"/>
<g>
	<circle style="fill:#F7910B;" cx="75.459" cy="196.912" r="13.6"/>
	<circle style="fill:#F7910B;" cx="125.059" cy="184.912" r="2.4"/>
	<circle style="fill:#F7910B;" cx="197.059" cy="166.512" r="2.4"/>
	<circle style="fill:#F7910B;" cx="234.659" cy="75.312" r="12.8"/>
	<circle style="fill:#F7910B;" cx="126.659" cy="251.312" r="4.8"/>
	<circle style="fill:#F7910B;" cx="224.259" cy="200.112" r="11.2"/>
	<circle style="fill:#F7910B;" cx="147.459" cy="352.912" r="5.6"/>
	<circle style="fill:#F7910B;" cx="161.859" cy="420.112" r="9.6"/>
	<circle style="fill:#F7910B;" cx="183.459" cy="388.112" r="5.6"/>
	<circle style="fill:#F7910B;" cx="226.659" cy="394.512" r="2.4"/>
	<circle style="fill:#F7910B;" cx="114.659" cy="456.112" r="3.2"/>
</g>
<g>
	<circle style="fill:#F9A908;" cx="290.659" cy="172.112" r="13.6"/>
	<circle style="fill:#F9A908;" cx="353.059" cy="198.512" r="4"/>
	<circle style="fill:#F9A908;" cx="422.659" cy="204.112" r="6.4"/>
	<circle style="fill:#F9A908;" cx="404.259" cy="240.112" r="8.8"/>
	<circle style="fill:#F9A908;" cx="365.059" cy="295.312" r="5.6"/>
	<circle style="fill:#F9A908;" cx="326.659" cy="397.712" r="16.8"/>
	<circle style="fill:#F9A908;" cx="354.659" cy="344.112" r="4.8"/>
	<circle style="fill:#F9A908;" cx="281.059" cy="100.912" r="6.4"/>
	<circle style="fill:#F9A908;" cx="301.859" cy="123.312" r="1.6"/>
</g>
<g>
</g>
<g>
</g>
<g>
</g>
<g>
</g>
<g>
</g>
<g>
</g>
<g>
</g>
<g>
</g>
<g>
</g>
<g>
</g>
<g>
</g>
<g>
</g>
<g>
</g>
<g>
</g>
<g>
</g>
</svg>
