<?xml version="1.0" encoding="iso-8859-1"?>
<!-- Generator: Adobe Illustrator 19.0.0, SVG Export Plug-In . SVG Version: 6.00 Build 0)  -->
<svg version="1.1" id="Layer_1" xmlns="http://www.w3.org/2000/svg" xmlns:xlink="http://www.w3.org/1999/xlink" x="0px" y="0px"
	 viewBox="0 0 511.999 511.999" style="enable-background:new 0 0 511.999 511.999;" xml:space="preserve">
<circle style="fill:#FDDF6D;" cx="257.753" cy="256.003" r="244.303"/>
<path style="fill:#FCC56B;" d="M310.113,464.236c-134.925,0-244.302-109.377-244.302-244.302
	c0-72.085,31.227-136.869,80.884-181.585C67.603,78.788,13.459,161.07,13.459,255.999c0,134.924,109.377,244.302,244.302,244.302
	c62.84,0,120.131-23.733,163.418-62.715C387.857,454.623,350.108,464.236,310.113,464.236z"/>
<g>
	<path style="fill:#7F184C;" d="M426.766,210.228c-3.616,0-7.101-1.98-8.86-5.421c-6.423-12.574-18.447-20.387-31.383-20.387
		c-12.61,0-24.792,7.915-31.795,20.654c-2.644,4.812-8.689,6.565-13.497,3.922c-4.81-2.644-6.566-8.686-3.922-13.497
		c10.495-19.095,29.353-30.957,49.214-30.957c20.442,0,39.249,11.963,49.086,31.224c2.497,4.887,0.558,10.874-4.332,13.372
		C429.831,209.876,428.286,210.228,426.766,210.228z"/>
	<path style="fill:#7F184C;" d="M261.314,210.228c-3.616,0-7.101-1.98-8.86-5.421c-6.423-12.574-18.447-20.387-31.383-20.387
		c-12.61,0-24.792,7.915-31.795,20.654c-2.644,4.812-8.688,6.565-13.497,3.922c-4.81-2.644-6.566-8.686-3.922-13.497
		c10.495-19.095,29.353-30.957,49.214-30.957c20.442,0,39.249,11.963,49.086,31.224c2.497,4.887,0.558,10.874-4.332,13.372
		C264.38,209.876,262.835,210.228,261.314,210.228z"/>
</g>
<g>
	<path style="fill:#F9A880;" d="M152.774,240.876c-18.143,0-32.852,14.708-32.852,32.852h65.702
		C185.626,255.583,170.917,240.876,152.774,240.876z"/>
	<path style="fill:#F9A880;" d="M439.319,236.473c-18.143,0-32.852,14.708-32.852,32.852h65.702
		C472.169,251.181,457.461,236.473,439.319,236.473z"/>
</g>
<path style="fill:#3FA9F5;" d="M112.715,151.527c0,28.381-23.007,51.388-51.388,51.388S9.939,179.907,9.939,151.527
	S61.326,49.133,61.326,49.133S112.715,123.146,112.715,151.527z"/>
<path d="M257.761,1.759c-64.265,0-124.804,23.644-171.803,66.83C77.963,55.771,71.324,46.105,69.49,43.464
	c-1.857-2.675-4.907-4.271-8.163-4.271c-3.257,0-6.306,1.595-8.163,4.271C47.722,51.301,0,120.917,0,151.527
	c0,33.816,27.511,61.326,61.326,61.326s61.328-27.511,61.328-61.326c0-15.985-13.014-42.603-26.226-65.51
	c43.73-41.567,100.731-64.381,161.332-64.381c129.229,0,234.362,105.135,234.362,234.363S386.987,490.362,257.76,490.362
	c-58.998,0-115.371-21.999-158.736-61.94c-43.109-39.711-69.649-93.603-74.729-151.751c-0.476-5.469-5.302-9.513-10.765-9.036
	c-5.469,0.477-9.515,5.298-9.036,10.765c5.511,63.097,34.3,121.567,81.064,164.641c47.044,43.333,108.199,67.198,172.202,67.198
	c140.188,0,254.239-114.051,254.239-254.24S397.949,1.759,257.761,1.759z M61.326,192.976c-22.855,0-41.449-18.594-41.449-41.449
	c0-15.943,22.867-56.162,41.45-84.59c18.584,28.422,41.449,68.633,41.449,84.59C102.778,174.381,84.182,192.976,61.326,192.976z"/>
<path d="M354.727,205.074c7.003-12.739,19.187-20.654,31.795-20.654c12.936,0,24.96,7.813,31.383,20.387
	c1.757,3.441,5.244,5.421,8.86,5.421c1.52,0,3.065-0.351,4.512-1.089c4.888-2.498,6.827-8.484,4.332-13.372
	c-9.837-19.26-28.644-31.224-49.086-31.224c-19.86,0-38.719,11.861-49.214,30.957c-2.644,4.81-0.888,10.852,3.922,13.497
	C346.039,211.64,352.083,209.886,354.727,205.074z"/>
<path d="M221.072,164.543c-19.86,0-38.719,11.861-49.214,30.957c-2.644,4.81-0.888,10.852,3.922,13.497
	c4.809,2.644,10.852,0.889,13.497-3.922c7.003-12.739,19.187-20.654,31.795-20.654c12.936,0,24.96,7.813,31.383,20.387
	c1.757,3.441,5.244,5.421,8.86,5.421c1.52,0,3.065-0.351,4.512-1.089c4.888-2.498,6.827-8.484,4.332-13.372
	C260.321,176.508,241.514,164.543,221.072,164.543z"/>
<path d="M214.845,371.397c-4.337,3.365-5.126,9.607-1.761,13.943c1.96,2.526,4.892,3.847,7.859,3.847
	c2.128,0,4.274-0.681,6.085-2.086c16.271-12.622,45.744-20.463,76.911-20.463c31.976,0,61.127,7.756,76.079,20.239
	c4.211,3.518,10.479,2.954,13.997-1.259c3.518-4.213,2.954-10.481-1.259-13.997c-18.641-15.566-51.845-24.86-88.818-24.86
	C268.573,346.761,234.433,356.2,214.845,371.397z"/>
<circle cx="14.395" cy="243.905" r="9.939"/>
<g>
</g>
<g>
</g>
<g>
</g>
<g>
</g>
<g>
</g>
<g>
</g>
<g>
</g>
<g>
</g>
<g>
</g>
<g>
</g>
<g>
</g>
<g>
</g>
<g>
</g>
<g>
</g>
<g>
</g>
</svg>
