<?xml version="1.0" encoding="iso-8859-1"?>
<!-- Generator: Adobe Illustrator 19.0.0, SVG Export Plug-In . SVG Version: 6.00 Build 0)  -->
<svg version="1.1" id="Layer_1" xmlns="http://www.w3.org/2000/svg" xmlns:xlink="http://www.w3.org/1999/xlink" x="0px" y="0px"
	 viewBox="0 0 512 512" style="enable-background:new 0 0 512 512;" xml:space="preserve">
<circle style="fill:#FDDF6D;" cx="256.001" cy="256.001" r="245.994"/>
<path style="fill:#FCC56B;" d="M308.716,465.678c-135.858,0-245.993-110.134-245.993-245.993
	c0-72.584,31.443-137.816,81.444-182.842C64.527,77.562,10.007,160.414,10.007,256c0,135.858,110.134,245.993,245.993,245.993
	c63.274,0,120.962-23.898,164.549-63.149C386.998,455.999,348.987,465.678,308.716,465.678z"/>
<g>
	<circle style="fill:#FFFFFF;" cx="213.157" cy="179.852" r="71.359"/>
	<circle style="fill:#FFFFFF;" cx="413.277" cy="179.852" r="71.359"/>
</g>
<g>
	<path style="fill:#F9A880;" d="M150.288,278.282c-18.268,0-33.078,14.81-33.078,33.079h66.157
		C183.365,293.091,168.556,278.282,150.288,278.282z"/>
	<path style="fill:#F9A880;" d="M438.814,273.849c-18.268,0-33.078,14.81-33.078,33.079h66.157
		C471.893,288.659,457.084,273.849,438.814,273.849z"/>
</g>
<g>
	<circle style="fill:#7F184C;" cx="195.263" cy="142.545" r="20.015"/>
	<circle style="fill:#7F184C;" cx="398.306" cy="141.157" r="20.015"/>
	<path style="fill:#7F184C;" d="M276.694,411.134c-1.752,0-3.525-0.46-5.136-1.425c-4.741-2.842-6.279-8.988-3.437-13.729
		c13.795-23.009,38.366-37.303,64.122-37.303c7.802,0,15.486,1.225,22.842,3.641c5.252,1.724,8.11,7.379,6.385,12.631
		c-1.725,5.249-7.38,8.111-12.631,6.383c-5.337-1.752-10.921-2.641-16.596-2.641c-18.764,0-36.755,10.568-46.954,27.58
		C283.411,409.399,280.095,411.134,276.694,411.134z"/>
</g>
<path d="M488.284,148.33c-1.069-2.533-2.262-4.998-3.572-7.393c-0.458-0.907-0.895-1.825-1.362-2.726
	c-0.446-0.859-1.005-1.621-1.641-2.288c-14.492-22.494-39.743-37.433-68.432-37.433c-44.866,0-81.366,36.5-81.366,81.366
	c0,44.865,36.5,81.365,81.366,81.365c33.397,0,62.146-20.231,74.668-49.075c2.677,14.312,4.042,28.947,4.042,43.854
	c0,130.124-105.862,235.984-235.985,235.984S20.015,386.124,20.015,256S125.876,20.015,256,20.015
	c36.618,0,71.707,8.154,104.294,24.235c4.953,2.446,10.957,0.412,13.402-4.545c2.446-4.957,0.411-10.957-4.546-13.403
	C333.786,8.849,295.717,0,256,0C114.84,0,0,114.84,0,256c0,141.158,114.84,256,256,256s256-114.84,256-255.999
	C512,218.826,503.81,181.844,488.284,148.33z M474.627,179.856c0,33.83-27.522,61.35-61.352,61.35s-61.352-27.522-61.352-61.35
	s27.522-61.352,61.352-61.352c23.13,0,43.306,12.871,53.758,31.823c0.961,1.913,1.896,3.835,2.802,5.766
	C472.921,163.405,474.627,171.434,474.627,179.856z"/>
<path d="M213.163,98.49c-44.866,0-81.366,36.5-81.366,81.366c0,44.865,36.5,81.365,81.366,81.365s81.366-36.5,81.366-81.365
	C294.53,134.99,258.028,98.49,213.163,98.49z M213.163,241.206c-33.83,0-61.352-27.522-61.352-61.35s27.522-61.352,61.352-61.352
	s61.352,27.523,61.352,61.352S246.992,241.206,213.163,241.206z"/>
<path d="M271.558,409.71c1.612,0.966,3.385,1.425,5.136,1.425c3.401,0,6.717-1.735,8.593-4.864
	c10.199-17.013,28.19-27.58,46.954-27.58c5.679,0,11.262,0.889,16.595,2.641c5.251,1.728,10.907-1.133,12.632-6.382
	c1.725-5.251-1.131-10.907-6.382-12.632c-7.352-2.418-15.039-3.641-22.845-3.641c-25.758,0-50.326,14.294-64.122,37.303
	C265.279,400.721,266.817,406.868,271.558,409.71z"/>
<circle cx="395.637" cy="53.399" r="10.007"/>
<g>
</g>
<g>
</g>
<g>
</g>
<g>
</g>
<g>
</g>
<g>
</g>
<g>
</g>
<g>
</g>
<g>
</g>
<g>
</g>
<g>
</g>
<g>
</g>
<g>
</g>
<g>
</g>
<g>
</g>
</svg>
