<?xml version="1.0" encoding="iso-8859-1"?>
<!-- Generator: Adobe Illustrator 19.0.0, SVG Export Plug-In . SVG Version: 6.00 Build 0)  -->
<svg version="1.1" id="Layer_1" xmlns="http://www.w3.org/2000/svg" xmlns:xlink="http://www.w3.org/1999/xlink" x="0px" y="0px"
	 viewBox="0 0 494.368 494.368" style="enable-background:new 0 0 494.368 494.368;" xml:space="preserve">
<ellipse transform="matrix(-0.2737 -0.9618 0.9618 -0.2737 -276.7327 552.5026)" style="fill:#EA7103;" cx="70.24" cy="380.736" rx="67.999" ry="70.399"/>
<g>
	<path style="fill:#F7910B;" d="M494.368,291.184c0,104-95.2,188-242.4,188s-242.4-84-242.4-188s95.2-260,242.4-260
		S494.368,187.184,494.368,291.184z"/>
	<path style="fill:#F7910B;" d="M494.368,291.184c0,104-95.2,156-242.4,156s-242.4-52-242.4-156s95.2-276,242.4-276
		S494.368,187.184,494.368,291.184z"/>
</g>
<g>
	<path style="fill:#F9A908;" d="M251.968,15.184c147.2,0,242.4,172,242.4,276s-95.2,156-242.4,156"/>
	<path style="fill:#F9A908;" d="M494.368,291.184c0,104-95.2,156-242.4,156s-242.4-52-242.4-156s95.2-260,242.4-260
		S494.368,187.184,494.368,291.184z"/>
</g>
<path style="fill:#F9C55D;" d="M9.568,291.184c0-104,95.2-260,242.4-260"/>
<path style="fill:#F7910B;" d="M251.968,31.184c147.2,0,242.4,156,242.4,260s-95.2,188-242.4,188"/>
<g>
	<path style="fill:#EA7103;" d="M251.968,31.184c147.2,0,242.4,156,242.4,260"/>
	<circle style="fill:#EA7103;" cx="168.768" cy="196.784" r="25.6"/>
	<circle style="fill:#EA7103;" cx="335.168" cy="196.784" r="25.6"/>
</g>
<circle style="fill:#1E4784;" cx="168.768" cy="189.584" r="25.6"/>
<path style="fill:#00233F;" d="M168.768,163.984c14.4,0,25.6,11.2,25.6,25.6s-11.2,25.6-25.6,25.6"/>
<circle style="fill:#1E4784;" cx="335.168" cy="189.584" r="25.6"/>
<path style="fill:#00233F;" d="M335.168,163.984c14.4,0,25.6,11.2,25.6,25.6s-11.2,25.6-25.6,25.6"/>
<path style="fill:#19BCA4;" d="M200.768,99.184c0,10.4-10.4,4.8-23.2,4.8s-23.2,4.8-23.2-4.8c0-10.4,10.4-18.4,23.2-18.4
	C190.368,80.784,200.768,88.784,200.768,99.184z"/>
<path style="fill:#109DA0;" d="M200.768,99.184c0,10.4-10.4,4.8-23.2,4.8s-23.2,4.8-23.2-4.8"/>
<path style="fill:#19BCA4;" d="M307.968,123.184c0,10.4,10.4,4.8,23.2,4.8c12.8,0,23.2,4.8,23.2-4.8c0-10.4-10.4-18.4-23.2-18.4
	C318.368,104.784,307.968,112.784,307.968,123.184z"/>
<path style="fill:#109DA0;" d="M307.968,123.184c0,10.4,10.4,4.8,23.2,4.8c12.8,0,23.2,4.8,23.2-4.8"/>
<path style="fill:#F9C55D;" d="M218.368,237.584c0,9.6-28,5.6-62.4,5.6s-62.4,4.8-62.4-5.6s28-17.6,62.4-17.6
	C190.368,219.984,218.368,227.984,218.368,237.584z"/>
<path style="fill:#F9A908;" d="M410.368,237.584c0,9.6-28,5.6-62.4,5.6s-62.4,4.8-62.4-5.6s28-17.6,62.4-17.6
	S410.368,227.984,410.368,237.584z"/>
<g>
	<circle style="fill:#F7910B;" cx="78.368" cy="267.184" r="4.8"/>
	<circle style="fill:#F7910B;" cx="42.368" cy="283.184" r="8.8"/>
	<circle style="fill:#F7910B;" cx="66.368" cy="251.184" r="1.6"/>
	<circle style="fill:#F7910B;" cx="103.168" cy="265.584" r="1.6"/>
</g>
<g>
	<circle style="fill:#F9A908;" cx="416.768" cy="269.584" r="6.4"/>
	<circle style="fill:#F9A908;" cx="436.768" cy="280.784" r="1.6"/>
	<circle style="fill:#F9A908;" cx="394.368" cy="210.384" r="2.4"/>
	<circle style="fill:#F9A908;" cx="390.368" cy="303.184" r="10.4"/>
	<circle style="fill:#F9A908;" cx="447.968" cy="303.984" r="4.8"/>
</g>
<g>
	<circle style="fill:#F7910B;" cx="70.368" cy="299.184" r="4"/>
	<circle style="fill:#F7910B;" cx="76.768" cy="231.984" r="3.2"/>
</g>
<g>
	<circle style="fill:#F9A908;" cx="34.368" cy="121.584" r="8.8"/>
	<circle style="fill:#F9A908;" cx="59.968" cy="93.584" r="4.8"/>
	<circle style="fill:#F9A908;" cx="469.568" cy="140.784" r="1.6"/>
	<circle style="fill:#F9A908;" cx="463.168" cy="117.584" r="6.4"/>
	<circle style="fill:#F9A908;" cx="483.968" cy="121.584" r="4"/>
	<circle style="fill:#F9A908;" cx="43.968" cy="145.584" r="4.8"/>
</g>
<path style="fill:#F9C55D;" d="M283.168,267.984c0,6.4-13.6,12-31.2,12s-31.2-5.6-31.2-12"/>
<path style="fill:#F7910B;" d="M295.168,283.984c0,15.2-19.2,43.2-43.2,43.2s-43.2-28-43.2-43.2"/>
<g>
	<path style="fill:#02243E;" d="M163.968,273.584c-4.8,0-8.8-4-8.8-8.8s4-8.8,8.8-8.8c4,0,7.2-3.2,7.2-7.2c0-4.8,4-8.8,8.8-8.8
		s8.8,4,8.8,8.8C187.968,262.384,176.768,273.584,163.968,273.584z"/>
	<path style="fill:#02243E;" d="M340.768,273.584c-13.6,0-24.8-11.2-24.8-24.8c0-4.8,4-8.8,8.8-8.8s8.8,4,8.8,8.8
		c0,4,3.2,7.2,7.2,7.2c4.8,0,8.8,4,8.8,8.8S345.568,273.584,340.768,273.584z"/>
	<path style="fill:#02243E;" d="M251.968,302.384c-30.4,0-60.8-11.2-83.2-34.4c-3.2-3.2-3.2-8.8,0-12.8s8.8-3.2,12.8,0
		c39.2,39.2,103.2,39.2,142.4,0c3.2-3.2,8.8-3.2,12.8,0c3.2,3.2,3.2,8.8,0,12.8C312.768,291.184,282.368,302.384,251.968,302.384z"
		/>
</g>
<path style="fill:#CCF2E3;" d="M91.168,207.984c-17.6-5.6-50.4,52-64,97.6c-14.4,45.6-30.4,109.6,24.8,62.4c14.4-12,25.6,13.6,40-32
	C105.568,290.384,109.568,213.584,91.168,207.984z"/>
<g>
	<path style="fill:#AAD6C3;" d="M168.768,415.184c-56.8,0-42.4-13.6-41.6-29.6c0.8-16-13.6-29.6,44-29.6c56.8,0,79.2,13.6,78.4,29.6
		C249.568,402.384,226.368,415.184,168.768,415.184z"/>
	<path style="fill:#AAD6C3;" d="M250.368,386.384c-0.8,16-24,29.6-80.8,29.6s-42.4-13.6-41.6-29.6"/>
</g>
<path style="fill:#CCF2E3;" d="M158.368,355.984c-56.8,0-41.6-12.8-41.6-29.6c0.8-16-21.6-30.4,36-29.6c56.8,0,87.2,13.6,86.4,30.4
	C238.368,343.184,215.168,356.784,158.368,355.984z"/>
<g>
	<path style="fill:#AAD6C3;" d="M239.168,327.184c-0.8,16-24,29.6-80.8,28.8c-56.8,0-41.6-12.8-41.6-29.6"/>
	<path style="fill:#AAD6C3;" d="M143.168,473.584c-56.8,0-42.4-13.6-41.6-29.6s-13.6-29.6,44-29.6c56.8,0,79.2,13.6,78.4,29.6
		C223.968,460.784,200.768,473.584,143.168,473.584z"/>
	<path style="fill:#AAD6C3;" d="M223.968,444.784c-0.8,16-24,29.6-80.8,29.6s-42.4-13.6-41.6-29.6"/>
</g>
<path style="fill:#CCF2E3;" d="M105.568,473.584c-52.8,0-96-27.2-94.4-80c2.4-52.8,47.2-95.2,100-95.2s70.4,42.4,68,95.2
	S158.368,473.584,105.568,473.584z"/>
<path style="fill:#AAD6C3;" d="M105.568,473.584c-52.8,0-96-27.2-94.4-80c1.6-52.8,49.6-73.6,102.4-68.8c54.4,4.8,64-16.8,65.6,65.6
	C179.968,443.184,159.968,473.584,105.568,473.584z"/>
<g>
	<path style="fill:#E7F7EF;" d="M232.768,369.584c-7.2-3.2-13.6-4-15.2-2.4c-0.8,2.4,4,6.4,11.2,10.4c7.2,3.2,13.6,4,15.2,2.4
		C244.768,377.584,239.968,373.584,232.768,369.584z"/>
	<path style="fill:#E7F7EF;" d="M218.368,310.384c-7.2-3.2-13.6-4-15.2-2.4c-0.8,2.4,4,6.4,11.2,10.4c7.2,3.2,13.6,4,15.2,2.4
		C230.368,317.584,225.568,313.584,218.368,310.384z"/>
	<path style="fill:#E7F7EF;" d="M205.568,429.584c-7.2-3.2-13.6-4-15.2-2.4c-0.8,2.4,4,6.4,11.2,10.4c7.2,3.2,13.6,4,15.2,2.4
		C217.568,437.584,212.768,432.784,205.568,429.584z"/>
	<path style="fill:#E7F7EF;" d="M123.968,317.584c-17.6,0-31.2-2.4-31.2-6.4s14.4-7.2,31.2-7.2c17.6,0,21.6,3.2,21.6,6.4
		C144.768,314.384,140.768,317.584,123.968,317.584z"/>
	<path style="fill:#E7F7EF;" d="M85.568,244.784c-11.2,18.4-24,31.2-28.8,28s0-20.8,11.2-39.2s17.6-20,22.4-16.8
		C95.168,219.184,96.768,226.384,85.568,244.784z"/>
</g>
<g>
</g>
<g>
</g>
<g>
</g>
<g>
</g>
<g>
</g>
<g>
</g>
<g>
</g>
<g>
</g>
<g>
</g>
<g>
</g>
<g>
</g>
<g>
</g>
<g>
</g>
<g>
</g>
<g>
</g>
</svg>
