<?xml version="1.0" encoding="iso-8859-1"?>
<!-- Generator: Adobe Illustrator 19.0.0, SVG Export Plug-In . SVG Version: 6.00 Build 0)  -->
<svg version="1.1" id="Layer_1" xmlns="http://www.w3.org/2000/svg" xmlns:xlink="http://www.w3.org/1999/xlink" x="0px" y="0px"
	 viewBox="0 0 512 512" style="enable-background:new 0 0 512 512;" xml:space="preserve">
<circle style="fill:#FDDF6D;" cx="256.001" cy="256.001" r="245.994"/>
<path style="fill:#FCC56B;" d="M308.715,465.678c-135.858,0-245.993-110.134-245.993-245.993
	c0-72.584,31.443-137.816,81.444-182.842C64.527,77.562,10.007,160.414,10.007,256c0,135.858,110.134,245.993,245.993,245.993
	c63.274,0,120.962-23.898,164.549-63.149C386.996,455.999,348.987,465.678,308.715,465.678z"/>
<g>
	<path style="fill:#F9A880;" d="M168.968,273.849c-18.268,0-33.078,14.81-33.078,33.079h66.157
		C202.046,288.659,187.236,273.849,168.968,273.849z"/>
	<path style="fill:#F9A880;" d="M438.814,273.849c-18.268,0-33.078,14.81-33.078,33.079h66.157
		C471.893,288.659,457.082,273.849,438.814,273.849z"/>
</g>
<path style="fill:#FFFFFF;" d="M369.043,408.189H259.061c-20.266,0-36.694-16.428-36.694-36.694l0,0
	c0-20.266,16.428-36.694,36.694-36.694h109.982c20.266,0,36.694,16.428,36.694,36.694l0,0
	C405.737,391.761,389.307,408.189,369.043,408.189z"/>
<path style="fill:#E6E6E6;" d="M222.366,371.495L222.366,371.495c0,3.471,0.492,6.825,1.393,10.007h180.583
	c0.901-3.182,1.393-6.537,1.393-10.007l0,0c0-3.471-0.492-6.825-1.393-10.007H223.759
	C222.858,364.671,222.366,368.024,222.366,371.495z"/>
<path d="M355.649,20.123c-5.089-2.151-10.961,0.227-13.115,5.317c-2.152,5.09,0.228,10.963,5.319,13.115
	C435.409,75.588,491.985,160.94,491.985,256c0,130.124-105.862,235.984-235.985,235.984S20.015,386.124,20.015,256
	S125.876,20.015,256,20.015c5.527,0,10.007-4.479,10.007-10.007S261.527,0,256,0C114.84,0,0,114.84,0,256
	c0,141.158,114.84,256,256,256s256-114.84,256-255.999C512,152.882,450.628,60.295,355.649,20.123z"/>
<path d="M182.214,234.516c1.641,3.764,5.317,6.01,9.177,6.01c1.334,0,2.693-0.268,3.995-0.837l61.96-27.02
	c3.641-1.588,5.998-5.178,6.007-9.151c0.009-3.972-2.332-7.574-5.966-9.177l-61.96-27.353c-5.053-2.232-10.964,0.056-13.196,5.113
	c-2.232,5.057,0.057,10.965,5.114,13.198l41.094,18.143l-41.054,17.902C182.321,223.552,180.004,229.45,182.214,234.516z"/>
<path d="M445.887,234.516c-1.641,3.764-5.317,6.01-9.177,6.01c-1.334,0-2.693-0.268-3.995-0.837l-61.96-27.02
	c-3.641-1.588-5.998-5.178-6.007-9.151c-0.009-3.972,2.332-7.574,5.966-9.177l61.96-27.353c5.053-2.232,10.964,0.056,13.196,5.113
	c2.232,5.057-0.057,10.965-5.114,13.198l-41.094,18.143l41.054,17.902C445.781,223.552,448.097,229.45,445.887,234.516z"/>
<path d="M212.359,371.495c0,25.751,20.95,46.701,46.701,46.701h109.982c25.751,0,46.701-20.95,46.701-46.701
	c0-25.751-20.95-46.701-46.701-46.701H259.06C233.31,324.795,212.359,345.745,212.359,371.495z M395.729,371.495
	c0,14.715-11.971,26.686-26.686,26.686H259.061c-14.715,0-26.686-11.971-26.686-26.686c0-14.715,11.971-26.686,26.686-26.686
	h109.982C383.757,344.809,395.729,356.781,395.729,371.495z"/>
<circle cx="316.392" cy="18.347" r="10.007"/>
<g>
</g>
<g>
</g>
<g>
</g>
<g>
</g>
<g>
</g>
<g>
</g>
<g>
</g>
<g>
</g>
<g>
</g>
<g>
</g>
<g>
</g>
<g>
</g>
<g>
</g>
<g>
</g>
<g>
</g>
</svg>
