<?xml version="1.0" encoding="iso-8859-1"?>
<!-- Generator: Adobe Illustrator 19.0.0, SVG Export Plug-In . SVG Version: 6.00 Build 0)  -->
<svg version="1.1" id="Layer_1" xmlns="http://www.w3.org/2000/svg" xmlns:xlink="http://www.w3.org/1999/xlink" x="0px" y="0px"
	 viewBox="0 0 512 512" style="enable-background:new 0 0 512 512;" xml:space="preserve">
<circle style="fill:#FDDF6D;" cx="256.001" cy="256.001" r="245.994"/>
<path style="fill:#FCC56B;" d="M308.715,465.677c-135.858,0-245.993-110.134-245.993-245.993
	c0-72.584,31.443-137.816,81.444-182.842C64.527,77.562,10.007,160.414,10.007,256c0,135.858,110.134,245.993,245.993,245.993
	c63.274,0,120.962-23.898,164.549-63.149C386.996,455.999,348.987,465.677,308.715,465.677z"/>
<g>
	<path style="fill:#FFFFFF;" d="M377.397,179.855c0,18.456,14.962,33.417,33.417,33.417c18.456,0,33.417-14.962,33.417-33.417
		H377.397z"/>
	<path style="fill:#FFFFFF;" d="M206.472,179.855c0,18.456,14.962,33.417,33.417,33.417c18.455,0,33.417-14.962,33.417-33.417
		H206.472z"/>
</g>
<g>
	<path style="fill:#F9A880;" d="M150.286,240.771c-18.268,0-33.078,14.81-33.078,33.079h66.157
		C183.365,255.581,168.556,240.771,150.286,240.771z"/>
	<path style="fill:#F9A880;" d="M438.814,236.339c-18.268,0-33.079,14.81-33.079,33.078h66.157
		C471.892,251.148,457.082,236.339,438.814,236.339z"/>
</g>
<path style="fill:#7F184C;" d="M232.856,390.109c-2.679,0-5.353-1.07-7.324-3.186c-3.767-4.044-3.543-10.376,0.5-14.144
	c16.811-15.662,46.092-25.391,76.419-25.391c31.71,0,60.203,9.588,76.219,25.647c3.903,3.914,3.894,10.249-0.019,14.152
	c-3.914,3.903-10.25,3.894-14.153-0.019c-12.158-12.192-35.934-19.765-62.047-19.765c-25.465,0-49.52,7.672-62.775,20.021
	C237.748,389.22,235.298,390.109,232.856,390.109z"/>
<path d="M471.598,117.911c-25.73-40.092-61.978-72.169-104.824-92.765c-4.98-2.392-10.959-0.298-13.355,4.685
	c-2.394,4.981-0.298,10.96,4.685,13.355c39.502,18.989,72.923,48.566,96.65,85.536c24.357,37.952,37.23,81.964,37.23,127.279
	c0,130.124-105.862,235.985-235.985,235.985S20.015,386.122,20.015,256S125.876,20.015,256,20.015
	c5.527,0,10.007-4.481,10.007-10.007S261.527,0,256,0C114.84,0,0,114.84,0,256s114.84,256,256,256s256-114.84,256-256
	C512,206.845,498.03,159.094,471.598,117.911z"/>
<path d="M321.125,179.855c0,5.527,4.481,10.007,10.007,10.007h37.421c4.531,19.135,21.76,33.417,42.26,33.417
	c23.944,0,43.424-19.481,43.424-43.424c0-5.527-4.481-10.007-10.007-10.007H331.133
	C325.606,169.847,321.125,174.328,321.125,179.855z M431.976,189.862c-3.759,7.916-11.831,13.402-21.161,13.402
	c-9.329,0-17.402-5.487-21.161-13.402H431.976z"/>
<path d="M150.2,179.855c0,5.527,4.481,10.007,10.007,10.007h37.421c4.531,19.135,21.76,33.417,42.26,33.417
	c23.944,0,43.424-19.481,43.424-43.424c0-5.527-4.481-10.007-10.007-10.007H160.207C154.68,169.847,150.2,174.328,150.2,179.855z
	 M261.049,189.862c-3.759,7.916-11.831,13.402-21.161,13.402c-9.33,0-17.402-5.487-21.161-13.402H261.049z"/>
<path d="M225.531,386.924c1.972,2.116,4.645,3.186,7.324,3.186c2.443,0,4.892-0.889,6.82-2.685
	c13.256-12.35,37.31-20.021,62.775-20.021c26.113,0,49.887,7.574,62.047,19.767c3.903,3.914,10.24,3.922,14.153,0.019
	c3.914-3.903,3.922-10.24,0.019-14.152c-16.016-16.06-44.509-25.648-76.219-25.648c-30.325,0-59.606,9.73-76.419,25.392
	C221.988,376.549,221.764,382.881,225.531,386.924z"/>
<circle cx="327.214" cy="21.695" r="10.007"/>
<g>
</g>
<g>
</g>
<g>
</g>
<g>
</g>
<g>
</g>
<g>
</g>
<g>
</g>
<g>
</g>
<g>
</g>
<g>
</g>
<g>
</g>
<g>
</g>
<g>
</g>
<g>
</g>
<g>
</g>
</svg>
