<?xml version="1.0" encoding="iso-8859-1"?>
<!-- Generator: Adobe Illustrator 19.0.0, SVG Export Plug-In . SVG Version: 6.00 Build 0)  -->
<svg version="1.1" id="Layer_1" xmlns="http://www.w3.org/2000/svg" xmlns:xlink="http://www.w3.org/1999/xlink" x="0px" y="0px"
	 viewBox="0 0 512.001 512.001" style="enable-background:new 0 0 512.001 512.001;" xml:space="preserve">
<circle style="fill:#FDDF6D;" cx="256.003" cy="225.626" r="216.806"/>
<path style="fill:#FCC56B;" d="M302.462,410.425c-119.739,0-216.805-97.067-216.805-216.805c0-63.972,27.712-121.464,71.78-161.148
	C87.246,68.359,39.195,141.38,39.195,225.625c0,119.739,97.067,216.805,216.805,216.805c55.767,0,106.61-21.062,145.025-55.656
	C371.455,401.894,337.955,410.425,302.462,410.425z"/>
<path style="fill:#7F184C;" d="M301.434,242.117L301.434,242.117c46.796,0,84.733,37.936,84.733,84.733v25.772H216.701V326.85
	C216.701,280.053,254.638,242.117,301.434,242.117z"/>
<path style="fill:#B5E589;" d="M301.434,280.951L301.434,280.951c-27.458,0-49.716,22.259-49.716,49.716v56.97v38.22v22.236
	c0,9.153,7.419,16.572,16.572,16.572l0,0c9.153,0,16.572-7.419,16.572-16.572v38.514c0,9.153,7.419,16.572,16.572,16.572
	c9.153,0,16.572-7.419,16.572-16.572v-23.814c0,9.153,7.419,16.572,16.572,16.572s16.572-7.419,16.572-16.572v-36.936v-23.52v-71.67
	C351.152,303.21,328.892,280.951,301.434,280.951z"/>
<g>
	<path style="fill:#8BC673;" d="M334.578,395.086c-16.366,0-16.572,7.242-16.572,7.242c-2.277,8.386-7.419,16.572-16.572,16.572
		c-9.153,0-16.572-7.419-16.572-16.572c0,0,2.775-21.942-16.572-21.942c-9.153,0-16.572-7.419-16.572-16.572v26.568v38.22v22.236
		c0,9.153,7.419,16.572,16.572,16.572c9.153,0,16.572-7.419,16.572-16.572v38.514c0,9.153,7.419,16.572,16.572,16.572
		c9.153,0,16.572-7.419,16.572-16.572v-23.814c0,9.153,7.419,16.572,16.572,16.572c9.153,0,16.572-7.419,16.572-16.572v-36.936
		v-23.52v-26.568C351.152,387.667,343.731,395.086,334.578,395.086z"/>
	<circle style="fill:#8BC673;" cx="315.414" cy="348.095" r="8.82"/>
	<circle style="fill:#8BC673;" cx="303.231" cy="384.809" r="8.82"/>
	<circle style="fill:#8BC673;" cx="278.97" cy="339.275" r="8.82"/>
</g>
<path d="M256.001,0C131.59,0,30.375,101.214,30.375,225.625c0,59.491,22.952,115.627,64.628,158.07
	c39.628,40.357,91.928,64.008,148.054,67.174c1.388,12.698,12.17,22.617,25.233,22.617c2.702,0,5.307-0.425,7.752-1.209v14.332
	c0,14,11.391,25.392,25.392,25.392c13.878,0,25.192-11.193,25.39-25.024c2.446,0.786,5.052,1.21,7.755,1.21
	c14.001,0,25.392-11.392,25.392-25.392V361.442h26.196c4.871,0,8.82-3.948,8.82-8.82V326.85c0-51.585-41.968-93.553-93.553-93.553
	s-93.553,41.968-93.553,93.553v25.772c0,4.872,3.949,8.82,8.82,8.82h26.196v71.752c-51.293-3.176-99.053-24.933-135.309-61.856
	c-38.416-39.125-59.574-90.871-59.574-145.712C48.015,110.942,141.316,17.64,256.001,17.64s207.985,93.302,207.985,207.985
	c0,50.263-18.168,98.781-51.158,136.619c-3.201,3.671-2.82,9.242,0.851,12.444c3.671,3.201,9.242,2.82,12.444-0.853
	c35.791-41.049,55.502-93.686,55.502-148.211C481.626,101.214,380.41,0,256.001,0z M342.332,462.794
	c0,4.275-3.479,7.752-7.752,7.752c-4.274,0-7.752-3.477-7.752-7.752c0-4.872-3.949-8.82-8.82-8.82s-8.82,3.948-8.82,8.82v23.814
	c0,4.275-3.479,7.752-7.752,7.752s-7.752-3.477-7.752-7.752v-38.514c0-4.872-3.949-8.82-8.82-8.82s-8.82,3.948-8.82,8.82
	c0,4.275-3.477,7.752-7.752,7.752c-4.275,0-7.752-3.477-7.752-7.752V330.667c0-22.551,18.347-40.896,40.896-40.896
	c22.55,0,40.896,18.347,40.896,40.896V462.794z M225.521,343.802V326.85c0-41.858,34.054-75.913,75.913-75.913
	s75.913,34.054,75.913,75.913v16.952H359.97v-13.134c0-32.276-26.26-58.536-58.536-58.536s-58.536,26.26-58.536,58.536v13.134
	H225.521z"/>
<path d="M265.791,160.042c-7.272,9.776-20.354,15.851-34.141,15.851c-14.13,0-27.037-5.979-33.688-15.602
	c-2.769-4.008-8.263-5.012-12.27-2.241c-4.007,2.768-5.011,8.263-2.241,12.27c9.895,14.319,28.364,23.213,48.199,23.213
	c19.256,0,37.76-8.799,48.296-22.964c2.907-3.908,2.094-9.433-1.813-12.34C274.221,155.321,268.697,156.133,265.791,160.042z"/>
<path d="M415.573,170.569c2.907-3.908,2.094-9.433-1.813-12.34c-3.909-2.908-9.434-2.096-12.341,1.813
	c-7.272,9.776-20.354,15.851-34.142,15.851c-14.128,0-27.037-5.979-33.688-15.602c-2.771-4.008-8.263-5.012-12.27-2.241
	s-5.011,8.263-2.241,12.27c9.896,14.319,28.365,23.213,48.199,23.213C386.533,193.532,405.037,184.734,415.573,170.569z"/>
<circle cx="394.982" cy="392.065" r="8.82"/>
<g>
</g>
<g>
</g>
<g>
</g>
<g>
</g>
<g>
</g>
<g>
</g>
<g>
</g>
<g>
</g>
<g>
</g>
<g>
</g>
<g>
</g>
<g>
</g>
<g>
</g>
<g>
</g>
<g>
</g>
</svg>
