<?xml version="1.0" encoding="iso-8859-1"?>
<!-- Generator: Adobe Illustrator 19.0.0, SVG Export Plug-In . SVG Version: 6.00 Build 0)  -->
<svg version="1.1" id="Layer_1" xmlns="http://www.w3.org/2000/svg" xmlns:xlink="http://www.w3.org/1999/xlink" x="0px" y="0px"
	 viewBox="0 0 484.8 484.8" style="enable-background:new 0 0 484.8 484.8;" xml:space="preserve">
<g>
	<path style="fill:#F7910B;" d="M484.8,283.2c0,104-95.2,188-242.4,188S0,387.2,0,283.2s95.2-260,242.4-260S484.8,179.2,484.8,283.2
		z"/>
	<path style="fill:#F7910B;" d="M484.8,283.2c0,104-95.2,156-242.4,156S0,387.2,0,283.2s95.2-276,242.4-276S484.8,179.2,484.8,283.2
		z"/>
</g>
<g>
	<path style="fill:#F9A908;" d="M242.4,7.2c147.2,0,242.4,172,242.4,276s-95.2,156-242.4,156"/>
	<path style="fill:#F9A908;" d="M484.8,283.2c0,104-95.2,156-242.4,156S0,387.2,0,283.2s95.2-260,242.4-260S484.8,179.2,484.8,283.2
		z"/>
</g>
<path style="fill:#F9C55D;" d="M0,283.2c0-104,95.2-260,242.4-260"/>
<path style="fill:#F7910B;" d="M242.4,23.2c147.2,0,242.4,156,242.4,260s-95.2,188-242.4,188"/>
<path style="fill:#EA7103;" d="M242.4,23.2c147.2,0,242.4,156,242.4,260"/>
<path style="fill:#19BCA4;" d="M193.6,75.2c1.6,6.4-10.4,6.4-24,10.4s-24,10.4-26.4,4c-1.6-6.4,8-15.2,21.6-19.2
	C179.2,66.4,192,68.8,193.6,75.2z"/>
<path style="fill:#109DA0;" d="M193.6,75.2c1.6,6.4-10.4,6.4-24,10.4s-24,10.4-26.4,4"/>
<path style="fill:#19BCA4;" d="M291.2,118.4c1.6,6.4,12,0.8,26.4-3.2c14.4-3.2,26.4-3.2,24.8-9.6S328,96,313.6,100
	C299.2,103.2,289.6,111.2,291.2,118.4z"/>
<path style="fill:#109DA0;" d="M291.2,118.4c1.6,6.4,12,0.8,26.4-3.2c14.4-3.2,26.4-3.2,24.8-9.6"/>
<g>
	<circle style="fill:#F7910B;" cx="68.8" cy="259.2" r="4.8"/>
	<circle style="fill:#F7910B;" cx="32.8" cy="275.2" r="8.8"/>
	<circle style="fill:#F7910B;" cx="56.8" cy="243.2" r="1.6"/>
	<circle style="fill:#F7910B;" cx="93.6" cy="257.6" r="1.6"/>
</g>
<g>
	<circle style="fill:#F9A908;" cx="407.2" cy="262.4" r="6.4"/>
	<circle style="fill:#F9A908;" cx="427.2" cy="272.8" r="1.6"/>
	<circle style="fill:#F9A908;" cx="384.8" cy="202.4" r="2.4"/>
	<circle style="fill:#F9A908;" cx="380.8" cy="295.2" r="10.4"/>
	<circle style="fill:#F9A908;" cx="438.4" cy="296" r="4.8"/>
</g>
<g>
	<circle style="fill:#F7910B;" cx="60.8" cy="291.2" r="4"/>
	<circle style="fill:#F7910B;" cx="67.2" cy="224" r="3.2"/>
</g>
<g>
	<circle style="fill:#F9A908;" cx="24.8" cy="114.4" r="8.8"/>
	<circle style="fill:#F9A908;" cx="50.4" cy="85.6" r="4.8"/>
	<circle style="fill:#F9A908;" cx="460" cy="132.8" r="1.6"/>
</g>
<circle style="fill:#D87703;" cx="320.8" cy="188.8" r="28"/>
<circle style="fill:#1E4784;" cx="320.8" cy="180.8" r="28"/>
<path style="fill:#00233F;" d="M320.8,152.8c15.2,0,28,12.8,28,28s-12.8,28-28,28"/>
<circle style="fill:#D87703;" cx="161.6" cy="188.8" r="28"/>
<circle style="fill:#1E4784;" cx="161.6" cy="180.8" r="28"/>
<path style="fill:#00233F;" d="M161.6,152.8c15.2,0,28,12.8,28,28s-12.8,28-28,28"/>
<g>
	<circle style="fill:#F9A908;" cx="453.6" cy="109.6" r="6.4"/>
	<path style="fill:#F9A908;" d="M478.4,114.4c0,2.4-1.6,4-4,4s-4-1.6-4-4c0-2.4,1.6-4,4-4C476,110.4,478.4,112,478.4,114.4z"/>
	<circle style="fill:#F9A908;" cx="34.4" cy="137.6" r="4.8"/>
</g>
<path style="fill:#F9C55D;" d="M208.8,229.6c0,9.6-28,5.6-62.4,5.6S84,240,84,229.6c0-9.6,28-17.6,62.4-17.6
	C180.8,212,208.8,220,208.8,229.6z"/>
<path style="fill:#F9A908;" d="M400.8,229.6c0,9.6-28,5.6-62.4,5.6S276,240,276,229.6c0-9.6,28-17.6,62.4-17.6
	S400.8,220,400.8,229.6z"/>
<path style="fill:#F7910B;" d="M357.6,352c0,20.8-26.4,58.4-59.2,58.4s-59.2-37.6-59.2-58.4"/>
<path style="fill:#02243E;" d="M312,376c-3.2,0-6.4-1.6-8-4.8c-2.4-4.8,0-9.6,4-12c19.2-8.8,26.4-16.8,26.4-20.8
	c0-4.8-8-10.4-12.8-12.8c-3.2-1.6-4.8-4-4.8-7.2s0.8-6.4,3.2-8c7.2-5.6,9.6-10.4,8.8-12c-0.8-4.8-12.8-10.4-21.6-12.8
	c-4.8-0.8-8-5.6-6.4-10.4c0.8-4.8,5.6-8,10.4-6.4c4.8,0.8,30.4,8,34.4,25.6c1.6,7.2-0.8,14.4-6.4,21.6c6.4,4.8,12.8,12,12.8,21.6
	c0,13.6-12,25.6-36,36.8C314.4,376,313.6,376,312,376z"/>
<polygon style="fill:#6965A8;" points="204.8,303.2 156,313.6 156,300.8 204.8,290.4 "/>
<polygon style="fill:#4C4C8C;" points="156.8,304 156.8,387.2 168,387.2 168,301.6 "/>
<g>
	<polygon style="fill:#6965A8;" points="143.2,411.2 126.4,394.4 157.6,363.2 168,386.4 	"/>
	<polygon style="fill:#6965A8;" points="240.8,343.2 192,353.6 192,340.8 240.8,330.4 	"/>
</g>
<polygon style="fill:#4C4C8C;" points="192.8,344 192.8,427.2 204,427.2 204,341.6 "/>
<g>
	<polygon style="fill:#6965A8;" points="179.2,451.2 162.4,434.4 193.6,403.2 204,426.4 	"/>
	<polygon style="fill:#6965A8;" points="482.4,330.4 416.8,344.8 416.8,326.4 482.4,312.8 	"/>
</g>
<polygon style="fill:#4C4C8C;" points="416.8,331.2 416.8,444 432.8,444 432.8,328 "/>
<polygon style="fill:#6965A8;" points="399.2,477.6 376,454.4 418.4,412 432.8,444 "/>
<g>
</g>
<g>
</g>
<g>
</g>
<g>
</g>
<g>
</g>
<g>
</g>
<g>
</g>
<g>
</g>
<g>
</g>
<g>
</g>
<g>
</g>
<g>
</g>
<g>
</g>
<g>
</g>
<g>
</g>
</svg>
