<?xml version="1.0" encoding="iso-8859-1"?>
<!-- Generator: Adobe Illustrator 19.0.0, SVG Export Plug-In . SVG Version: 6.00 Build 0)  -->
<svg version="1.1" id="Layer_1" xmlns="http://www.w3.org/2000/svg" xmlns:xlink="http://www.w3.org/1999/xlink" x="0px" y="0px"
	 viewBox="0 0 484.8 484.8" style="enable-background:new 0 0 484.8 484.8;" xml:space="preserve">
<g>
	<path style="fill:#F7910B;" d="M484.8,291.2c0,104-95.2,188-242.4,188S0,395.2,0,291.2s95.2-260,242.4-260S484.8,187.2,484.8,291.2
		z"/>
	<path style="fill:#F7910B;" d="M484.8,291.2c0,104-95.2,156-242.4,156S0,395.2,0,291.2s95.2-276,242.4-276S484.8,187.2,484.8,291.2
		z"/>
</g>
<g>
	<path style="fill:#F9A908;" d="M242.4,15.2c147.2,0,242.4,172,242.4,276s-95.2,156-242.4,156"/>
	<path style="fill:#F9A908;" d="M484.8,291.2c0,104-95.2,156-242.4,156S0,395.2,0,291.2s95.2-260,242.4-260S484.8,187.2,484.8,291.2
		z"/>
</g>
<path style="fill:#F9C55D;" d="M0,291.2c0-104,95.2-260,242.4-260"/>
<path style="fill:#F7910B;" d="M242.4,31.2c147.2,0,242.4,156,242.4,260s-95.2,188-242.4,188"/>
<path style="fill:#EA7103;" d="M242.4,31.2c147.2,0,242.4,156,242.4,260"/>
<path style="fill:#F9C55D;" d="M208.8,226.4c0,9.6-28,5.6-62.4,5.6S84,236.8,84,226.4c0-9.6,28-17.6,62.4-17.6
	S208.8,216.8,208.8,226.4z"/>
<path style="fill:#F9A908;" d="M400.8,226.4c0,9.6-28,5.6-62.4,5.6s-62.4,4.8-62.4-5.6c0-9.6,28-17.6,62.4-17.6
	S400.8,216.8,400.8,226.4z"/>
<g>
	<circle style="fill:#F7910B;" cx="68.8" cy="266.4" r="4.8"/>
	<circle style="fill:#F7910B;" cx="32.8" cy="282.4" r="8.8"/>
	<circle style="fill:#F7910B;" cx="56.8" cy="250.4" r="1.6"/>
	<circle style="fill:#F7910B;" cx="93.6" cy="265.6" r="1.6"/>
</g>
<g>
	<circle style="fill:#F9A908;" cx="407.2" cy="269.6" r="6.4"/>
	<circle style="fill:#F9A908;" cx="427.2" cy="280.8" r="1.6"/>
	<circle style="fill:#F9A908;" cx="384.8" cy="210.4" r="2.4"/>
	<circle style="fill:#F9A908;" cx="380.8" cy="303.2" r="10.4"/>
	<circle style="fill:#F9A908;" cx="438.4" cy="304" r="4.8"/>
</g>
<g>
	<circle style="fill:#F7910B;" cx="60.8" cy="299.2" r="4"/>
	<circle style="fill:#F7910B;" cx="67.2" cy="232" r="3.2"/>
</g>
<g>
	<circle style="fill:#F9A908;" cx="24.8" cy="121.6" r="8.8"/>
	<circle style="fill:#F9A908;" cx="50.4" cy="93.6" r="4.8"/>
	<circle style="fill:#F9A908;" cx="460" cy="140.8" r="1.6"/>
	<circle style="fill:#F9A908;" cx="453.6" cy="117.6" r="6.4"/>
	<circle style="fill:#F9A908;" cx="474.4" cy="121.6" r="4"/>
	<circle style="fill:#F9A908;" cx="34.4" cy="145.6" r="4.8"/>
</g>
<path style="fill:#1E4784;" d="M120,173.6c3.2,0,6.4,1.6,9.6,4c11.2,11.2,29.6,11.2,40.8,0c4.8-4.8,13.6-5.6,18.4,0
	c4.8,4.8,5.6,13.6,0,18.4c-21.6,21.6-56.8,21.6-78.4,0c-4.8-4.8-4.8-13.6,0-18.4C113.6,175.2,116.8,173.6,120,173.6z"/>
<path style="fill:#02243E;" d="M111.2,196c-4.8-4.8-4.8-13.6,0-18.4c2.4-2.4,5.6-4,9.6-4c3.2,0,6.4,1.6,9.6,4
	c11.2,11.2,29.6,11.2,40.8,0c4.8-4.8,13.6-5.6,18.4,0c4.8,4.8,5.6,13.6,0,18.4"/>
<path style="fill:#1E4784;" d="M364.8,173.6c-3.2,0-6.4,1.6-9.6,4c-11.2,11.2-29.6,11.2-40.8,0c-4.8-4.8-13.6-5.6-18.4,0
	c-4.8,4.8-5.6,13.6,0,18.4c21.6,21.6,56.8,21.6,78.4,0c4.8-4.8,4.8-13.6,0-18.4C371.2,175.2,368,173.6,364.8,173.6z"/>
<path style="fill:#02243E;" d="M373.6,196c4.8-4.8,4.8-13.6,0-18.4c-2.4-2.4-5.6-4-9.6-4c-3.2,0-6.4,1.6-9.6,4
	c-11.2,11.2-29.6,11.2-40.8,0c-4.8-4.8-13.6-5.6-18.4,0c-4.8,4.8-5.6,13.6,0,18.4"/>
<path style="fill:#1E4784;" d="M242.4,15.2C95.2,15.2,0,187.2,0,291.2s95.2,188,242.4,188s242.4-84,242.4-188S389.6,15.2,242.4,15.2
	z M80,198.4c0-32,32.8-57.6,72.8-57.6s72.8,25.6,72.8,57.6s-32.8,28.8-72.8,28.8S80,230.4,80,198.4z M242.4,421.6
	c-56.8,0-103.2-44.8-103.2-100s46.4-60.8,103.2-60.8s103.2,5.6,103.2,60.8S299.2,421.6,242.4,421.6z M332,227.2
	c-40,0-72.8,3.2-72.8-28.8s32.8-57.6,72.8-57.6s72.8,25.6,72.8,57.6S372,227.2,332,227.2z"/>
<path style="fill:#00233F;" d="M241.6,15.2c-48,0-89.6,19.2-127.2,48V148c16-4.8,24-8,37.6-8c40,0,72.8,25.6,72.8,57.6
	s-33.6,28.8-73.6,28.8c-13.6,0-21.6,0-37.6,0v226.4c40,17.6,79.2,25.6,127.2,25.6c147.2,0,242.4-84,242.4-188S388.8,15.2,241.6,15.2
	z M242.4,421.6c-56.8,0-103.2-44.8-103.2-100s46.4-60.8,103.2-60.8s103.2,5.6,103.2,60.8S299.2,421.6,242.4,421.6z M332,227.2
	c-40,0-72.8,3.2-72.8-28.8s32.8-57.6,72.8-57.6s72.8,25.6,72.8,57.6S372,227.2,332,227.2z"/>
<ellipse transform="matrix(-0.3322 -0.9432 0.9432 -0.3322 -164.2433 414.9646)" style="fill:#2B63A5;" cx="64.777" cy="265.625" rx="21.6" ry="38.4"/>
<polygon style="fill:#F9A908;" points="49.6,5.6 61.6,29.6 88,33.6 68.8,52 72.8,77.6 49.6,65.6 26.4,77.6 30.4,52 12,33.6 
	37.6,29.6 "/>
<g>
	<polygon style="fill:#AAD6C3;" points="116.8,67.2 128.8,91.2 155.2,95.2 136,113.6 140.8,139.2 116.8,127.2 93.6,139.2 
		98.4,113.6 79.2,95.2 105.6,91.2 	"/>
	<polygon style="fill:#AAD6C3;" points="349.6,112.8 375.2,121.6 396,105.6 396,132 417.6,147.2 392,155.2 384,180.8 368.8,159.2 
		342.4,159.2 358.4,138.4 	"/>
</g>
<g>
	<polygon style="fill:#F7910B;" points="408.8,320 433.6,328 455.2,312.8 454.4,339.2 476,354.4 451.2,362.4 443.2,387.2 428,365.6 
		400.8,366.4 416.8,344.8 	"/>
	<path style="fill:#F7910B;" d="M301.6,309.6c0,20.8-26.4,37.6-59.2,37.6s-59.2-16.8-59.2-37.6"/>
</g>
<path style="fill:#02243E;" d="M298.4,314.4h-112c-4.8,0-8-3.2-8-8s3.2-8,8-8h112c4.8,0,8,3.2,8,8S303.2,314.4,298.4,314.4z"/>
<g>
</g>
<g>
</g>
<g>
</g>
<g>
</g>
<g>
</g>
<g>
</g>
<g>
</g>
<g>
</g>
<g>
</g>
<g>
</g>
<g>
</g>
<g>
</g>
<g>
</g>
<g>
</g>
<g>
</g>
</svg>
