<?xml version="1.0" encoding="UTF-8"?>
<svg width="128px" height="128px" viewBox="0 0 128 128" version="1.1" xmlns="http://www.w3.org/2000/svg" xmlns:xlink="http://www.w3.org/1999/xlink">
    <!-- Generator: Sketch 3.8.3 (29802) - http://www.bohemiancoding.com/sketch -->
    <title>addressicon</title>
    <desc>Created with Sketch.</desc>
    <defs></defs>
    <g id="Page-1" stroke="none" stroke-width="1" fill="none" fill-rule="evenodd">
        <path d="M64.1466095,35.7553915 C63.3432068,35.6738427 62.4878354,35.9835611 61.7480986,36.7125644 L32.8456514,65.1956388 C31.272237,66.7462231 30,69.7909561 30,72.0002124 L30,97.9997876 C30,100.207968 31.793679,102 34.0062943,102 L48.9937057,102 C51.2143671,102 53,100.209968 53,98.0018526 L53,74.7050781 L75,74.7050781 L75,98.0045299 C75,100.218294 76.793679,102 79.0062943,102 L93.9937057,102 C96.2143671,102 98,100.209044 98,97.9997876 L98,72.0002124 C98,69.7920319 96.7165104,66.7475314 95.1332458,65.2025331 L65.8355042,36.6128965 C65.0503496,35.8467185 64.4623652,35.5748334 64.1466095,35.7553915 Z M65.6318589,15.916518 L65.4870047,15.7523609 C64.386001,14.504641 62.5564328,14.4565395 61.3978015,15.6418086 L22.0978875,55.8452585 C20.9387303,57.0310656 20.9493103,58.9406883 22.1203439,60.1117219 L25.3839671,63.3753451 C26.5538848,64.5452628 28.4567498,64.5432502 29.6316426,63.3683574 L63.5761293,29.4238707 L98.2481824,63.3167011 C99.4339895,64.4758583 101.343612,64.4652783 102.514646,63.2942447 L105.778269,60.0306215 C106.948187,58.8607038 106.946174,56.9578388 105.771281,55.782946 L66.5302555,16.5419202 C66.264737,16.2764017 65.9595756,16.0677966 65.6318589,15.916518 Z M64,128 C99.346224,128 128,99.346224 128,64 C128,28.653776 99.346224,0 64,0 C28.653776,0 0,28.653776 0,64 C0,99.346224 28.653776,128 64,128 Z" id="addressicon" fill="#90949C"></path>
    </g>
</svg>