<?xml version="1.0" encoding="UTF-8"?>
<svg width="225px" height="170px" viewBox="0 0 225 170" version="1.1" xmlns="http://www.w3.org/2000/svg" xmlns:xlink="http://www.w3.org/1999/xlink">
    <!-- Generator: Sketch 3.8.3 (29802) - http://www.bohemiancoding.com/sketch -->
    <title>Slice 5</title>
    <desc>Created with Sketch.</desc>
    <defs></defs>
    <g id="Page-1" stroke="none" stroke-width="1" fill="none" fill-rule="evenodd" opacity="0.8">
        <g id="camera" fill="#FFFFFF">
            <path d="M18.442623,58.5417092 C18.442623,46.3945748 28.2935428,36.5473768 40.4466482,36.5473768 L63.2046903,36.5473768 C63.2046903,36.5473768 74.5674509,14.1571791 82.8884224,14.1571791 C91.2093938,14.157179 132.233594,14.157179 140.778305,14.1571791 C149.323016,14.1571791 164.533737,36.5473768 164.533737,36.5473768 L184.630822,36.5473768 C196.785793,36.5473768 206.639344,46.3938311 206.639344,58.5417092 L206.639344,134.563639 C206.639344,146.710773 196.786046,156.557971 184.636253,156.557971 L40.4457146,156.557971 C28.2937426,156.557971 18.442623,146.711517 18.442623,134.563639 L18.442623,58.5417092 Z M180.016393,72.3188406 C185.086549,72.3188406 189.196721,68.2634488 189.196721,63.2608696 C189.196721,58.2582903 185.086549,54.2028986 180.016393,54.2028986 C174.946238,54.2028986 170.836066,58.2582903 170.836066,63.2608696 C170.836066,68.2634488 174.946238,72.3188406 180.016393,72.3188406 Z M113.918033,139.347826 C139.268808,139.347826 159.819672,119.070867 159.819672,94.057971 C159.819672,69.0450747 139.268808,48.7681159 113.918033,48.7681159 C88.5672574,48.7681159 68.0163934,69.0450747 68.0163934,94.057971 C68.0163934,119.070867 88.5672574,139.347826 113.918033,139.347826 Z" id="Combined-Shape"></path>
            <ellipse id="Oval-31" cx="113.459016" cy="94.5108696" rx="33.5081967" ry="33.0615942"></ellipse>
        </g>
    </g>
</svg>