<?xml version="1.0" encoding="UTF-8"?>
<svg width="100px" height="78px" viewBox="0 0 100 78" version="1.1" xmlns="http://www.w3.org/2000/svg" xmlns:xlink="http://www.w3.org/1999/xlink">
    <!-- Generator: Sketch 44.1 (41455) - http://www.bohemiancoding.com/sketch -->
    <title>technology</title>
    <desc>Created with Sketch.</desc>
    <defs></defs>
    <g id="Page-1" stroke="none" stroke-width="1" fill="none" fill-rule="evenodd">
        <path d="M94.924406,14.741965 L93.0885529,14.741965 L93.0885529,10.9412427 C93.0885529,8.97246863 91.5868251,7.37086731 89.7408207,7.37086731 L79.3736501,7.37086731 C77.5276458,7.37086731 76.0259179,8.97246863 76.0259179,10.9412427 L76.0259179,14.741965 L68.0207343,14.741965 L67.1539957,8.85084551 C67.1533477,8.84646893 67.1526998,8.84232268 67.1520518,8.83817644 L67.1509719,8.830575 C67.1485961,8.81491141 67.1449244,8.80016922 67.1421166,8.78473598 C67.1295896,8.71171605 67.112527,8.63938715 67.0909287,8.56797964 C67.0868251,8.55415883 67.0835853,8.53987733 67.0790497,8.52605652 C67.0723542,8.50555566 67.0637149,8.48551549 67.0561555,8.46524497 C67.0447084,8.4343785 67.0336933,8.40328168 67.0207343,8.37356694 C67.012959,8.35536954 67.0036717,8.33786319 66.9952484,8.31989614 C66.9801296,8.28810828 66.9647948,8.25655077 66.9479482,8.22591464 C66.9388769,8.20932967 66.9289417,8.19343574 66.9192225,8.17708112 C66.9006479,8.14575395 66.8814255,8.11488748 66.8611231,8.08517275 C66.8559395,8.0775713 66.8518359,8.06950916 66.8466523,8.06213807 L61.663067,0.691040406 C61.3572354,0.255915297 60.8768898,0 60.3671706,0 L39.6328294,0 C39.1231102,0 38.6427646,0.255915297 38.336933,0.691040406 L33.1533477,8.06213807 C33.1481641,8.06950916 33.1438445,8.0775713 33.1388769,8.08517275 C33.1185745,8.11511783 33.0993521,8.14575395 33.0807775,8.17708112 C33.0710583,8.19343574 33.0611231,8.20956002 33.0520518,8.22614499 C33.0352052,8.25678111 33.0200864,8.28810828 33.0049676,8.31989614 C32.9963283,8.33786319 32.987041,8.35559989 32.9792657,8.37379729 C32.9663067,8.40374237 32.9550756,8.43460884 32.9438445,8.46547532 C32.9362851,8.48574583 32.9276458,8.50578601 32.9209503,8.52628687 C32.9164147,8.53987733 32.9133909,8.55438918 32.9090713,8.56820999 C32.887473,8.6396175 32.8706263,8.71194639 32.8578834,8.78496633 C32.8552916,8.80039957 32.8514039,8.81537211 32.8490281,8.83080534 L32.8479482,8.83840679 C32.8473002,8.84255303 32.8466523,8.84669927 32.8460043,8.85107586 L31.9792657,14.741965 L29.1576674,14.741965 L29.1576674,10.9412427 C29.1576674,8.97246863 27.6559395,7.37086731 25.8099352,7.37086731 L18.8984881,7.37086731 C17.0524838,7.37086731 15.5507559,8.97246863 15.5507559,10.9412427 L15.5507559,14.741965 L13.6069114,14.741965 L13.6069114,12.7840172 C13.6069114,10.815243 12.1051836,9.21364173 10.2591793,9.21364173 L6.80345572,9.21364173 C4.9574514,9.21364173 3.45572354,10.815243 3.45572354,12.7840172 L3.45572354,15.0262129 C1.44924406,15.7490412 0,17.7742503 0,20.1551148 L0,71.7527984 C0,74.7376323 2.27688985,77.1659483 5.07559395,77.1659483 L39.6323974,77.1659483 L39.6328294,77.1659483 L62.2019438,77.1659483 L94.924406,77.1659483 C97.7231102,77.1659483 100,74.7376323 100,71.7527984 L100,20.1551148 C100,17.170281 97.7231102,14.741965 94.924406,14.741965 L94.924406,14.741965 L94.924406,14.741965 L94.924406,14.741965 L94.924406,14.741965 Z M3.23974082,36.6249111 L15.8172786,36.6249111 C16.4950324,38.7648329 18.3939525,40.31046 20.6263499,40.31046 C22.8587473,40.31046 24.7576674,38.7648329 25.4354212,36.6249111 L28.7593952,36.6249111 L28.4006479,39.0633624 C28.0663067,41.3345819 27.8967603,43.6527921 27.8967603,45.9539566 C27.8967603,48.2548908 28.0663067,50.5733314 28.4006479,52.8445509 L30.3861771,66.3396486 L3.23974082,66.3396486 L3.23974082,36.6249111 L3.23974082,36.6249111 L3.23974082,36.6249111 L3.23974082,36.6249111 L3.23974082,36.6249111 Z M18.7904968,34.8973101 C18.7904968,33.8176747 19.6140389,32.9393623 20.6263499,32.9393623 C21.6386609,32.9393623 22.462203,33.8176747 22.462203,34.8973101 C22.462203,35.9769456 21.6386609,36.855258 20.6263499,36.855258 C19.6140389,36.855258 18.7904968,35.9769456 18.7904968,34.8973101 L18.7904968,34.8973101 L18.7904968,34.8973101 L18.7904968,34.8973101 L18.7904968,34.8973101 Z M35.8347732,10.8260693 L64.1652268,10.8260693 L67.2043197,31.4801153 C63.1861771,26.0589033 56.9676026,22.5737562 50,22.5737562 C43.0323974,22.5737562 36.8138229,26.0589033 32.7956803,31.4801153 L35.8347732,10.8260693 L35.8347732,10.8260693 L35.8347732,10.8260693 L35.8347732,10.8260693 L35.8347732,10.8260693 Z M31.3174946,45.9539566 C31.3174946,34.9673356 39.6984881,26.0289583 50,26.0289583 C60.3015119,26.0289583 68.6825054,34.9673356 68.6825054,45.9539566 C68.6825054,56.9405777 60.3015119,65.878955 50,65.878955 C39.6984881,65.878955 31.3174946,56.9405777 31.3174946,45.9539566 L31.3174946,45.9539566 L31.3174946,45.9539566 L31.3174946,45.9539566 L31.3174946,45.9539566 Z M71.599568,52.8445509 C71.9339093,50.5733314 72.1034557,48.2551212 72.1034557,45.9539566 C72.1034557,43.6530224 71.9339093,41.3345819 71.599568,39.0633624 L71.2406048,36.6249111 L96.7602592,36.6249111 L96.7602592,66.3396486 L69.6138229,66.3396486 L71.599568,52.8445509 L71.599568,52.8445509 L71.599568,52.8445509 L71.599568,52.8445509 L71.599568,52.8445509 Z M79.2656587,10.9412427 C79.2656587,10.877667 79.3142549,10.8260693 79.3736501,10.8260693 L89.7408207,10.8260693 C89.800216,10.8260693 89.8488121,10.877667 89.8488121,10.9412427 L89.8488121,14.741965 L79.2656587,14.741965 L79.2656587,10.9412427 L79.2656587,10.9412427 L79.2656587,10.9412427 L79.2656587,10.9412427 L79.2656587,10.9412427 Z M94.924406,18.197167 C95.9367171,18.197167 96.7602592,19.0754794 96.7602592,20.1551148 L96.7602592,33.1697091 L70.7323974,33.1697091 L68.5293737,18.197167 L94.924406,18.197167 L94.924406,18.197167 L94.924406,18.197167 L94.924406,18.197167 L94.924406,18.197167 Z M40.4427646,3.45497168 L59.5572354,3.45497168 L62.3110151,7.37086731 L37.6889849,7.37086731 L40.4427646,3.45497168 L40.4427646,3.45497168 L40.4427646,3.45497168 L40.4427646,3.45497168 L40.4427646,3.45497168 Z M18.7904968,10.9412427 C18.7904968,10.877667 18.8390929,10.8260693 18.8984881,10.8260693 L25.8099352,10.8260693 C25.8693305,10.8260693 25.9179266,10.877667 25.9179266,10.9412427 L25.9179266,14.741965 L18.7904968,14.741965 L18.7904968,10.9412427 L18.7904968,10.9412427 L18.7904968,10.9412427 L18.7904968,10.9412427 L18.7904968,10.9412427 Z M6.80345572,12.6688438 L10.2591793,12.6688438 C10.3185745,12.6688438 10.3671706,12.7204414 10.3671706,12.7840172 L10.3671706,14.741965 L6.69546436,14.741965 L6.69546436,12.7840172 C6.69546436,12.7204414 6.74406048,12.6688438 6.80345572,12.6688438 L6.80345572,12.6688438 L6.80345572,12.6688438 L6.80345572,12.6688438 L6.80345572,12.6688438 Z M5.07559395,18.197167 L31.4708423,18.197167 L29.2678186,33.1697091 L25.4354212,33.1697091 C24.7576674,31.0297873 22.8587473,29.4841603 20.6263499,29.4841603 C18.3939525,29.4841603 16.4950324,31.0297873 15.8172786,33.1697091 L3.23974082,33.1697091 L3.23974082,20.1551148 C3.23974082,19.0754794 4.06328294,18.197167 5.07559395,18.197167 L5.07559395,18.197167 L5.07559395,18.197167 L5.07559395,18.197167 L5.07559395,18.197167 Z M3.23974082,71.7527984 L3.23974082,69.7948506 L30.8946004,69.7948506 L31.0768898,71.0343468 C31.2205184,72.0114779 31.5395248,72.9144374 31.9952484,73.7107462 L5.07559395,73.7107462 C4.06328294,73.7107462 3.23974082,72.8324339 3.23974082,71.7527984 L3.23974082,71.7527984 L3.23974082,71.7527984 L3.23974082,71.7527984 L3.23974082,71.7527984 Z M39.6332613,73.7107462 L37.7974082,73.7102856 C36.0313175,73.7098249 34.5511879,72.3593016 34.2775378,70.4987904 L32.7956803,60.4277979 C36.8138229,65.8490099 43.0323974,69.334157 50,69.334157 C56.9676026,69.334157 63.1861771,65.8490099 67.2043197,60.4277979 L65.7224622,70.4992511 C65.4485961,72.3599926 63.9680346,73.7105159 62.2019438,73.7107462 L39.6332613,73.7107462 L39.6332613,73.7107462 L39.6332613,73.7107462 L39.6332613,73.7107462 L39.6332613,73.7107462 Z M94.924406,73.7107462 L68.0047516,73.7107462 C68.4604752,72.9144374 68.7792657,72.0119386 68.9228942,71.0348075 L69.1053996,69.7948506 L96.7602592,69.7948506 L96.7602592,71.7527984 C96.7602592,72.8324339 95.9367171,73.7107462 94.924406,73.7107462 L94.924406,73.7107462 L94.924406,73.7107462 L94.924406,73.7107462 Z M50,62.423753 C58.5151188,62.423753 65.4427646,55.0353793 65.4427646,45.9539566 C65.4427646,36.872534 58.5151188,29.4841603 50,29.4841603 C41.4848812,29.4841603 34.5572354,36.872534 34.5572354,45.9539566 C34.5572354,55.0353793 41.4848812,62.423753 50,62.423753 L50,62.423753 L50,62.423753 L50,62.423753 Z M50,32.9393623 C56.7287257,32.9393623 62.2030238,38.7777324 62.2030238,45.9539566 C62.2030238,53.1301809 56.7287257,58.9685509 50,58.9685509 C43.2712743,58.9685509 37.7969762,53.1301809 37.7969762,45.9539566 C37.7969762,38.7777324 43.2712743,32.9393623 50,32.9393623 L50,32.9393623 L50,32.9393623 L50,32.9393623 Z M50,53.2098809 C53.7514039,53.2098809 56.8034557,49.9548502 56.8034557,45.9539566 C56.8034557,41.953063 53.7514039,38.6980324 50,38.6980324 C46.2485961,38.6980324 43.1965443,41.953063 43.1965443,45.9539566 C43.1965443,49.9548502 46.2485961,53.2098809 50,53.2098809 L50,53.2098809 L50,53.2098809 L50,53.2098809 Z M50,42.1532344 C51.9650108,42.1532344 53.5637149,43.8582614 53.5637149,45.9539566 C53.5637149,48.0496518 51.9650108,49.7546789 50,49.7546789 C48.0349892,49.7546789 46.4362851,48.0496518 46.4362851,45.9539566 C46.4362851,43.8582614 48.0349892,42.1532344 50,42.1532344 L50,42.1532344 L50,42.1532344 L50,42.1532344 Z" id="technology" fill="#FFFFFF"></path>
    </g>
</svg>