<?xml version="1.0" encoding="UTF-8"?>
<svg width="129px" height="129px" viewBox="0 0 129 129" version="1.1" xmlns="http://www.w3.org/2000/svg" xmlns:xlink="http://www.w3.org/1999/xlink">
    <!-- Generator: Sketch 3.8.3 (29802) - http://www.bohemiancoding.com/sketch -->
    <title>categoryicon</title>
    <desc>Created with Sketch.</desc>
    <defs></defs>
    <g id="Page-1" stroke="none" stroke-width="1" fill="none" fill-rule="evenodd">
        <path d="M67.1113715,4.70472301 C69.0516825,2.7425189 72.8574927,1.00582583 75.6165942,0.857483152 L118.314553,3.90238804 C120.669976,5.29816779 123.92405,8.20657558 125.108731,10.7035819 L128.095026,53.3359136 C127.928467,56.088916 126.217481,59.8966283 124.260379,61.8537297 L59.0890316,127.025078 C57.1377741,128.976336 53.7749778,129.18994 51.6013637,127.505965 L29.6829772,109.557334 C27.6760678,107.674556 24.4987209,104.54573 22.6283658,102.514962 L1.89717568,77.6901556 C0.182451509,75.5386821 0.359514674,72.2097641 2.30563663,70.2416833 L67.1113715,4.70472301 Z M62.5247017,39.6961635 C64.4796223,37.7412429 67.6531941,37.7452622 69.6008327,39.6929008 L90.2285464,60.3206145 C92.1816651,62.2737332 92.1818829,65.4401463 90.2252837,67.3967455 L60.73485,96.8871792 C58.7799295,98.8420997 55.6063577,98.8380804 53.6587191,96.8904419 L33.0310053,76.2627281 C31.0778867,74.3096094 31.0776688,71.1431963 33.034268,69.1865971 L62.5247017,39.6961635 Z M102.512855,36.2516792 C107.362191,36.2516792 111.293355,32.0928117 111.293355,26.9625887 C111.293355,21.8323657 107.362191,17.6734983 102.512855,17.6734983 C97.6635186,17.6734983 93.7323548,21.8323657 93.7323548,26.9625887 C93.7323548,32.0928117 97.6635186,36.2516792 102.512855,36.2516792 Z" id="categoryicon" fill="#90949C"></path>
    </g>
</svg>