<?xml version="1.0" encoding="UTF-8"?>
<svg width="149px" height="150px" viewBox="0 0 149 150" version="1.1" xmlns="http://www.w3.org/2000/svg" xmlns:xlink="http://www.w3.org/1999/xlink">
    <!-- Generator: Sketch 3.8.3 (29802) - http://www.bohemiancoding.com/sketch -->
    <title>closesettingicon</title>
    <desc>Created with Sketch.</desc>
    <defs></defs>
    <g id="Page-1" stroke="none" stroke-width="1" fill="none" fill-rule="evenodd">
        <path d="M74.5,55.2010101 L23.937123,4.63813311 C18.476277,-0.822712922 9.61021536,-0.824464812 4.14287527,4.64287527 C-1.32566693,10.1114175 -1.32658795,18.9724019 4.13813311,24.437123 L54.7010101,75 L4.13813311,125.562877 C-1.32271292,131.023723 -1.32446481,139.889785 4.14287527,145.357125 C9.61141747,150.825667 18.4724019,150.826588 23.937123,145.361867 L74.5,94.7989899 L125.062877,145.361867 C130.523723,150.822713 139.389785,150.824465 144.857125,145.357125 C150.325667,139.888583 150.326588,131.027598 144.861867,125.562877 L94.2989899,75 L144.861867,24.437123 C150.322713,18.976277 150.324465,10.1102154 144.857125,4.64287527 C139.388583,-0.82566693 130.527598,-0.826587951 125.062877,4.63813311 L74.5,55.2010101 Z" id="closesettingicon" fill="#D8D8D8"></path>
    </g>
</svg>