<?xml version="1.0" encoding="UTF-8"?>
<svg width="184px" height="157px" viewBox="0 0 184 157" version="1.1" xmlns="http://www.w3.org/2000/svg" xmlns:xlink="http://www.w3.org/1999/xlink">
    <!-- Generator: Sketch 3.8.3 (29802) - http://www.bohemiancoding.com/sketch -->
    <title>commenticon</title>
    <desc>Created with Sketch.</desc>
    <defs>
        <path d="M78,59.9955364 C78,51.1614456 85.1716757,44 93.9974109,44 L162.002589,44 C170.837715,44 178,51.1692423 178,59.9955364 L178,105.315945 C178,114.150036 170.830733,121.311481 162.004174,121.311481 L130.112337,121.311481 L100.832124,144 L100.832124,121.311481 L93.9972018,121.311481 C85.1621912,121.311481 78,114.142239 78,105.315945 L78,59.9955364 Z" id="path-1"></path>
        <mask id="mask-2" maskContentUnits="userSpaceOnUse" maskUnits="objectBoundingBox" x="-6" y="-6" width="112" height="112">
            <rect x="72" y="38" width="112" height="112" fill="white"></rect>
            <use xlink:href="#path-1" fill="black"></use>
        </mask>
    </defs>
    <g id="Page-1" stroke="none" stroke-width="1" fill="none" fill-rule="evenodd">
        <g id="commenticon">
            <path d="M0,16.0094086 C0,7.1676564 7.15611005,0 16.0008841,0 L111.999116,0 C120.83616,0 128,7.15667402 128,16.0094086 L128,82.9492876 C128,91.7910399 120.83353,98.9586963 111.995205,98.9586963 L66.7037915,98.9586963 L29.2251185,128 L29.2251185,98.9586963 L16.0020231,98.9586963 C7.16434978,98.9586963 0,91.8020222 0,82.9492876 L0,16.0094086 Z" fill="#90949C"></path>
            <g transform="translate(128.000000, 94.000000) scale(-1, 1) translate(-128.000000, -94.000000) ">
                <use fill="#90949C" fill-rule="evenodd" xlink:href="#path-1"></use>
                <use stroke="#FFFFFF" mask="url(#mask-2)" stroke-width="12" xlink:href="#path-1"></use>
            </g>
        </g>
    </g>
</svg>