<?xml version="1.0" encoding="UTF-8"?>
<svg width="129px" height="144px" viewBox="0 0 129 144" version="1.1" xmlns="http://www.w3.org/2000/svg" xmlns:xlink="http://www.w3.org/1999/xlink">
    <!-- Generator: Sketch 3.8.3 (29802) - http://www.bohemiancoding.com/sketch -->
    <title>create_timeicon</title>
    <desc>Created with Sketch.</desc>
    <defs></defs>
    <g id="Page-1" stroke="none" stroke-width="1" fill="none" fill-rule="evenodd">
        <g id="create_timeicon" fill="#00BCD4">
            <path d="M71.2933333,82.24 C77.0665499,82.24 81.7466667,77.7509084 81.7466667,72.2133333 C81.7466667,71.2915773 81.3741911,69.5510849 81.3741911,69.5510849 C81.3741911,69.5510849 102.126388,44.004029 100.6725,42.7425 C99.302569,41.5538196 74.1995862,61.8197782 73.3516305,62.3809852 C72.5036748,62.9421921 71.9978854,62.1866667 71.2933333,62.1866667 C65.5201167,62.1866667 60.84,66.6757582 60.84,72.2133333 C60.84,77.7509084 65.5201167,82.24 71.2933333,82.24 Z" id="Oval-55"></path>
            <path d="M7.50670479,71.9293823 C7.50667938,71.9529186 7.50666667,71.9764578 7.50666667,72 C7.50666667,107.346224 36.1604427,136 71.5066667,136 C106.852891,136 135.506667,107.346224 135.506667,72 C135.506667,36.653776 106.852891,8 71.5066667,8 C61.6212705,8 52.2593387,10.2412173 43.901281,14.2432422 C43.8774595,14.2692764 43.8495975,14.2950123 43.8175,14.3204167 C42.5566667,15.3183333 37.07,18.9075 40.44375,24.6358333 C43.8175,30.3641667 50.4779167,27.5545833 50.4779167,27.5545833 L50.4916384,27.6487359 C56.861642,24.6250736 63.9865908,22.9333333 71.5066667,22.9333333 C98.6054384,22.9333333 120.573333,44.9012283 120.573333,72 C120.573333,99.0987717 98.6054384,121.066667 71.5066667,121.066667 C44.4078949,121.066667 22.44,99.0987717 22.44,72 C22.44,71.986715 22.4400053,71.9734313 22.4400158,71.9601488 L36.0502083,71.8904167 C36.0502083,71.8904167 36.5772208,71.6953971 36.895,71.2045833 C37.2127792,70.7137696 37.1102083,69.9591667 37.1102083,69.9591667 L16.7475,40.7958333 C16.7475,40.7958333 16.157482,40.09 15.4066667,40.09 C14.6558514,40.09 13.875,40.7958333 13.875,40.7958333 L-6.65166667,69.6795833 C-6.65166667,69.6795833 -7.03208333,70.57625 -6.6675,71.2333333 C-6.30291667,71.8904167 -5.6125,71.8904167 -5.6125,71.8904167 L7.50670479,71.9293823 Z" id="Combined-Shape" transform="translate(64.340568, 72.000000) scale(-1, -1) rotate(-90.000000) translate(-64.340568, -72.000000) "></path>
        </g>
    </g>
</svg>