<?xml version="1.0" encoding="UTF-8"?>
<svg width="128px" height="128px" viewBox="0 0 128 128" version="1.1" xmlns="http://www.w3.org/2000/svg" xmlns:xlink="http://www.w3.org/1999/xlink">
    <!-- Generator: Sketch 3.8.3 (29802) - http://www.bohemiancoding.com/sketch -->
    <title>ageicon</title>
    <desc>Created with Sketch.</desc>
    <defs></defs>
    <g id="Page-1" stroke="none" stroke-width="1" fill="none" fill-rule="evenodd">
        <g id="ageicon" fill="#90949C">
            <g id="Page-1">
                <g id="ageicon">
                    <path d="M103.797271,55.1423002 L111.002588,55.1423002 C120.39,55.1423002 128,62.7502631 128,72.1437286 L128,82.0563625 L127.881092,81.9405458 C127.881092,81.9405458 108.561404,63.3284599 91.0419103,68.9619883 C73.5224172,74.5955168 78.0389864,99.7807001 63.1851852,99.7807018 C48.331384,99.7807034 50.0701754,75.3810919 31.7426901,75.3810919 C13.4152047,75.3810919 0.616959064,88.9356725 0.616959064,88.9356725 L-5.00155473e-14,89.746088 L-5.68434189e-14,72.1437286 C-5.68434189e-14,62.754099 7.61181089,55.1423002 16.9974117,55.1423002 L24.4522417,55.1423002 L24.4522417,40.2933388 C24.4522417,35.9542078 27.9799591,32.4366472 32.3118908,32.4366472 C36.6526552,32.4366472 40.17154,35.9475078 40.17154,40.2933388 L40.17154,55.1423002 L56.1403509,55.1423002 L56.1403509,40.2933388 C56.1403509,35.9542078 59.6680682,32.4366472 64,32.4366472 C68.3407643,32.4366472 71.8596491,35.9475078 71.8596491,40.2933388 L71.8596491,55.1423002 L88.0779727,55.1423002 L88.0779727,39.5448007 C88.0779727,35.2056698 91.6056901,31.6881092 95.9376218,31.6881092 C100.278386,31.6881092 103.797271,35.1989698 103.797271,39.5448007 L103.797271,55.1423002 L103.797271,55.1423002 Z M128,92.8897145 L128,110.998572 C128,120.388201 120.388189,128 111.002588,128 L16.9974117,128 C7.61000044,128 -5.68434189e-14,120.392037 -5.68434189e-14,110.998572 L-5.68434189e-14,101.023346 L0.0964912281,101.017544 C0.0964912281,101.017544 16.9444444,83.7183237 31.7426901,83.7183238 C46.5409357,83.718324 39.380117,107.677387 63.1851852,107.677386 C86.9902534,107.677385 80.7163743,77.5584804 95.4181287,75.381092 C109.126185,73.3508743 125.807614,90.5547971 128,92.8897145 L128,92.8897145 Z" id="Combined-Shape"></path>
                    <path d="M24.4522417,14.538499 L25.1806724,8.65721245 C25.714187,4.34966056 29.5842534,0.14549708 32.3118908,0 C32.3118908,0 28.3820663,7.33355744e-16 32.3118908,0 C36.2417154,-7.33355744e-16 32.3118908,0 32.3118908,0 C35.3281945,0.473694522 38.381646,4.32762874 39.1301399,8.59758782 L40.17154,14.538499 L40.17154,16.0931481 C40.17154,20.4341439 36.6438226,23.9532164 32.3118908,23.9532164 L32.3118908,23.9532164 C27.9711265,23.9532164 24.4522417,20.4341348 24.4522417,16.0931481 L24.4522417,14.538499 L24.4522417,14.538499 Z" id="Rectangle-25"></path>
                    <path d="M56.3898635,14.538499 L57.1182942,8.65721245 C57.6518089,4.34966056 61.5218752,0.14549708 64.2495127,0 C64.2495127,0 60.3196881,7.33355744e-16 64.2495127,0 C68.1793372,-7.33355744e-16 64.2495127,0 64.2495127,0 C67.2658164,0.473694522 70.3192678,4.32762874 71.0677617,8.59758782 L72.1091618,14.538499 L72.1091618,16.0931481 C72.1091618,20.4341439 68.5814444,23.9532164 64.2495127,23.9532164 L64.2495127,23.9532164 C59.9087483,23.9532164 56.3898635,20.4341348 56.3898635,16.0931481 L56.3898635,14.538499 L56.3898635,14.538499 Z" id="Rectangle-25"></path>
                    <path d="M88.3274854,14.538499 L89.055916,8.65721245 C89.5894307,4.34966056 93.4594971,0.14549708 96.1871345,0 C96.1871345,0 92.2573099,7.33355744e-16 96.1871345,0 C100.116959,-7.33355744e-16 96.1871345,0 96.1871345,0 C99.2034382,0.473694522 102.25689,4.32762874 103.005384,8.59758782 L104.046784,14.538499 L104.046784,16.0931481 C104.046784,20.4341439 100.519066,23.9532164 96.1871345,23.9532164 L96.1871345,23.9532164 C91.8463702,23.9532164 88.3274854,20.4341348 88.3274854,16.0931481 L88.3274854,14.538499 L88.3274854,14.538499 Z" id="Rectangle-25"></path>
                </g>
            </g>
        </g>
    </g>
</svg>