<?xml version="1.0" encoding="UTF-8"?>
<svg width="160px" height="160px" viewBox="0 0 160 160" version="1.1" xmlns="http://www.w3.org/2000/svg" xmlns:xlink="http://www.w3.org/1999/xlink">
    <!-- Generator: Sketch 3.8.3 (29802) - http://www.bohemiancoding.com/sketch -->
    <title>edit</title>
    <desc>Created with Sketch.</desc>
    <defs></defs>
    <g id="Page-1" stroke="none" stroke-width="1" fill="none" fill-rule="evenodd">
        <g id="edit">
            <ellipse id="Oval-1" fill="#4DB6AC" cx="80" cy="80" rx="80" ry="80"></ellipse>
            <path d="M113.501211,72.3377482 L71.5321079,114.96915 L44.8651887,88.3022306 L87.2721045,46.1086414 L113.501211,72.3377482 Z M118.41221,67.3492515 L127.621023,57.9951172 C127.621023,57.9951172 128.873288,55.1516162 128.621025,53.0517578 C128.368762,50.9518995 127.599539,48.4921875 127.599539,48.4921875 L111.598562,32 C111.598562,32 108.859795,31 106.416924,31 C103.974052,31 101.452078,32 101.452078,32 L92.2343331,41.1713751 L118.41221,67.3492515 Z M66.6009017,119.937439 C65.6760615,120.572163 59.8126815,124.477302 53.3094997,126.0625 C46.2203701,127.790527 32.2733669,128.248047 32.2733669,128.248047 C32.2733669,128.248047 31.197195,114.890625 33.3153591,106.522461 C35.376818,98.3783201 39.6748676,93.4956429 39.9035154,93.2400523 L66.6009017,119.937439 Z" id="Combined-Shape" fill="#FFFFFF"></path>
        </g>
    </g>
</svg>