<?xml version="1.0" encoding="UTF-8"?>
<svg width="126px" height="129px" viewBox="0 0 126 129" version="1.1" xmlns="http://www.w3.org/2000/svg" xmlns:xlink="http://www.w3.org/1999/xlink">
    <!-- Generator: Sketch 3.8.3 (29802) - http://www.bohemiancoding.com/sketch -->
    <title>generalicon</title>
    <desc>Created with Sketch.</desc>
    <defs></defs>
    <g id="Page-1" stroke="none" stroke-width="1" fill="none" fill-rule="evenodd">
        <g id="generalicon" transform="translate(-5.000000, -4.000000)" fill="#90949C">
            <path d="M115.37314,78.0384036 C114.491636,76.4676923 113.458115,74.9898933 112.291909,73.6238811 L118.211061,63.3716091 C119.036039,61.9427053 118.543941,60.104386 117.106731,59.2746124 L108.978785,54.5819405 C107.536339,53.7491437 105.705823,54.241126 104.878517,55.6740612 L99.4493868,65.0775906 C97.0636981,64.308242 94.5372941,63.8409323 91.9176663,63.7220345 L89.1034576,53.2192647 C88.6764175,51.6255296 87.0285638,50.6736072 85.4255643,51.1031296 L76.3600185,53.5322353 C74.7511786,53.9633227 73.8046922,55.6055771 74.232937,57.2038087 L76.8955449,67.1407965 C74.586077,68.3923787 72.4751366,69.9508531 70.6204917,71.759812 L62.0532219,66.8134965 C60.6243181,65.9885185 58.7859988,66.4806163 57.9562252,67.9178263 L53.2635533,76.0457724 C52.4307566,77.4882187 52.9227388,79.318735 54.355674,80.1460405 L63.0331299,85.155972 C62.5766458,87.1239934 62.3356556,89.1718713 62.3356556,91.2747098 C62.3356556,91.5995344 62.3414058,91.9230476 62.3528123,92.2451576 L53.2145449,94.693749 C51.6188462,95.1213152 50.6741086,96.7672437 51.1036311,98.3702432 L53.5327368,107.435789 C53.9638241,109.044629 55.6037409,109.991742 57.1990888,109.56427 L67.2767514,106.863968 C68.6795103,108.859738 70.3441455,110.666276 72.2222714,112.236338 L67.1427584,121.034312 C66.3177804,122.463216 66.8098782,124.301535 68.2470882,125.131309 L76.3750343,129.823981 C77.8174806,130.656778 79.6479969,130.164795 80.4753024,128.73186 L86.3535889,118.550369 C87.7335406,118.752714 89.1461644,118.85759 90.5838742,118.85759 C90.640251,118.85759 90.6965892,118.857428 90.7528883,118.857106 L93.766403,130.103696 C94.1934431,131.697431 95.8412968,132.649354 97.4442963,132.219831 L106.509842,129.790726 C108.118682,129.359638 109.065168,127.717384 108.636924,126.119152 L105.567034,114.662169 C106.906388,113.84233 108.170296,112.915837 109.346276,111.894879 L119.715925,117.881799 C121.144829,118.706777 122.983148,118.214679 123.812922,116.777469 L128.505594,108.649523 C129.33839,107.207077 128.846408,105.376561 127.413473,104.549255 L117.722768,98.9543238 C118.281977,97.0668262 118.640256,95.0960281 118.773515,93.0654517 L128.707401,90.403675 C130.3031,89.9761088 131.247838,88.3301803 130.818315,86.7271808 L128.389209,77.6616349 C127.958122,76.0527951 126.318205,75.1056822 124.722857,75.5331544 L115.37314,78.0384036 Z M91.4887541,106.892241 C100.403646,106.892241 107.630593,99.9996223 107.630593,91.4971457 C107.630593,82.9946692 100.403646,76.10205 91.4887541,76.10205 C82.5738625,76.10205 75.3469149,82.9946692 75.3469149,91.4971457 C75.3469149,99.9996223 82.5738625,106.892241 91.4887541,106.892241 Z" id="Combined-Shape"></path>
            <path d="M53.4594042,24.5571994 C52.8462693,23.4126194 52.1325901,22.3306168 51.3302655,21.3231632 L55.3068068,14.4355917 C56.1380515,12.9958336 55.6442901,11.164933 54.2095037,10.3365586 L49.0572046,7.36187741 C47.6262395,6.5357093 45.787449,7.02564245 44.9586863,8.46110151 L41.5238555,14.410403 C39.692106,13.788454 37.7486941,13.410566 35.7318326,13.315186 L33.9637143,6.71647892 C33.5334304,5.1106374 31.8896462,4.16513726 30.2893498,4.59393538 L24.5427069,6.13374369 C22.9466727,6.56139978 21.9928865,8.20805605 22.4218856,9.80910259 L24.116214,16.1324222 C22.4196839,17.1149505 20.8705066,18.3260874 19.5102316,19.7240291 L13.9577702,16.518314 C12.5180121,15.6870693 10.6871116,16.1808307 9.85873721,17.6156172 L6.88405597,22.7679162 C6.05788786,24.1988814 6.54782101,26.0376719 7.98328007,26.8664345 L13.8920749,30.2778788 C13.5942586,31.704732 13.4376561,33.1838688 13.4376561,34.699806 C13.4376561,34.8934649 13.4402118,35.0865232 13.4452911,35.2789486 L7.25244047,36.938318 C5.6431228,37.3695334 4.69318005,39.014508 5.12197817,40.6148044 L6.66178648,46.3614472 C7.08944257,47.9574815 8.73964419,48.9103177 10.3450641,48.4801467 L17.0763278,46.67651 C18.072904,48.1594181 19.2493435,49.5099358 20.5741441,50.6963676 L17.2782904,56.4049535 C16.4470457,57.8447116 16.9408071,59.6756122 18.3755936,60.5039865 L23.5278926,63.4786678 C24.9588578,64.3048359 26.7976483,63.8149027 27.626411,62.3794437 L31.3965163,55.8494296 C32.4781314,56.0199013 33.5867671,56.1083958 34.715946,56.1083958 C34.7532086,56.1083958 34.7904488,56.1082994 34.8276665,56.1081069 L36.7503129,63.2835211 C37.1805968,64.8893626 38.8243811,65.8348627 40.4246775,65.4060646 L46.1713203,63.8662563 C47.7673545,63.4386002 48.7211407,61.791944 48.2921416,60.1908974 L46.2782583,52.6749825 C47.2472779,52.0427178 48.1619492,51.3332881 49.0136743,50.5553437 L55.9271321,54.5468304 C57.3668902,55.3780751 59.1977907,54.8843137 60.0261651,53.4495272 L63.0008463,48.2972282 C63.8270144,46.866263 63.3370813,45.0274726 61.9016222,44.1987099 L55.2439981,40.3549288 C55.6017173,39.0374138 55.837487,37.669245 55.9383451,36.2634639 L62.7475595,34.4389404 C64.3568772,34.007725 65.30682,32.3627504 64.8780218,30.762454 L63.3382135,25.0158111 C62.9105574,23.4197769 61.2603558,22.4669407 59.6549359,22.8971117 L53.4594042,24.5571994 Z M35.397557,46.8214311 C42.1127998,46.8214311 47.5565798,41.4716904 47.5565798,34.8724508 C47.5565798,28.2732112 42.1127998,22.9234705 35.397557,22.9234705 C28.6823141,22.9234705 23.2385342,28.2732112 23.2385342,34.8724508 C23.2385342,41.4716904 28.6823141,46.8214311 35.397557,46.8214311 Z" id="Combined-Shape"></path>
        </g>
    </g>
</svg>