<?xml version="1.0" encoding="UTF-8"?>
<svg width="539px" height="539px" viewBox="0 0 539 539" version="1.1" xmlns="http://www.w3.org/2000/svg" xmlns:xlink="http://www.w3.org/1999/xlink">
    <!-- Generator: Sketch 3.8.3 (29802) - http://www.bohemiancoding.com/sketch -->
    <title>globe</title>
    <desc>Created with Sketch.</desc>
    <defs></defs>
    <g id="Page-1" stroke="none" stroke-width="1" fill="none" fill-rule="evenodd">
        <g id="globe" transform="translate(4.000000, 4.000000)" stroke="#B5B5B5">
            <path d="M265.5,531 C412.131601,531 531,412.131601 531,265.5 C531,118.868399 412.131601,0 265.5,0 C118.868399,0 0,118.868399 0,265.5 C0,412.131601 118.868399,531 265.5,531 Z" id="Oval-2" stroke-width="8"></path>
            <path d="M448.980707,73.6008046 C401.307941,28.0066812 336.674626,0 265.5,0 C207.472445,0 153.792823,18.6157188 110.107427,50.2008654 L122.71875,52.0175781 L138.0625,56.7890625 L140.564453,62.2480469 L157.005859,62.0449219 C157.005859,62.0449219 158.117872,56.4706078 156.5,55.71875 C154.882128,54.9668922 140.951172,54.5839844 140.951172,54.5839844 C140.951172,54.5839844 144.401294,49.4466265 143.009766,48.5175781 C141.618237,47.5885297 128.986328,46.5957031 128.986328,46.5957031 C128.986328,46.5957031 135.288189,39.1143311 142.306641,36.5097656 C149.325092,33.9052002 151.062616,32.8049945 158.427734,35.6699219 C165.792853,38.5348493 161.483251,43.5355227 165.785156,45.6425781 C170.087061,47.7496336 172.205953,47.1618312 178.142578,45.3261719 C184.079203,43.4905126 181.805985,40.6370802 185.59375,39.5175781 C189.381515,38.3980761 189.792969,41.8828125 189.792969,41.8828125 L181.666016,51.4609375 L167.652344,52.2851563 C167.652344,52.2851563 165.910466,60.1322773 168.037109,61.3066406 C170.163753,62.481004 176.95975,63.7332652 184.410156,61.5390625 C191.860563,59.3448598 186.884766,55.7558594 186.884766,55.7558594 L198.533203,55.2558594 L198.697266,48.0449219 L192.042969,46.8457031 L195.935547,40.9082031 L216.375,41.1425781 L207.652344,49.5722656 C207.652344,49.5722656 207.384261,56.4708171 209.457031,57.9980469 C211.529801,59.5252767 219.087891,57.9980469 219.087891,57.9980469 L218.695313,45.6230469 L227.751953,41.5800781 C227.751953,41.5800781 237.243027,38.371432 246.443359,40.1210938 C255.643692,41.8707555 261.068715,41.7032599 270.804688,49.7675781 C280.54066,57.8318963 269.175857,57.7379519 271.025391,60.4824219 C272.874925,63.2268918 279.039063,61.9863281 279.039063,61.9863281 L275.980469,69.4042969 C275.980469,69.4042969 268.586772,66.1919285 263.240234,68.9316406 C257.893697,71.6713528 262.89612,77.2857475 260.185547,77.4980469 C257.474974,77.7103462 237.506662,75.9491255 235.759766,71.0839844 C234.01287,66.2188432 253.953125,60.140625 253.953125,60.140625 C253.953125,60.140625 251.128949,55.3211915 247.732422,54.8105469 C244.335894,54.2999022 229.763672,56.5039063 229.763672,56.5039063 L223.855469,63.4570313 C223.855469,63.4570313 215.659752,63.1925875 213.537109,65.5058594 C211.414466,67.8191313 217.570313,70.3066406 217.570313,70.3066406 L210.917969,71.4863281 L210.917969,75.9414063 L203.640625,76.2695313 C203.640625,76.2695313 205.08087,69.6857848 203.480469,69.0722656 C201.880067,68.4587464 197.684589,69.3995581 192.212891,71.8886719 C186.741193,74.3777857 167.140625,85.6035156 167.140625,85.6035156 L169.628906,96.5371094 L178.111328,101.035156 C178.111328,101.035156 186.909269,95.3952748 190.005859,99.7050781 C193.10245,104.014881 187.957896,112.261595 190.005859,117.589844 C192.053823,122.918093 196.552734,116.738281 196.552734,116.738281 C196.552734,116.738281 198.604981,106.76089 202.933594,103.0625 C207.262207,99.36411 212.677104,105.72485 216.326172,99.84375 C219.97524,93.96265 216.287109,81.5410156 216.287109,81.5410156 C216.287109,81.5410156 219.322495,75.8126837 222.960938,75.671875 C226.59938,75.5310663 236.185731,74.6043907 243.035156,80.5058594 C249.884582,86.407328 241.363281,91.5273438 241.363281,91.5273438 C241.363281,91.5273438 244.226471,92.8090588 246.955078,92.0195313 C249.683685,91.2300037 256.534808,83.112088 260.769531,85.9121094 C265.004255,88.7121307 258.694625,96.1052821 261.021484,101.320313 C263.348344,106.535343 267.247284,102.574255 270.347656,107.378906 C273.448028,112.183558 270.937396,112.498133 270.511719,116.027344 C270.086041,119.556555 270.041826,116.005882 269.303224,116.038098 C267.440371,116.119351 263.868215,116.542056 261.814453,118.511719 C258.946395,121.262334 261.394648,122.430362 262.689453,123.529297 C263.984258,124.628232 273.085938,128.078125 273.085938,128.078125 L274.138672,134.125 L271.294922,135.806641 L255.09375,130.019531 C255.09375,130.019531 254.389847,127.293538 255.09375,126.037109 C255.797653,124.780681 258.908203,123.210938 258.908203,123.210938 L259.072266,117.203125 C259.072266,117.203125 255.967696,114.717616 254.255859,116.041016 C252.544023,117.364416 254.496354,121.325875 252.917969,121.960938 C251.339584,122.596 248.791745,122.861464 243.035153,120.555664 C237.278562,118.249864 239.556465,117.114203 237.992188,115.982422 C236.42791,114.85064 231.408203,115.349609 231.408203,115.349609 C231.408203,115.349609 228.854271,116.246058 227.949219,118.669922 C227.044166,121.093786 226.633649,123.607145 227.949219,124.613281 C229.264788,125.619417 237.390625,125.890625 237.390625,125.890625 L232.052734,131.429688 C232.052734,131.429688 229.182968,128.187389 226.353516,128.673828 C223.524063,129.160267 220.044305,128.767194 216.374997,134.125 C212.705688,139.482806 218.464678,141.458948 216.374997,143.244141 C214.285315,145.029333 206.588606,142.654831 198.775391,149.160156 C190.962176,155.665481 194.94585,153.471292 188.105466,163.506836 C181.265081,173.54238 183.629229,172.404845 181.736328,174.158203 C179.843427,175.911561 172.753302,177.586531 164.669922,183.789063 C156.586541,189.991594 158.592251,186.946706 156.587891,193.455078 C154.58353,199.963451 159.141584,207.295649 156.568359,210.095703 C153.995134,212.895757 149.285369,209.959995 145.841797,205.148438 C142.398225,200.33688 148.454224,195.972564 145.884766,195.167969 C143.315307,194.363373 129.881586,192.837337 114.28125,195.265625 C98.6809144,197.693913 105.310017,196.615144 97.9902344,202.623047 C90.6704516,208.630949 93.1188198,207.919103 90.1210938,215.095703 C87.1233677,222.272303 88.6013478,221.166279 87.7441406,227.152344 C86.8869334,233.138408 87.8954381,227.719665 88.1891506,228.586883 C88.9628438,230.871297 90.7247455,235.236675 93.3125,236.794922 C96.8826284,238.944717 100.124266,240.554264 106.355469,238.359375 C112.586672,236.164486 126.160156,225.224609 126.160156,225.224609 L127.486328,231.333984 L122.019531,243.650391 L137.324219,245.308594 L139.693359,269.708984 L159.113281,272.867188 C159.113281,272.867188 165.865028,260.863307 173.792969,257.947266 C181.720909,255.031224 189.640625,261.638672 189.640625,261.638672 C189.640625,261.638672 191.906905,267.911121 195.246094,268.896484 C198.585283,269.881848 211.482422,268.083984 211.482422,268.083984 L211.974609,263.466797 C211.974609,263.466797 216.699748,263.63147 220.105469,267.416016 C223.511189,271.200561 229.919922,283.408203 229.919922,283.408203 C229.919922,283.408203 239.114023,280.663758 246.917969,283.738281 C254.721914,286.812804 251.294392,286.925238 252.853516,292.443359 C254.412639,297.961481 250.546845,304.305196 253.810547,308.132813 C257.074248,311.960429 262.75418,313.457607 271.957031,314.847656 C281.159882,316.237706 282.597678,310.74512 293.448239,314.847656 C304.2988,318.950193 302.253906,326.302734 302.253906,326.302734 C302.253906,326.302734 309.834871,325.993812 312.725583,330.021485 C315.616294,334.049157 311.544922,339.248047 311.544922,339.248047 C311.544922,339.248047 302.607695,342.137073 299.603516,351.324219 C296.599336,360.511364 300.816766,370.622549 296.826172,384.259766 C292.835578,397.896982 287.28125,393.433594 287.28125,393.433594 C287.28125,393.433594 278.569862,390.071507 271.234375,392.773438 C263.898888,395.475368 265.594989,396.251609 265.296875,401.53125 C264.998761,406.810891 272.217969,411.305118 269.826172,417.712891 C267.434375,424.120663 259.809884,435.974884 247.806641,448.388672 C235.803397,460.80246 240.312262,453.486885 232.537109,456.277344 C224.761957,459.067802 226.057306,455.217238 221.521484,457.822266 C216.985663,460.427293 220.777344,463.03125 220.777344,463.03125 L227.841797,464.5625 L228.005859,468.761719 C228.005859,468.761719 221.048976,472.639148 220.384766,476.548828 C219.720555,480.458508 225.740234,482.097656 225.740234,482.097656 L232.96875,482.097656 L232.373047,488.115234 C232.373047,488.115234 227.271839,494.439427 228.759766,497.548828 C230.247692,500.658229 241.447266,507.078125 241.447266,507.078125 L240.105469,513.023438 C240.105469,513.023438 231.411405,515.575373 223.650391,512.185547 C215.889376,508.795721 214.557152,507.527981 207.390625,498.734375 C200.224098,489.940769 198.587349,489.835468 195.580078,477.742188 C192.572807,465.648907 196.777344,456.054688 196.777344,456.054688 C196.777344,456.054688 189.122457,451.84538 188.105469,444.466797 C187.088481,437.088213 192.372381,437.520517 192.042966,429.03125 C191.71355,420.541983 187.546488,424.618655 187.185547,420.759766 C186.824605,416.900877 192.710422,394.539673 188.037109,378.039063 C183.363796,361.538452 181.410014,370.10059 172.560544,364.506836 C163.711073,358.913082 164.900769,364.574678 161.423828,361.216797 C157.946887,357.858916 160.611328,353.558594 160.611328,353.558594 C160.611328,353.558594 154.758387,353.136041 146.969723,339.248047 C139.18106,325.360053 141.908203,320.208984 141.908203,320.208984 C141.908203,320.208984 140.145164,308.873768 143.183594,303.710938 C146.222024,298.548107 156.386719,295.607422 156.386719,295.607422 L155.726563,278.712891 L132.833984,275.794922 C132.833984,275.794922 126.191618,263.514779 117.880859,258.064453 C109.570101,252.614128 107.493732,258.746405 100.375,254.507813 C93.2562681,250.26922 101.616435,249.038342 100.164063,247.515625 C98.7116901,245.992908 95.1399229,244.368945 91.7050781,245.417969 C88.2702333,246.466993 92.1533733,250.573539 90.6992188,250.40625 C89.2450642,250.238961 78.0131626,249.562088 67.359375,242.617188 C56.7055874,235.672287 61.0719346,236.457429 59.8085938,230.269531 C58.5452529,224.081633 64.7408144,227.057383 63.5664063,224.039063 C62.3919981,221.020742 53.8564133,213.965806 48.2421875,200.542969 C42.6279617,187.120131 49.4682362,188.824231 47.0664063,184.589844 C44.6645763,180.355456 41.0278179,182.468885 39.96875,185.957031 C38.9096821,189.445177 39.716495,194.598105 42.1835938,200.671875 C44.6506925,206.745645 52.171875,216 52.171875,216 L50.4414063,221.832031 C50.4414063,221.832031 44.871788,223.073555 40.9765625,219.238281 C37.081337,215.403008 34.4861563,212.859635 31.9140625,203.589844 C29.3419687,194.320052 33.8236375,189.594808 30.5898438,181.804688 C27.35605,174.014567 19.8984375,174.644531 19.8984375,174.644531 C19.8984375,174.644531 19.3481565,171.493497 19.0805211,166.479198 C6.77323709,197.078031 0,230.498028 0,265.5 C0,412.131601 118.868399,531 265.5,531 C350.5681,531 426.291877,490.992195 474.881958,428.765956 L470.501953,433.794922 C470.501953,433.794922 464.882938,437.701768 463.279297,433.84375 C461.675655,429.985732 465.124429,422.333874 462.738281,415.117188 C460.352133,407.900501 455.573577,411.248925 452.957031,402.625 C450.340486,394.001075 454.266061,391.590061 451.716799,382.605469 C449.167538,373.620877 444.46875,372.708984 444.46875,372.708984 C444.46875,372.708984 442.857062,368.012917 443.96875,365.103516 C445.080438,362.194114 455.591515,356.302251 454.175781,347.304688 C452.760048,338.307124 437.183596,321.498047 436.019534,314.583008 C434.855471,307.667969 440.316405,296.949807 437.183596,292.267578 C434.050788,287.58535 419.529297,288.837891 419.529297,288.837891 L415.935547,283.21875 L404.556641,281.900391 L398.1875,287.666016 L379.228516,287.548828 L376.78125,289.472656 C376.78125,289.472656 370.82128,291.985177 365.931641,288.376953 C361.042001,284.768729 350.4375,274.285156 344.951172,265.34375 C339.464844,256.402344 339.07226,251.944867 340.681641,242.807617 C342.291022,233.670367 344.951172,235.820312 344.951172,235.820312 C344.951172,235.820312 347.931599,230.988718 347.00293,229.160156 C346.074261,227.331595 340.539062,227.132812 340.539062,227.132812 C340.539062,227.132812 338.822068,219.5629 340.681641,217.569336 C342.541213,215.575772 367.916016,197.783203 367.916016,197.783203 L368,183.386719 L380.720703,174.642578 L401.101562,174.644531 L407.652344,170.265625 C407.652344,170.265625 434.805667,166.03125 438.339846,168.148437 C441.874026,170.265625 435.281553,180.781694 438.339844,183.746094 C441.398135,186.710494 449.326249,186.019419 460.224609,189.226562 C471.122969,192.433706 466.897839,195.164584 470.662109,193.257813 C474.426379,191.351041 471.564453,183.482422 471.564453,183.482422 L485.322266,182.876953 L497.46875,192.777344 L519.998047,191.710937 L518.160951,183.703123 C516.684996,179.140753 515.0889,174.63243 513.376392,170.181883 L499.75,169.853516 L491.738281,162.166016 L491.738281,150.613281 C491.738281,150.613281 487.312139,150.894321 484.248047,154.837891 C481.183955,158.78146 482.288345,166.162039 478.986328,167.025391 C475.684312,167.888742 469.337891,158.736328 469.337891,158.736328 C469.337891,158.736328 470.858658,150.881148 468.908203,147.130859 C466.957748,143.380571 457.349609,135.685547 457.349609,135.685547 L444.943359,135.179687 C444.943359,135.179687 445.522587,143.094595 448.292969,145.925781 C451.06335,148.756968 458.764734,147.286444 463.630859,154.277344 C468.496985,161.268243 461.873047,165.435547 461.873047,165.435547 L457.498047,168.148437 L448.335937,167.5 L446.664062,162.015625 L455.433594,162.839844 L457.306641,158.669922 L436.019531,144.849609 L435.150391,138.916016 L427.375,146.578125 C427.375,146.578125 422.085923,142.924938 417.851562,145.929687 C413.617202,148.934437 404.513672,162.800781 404.513672,162.800781 L402.474609,168.232422 L381.267578,168.888672 L374.294922,165.474609 L372.0625,150.828125 L375.080078,144.351562 L387.197266,141.503906 L400.894531,144.681641 L402.248047,136.75 L397.357422,135.615234 C397.357422,135.615234 396.006419,125.953615 398.396484,123.978516 C400.78655,122.003417 413.083984,122.619141 413.083984,122.619141 C413.083984,122.619141 416.671369,110.739175 422.185547,108.015625 C427.699725,105.292075 439.235352,108.70801 441.666995,106.705079 C444.098638,104.702149 445.288917,97.273442 443.015625,95.4609375 C440.742333,93.648433 436.977939,99.0464357 431.917969,97.4160156 C426.857999,95.7855956 430.34175,92.7472628 428.019531,90.6289062 C425.697312,88.5105497 421.394531,87.8164062 421.394531,87.8164062 C421.394531,87.8164062 419.301863,82.6219373 420.111328,80.2148437 C420.920793,77.8077502 424.882812,77.4433594 424.882812,77.4433594 C424.882812,77.4433594 430.962665,73.7058879 437.183594,73.3300781 C439.406474,73.1957927 443.997603,73.3487438 448.980707,73.6008046 Z" id="Combined-Shape" stroke-width="2" fill="#B5B5B5"></path>
        </g>
    </g>
</svg>