<?xml version="1.0" encoding="UTF-8"?>
<svg width="208px" height="208px" viewBox="0 0 208 208" version="1.1" xmlns="http://www.w3.org/2000/svg" xmlns:xlink="http://www.w3.org/1999/xlink">
    <!-- Generator: Sketch 3.8.3 (29802) - http://www.bohemiancoding.com/sketch -->
    <title>globehas</title>
    <desc>Created with Sketch.</desc>
    <defs></defs>
    <g id="Page-1" stroke="none" stroke-width="1" fill="none" fill-rule="evenodd">
        <g id="globehas" transform="translate(4.000000, 4.000000)">
            <path d="M100,200 C155.228475,200 200,155.228475 200,100 C200,44.771525 155.228475,0 100,0 C44.771525,0 0,44.771525 0,100 C0,155.228475 44.771525,200 100,200 Z" id="Oval-2" stroke="#FFFFFF" stroke-width="8"></path>
            <path d="M169.107611,27.7215837 C151.151767,10.5486558 126.807769,0 100,0 C78.1440469,0 57.9257338,7.01157015 41.4717239,18.9080472 L46.2217514,19.5923081 L52.0009416,21.3894774 L52.9432968,23.445592 L59.1359169,23.3690855 C59.1359169,23.3690855 59.5547541,21.2695321 58.9453861,20.9863465 C58.3360181,20.7031609 53.0889536,20.5589395 53.0889536,20.5589395 C53.0889536,20.5589395 54.3884346,18.6239648 53.8643185,18.2740407 C53.3402024,17.9241166 48.5824211,17.5501707 48.5824211,17.5501707 C48.5824211,17.5501707 50.9560033,14.7323281 53.599488,13.7513242 C56.2429727,12.7703202 56.8974072,12.3559301 59.671463,13.4349988 C62.4455188,14.5140675 60.8223169,16.3975603 62.4426201,17.1911782 C64.0629232,17.9847961 64.8609992,17.7634016 67.0970162,17.0720045 C69.3330332,16.3806074 68.4768305,15.3058682 69.903484,14.8842102 C71.3301375,14.4625522 71.4851106,15.7750706 71.4851106,15.7750706 L68.4241113,19.3826507 L63.1458922,19.6930909 C63.1458922,19.6930909 62.4898176,22.648692 63.2908133,23.0910134 C64.091809,23.5333348 66.6515064,24.0049963 69.457686,23.1785546 C72.2638655,22.3521129 70.3897422,21.0003237 70.3897422,21.0003237 L74.777101,20.8119998 L74.8388948,18.0960158 L72.3325683,17.6443326 L73.7986994,15.4079861 L81.4971751,15.4962629 L78.2118056,18.6712865 C78.2118056,18.6712865 78.1108328,21.2696109 78.8915372,21.8448387 C79.6722416,22.4200665 82.5189795,21.8448387 82.5189795,21.8448387 L82.3711158,17.1838218 L85.7822799,15.6610464 C85.7822799,15.6610464 89.3570723,14.4525168 92.8223576,15.1115231 C96.2876429,15.7705294 98.3309663,15.7074425 101.997999,18.7448505 C105.665032,21.7822585 101.384503,21.7468745 102.081126,22.7805732 C102.777749,23.8142719 105.099459,23.3470162 105.099459,23.3470162 L103.947446,26.1409781 C103.947446,26.1409781 101.162626,24.9310465 99.1488642,25.9629532 C97.1351023,26.9948598 99.0192543,29.1095094 97.9983227,29.1894715 C96.9773912,29.2694336 89.4563698,28.6060736 88.7984051,26.7736288 C88.1404405,24.9411839 95.6508945,22.6518362 95.6508945,22.6518362 C95.6508945,22.6518362 94.5871749,20.836607 93.3078802,20.6442738 C92.0285854,20.4519406 86.5399894,21.2820739 86.5399894,21.2820739 L84.3146775,23.9009534 C84.3146775,23.9009534 81.2277787,23.8013512 80.4282898,24.6726401 C79.6288009,25.5439289 81.947387,26.4808439 81.947387,26.4808439 L79.4417961,26.9251707 L79.4417961,28.6031662 L76.7008004,28.7267538 C76.7008004,28.7267538 77.2432657,26.2469999 76.6404779,26.0159193 C76.0376901,25.7848386 74.4574722,26.1391932 72.396569,27.0767126 C70.3356658,28.0142319 62.9531544,32.2423788 62.9531544,32.2423788 L63.8903602,36.3604932 L67.085246,38.0546728 C67.085246,38.0546728 70.3989713,35.9304237 71.5652954,37.5537017 C72.7316196,39.1769798 70.7939344,42.2830865 71.5652954,44.28996 C72.3366565,46.2968334 74.0311617,43.9692208 74.0311617,43.9692208 C74.0311617,43.9692208 74.804136,40.211258 76.4344986,38.8182674 C78.0648612,37.4252768 80.1043706,39.8210358 81.4787841,37.6059322 C82.8531977,35.3908286 81.4640713,30.7122469 81.4640713,30.7122469 C81.4640713,30.7122469 82.6073427,28.5546831 83.9777542,28.5016478 C85.3481657,28.4486126 88.9588439,28.0995822 91.5386653,30.3223576 C94.1184866,32.545133 90.9089572,34.4735758 90.9089572,34.4735758 C90.9089572,34.4735758 91.9873714,34.956331 93.0150953,34.6589572 C94.0428193,34.3615833 96.6232797,31.303988 98.2182792,32.3586099 C99.8132787,33.4132319 97.4367703,36.1978464 98.3131768,38.1620763 C99.1895833,40.1263062 100.658111,38.6343708 101.825859,40.4440325 C102.993608,42.2536941 102.047984,42.372178 101.887653,43.7014477 C101.727322,45.0307175 101.710669,43.6933643 101.432476,43.7054984 C100.730837,43.7361022 99.3853918,43.8953129 98.6118468,44.6371822 C97.5315987,45.6731954 98.453728,46.1131305 98.9414136,46.5270421 C99.4290992,46.9409538 102.857227,48.2403484 102.857227,48.2403484 L103.253737,50.5178908 L102.182645,51.1512771 L96.0805085,48.9715749 C96.0805085,48.9715749 95.8153851,47.9448353 96.0805085,47.4716043 C96.3456319,46.9983732 97.517214,46.4071328 97.517214,46.4071328 L97.5790078,44.1443032 C97.5790078,44.1443032 96.4096783,43.2081414 95.7649188,43.7065972 C95.1201593,44.205053 95.8555004,45.697128 95.2610052,45.936323 C94.66651,46.175518 93.7068718,46.2755045 91.5386641,45.4070298 C89.3704564,44.5385551 90.2284236,44.110811 89.639242,43.684528 C89.0500604,43.258245 87.1593985,43.4461806 87.1593985,43.4461806 C87.1593985,43.4461806 86.1974655,43.783826 85.8565796,44.6967691 C85.5156936,45.6097122 85.3610731,46.5563636 85.8565796,46.9353225 C86.352086,47.3142814 89.4126648,47.4164313 89.4126648,47.4164313 L87.4021598,49.5027072 C87.4021598,49.5027072 86.3212687,48.2815026 85.2555614,48.4647187 C84.1898542,48.6479348 82.8792111,48.4998846 81.4971739,50.5178908 C80.1151368,52.535897 82.284248,53.2802064 81.4971739,53.9525953 C80.7100999,54.6249843 77.8111509,53.7306333 74.8683204,56.1808498 C71.9254899,58.6310663 73.4259323,57.8046298 70.8495162,61.5844956 C68.2731002,65.3643615 69.1635514,64.9359115 68.4505944,65.59631 C67.7376374,66.2567086 65.0671572,66.8875822 62.0225694,69.2237524 C58.9779817,71.5599225 59.7334279,70.4130718 58.9784899,72.8644362 C58.2235519,75.3158007 59.9403331,78.0774572 58.9711335,79.1320916 C58.0019338,80.1867259 56.2280109,79.0809775 54.9309969,77.2687147 C53.633983,75.4564519 55.9149621,73.812642 54.947181,73.5095927 C53.9793999,73.2065435 48.9196179,72.6317653 43.0437853,73.5463748 C37.1679527,74.4609842 39.6647899,74.0546683 36.9078096,76.3175318 C34.1508292,78.5803953 35.0730018,78.31228 33.9439148,81.0153307 C32.8148278,83.7183815 33.3715058,83.3018 33.0486405,85.5564383 C32.7257753,87.8110766 33.1056264,85.7701187 33.2162526,86.0967546 C33.5076625,86.957174 34.1712789,88.6013841 35.145951,89.1882945 C36.4906322,89.9980101 37.7115879,90.6042426 40.058557,89.7775424 C42.405526,88.9508421 47.5179496,84.8303613 47.5179496,84.8303613 L48.0174494,87.1314442 L45.9583922,91.7703919 L51.7228696,92.3949506 L52.6152013,101.585305 L59.9296728,102.774835 C59.9296728,102.774835 62.4727037,98.2535997 65.4587453,97.155279 C68.4447869,96.0569582 71.4277307,98.5456391 71.4277307,98.5456391 C71.4277307,98.5456391 72.2813201,100.908143 73.5390184,101.279278 C74.7967166,101.650414 79.6543962,100.973252 79.6543962,100.973252 L79.8397775,99.2341984 C79.8397775,99.2341984 81.6194908,99.2962221 82.9022481,100.721663 C84.1850054,102.147104 86.5988406,106.745086 86.5988406,106.745086 C86.5988406,106.745086 90.061779,105.711397 93.0011182,106.869409 C95.9404573,108.027422 94.6494887,108.06977 95.236729,110.148158 C95.8239694,112.226546 94.3679267,114.615893 95.5971928,116.057556 C96.8264589,117.49922 98.965793,118.063129 102.432027,118.586688 C105.898261,119.110247 106.439803,117.041477 110.526644,118.586688 C114.613484,120.131899 113.843279,122.901218 113.843279,122.901218 C113.843279,122.901218 116.698633,122.784863 117.787413,124.301877 C118.876194,125.818891 117.34272,127.777042 117.34272,127.777042 C117.34272,127.777042 113.976533,128.865188 112.845015,132.325506 C111.713498,135.785824 113.301983,139.59418 111.798935,144.730609 C110.295886,149.867037 108.203861,148.185911 108.203861,148.185911 C108.203861,148.185911 104.922735,146.919588 102.15984,147.937265 C99.3969447,148.954941 100.035777,149.24731 99.9234934,151.235876 C99.8112093,153.224441 102.530308,154.917182 101.629443,157.330656 C100.728578,159.744129 97.8568301,164.208996 93.3358345,168.884622 C88.8148389,173.560249 90.5130931,170.804853 87.5845986,171.855873 C84.6561042,172.906893 85.1439947,171.456587 83.4355873,172.437765 C81.72718,173.418943 83.1553084,174.399718 83.1553084,174.399718 L85.8161194,174.97646 L85.8779131,176.558086 C85.8779131,176.558086 83.2576181,178.018512 83.0074447,179.491084 C82.7572713,180.963656 85.0245704,181.581038 85.0245704,181.581038 L87.7471751,181.581038 L87.5228048,183.847546 C87.5228048,183.847546 85.6014461,186.229539 86.1618703,187.400689 C86.7222945,188.571838 90.9405897,190.989878 90.9405897,190.989878 L90.4352048,193.229167 C90.4352048,193.229167 87.1606046,194.190348 84.2374353,192.913577 C81.3142659,191.636806 80.8124868,191.159315 78.1132298,187.847222 C75.4139727,184.535129 74.797495,184.495468 73.6648129,179.94056 C72.5321307,175.385652 74.1157604,171.77201 74.1157604,171.77201 C74.1157604,171.77201 71.2325638,170.186584 70.8495174,167.407456 C70.466471,164.628329 72.4566407,164.791155 72.3325671,161.593691 C72.2084935,158.396227 70.6389787,159.931697 70.5030308,158.478254 C70.367083,157.024812 72.5839632,148.602513 70.82377,142.387594 C69.0635768,136.172675 68.3276889,139.397586 64.9945551,137.29071 C61.6614213,135.183835 62.1095175,137.316263 60.7999353,136.051524 C59.490353,134.786786 60.4939089,133.167079 60.4939089,133.167079 C60.4939089,133.167079 58.2894114,133.007925 55.355828,127.777042 C52.4222447,122.546159 53.4494174,120.60602 53.4494174,120.60602 C53.4494174,120.60602 52.7853724,116.336636 53.9297905,114.392067 C55.0742086,112.447498 58.9027189,111.339895 58.9027189,111.339895 L58.6540725,104.976607 L50.0316325,103.87756 C50.0316325,103.87756 47.5297997,99.2522707 44.3995704,97.1994174 C41.2693411,95.146564 40.4872813,97.456273 37.8060264,95.8598164 C35.1247714,94.2633598 38.2736101,93.7997522 37.7265772,93.2262241 C37.1795443,92.652696 35.8342459,92.0410338 34.5405191,92.4361464 C33.2467922,92.831259 34.7093685,94.3779808 34.1616643,94.3149718 C33.6139601,94.2519627 29.3834887,93.9970201 25.3707627,91.3812382 C21.3580367,88.7654564 23.0026119,89.0611787 22.5267773,86.7305202 C22.0509427,84.3998618 24.3844876,85.5206715 23.9421492,84.3838277 C23.4998109,83.2469839 20.2849014,80.5897576 18.1703154,75.5340749 C16.0557295,70.4783921 18.632104,71.1202378 17.72746,69.5253649 C16.8228159,67.9304919 15.4530388,68.7265104 15.0541431,70.0403131 C14.6552475,71.3541157 14.9591318,73.2949549 15.8883592,75.5826271 C16.8175866,77.8702994 19.6504237,81.3559322 19.6504237,81.3559322 L18.9986464,83.5525541 C18.9986464,83.5525541 16.9008618,84.0201714 15.4337335,82.5756238 C13.9666053,81.1310763 12.9891361,80.1731205 12.0203625,76.6816737 C11.051589,73.1902269 12.7395998,71.4104739 11.5215984,68.4763418 C10.303597,65.5422097 7.49470339,65.7794845 7.49470339,65.7794845 C7.49470339,65.7794845 7.28744123,64.5926543 7.18663696,62.7040294 C2.55112508,74.2290135 0,86.8165832 0,100 C0,155.228475 44.771525,200 100,200 C132.040716,200 160.561912,184.931147 178.863261,161.493769 L177.213542,163.387918 C177.213542,163.387918 175.097152,164.859423 174.493144,163.406309 C173.889136,161.953195 175.188109,159.071139 174.289371,156.35299 C173.390634,153.63484 171.590801,154.896017 170.605285,151.647834 C169.619769,148.399651 171.098328,147.491548 170.138154,144.107521 C169.17798,140.723494 167.408192,140.380032 167.408192,140.380032 C167.408192,140.380032 166.801153,138.611268 167.219868,137.515448 C167.638583,136.419629 171.597557,134.200471 171.064324,130.811558 C170.531091,127.422645 164.664255,121.091543 164.225813,118.487009 C163.787371,115.882474 165.84422,111.845502 164.664255,110.08195 C163.484289,108.318399 158.014801,108.790166 158.014801,108.790166 L156.661223,106.673729 L152.375383,106.177172 L149.97646,108.348782 L142.835599,108.304643 L141.913842,109.029249 C141.913842,109.029249 139.669032,109.975584 137.82736,108.616555 C135.985688,107.257525 131.991525,103.30891 129.925112,99.9411488 C127.858698,96.5733875 127.710832,94.8944887 128.317002,91.4529632 C128.923172,88.0114376 129.925112,88.82121 129.925112,88.82121 C129.925112,88.82121 131.047683,87.0014002 130.697902,86.3126766 C130.348121,85.6239529 128.2633,85.5490819 128.2633,85.5490819 C128.2633,85.5490819 127.616598,82.6978909 128.317002,81.9470192 C129.017406,81.1961475 138.57477,74.4946151 138.57477,74.4946151 L138.606403,69.0722105 L143.397628,65.7787488 L151.074035,65.7794845 L153.541372,64.1301789 C153.541372,64.1301789 163.768613,62.5353107 165.099754,63.3327448 C166.430895,64.1301789 163.947854,68.0910335 165.099753,69.2075683 C166.251652,70.3241031 169.237759,70.0638114 173.342602,71.271775 C177.447446,72.4797385 175.85606,73.5083181 177.273864,72.7901365 C178.691668,72.071955 177.61373,69.1082568 177.61373,69.1082568 L182.79558,68.8802083 L187.370527,72.609169 L195.856138,72.2075094 L195.1642,69.1913834 C194.608285,67.4729766 194.007118,65.7749265 193.362106,64.0986378 L188.229755,63.9749588 L185.212159,61.0794786 L185.212159,56.7281662 C185.212159,56.7281662 183.545062,56.8340192 182.390978,58.3193562 C181.236894,59.8046932 181.652861,62.5845722 180.409163,62.9097516 C179.165466,63.2349311 176.7751,59.7876942 176.7751,59.7876942 C176.7751,59.7876942 177.347894,56.8290577 176.613259,55.4165195 C175.878624,54.0039814 172.25974,51.1056674 172.25974,51.1056674 L167.586953,50.9151365 C167.586953,50.9151365 167.805118,53.8962693 168.848576,54.9626295 C169.892034,56.0289896 172.792744,55.4751202 174.625559,58.1082274 C176.458375,60.7413346 173.963483,62.3109404 173.963483,62.3109404 L172.315649,63.3327448 L168.86476,63.0885122 L168.235052,61.0228343 L171.538077,61.3332745 L172.243556,59.7626824 L164.225812,54.5572917 L163.898452,52.3224164 L160.969868,55.2083333 C160.969868,55.2083333 158.977749,53.8323682 157.382886,54.9641008 C155.788023,56.0958333 152.359198,61.3185617 152.359198,61.3185617 L151.59119,63.3643774 L143.603608,63.6115525 L140.977372,62.3256532 L140.136535,56.8090866 L141.273099,54.3697034 L145.837012,53.2971398 L150.996057,54.4940266 L151.505856,51.5065913 L149.663812,51.0791843 C149.663812,51.0791843 149.15496,47.4401562 150.055173,46.6962394 C150.955386,45.9523226 155.587188,46.1842338 155.587188,46.1842338 C155.587188,46.1842338 156.938369,41.7096706 159.015272,40.6838512 C161.092175,39.6580319 165.437044,40.9446364 166.352917,40.190237 C167.26879,39.4358375 167.717106,36.6378312 166.860876,35.9551554 C166.004645,35.2724795 164.586794,37.3056255 162.680968,36.6915313 C160.775141,36.0774371 162.087288,34.9330557 161.212629,34.1351813 C160.337971,33.3373068 158.717338,33.0758592 158.717338,33.0758592 C158.717338,33.0758592 157.929139,31.1193737 158.234022,30.2127472 C158.538905,29.3061206 160.031191,29.1688736 160.031191,29.1688736 C160.031191,29.1688736 162.321154,27.7611631 164.664254,27.6196151 C165.501497,27.5690368 167.230736,27.6266455 169.107611,27.7215837 Z" id="Combined-Shape" fill="#FFFFFF"></path>
        </g>
    </g>
</svg>