<?xml version="1.0" encoding="UTF-8"?>
<svg width="120px" height="120px" viewBox="0 0 120 120" version="1.1" xmlns="http://www.w3.org/2000/svg" xmlns:xlink="http://www.w3.org/1999/xlink">
    <!-- Generator: Sketch 3.8.3 (29802) - http://www.bohemiancoding.com/sketch -->
    <title>haha</title>
    <desc>Created with Sketch.</desc>
    <defs>
        <path d="M0,0 C0,17.9250314 14.531109,32.4561404 32.4561404,32.4561404 C50.3811717,32.4561404 64.9122807,17.9250314 64.9122807,0" id="path-1"></path>
    </defs>
    <g id="Page-1" stroke="none" stroke-width="1" fill="none" fill-rule="evenodd">
        <g id="haha">
            <circle id="Oval-10" fill="#FFFFFF" cx="60" cy="60" r="60"></circle>
            <ellipse id="Haha-Oval" fill="#FFDA69" cx="60" cy="60" rx="50" ry="50"></ellipse>
            <g id="mouth" transform="translate(27.543860, 60.122807)">
                <mask id="mask-2" fill="white">
                    <use xlink:href="#path-1"></use>
                </mask>
                <use fill="#252B39" xlink:href="#path-1"></use>
                <path d="M32.2080935,44.2072711 L-0.543859649,23.9269977 C-0.543859649,23.9269977 8.16610129,12.877193 32.2080935,12.877193 C56.2500857,12.877193 64.9405154,23.9269977 64.9405154,23.9269977 L32.2080935,44.2072711 Z" id="Path-18" fill="#F55065" mask="url(#mask-2)"></path>
            </g>
            <path d="M37.8363475,32.6876995 L45.0636989,44.716032 C45.8129011,45.962914 45.409776,47.5795951 44.1639854,48.3281416 C42.9207297,49.075165 41.3011846,48.6731253 40.552292,47.4267587 L35.3720882,38.8054518 L29.8070385,47.3748769 C29.0147771,48.5948525 27.3849952,48.9412324 26.1660874,48.1496644 C24.9496599,47.3597071 24.6010489,45.727827 25.3929829,44.5083556 L33.0357143,32.7395813 C35.0161804,30.4311583 37.135005,31.5204695 37.8363475,32.6876995 Z M87.2047686,32.6876995 L94.4321199,44.716032 C95.1813222,45.962914 94.7781971,47.5795951 93.5324065,48.3281416 C92.2891508,49.075165 90.6696057,48.6731253 89.9207131,47.4267587 L84.7405093,38.8054518 L79.1754595,47.3748769 C78.3831981,48.5948525 76.7534163,48.9412324 75.5345085,48.1496644 C74.3180809,47.3597071 73.96947,45.727827 74.7614039,44.5083556 L82.4041353,32.7395813 C84.3846014,30.4311583 86.5034261,31.5204695 87.2047686,32.6876995 Z" id="eyes" fill="#252B39"></path>
        </g>
    </g>
</svg>