<?xml version="1.0" encoding="UTF-8"?>
<svg width="149px" height="149px" viewBox="0 0 149 149" version="1.1" xmlns="http://www.w3.org/2000/svg" xmlns:xlink="http://www.w3.org/1999/xlink">
    <!-- Generator: Sketch 3.8.3 (29802) - http://www.bohemiancoding.com/sketch -->
    <title>hovercloseicon</title>
    <desc>Created with Sketch.</desc>
    <defs></defs>
    <g id="Page-1" stroke="none" stroke-width="1" fill="none" fill-rule="evenodd">
        <path d="M74.4594698,54.6604799 L23.8965928,4.09760292 C18.4357468,-1.36324311 9.56968516,-1.364995 4.10234508,4.10234508 C-1.36619712,9.57088728 -1.36711814,18.4318717 4.09760292,23.8965928 L54.6604799,74.4594698 L4.09760292,125.022347 C-1.36324311,130.483193 -1.364995,139.349254 4.10234508,144.816595 C9.57088728,150.285137 18.4318717,150.286058 23.8965928,144.821337 L74.4594698,94.2584597 L125.022347,144.821337 C130.483193,150.282183 139.349254,150.283935 144.816595,144.816595 C150.285137,139.348052 150.286058,130.487068 144.821337,125.022347 L94.2584597,74.4594698 L144.821337,23.8965928 C150.282183,18.4357468 150.283935,9.56968516 144.816595,4.10234508 C139.348052,-1.36619712 130.487068,-1.36711814 125.022347,4.09760292 L74.4594698,54.6604799 Z" id="hovercloseicon" fill="#FFFFFF"></path>
    </g>
</svg>