<?xml version="1.0" encoding="UTF-8"?>
<svg width="93px" height="130px" viewBox="0 0 93 130" version="1.1" xmlns="http://www.w3.org/2000/svg" xmlns:xlink="http://www.w3.org/1999/xlink">
    <!-- Generator: Sketch 3.8.3 (29802) - http://www.bohemiancoding.com/sketch -->
    <title>interactiveicon</title>
    <desc>Created with Sketch.</desc>
    <defs></defs>
    <g id="Page-1" stroke="none" stroke-width="1" fill="none" fill-rule="evenodd">
        <g id="interactiveicon" fill="#014679">
            <path d="M0.329101562,16.5117188 L19.8364258,0.666992188 L19.8364258,9.04931641 C19.8364258,9.04931641 28.9917502,8.19199498 48.0014648,12.5625 C67.0111795,16.933005 79.7910156,22.9433594 79.7910156,22.9433594 C79.7910156,22.9433594 56.3781926,19.9869574 43.7470703,19.7993164 C31.115948,19.6116754 21.8432617,22.0825195 21.8432617,22.0825195 L14.1958008,27.7993164 L0.329101562,16.5117188 Z M14.5,23 C18.0898509,23 21,20.0898509 21,16.5 C21,12.9101491 18.0898509,10 14.5,10 C10.9101491,10 8,12.9101491 8,16.5 C8,20.0898509 10.9101491,23 14.5,23 Z" id="Combined-Shape"></path>
            <path d="M20.3691406,80.03125 C18.2544751,75.4234132 19.7619436,72.9916135 17.4960938,69.6503906 C15.2302439,66.3091678 12.497904,64.9848059 10.71875,65.8007813 C8.93959605,66.6167566 9.43457031,73.3476563 9.43457031,73.3476563 C9.43457031,73.3476563 6.48266073,79.8092013 6.61328125,84.4741177 C6.74390176,89.139034 9.96972656,92.4599609 9.96972656,92.4599609 C9.96972656,92.4599609 13.9179687,101.614254 15.5976562,103.137692 C17.2773437,104.661129 23.2501038,108.343221 31.1918955,112.403317 C39.1336871,116.463413 43.0652842,116.089856 45.9365244,118.202633 C48.8077645,120.315411 49.3520508,125.688965 51.7724619,127.681149 C54.192873,129.673333 65.3950283,130.736643 74.8457031,127.014648 C84.296378,123.292654 89.6822552,116.1725 91.4824228,113.459469 C93.2825904,110.746438 90.2382822,103.137692 90.2382822,103.137692 C90.2382822,103.137692 88.0214308,82.9638077 84.5454111,71.1151051 C81.0693914,59.2664024 76.8004027,52.7534358 74.8457041,49.865723 C72.8910054,46.9780103 67.8232422,46.4111328 67.8232422,46.4111328 L68.6621094,51.9199219 C68.6621094,51.9199219 65.7560695,44.9263088 61.9038095,41.2270512 C58.0515495,37.5277936 54.16504,38.2485355 54.16504,38.2485355 L56.2490234,47.1679688 C56.2490234,47.1679688 51.8027353,37.4477543 48.7504892,34.3232426 C45.6982431,31.1987309 41.437946,30.5815434 38.8554697,30.5815434 C36.2729934,30.5815433 33.8339844,34.3232422 33.8339844,34.3232422 C33.8339844,34.3232422 35.5932034,35.3056458 37.0654306,40.2343754 C38.5376579,45.163105 37.8378906,47.7275391 37.8378906,47.7275391 C37.8378906,47.7275391 30.6974398,36.0604224 28.0419922,32.0634766 C25.3865446,28.0665307 22.4003906,24.4912109 22.4003906,24.4912109 C22.4003906,24.4912109 19.4038086,17.6367183 17.4960938,15.3046874 C15.5883789,12.9726565 13.9195015,11.9146402 12.0063477,13.4741211 C10.0931938,15.0336019 10.71875,19.8330081 10.71875,22.0751957 C10.71875,24.3173833 12.4907227,31.5625004 13.6865234,34.3232426 C14.8823242,37.0839848 22.0439453,53.9140625 22.0439453,53.9140625 C22.0439453,53.9140625 24.409668,62.3203133 24.409668,64.8676762 C24.409668,67.4150391 25.0634766,86.1396484 25.0634766,86.1396484 C24.6757813,86.479248 22.4838062,84.6390868 20.3691406,80.03125 Z" id="Path-74"></path>
        </g>
    </g>
</svg>