<?xml version="1.0" encoding="UTF-8"?>
<svg width="203px" height="203px" viewBox="0 0 203 203" version="1.1" xmlns="http://www.w3.org/2000/svg" xmlns:xlink="http://www.w3.org/1999/xlink">
    <!-- Generator: Sketch 3.8.3 (29802) - http://www.bohemiancoding.com/sketch -->
    <title>interesticon</title>
    <desc>Created with Sketch.</desc>
    <defs></defs>
    <g id="Page-1" stroke="none" stroke-width="1" fill="none" fill-rule="evenodd">
        <g id="interesticon">
            <circle id="Oval-69" fill="#DC6E30" cx="101.5" cy="101.5" r="101.5"></circle>
            <path d="M110.840911,85.0925703 C115.197067,88.6601592 118,94.2350561 118,100.5 C118,104.622641 116.78625,108.446471 114.714859,111.596133 L130.018782,122.236156 C133.657492,119.572585 138.145097,118 143,118 C155.150264,118 165,127.849736 165,140 C165,152.150264 155.150264,162 143,162 C130.849736,162 121,152.150264 121,140 C121,135.819146 122.166227,131.910679 124.191115,128.582165 L111.967641,114.90674 C108.679021,118.070506 104.303284,120 99.5,120 C92.3270316,120 86.1075287,115.697065 83.03805,109.406487 L68.9034369,116.676845 C68.9672465,117.275508 69,117.883809 69,118.5 C69,127.612698 61.836556,135 53,135 C44.163444,135 37,127.612698 37,118.5 C37,109.387302 44.163444,102 53,102 C59.443847,102 64.9979821,105.92835 67.5333587,111.589471 L81.9261327,106.609385 C81.3251712,104.687676 81,102.633865 81,100.5 C81,89.7304474 89.2827321,81 99.5,81 C101.667422,81 103.747788,81.3928745 105.680499,82.1147471 L113.231335,66.4023689 C108.932219,64.0606647 106,59.3854431 106,54 C106,46.2680135 112.044156,40 119.5,40 C126.955844,40 133,46.2680135 133,54 C133,61.7319865 126.955844,68 119.5,68 C118.504847,68 117.534844,67.8883353 116.601004,67.6764291 L110.840911,85.0925703 Z" id="Combined-Shape" fill="#FFFFFF"></path>
        </g>
    </g>
</svg>