<?xml version="1.0" encoding="UTF-8"?>
<svg width="128px" height="128px" viewBox="0 0 128 128" version="1.1" xmlns="http://www.w3.org/2000/svg" xmlns:xlink="http://www.w3.org/1999/xlink">
    <!-- Generator: Sketch 3.8.3 (29802) - http://www.bohemiancoding.com/sketch -->
    <title>kajkaiicon</title>
    <desc>Created with Sketch.</desc>
    <defs></defs>
    <g id="Page-1" stroke="none" stroke-width="1" fill="none" fill-rule="evenodd">
        <g id="kajkaiicon" fill="#90949C">
            <g id="Page-1">
                <path d="M33.3297244,0 L5.11657409,0 C2.28968216,0 0,2.29076825 0,5.11657409 L0,75.346903 L19.6407108,14.8990104 C21.9122163,7.90803565 27.0497315,2.64906397 33.3297244,4.26325642e-16 L33.3297244,0 Z M52.49807,0 L122.883426,0 C125.709232,0 128,2.28968216 128,5.11657409 L128,33.7059478 C125.40451,27.2553199 120.076044,21.9574149 112.945962,19.6407108 L52.49807,1.88293825e-15 L52.49807,0 Z M128,52.0209456 L128,122.883426 C128,125.709232 125.710318,128 122.883426,128 L94.1390253,128 C100.589653,125.40451 105.887558,120.076044 108.204262,112.945962 L128,52.0209456 L128,52.0209456 Z M75.8240275,128 L5.11657409,128 C2.29076825,128 0,125.710318 0,122.883426 L0,94.5152486 C2.64906397,100.795242 7.90803565,105.932756 14.8990104,108.204262 L75.8240275,128 L75.8240275,128 Z M37.12,19.84 L52.13875,18.56 C52.13875,18.56 52.1341,46.07 57.173125,46.07 C62.2121501,46.07 77.2812499,19.2 77.2812499,19.2 L90.8350003,23.99875 C90.8350003,23.99875 68.7375002,52.35625 68.7375002,62.0552637 C68.7375002,71.7542771 90.8349997,102.92125 90.8349997,102.92125 L76.3838867,108.835449 C76.3838867,108.835449 59.5967132,75.6063629 57.1731245,76.4613587 C54.7495358,77.3163546 57.173125,108.835449 57.173125,108.835449 L39.05875,108.835449 C39.05875,108.835449 41.6130596,80.2682611 40.6475,62.0552637 C39.6819404,43.842266 37.12,19.84 37.12,19.84 L37.12,19.84 Z" id="kajkai"></path>
            </g>
        </g>
    </g>
</svg>