<?xml version="1.0" encoding="UTF-8"?>
<svg width="200px" height="200px" viewBox="0 0 200 200" version="1.1" xmlns="http://www.w3.org/2000/svg" xmlns:xlink="http://www.w3.org/1999/xlink">
    <!-- Generator: Sketch 3.8.3 (29802) - http://www.bohemiancoding.com/sketch -->
    <title>Group</title>
    <desc>Created with Sketch.</desc>
    <defs></defs>
    <g id="Page-1" stroke="none" stroke-width="1" fill="none" fill-rule="evenodd">
        <g id="Group">
            <rect id="Rectangle-13" fill="#FFFFFF" x="0" y="0" width="200" height="200" rx="8"></rect>
            <path d="M52.0776944,0 L7.99464702,0 C3.57762838,0 0,3.57932539 0,7.99464702 L0,117.729536 L30.6886107,23.2797038 C34.2378379,12.3563057 42.2652054,4.13916245 52.0776944,6.66133815e-16 Z M82.0282344,0 L192.005353,0 C196.420675,0 200,3.57762838 200,7.99464702 L200,52.6655435 C195.944547,42.5864373 187.618819,34.3084608 176.478066,30.6886107 L82.0282344,2.94209102e-15 Z M200,81.2827275 L200,192.005353 C200,196.420675 196.422372,200 192.005353,200 L147.092227,200 C157.171333,195.944547 165.449309,187.618819 169.069159,176.478066 L200,81.2827275 Z M118.475043,200 L7.99464702,200 C3.57932539,200 0,196.422372 0,192.005353 L0,147.680076 C4.13916245,157.492565 12.3563057,165.519932 23.2797038,169.069159 L118.475043,200 Z" id="Combined-Shape" fill="#BD081C"></path>
            <path d="M58,31 C58,31 62.0030318,68.5035406 63.5117188,96.9613495 C65.0204057,125.419158 61.0292969,170.055389 61.0292969,170.055389 L89.3330078,170.055389 C89.3330078,170.055389 85.5461497,120.806804 89.333007,119.470873 C93.1198643,118.134942 119.349823,170.055389 119.349823,170.055389 L141.929687,160.814453 C141.929687,160.814453 107.402344,112.116058 107.402344,96.9613495 C107.402344,81.8066406 141.929688,37.4980469 141.929688,37.4980469 L120.751953,30 C120.751953,30 97.2064845,71.984375 89.3330078,71.984375 C81.4595312,71.984375 81.4667969,29 81.4667969,29 L58,31 Z" id="Path-1" fill="#BD081C"></path>
        </g>
    </g>
</svg>