<?xml version="1.0" encoding="UTF-8"?>
<svg width="150px" height="151px" viewBox="0 0 150 151" version="1.1" xmlns="http://www.w3.org/2000/svg" xmlns:xlink="http://www.w3.org/1999/xlink">
    <!-- Generator: Sketch 3.8.3 (29802) - http://www.bohemiancoding.com/sketch -->
    <title>languageicon</title>
    <desc>Created with Sketch.</desc>
    <defs></defs>
    <g id="Page-1" stroke="none" stroke-width="1" fill="none" fill-rule="evenodd">
        <g id="languageicon" fill="#90949C">
            <path d="M0,12.9900473 C0,5.81584227 5.8111834,0 13.0001603,0 L136.99984,0 C144.17963,0 150,5.81174428 150,13.0038133 L150,150.608398 C150,150.608398 119.912109,120 118.40332,120 C58.7016602,120 13.0029659,119.197866 13.0029659,119.197866 C5.82162613,119.088588 0,113.179826 0,106.009953 L0,12.9900473 Z M14.1357422,89.7714844 L28.5615234,89.9228516 L32.7529297,77.3681641 L56.2802734,77.2910156 L60.2412109,89.3320312 L74.7558594,89.4453125 L50.5576172,29.3134766 L38.2988281,29.4580078 L14.1357422,89.7714844 Z M82.4150391,89.3212891 C82.4150391,89.3212891 90.308594,88.9859348 95.2539062,88.1757812 C100.199218,87.3656277 105.019531,85.6181641 105.019531,85.6181641 C105.019531,85.6181641 106.953567,87.0838866 113.28125,88.1953125 C119.608933,89.3067384 126.102539,89.3212891 126.102539,89.3212891 L126.12793,79.0859375 L118.288086,78.7236328 C118.288086,78.7236328 128.173828,70.9423828 131.541016,62.4765625 C134.908203,54.0107422 135.074219,39.65625 135.074219,39.65625 L113.433594,39.65625 L113.433594,29.2294922 L103.220703,29.2294922 L103.220703,39.65625 L82.5673828,39.65625 L82.4150391,49.3925781 L123.515625,49.3925781 C123.515625,49.3925781 123.721324,55.5238932 118.789062,62.4765625 C113.856801,69.4292318 108.708008,73.9638672 105.019531,73.9638672 C101.331055,73.9638672 98.4589844,69.1220703 96.3125,65.6328125 C94.1660156,62.1435547 92.4208984,55.1933594 92.4208984,55.1933594 L82.5908203,55.2382812 C82.5908203,55.2382812 82.7577452,62.1908617 85.3876953,68.1103516 C88.0176454,74.0298414 92.9755859,78.6123047 92.9755859,78.6123047 L82.4150391,79.5039062 L82.4150391,89.3212891 Z" id="Combined-Shape"></path>
            <polygon id="Path-72" points="36.6142578 66.8417969 52.4384766 66.8027344 44.5566406 45.1777344"></polygon>
        </g>
    </g>
</svg>