<?xml version="1.0" encoding="UTF-8"?>
<svg width="334px" height="300px" viewBox="0 0 334 300" version="1.1" xmlns="http://www.w3.org/2000/svg" xmlns:xlink="http://www.w3.org/1999/xlink">
    <!-- Generator: Sketch 3.8.3 (29802) - http://www.bohemiancoding.com/sketch -->
    <title>last_timeicon</title>
    <desc>Created with Sketch.</desc>
    <defs></defs>
    <g id="Page-1" stroke="none" stroke-width="1" fill="none" fill-rule="evenodd">
        <g id="last_timeicon" fill="#90949C">
            <path d="M183.5,174 C197.030976,174 208,163.478692 208,150.5 C208,148.339634 207.12701,144.260355 207.12701,144.260355 C207.12701,144.260355 255.764971,84.3844429 252.357422,81.4277344 C249.146646,78.6417646 190.31153,126.140105 188.324134,127.455434 C186.336738,128.770763 185.151294,127 183.5,127 C169.969024,127 159,137.521308 159,150.5 C159,163.478692 169.969024,174 183.5,174 Z" id="Oval-55"></path>
            <path d="M34.0000894,149.83449 C34.0000298,149.889653 34,149.944823 34,150 C34,232.842712 101.157288,300 184,300 C266.842712,300 334,232.842712 334,150 C334,67.1572875 266.842712,0 184,0 C160.831103,0 138.889075,5.25285306 119.299877,14.632599 C119.244046,14.6936166 119.178744,14.7539352 119.103516,14.8134766 C116.148438,17.1523437 103.289062,25.5644531 111.196289,38.9902344 C119.103516,52.4160156 134.713867,45.8310547 134.713867,45.8310547 L134.746028,46.0517248 C149.675723,38.9650162 166.374822,35 184,35 C247.512746,35 299,86.4872538 299,150 C299,213.512746 247.512746,265 184,265 C120.487254,265 69,213.512746 69,150 C69,149.968863 69.0000124,149.93773 69.0000371,149.906599 L100.898926,149.743164 C100.898926,149.743164 102.134111,149.286087 102.878906,148.135742 C103.623701,146.985397 103.383301,145.216797 103.383301,145.216797 L55.6582031,76.8652344 C55.6582031,76.8652344 54.2753483,75.2109375 52.515625,75.2109375 C50.7559017,75.2109375 48.9257813,76.8652344 48.9257813,76.8652344 L0.81640625,144.561523 C0.81640625,144.561523 -0.0751953037,146.663086 0.779296875,148.203125 C1.63378905,149.743164 3.25195313,149.743164 3.25195313,149.743164 L34.0000894,149.83449 Z" id="Combined-Shape"></path>
        </g>
    </g>
</svg>