<?xml version="1.0" encoding="UTF-8"?>
<svg width="143px" height="128px" viewBox="0 0 143 128" version="1.1" xmlns="http://www.w3.org/2000/svg" xmlns:xlink="http://www.w3.org/1999/xlink">
    <!-- Generator: Sketch 3.8.3 (29802) - http://www.bohemiancoding.com/sketch -->
    <title>last_timeicon</title>
    <desc>Created with Sketch.</desc>
    <defs></defs>
    <g id="Page-1" stroke="none" stroke-width="1" fill="none" fill-rule="evenodd">
        <g id="last_timeicon" fill="#00BCD4">
            <path d="M78.2933333,74.24 C84.0665499,74.24 88.7466667,69.7509084 88.7466667,64.2133333 C88.7466667,63.2915773 88.3741911,61.5510849 88.3741911,61.5510849 C88.3741911,61.5510849 109.126388,36.004029 107.6725,34.7425 C106.302569,33.5538196 81.1995862,53.8197782 80.3516305,54.3809852 C79.5036748,54.9421921 78.9978854,54.1866667 78.2933333,54.1866667 C72.5201167,54.1866667 67.84,58.6757582 67.84,64.2133333 C67.84,69.7509084 72.5201167,74.24 78.2933333,74.24 Z" id="Oval-55"></path>
            <path d="M14.5067048,63.9293823 C14.5066794,63.9529186 14.5066667,63.9764578 14.5066667,64 C14.5066667,99.346224 43.1604427,128 78.5066667,128 C113.852891,128 142.506667,99.346224 142.506667,64 C142.506667,28.653776 113.852891,0 78.5066667,0 C68.6212705,0 59.2593387,2.2412173 50.901281,6.24324222 C50.8774595,6.26927641 50.8495975,6.29501234 50.8175,6.32041667 C49.5566667,7.31833333 44.07,10.9075 47.44375,16.6358333 C50.8175,22.3641667 57.4779167,19.5545833 57.4779167,19.5545833 L57.4916384,19.6487359 C63.861642,16.6250736 70.9865908,14.9333333 78.5066667,14.9333333 C105.605438,14.9333333 127.573333,36.9012283 127.573333,64 C127.573333,91.0987717 105.605438,113.066667 78.5066667,113.066667 C51.4078949,113.066667 29.44,91.0987717 29.44,64 C29.44,63.986715 29.4400053,63.9734313 29.4400158,63.9601488 L43.0502083,63.8904167 C43.0502083,63.8904167 43.5772208,63.6953971 43.895,63.2045833 C44.2127792,62.7137696 44.1102083,61.9591667 44.1102083,61.9591667 L23.7475,32.7958333 C23.7475,32.7958333 23.157482,32.09 22.4066667,32.09 C21.6558514,32.09 20.875,32.7958333 20.875,32.7958333 L0.348333333,61.6795833 C0.348333333,61.6795833 -0.0320833296,62.57625 0.3325,63.2333333 C0.69708333,63.8904167 1.3875,63.8904167 1.3875,63.8904167 L14.5067048,63.9293823 Z" id="Combined-Shape"></path>
        </g>
    </g>
</svg>