<?xml version="1.0" encoding="UTF-8"?>
<svg width="98px" height="100px" viewBox="0 0 98 100" version="1.1" xmlns="http://www.w3.org/2000/svg" xmlns:xlink="http://www.w3.org/1999/xlink">
    <!-- Generator: Sketch 3.8.3 (29802) - http://www.bohemiancoding.com/sketch -->
    <title>likehas</title>
    <desc>Created with Sketch.</desc>
    <defs></defs>
    <g id="Page-1" stroke="none" stroke-width="1" fill="none" fill-rule="evenodd">
        <g id="likehas" fill="#4673CC">
            <polygon id="Path-11" points="1.1274783e-14 41.935911 1.1274783e-14 98.2763949 16.6157314 98.2763949 17.2444948 38.9830508"></polygon>
            <path d="M22.0208732,38.4349024 L21.2202612,98.2821836 C21.2202612,98.2821836 61.3398173,99.9770989 76.1086826,99.9770977 C90.8775478,99.9770966 99.4335826,41.1514659 97.4563139,37.2541997 C95.4790447,33.3569335 67.2089503,36.7399862 67.2089503,36.7399862 C67.2089503,36.7399862 71.6369992,30.6974249 73.5471282,20.1792527 C75.4572579,9.6610804 76.1880058,0.582830672 71.0644224,0.05213401 C65.9408395,-0.478562653 65.8852705,2.86952458 53.4550024,18.0981262 C41.0247345,33.3267279 22.0208732,38.4349024 22.0208732,38.4349024 L22.0208732,38.4349024 Z" id="Path-12"></path>
        </g>
    </g>
</svg>