<?xml version="1.0" encoding="UTF-8"?>
<svg width="179px" height="177px" viewBox="0 0 179 177" version="1.1" xmlns="http://www.w3.org/2000/svg" xmlns:xlink="http://www.w3.org/1999/xlink">
    <!-- Generator: Sketch 3.8.3 (29802) - http://www.bohemiancoding.com/sketch -->
    <title>Group 8</title>
    <desc>Created with Sketch.</desc>
    <defs></defs>
    <g id="Page-1" stroke="none" stroke-width="1" fill="none" fill-rule="evenodd">
        <g id="Group-8" transform="translate(-20.000000, -24.000000)" fill="#BD081C">
            <g id="Group-4" transform="translate(20.745614, 24.000000)">
                <polygon id="Path-11" points="0 74.2265625 0 173.949219 30.273052 173.949219 31.4186284 69"></polygon>
                <path d="M40.1209567,68.0297772 L38.6622807,173.959465 C38.6622807,173.959465 111.758155,176.959465 138.666307,176.959463 C165.574459,176.959461 181.163137,72.8380946 177.56065,65.9399334 C173.958162,59.0417723 122.451429,65.0297755 122.451429,65.0297755 C122.451429,65.0297755 130.519118,54.3344421 133.99928,35.7172772 C137.479443,17.1001123 138.81083,1.03161029 129.475911,0.0922771977 C120.140993,-0.847055896 120.039749,5.0790585 97.3924068,32.0336834 C74.7450651,58.9883084 40.1209567,68.0297772 40.1209567,68.0297772 Z" id="Path-12"></path>
            </g>
        </g>
    </g>
</svg>