<?xml version="1.0" encoding="UTF-8"?>
<svg width="127px" height="128px" viewBox="0 0 127 128" version="1.1" xmlns="http://www.w3.org/2000/svg" xmlns:xlink="http://www.w3.org/1999/xlink">
    <!-- Generator: Sketch 3.8.3 (29802) - http://www.bohemiancoding.com/sketch -->
    <title>likeicon</title>
    <desc>Created with Sketch.</desc>
    <defs></defs>
    <g id="Page-1" stroke="none" stroke-width="1" fill="none" fill-rule="evenodd">
        <g id="likeicon">
            <path d="M1.47126437,126.545455 L31.3477011,126.545455" id="Path-56"></path>
            <rect id="Rectangle-54" fill="#90949C" x="0" y="56.7272727" width="30.8965517" height="71.2727273"></rect>
            <path d="M37.0574713,121.49858 C37.0574713,121.49858 98.341954,120.41131 105.956897,120.859375 C113.571839,121.30744 119.73074,115.257672 119.692529,112.083807 C119.654318,108.909941 114.603448,105.822443 114.603448,105.822443 C114.603448,105.822443 121.405893,101.112991 122.104885,97.6704545 C122.803877,94.2279179 117.885057,89.6605114 117.885057,89.6605114 C117.885057,89.6605114 125.42374,85.184852 125.863506,80.5980114 C126.303271,76.0111707 119.692529,70.8082386 119.692529,70.8082386 C119.692529,70.8082386 126.767241,67.4715909 126.938218,60.6775568 C127.109195,53.8835227 119.142241,49.4673295 113.132184,49.5838068 C107.122126,49.7002841 76.8333333,49.5838068 76.8333333,49.5838068 C76.8333333,49.5838068 87.3520115,29.3877841 87.3520115,19.9275568 C87.3520115,10.4673295 78.6781609,-1.80418428e-09 74.9511494,0 C71.2241379,1.80418169e-09 67.4482759,4.875 67.4482759,8.78409091 C67.4482759,12.6931818 69.0373563,18.1264205 67.2097701,22.1463068 C65.3821839,26.1661932 36.7816092,54.7883523 36.7816092,60.6775568 C36.7816092,66.5667614 37.0574713,121.49858 37.0574713,121.49858 Z" id="Path-57" fill="#90949C"></path>
        </g>
    </g>
</svg>