<?xml version="1.0" encoding="UTF-8"?>
<svg width="200px" height="200px" viewBox="0 0 200 200" version="1.1" xmlns="http://www.w3.org/2000/svg" xmlns:xlink="http://www.w3.org/1999/xlink">
    <!-- Generator: Sketch 44.1 (41455) - http://www.bohemiancoding.com/sketch -->
    <title>map</title>
    <desc>Created with Sketch.</desc>
    <defs></defs>
    <g id="Page-1" stroke="none" stroke-width="1" fill="none" fill-rule="evenodd">
        <path d="M168.079913,76.4579614 L104.236063,21.4154658 L110.797616,0 L192.005353,0 C196.420675,0 200,3.57762838 200,7.99464702 L200,50.8234054 L168.079913,76.4579614 Z M151.133132,90.0676744 L88.578125,140.304688 L48.4492188,109.964844 L88.578125,72.5195312 L98.5333111,40.0279935 L151.133132,90.0676744 Z M93.7637264,1.24344979e-14 L75.5117188,67.4921875 L39.21875,102.078125 L4.4408921e-15,68.5403142 L0,7.99464702 C0,3.57932539 3.57762838,0 7.99464702,0 L93.7637264,0 Z M200,68.4327067 L200,192.005353 C200,196.420675 196.422372,200 192.005353,200 L153.098979,200 L96.875,149.53125 L200,68.4327067 Z M133.159013,200 L39.6098505,200 L85.1640625,155.664062 L133.159013,200 Z M18.7383468,200 L7.99464702,200 C3.57932539,200 0,196.422372 0,192.005353 L0,149.415352 L34.890625,117.144531 L75.5117188,149.53125 L18.7383468,200 Z M0,131.882731 L0,85.6802776 L28.375,108.601562 L8.8817842e-16,131.882731 Z M35.5,41 C40.7467051,41 45,36.7467051 45,31.5 C45,26.2532949 40.7467051,22 35.5,22 C30.2532949,22 26,26.2532949 26,31.5 C26,36.7467051 30.2532949,41 35.5,41 Z" id="map" fill="#BD081C"></path>
    </g>
</svg>