<?xml version="1.0" encoding="UTF-8"?>
<svg width="240px" height="200px" viewBox="0 0 240 200" version="1.1" xmlns="http://www.w3.org/2000/svg" xmlns:xlink="http://www.w3.org/1999/xlink">
    <!-- Generator: Sketch 44.1 (41455) - http://www.bohemiancoding.com/sketch -->
    <title>social11 copy + social11</title>
    <desc>Created with Sketch.</desc>
    <defs>
        <path d="M93.0691371,0.27394636 C41.6683822,0.27394636 0,33.302682 0,74.0287356 C0,93.3122605 9.34680048,110.89272 24.6500257,124.034483 C24.0650197,136.840996 21.4324927,154.059387 12.125579,162.936782 C29.9017842,162.936782 48.1034483,151.136015 58.8994682,142.6341 C69.4827586,145.95977 81.010036,147.783525 93.0691371,147.783525 C144.469892,147.783525 186.138274,114.754789 186.138274,74.0287356 C186.138274,33.302682 144.469892,0.27394636 93.0691371,0.27394636 L93.0691371,0.27394636 Z" id="path-1"></path>
    </defs>
    <g id="Page-1" stroke="none" stroke-width="1" fill="none" fill-rule="evenodd">
        <g id="social11-copy-+-social11" transform="translate(12.000000, 10.000000)">
            <g id="social11-copy" transform="translate(133.588694, 107.783525) scale(-1, 1) translate(-133.588694, -107.783525) translate(40.088694, 26.283525)" stroke="#F9F9F9" stroke-width="1.5" fill="#B5B5B5">
                <path d="M93.0691371,0.27394636 C41.6683822,0.27394636 0,33.302682 0,74.0287356 C0,93.3122605 9.34680048,110.89272 24.6500257,124.034483 C24.0650197,136.840996 21.4324927,154.059387 12.125579,162.936782 C29.9017842,162.936782 48.1034483,151.136015 58.8994682,142.6341 C69.4827586,145.95977 81.010036,147.783525 93.0691371,147.783525 C144.469892,147.783525 186.138274,114.754789 186.138274,74.0287356 C186.138274,33.302682 144.469892,0.27394636 93.0691371,0.27394636 L93.0691371,0.27394636 Z" id="Shape"></path>
            </g>
            <g id="social11">
                <g id="Shape">
                    <use fill="#B5B5B5" fill-rule="evenodd" xlink:href="#path-1"></use>
                    <path stroke="#F9F9F9" stroke-width="9.5" d="M59.8724056,147.889697 C44.1247339,159.901346 27.7425347,167.686782 12.125579,167.686782 L0.263815866,167.686782 L8.84707113,159.499648 C15.3283778,153.317457 18.828773,141.19339 19.7824932,126.074097 C4.12875404,111.887869 -4.75,93.5378309 -4.75,74.0287356 C-4.75,30.402485 39.2591089,-4.47605364 93.0691371,-4.47605364 C146.879165,-4.47605364 190.888274,30.402485 190.888274,74.0287356 C190.888274,117.654986 146.879165,152.533525 93.0691371,152.533525 C81.6121745,152.533525 70.422347,150.949619 59.8724056,147.889697 Z"></path>
                </g>
            </g>
        </g>
    </g>
</svg>