<?xml version="1.0" encoding="UTF-8"?>
<svg width="189px" height="188px" viewBox="0 0 189 188" version="1.1" xmlns="http://www.w3.org/2000/svg" xmlns:xlink="http://www.w3.org/1999/xlink">
    <!-- Generator: Sketch 3.8.3 (29802) - http://www.bohemiancoding.com/sketch -->
    <title>openicon</title>
    <desc>Created with Sketch.</desc>
    <defs></defs>
    <g id="Page-1" stroke="none" stroke-width="1" fill="none" fill-rule="evenodd">
        <g id="openicon" fill="#5890FF">
            <polygon id="Path-98" transform="translate(62.325195, 124.845703) rotate(180.000000) translate(-62.325195, -124.845703) " points="0.5 169.742188 17.3925781 187.376953 102.345703 102.384766 124.150391 125.355469 124.115234 62.3144531 62.1914062 62.5449219 84.3183594 84.90625"></polygon>
            <path d="M77.3984375,175.59375 L109.597656,144.503906 L154.070312,144.503906 L154.070312,39.8710938 L47.1972656,39.8710938 L47.1972656,83.7011719 L14.0722656,113.228516 L13.8164062,21.7714844 C13.8164062,21.7714844 16.4790662,11.3815723 21.9648438,6.08398438 C27.4506213,0.786396466 35.7929688,0.548828125 35.7929688,0.548828125 L168.013672,0.341796875 C168.013672,0.341796875 176.740366,1.70514862 181.570312,7.08398438 C186.400259,12.4628201 188.328125,22.9648438 188.328125,22.9648438 L188.402344,151.541016 C188.402344,151.541016 187.744775,162.134898 181.689453,168.605469 C175.634132,175.07604 166.101562,175.371094 166.101562,175.371094 L77.3984375,175.59375 Z" id="Path-99"></path>
        </g>
    </g>
</svg>