<?xml version="1.0" encoding="UTF-8"?>
<svg width="128px" height="159px" viewBox="0 0 128 159" version="1.1" xmlns="http://www.w3.org/2000/svg" xmlns:xlink="http://www.w3.org/1999/xlink">
    <!-- Generator: Sketch 3.8.3 (29802) - http://www.bohemiancoding.com/sketch -->
    <title>page</title>
    <desc>Created with Sketch.</desc>
    <defs></defs>
    <g id="Page-1" stroke="none" stroke-width="1" fill="none" fill-rule="evenodd">
        <g id="page">
            <path d="M0,22.3613444 C0,10.2152395 9.85389121,0.368876081 22.0010563,0.368876081 L91.0662824,0.368876081 C91.0662824,0.368876081 88.667147,21.6469741 96.7651297,29.6181556 C104.863112,37.5893372 127.631124,37.5893372 127.631124,37.5893372 L127.631124,136.984057 C127.631124,149.135169 117.775248,158.985591 105.63608,158.985591 L21.9950437,158.985591 C9.84751649,158.985591 0,149.138293 0,136.993122 L0,22.3613444 Z" id="Rectangle-108" fill="#BD081C"></path>
            <rect id="Rectangle-109" fill="#FFFFFF" x="13.2795389" y="62.3400576" width="101.072046" height="8.85302594" rx="4.42651297"></rect>
            <rect id="Rectangle-109" fill="#FFFFFF" x="12.9106628" y="79.6772334" width="101.072046" height="8.85302594" rx="4.42651297"></rect>
            <rect id="Rectangle-109" fill="#FFFFFF" x="13.2795389" y="96.2766571" width="101.072046" height="8.85302594" rx="4.42651297"></rect>
            <rect id="Rectangle-109" fill="#FFFFFF" x="13.2795389" y="113.613833" width="101.072046" height="8.85302594" rx="4.42651297"></rect>
            <rect id="Rectangle-109" fill="#FFFFFF" x="13.2795389" y="130.582133" width="73.7752161" height="8.85302594" rx="4.42651297"></rect>
            <path d="M127.945245,28.6541787 L99.9121037,0.239193084 C99.9121037,0.239193084 95.891931,19.0907781 102.622478,24.9913545 C109.353026,30.8919308 127.945245,28.6541787 127.945245,28.6541787 Z" id="Path-102" fill="#BD081C"></path>
        </g>
    </g>
</svg>