<?xml version="1.0" encoding="UTF-8"?>
<svg width="128px" height="128px" viewBox="0 0 128 128" version="1.1" xmlns="http://www.w3.org/2000/svg" xmlns:xlink="http://www.w3.org/1999/xlink">
    <!-- Generator: Sketch 3.8.3 (29802) - http://www.bohemiancoding.com/sketch -->
    <title>passwordicon</title>
    <desc>Created with Sketch.</desc>
    <defs></defs>
    <g id="Page-1" stroke="none" stroke-width="1" fill="none" fill-rule="evenodd">
        <path d="M53.8994553,76.6410719 L53.8994553,88.9475225 L74.9123735,88.9475225 L74.9123735,108.036064 L97.2451362,108.036064 L97.2451362,128 L128,128 L128,98.8398962 L77.7690429,52.3439738 C79.151261,48.3336717 79.9012192,44.0333754 79.9012192,39.5596311 C79.9012192,17.7114502 62.014722,0 39.9506096,0 C17.8864972,0 0,17.7114502 0,39.5596311 C0,61.4078121 17.8864972,79.1192623 39.9506096,79.1192623 C44.8570536,79.1192623 49.5569172,78.2434422 53.8994553,76.6410719 Z M33.1505058,42.084714 C38.314447,42.084714 42.5006485,37.939481 42.5006485,32.8260769 C42.5006485,27.7126728 38.314447,23.5674398 33.1505058,23.5674398 C27.9865646,23.5674398 23.8003632,27.7126728 23.8003632,32.8260769 C23.8003632,37.939481 27.9865646,42.084714 33.1505058,42.084714 Z" id="passwordicon" fill="#90949C"></path>
    </g>
</svg>