<?xml version="1.0" encoding="UTF-8"?>
<svg width="128px" height="128px" viewBox="0 0 128 128" version="1.1" xmlns="http://www.w3.org/2000/svg" xmlns:xlink="http://www.w3.org/1999/xlink">
    <!-- Generator: Sketch 3.8.3 (29802) - http://www.bohemiancoding.com/sketch -->
    <title>phoneicon</title>
    <desc>Created with Sketch.</desc>
    <defs></defs>
    <g id="Page-1" stroke="none" stroke-width="1" fill="none" fill-rule="evenodd">
        <path d="M28.8436848,0 C40.0387953,4.45674453e-10 53.0549404,24.8387267 50.8741365,33.389145 C48.6933325,41.9395633 35.2566642,39.9847278 33.8841524,51.3372755 C32.5116406,62.6898232 49.4910588,79.3198305 49.4910588,79.3198305 C49.4910588,79.3198305 63.3997738,94.6166601 74.3621555,95.1601558 C85.3245371,95.7036516 88.0059157,76.757089 102.558344,83.0288526 C117.110773,89.3006162 128,97.6742251 128,107.769242 C128,117.864258 107.797979,128 84.749502,128 C61.7010249,128 28.296899,93.3672301 28.296899,93.3672301 C28.296899,93.3672301 -0.112311601,60.6083606 0.000334106325,41.3733762 C0.112979813,22.1383917 17.6485744,-4.45674447e-10 28.8436848,0 Z" id="phoneicon" fill="#90949C"></path>
    </g>
</svg>