<?xml version="1.0" encoding="UTF-8"?>
<svg width="190px" height="190px" viewBox="0 0 190 190" version="1.1" xmlns="http://www.w3.org/2000/svg" xmlns:xlink="http://www.w3.org/1999/xlink">
    <!-- Generator: Sketch 3.8.3 (29802) - http://www.bohemiancoding.com/sketch -->
    <title>photo</title>
    <desc>Created with Sketch.</desc>
    <defs>
        <rect id="path-1" x="46" y="14" width="89" height="90"></rect>
        <mask id="mask-2" maskContentUnits="userSpaceOnUse" maskUnits="objectBoundingBox" x="0" y="0" width="89" height="90" fill="white">
            <use xlink:href="#path-1"></use>
        </mask>
    </defs>
    <g id="Page-1" stroke="none" stroke-width="1" fill="none" fill-rule="evenodd">
        <g id="photo">
            <circle id="Oval-79" fill="#A5D950" cx="95" cy="95" r="95"></circle>
            <g id="photoproducticon" transform="translate(20.000000, 32.000000)">
                <g>
                    <path d="M14,14 L112,14 L112,112 L14,112 L14,14 Z M22,22 L104,22 L104,104 L22,104 L22,22 Z" id="Combined-Shape" fill="#FFFFFF" transform="translate(63.000000, 63.000000) rotate(-20.000000) translate(-63.000000, -63.000000) "></path>
                    <use id="Rectangle-68" stroke="#979797" mask="url(#mask-2)" stroke-width="2" fill="#A5D950" xlink:href="#path-1"></use>
                    <path d="M41,10 L139,10 L139,108 L41,108 L41,10 Z M49,18 L131,18 L131,100 L49,100 L49,18 Z" id="Combined-Shape" fill="#FFFFFF"></path>
                </g>
            </g>
            <polygon id="Path-108" fill="#FFFFFF" points="76.0283203 125.106445 144.165039 125.106445 144.165039 87.9169922 132.821289 77.5136719 107.069336 98.5175781 93.5478516 86.4296875 76.0283203 101.478027"></polygon>
            <circle id="Oval-78" fill="#FFFFFF" cx="95.5" cy="69.5" r="8.5"></circle>
        </g>
    </g>
</svg>