<?xml version="1.0" encoding="UTF-8"?>
<svg width="139px" height="126px" viewBox="0 0 139 126" version="1.1" xmlns="http://www.w3.org/2000/svg" xmlns:xlink="http://www.w3.org/1999/xlink">
    <!-- Generator: Sketch 3.8.3 (29802) - http://www.bohemiancoding.com/sketch -->
    <title>photousericon</title>
    <desc>Created with Sketch.</desc>
    <defs>
        <rect id="path-1" x="46" y="14" width="89" height="90"></rect>
        <mask id="mask-2" maskContentUnits="userSpaceOnUse" maskUnits="objectBoundingBox" x="0" y="0" width="89" height="90" fill="white">
            <use xlink:href="#path-1"></use>
        </mask>
    </defs>
    <g id="Page-1" stroke="none" stroke-width="1" fill="none" fill-rule="evenodd">
        <g id="photousericon">
            <path d="M14,14 L112,14 L112,112 L14,112 L14,14 Z M22,22 L104,22 L104,104 L22,104 L22,22 Z" id="Combined-Shape" fill="#A5D950" transform="translate(63.000000, 63.000000) rotate(-20.000000) translate(-63.000000, -63.000000) "></path>
            <use id="Rectangle-68" stroke="#979797" mask="url(#mask-2)" stroke-width="2" fill="#FFFFFF" xlink:href="#path-1"></use>
            <path d="M53.0435914,94.6655324 L127,94.7513476 C127,94.7513476 126.894994,87.5342092 123.219165,83.1306198 C119.543337,78.7270305 115.978381,77.8750495 111.350477,76.0034449 C106.722573,74.1318404 101.46721,73.8572432 99.4718523,72.185122 C97.4764945,70.5130008 97.8544623,65.2146726 97.8544623,65.2146726 C97.8544623,65.2146726 99.1309891,64.947669 100.073462,62.1040989 C101.015934,59.2605288 100.073462,56.62864 100.073462,56.62864 C100.073462,56.62864 101.388406,56.8284081 102.394536,55.3648988 C103.400666,53.9013896 103.290627,50.9919389 103.290627,50.9919389 C103.290627,50.9919389 104.481849,48.3605744 104.467198,47.3416323 C104.452547,46.3226902 103.319533,46.5936854 103.319533,46.5936854 L103.319533,43.219343 C103.319533,40.730704 104.649668,34.3943836 102.394536,31.1839932 C100.139404,27.9736029 96.515468,27.009492 92.3690669,26.2491699 C88.2226658,25.4888478 86.1367967,26.6338151 84.0513196,27.4718101 C81.9658424,28.3098051 80.0880134,31.1839932 80.0880134,31.1839932 C80.0880134,31.1839932 76.8109447,31.5257767 76.5804316,33.5877211 C76.3499185,35.6496654 76.5804316,37.4430801 76.5804316,37.4430801 L76.7809681,46.5936861 C76.7809681,46.5936861 75.6249193,46.6668548 75.4147004,47.341633 C75.2044815,48.0164111 76.7809681,50.9919389 76.7809681,50.9919389 C76.7809681,50.9919389 76.4661619,54.6318567 77.3432832,55.3648988 C78.2204045,56.097941 79.2072788,56.62864 79.2072788,56.62864 C79.2072788,56.62864 78.9852803,60.348735 79.4656276,62.1040989 C79.945975,63.8594627 81.5568076,65.2146726 81.5568076,65.2146726 C81.5568076,65.2146726 82.0310493,70.9620301 80.0880134,72.185122 C78.1449775,73.4082138 68.4042586,75.4921817 63.1449391,78.2066363 C57.8856195,80.9210908 57.2451939,81.3569056 54.8967473,85.1834088 C52.5483006,89.009912 53.0435914,94.6655324 53.0435914,94.6655324 Z" id="Path-60" fill="#A5D950"></path>
            <path d="M41,10 L139,10 L139,108 L41,108 L41,10 Z M49,18 L131,18 L131,100 L49,100 L49,18 Z" id="Combined-Shape" fill="#A5D950"></path>
        </g>
    </g>
</svg>