<?xml version="1.0" encoding="UTF-8"?>
<svg width="139px" height="126px" viewBox="0 0 139 126" version="1.1" xmlns="http://www.w3.org/2000/svg" xmlns:xlink="http://www.w3.org/1999/xlink">
    <!-- Generator: Sketch 3.8.3 (29802) - http://www.bohemiancoding.com/sketch -->
    <title>photo</title>
    <desc>Created with Sketch.</desc>
    <defs>
        <rect id="path-1" x="46" y="14" width="89" height="90"></rect>
        <mask id="mask-2" maskContentUnits="userSpaceOnUse" maskUnits="objectBoundingBox" x="0" y="0" width="89" height="90" fill="white">
            <use xlink:href="#path-1"></use>
        </mask>
    </defs>
    <g id="Page-1" stroke="none" stroke-width="1" fill="none" fill-rule="evenodd">
        <g id="photo">
            <g id="photostoreicon">
                <path d="M14,14 L112,14 L112,112 L14,112 L14,14 Z M22,22 L104,22 L104,104 L22,104 L22,22 Z" id="Combined-Shape" fill="#BD081C" transform="translate(63.000000, 63.000000) rotate(-20.000000) translate(-63.000000, -63.000000) "></path>
                <use id="Rectangle-68" stroke="#979797" mask="url(#mask-2)" stroke-width="2" fill="#FFFFFF" xlink:href="#path-1"></use>
                <path d="M41,10 L139,10 L139,108 L41,108 L41,10 Z M49,18 L131,18 L131,100 L49,100 L49,18 Z" id="Combined-Shape" fill="#BD081C"></path>
            </g>
            <g id="storenameicon" transform="translate(56.000000, 32.000000)" fill="#BD081C">
                <path d="M3.8490566,24.9015226 C3.8490566,24.9015226 4.89919915,24.764433 5.81117335,24.1525689 C6.72314754,23.5407049 7.39134974,22.5249182 7.39134974,22.5249182 C7.39134974,22.5249182 9.32105225,24.8881297 11.2999214,24.8881297 C13.2787905,24.8881297 15.2801199,22.5249182 15.2801199,22.5249182 C15.2801199,22.5249182 16.7149543,24.8881297 18.6411532,24.8881297 C20.5673521,24.8881297 22.5098393,22.5249182 22.5098393,22.5249182 C22.5098393,22.5249182 23.9716149,24.888573 26.2914456,24.8881297 C28.6112762,24.8876865 30.2804147,22.5249182 30.2804147,22.5249182 C30.2804147,22.5249182 31.6354781,24.8881297 34,24.8881297 C36.3645219,24.8881297 37.4059306,22.5249182 37.4059306,22.5249182 C37.4059306,22.5249182 39.3484746,24.8881297 41.2775403,24.8881297 C43.206606,24.8881297 45.2166003,22.5249182 45.2166003,22.5249182 C45.2166003,22.5249182 46.7355911,24.8881297 48.8883648,24.8881297 C51.0411385,24.8881297 52.6265355,22.7597118 52.6265355,22.7597118 C52.6265355,22.7597118 54.3046444,24.9496324 56.3233589,24.8881297 C58.3420734,24.8266271 60.3332105,22.5249182 60.3332105,22.5249182 C60.3332105,22.5249182 60.905021,23.5413077 61.8925044,24.1525689 C62.8799879,24.7638302 64.1509434,24.8881297 64.1509434,24.8881297 L64.1509434,50.3826889 L3.8490566,50.3826889 L3.8490566,24.9015226 Z M7.27044025,26.3826889 L43.1949686,26.3826889 L43.1949686,43.0969746 L7.27044025,43.0969746 L7.27044025,26.3826889 Z M47.0440252,26.3826889 L59.4465409,26.3826889 L59.4465409,49.9541175 L47.0440252,49.9541175 L47.0440252,26.3826889 Z" id="Combined-Shape"></path>
                <rect id="Rectangle-38" x="9.40880503" y="28.2857143" width="31.6477987" height="12.6179389"></rect>
                <rect id="Rectangle-40" x="48.754717" y="28.2857143" width="9.20165094" height="20.1428571"></rect>
                <path d="M2.2813986,51.239204 C5.01971676,51.239204 62.3807254,51.239204 65.3660812,51.239204 C68.351437,51.239204 67.6065632,53.8106325 67.6065632,53.8106325 L0.0342361307,53.8106325 C0.0342361307,53.8106325 -0.456919561,51.239204 2.2813986,51.239204 Z" id="Rectangle-41"></path>
                <path d="M10.914147,0.239203962 C14.3645572,0.239203962 53.1687813,0.239203962 56.8825163,0.239203962 C60.5962514,0.239203962 59.5101573,3.66777539 59.5101573,3.66777539 L8.18940255,3.66777539 C8.18940255,3.66777539 7.4637368,0.239203962 10.914147,0.239203962 Z" id="Rectangle-42"></path>
                <path d="M8.07775649,4.9773457 L13.9385897,4.97464893 L7.69644261,18.7847536 L15.2863846,18.7847536 L19.508562,4.97208599 L25.4133433,4.969369 L22.7577142,18.7847536 L30.0755577,18.7847536 L30.9884963,4.96680368 L36.9623877,4.96405488 L37.7362913,18.7847536 L45.2560682,18.7847536 L42.4302187,4.96153894 L48.3015334,4.95883735 L52.8764986,18.7847536 L59.9234965,18.7847536 L54.0214503,4.95620541 L59.9234965,4.95348968 L67.9122936,19.2495276 C67.9122936,19.2495276 67.8364903,23.4745555 64.892271,23.9497927 C61.9480518,24.4250299 60.3707989,21.6096002 60.3707989,21.6096002 C60.3707989,21.6096002 58.4638119,24.0238719 56.2832645,23.9497927 C54.1027172,23.8757134 52.8764986,21.6485232 52.8764986,21.6485232 C52.8764986,21.6485232 51.3230518,24.0309869 48.9718947,23.9497927 C46.6207375,23.8685985 45.2560682,21.5614696 45.2560682,21.5614696 C45.2560682,21.5614696 43.8711429,24.161358 41.337473,23.9742765 C38.8038031,23.787195 37.7362913,21.6338747 37.7362913,21.6338747 C37.7362913,21.6338747 35.969008,23.9742765 33.7452339,24.0148736 C31.5214598,24.0554707 30.3276091,21.6079261 30.3276091,21.6079261 C30.3276091,21.6079261 28.7704034,23.9742765 26.2045745,23.9742765 C23.6387456,23.9742765 22.7577142,21.5551917 22.7577142,21.5551917 C22.7577142,21.5551917 21.0560019,23.9742765 18.8040365,23.9742765 C16.552071,23.9742765 15.2863846,21.6903758 15.2863846,21.6903758 C15.2863846,21.6903758 13.3541298,23.9497927 11.0921408,23.9497927 C8.83015183,23.9497927 7.69644261,21.4857162 7.69644261,21.4857162 C7.69644261,21.4857162 5.91266215,23.9742765 3.21193249,23.9742765 C0.51120283,23.9742765 0,19.4035455 0,19.4035455 L8.07775649,4.9773457 Z M7.58649641,19.4093002 L15.2126695,19.4255181 C15.2126695,19.4255181 14.3689134,23.2857999 11.26463,23.2857999 C8.16034665,23.2857999 7.58649641,19.4093002 7.58649641,19.4093002 Z M22.6595666,19.3295709 L30.2380233,19.392873 C30.2380233,19.392873 29.6999865,23.3533601 26.3182795,23.337488 C22.9365726,23.3216159 22.6595666,19.3295709 22.6595666,19.3295709 Z M37.6657085,19.3174336 L45.406944,19.3698541 C45.406944,19.3698541 44.7927906,23.3440798 41.3954218,23.3440798 C37.998053,23.3440798 37.6657085,19.3174336 37.6657085,19.3174336 Z M52.7590347,19.3676568 L60.3359252,19.3896295 C60.3359252,19.3896295 59.806398,23.3115393 56.4325742,23.3115393 C53.0587504,23.3115393 52.7590347,19.3676568 52.7590347,19.3676568 Z" id="Combined-Shape"></path>
            </g>
        </g>
    </g>
</svg>