<?xml version="1.0" encoding="UTF-8"?>
<svg width="160px" height="160px" viewBox="0 0 160 160" version="1.1" xmlns="http://www.w3.org/2000/svg" xmlns:xlink="http://www.w3.org/1999/xlink">
    <!-- Generator: Sketch 3.8.3 (29802) - http://www.bohemiancoding.com/sketch -->
    <title>add</title>
    <desc>Created with Sketch.</desc>
    <defs></defs>
    <g id="Page-1" stroke="none" stroke-width="1" fill="none" fill-rule="evenodd">
        <g id="add" fill="#BB0F23">
            <path d="M67,67 L34.9970253,67 C27.8120349,67 22,72.8202983 22,80 C22,87.1812804 27.8189664,93 34.9970253,93 L67,93 L67,125.002975 C67,132.181034 72.8187196,138 80,138 C87.1797017,138 93,132.187965 93,125.002975 L93,93 L125.002975,93 C132.187965,93 138,87.1797017 138,80 C138,72.8187196 132.181034,67 125.002975,67 L93,67 L93,34.9970253 C93,27.8189664 87.1812804,22 80,22 C72.8202983,22 67,27.8120349 67,34.9970253 L67,67 Z M0,28.0071511 C0,12.5392286 12.5382566,0 28.0071511,0 L131.992849,0 C147.460771,0 160,12.5382566 160,28.0071511 L160,131.992849 C160,147.460771 147.461743,160 131.992849,160 L28.0071511,160 C12.5392286,160 0,147.461743 0,131.992849 L0,28.0071511 Z"></path>
        </g>
    </g>
</svg>
