<?xml version="1.0" encoding="UTF-8"?>
<svg width="80px" height="80px" viewBox="0 0 80 80" version="1.1" xmlns="http://www.w3.org/2000/svg" xmlns:xlink="http://www.w3.org/1999/xlink">
    <!-- Generator: Sketch 3.8.3 (29802) - http://www.bohemiancoding.com/sketch -->
    <title>plusimage</title>
    <desc>Created with Sketch.</desc>
    <defs>
        <path d="M46,34.5 L46,21 L35,21 L35,34.5 L21.5,34.5 L21.5,45.5 L35,45.5 L35,59 L46,59 L46,45.5 L59.5,45.5 L59.5,34.5 L46,34.5 Z M0,3.99458325 C0,1.78843584 1.78307965,0 3.99458325,0 L76.0054168,0 C78.2115642,0 80,1.78307965 80,3.99458325 L80,76.0054168 C80,78.2115642 78.2169203,80 76.0054168,80 L3.99458325,80 C1.78843584,80 0,78.2169203 0,76.0054168 L0,3.99458325 Z" id="path-1"></path>
        <mask id="mask-2" maskContentUnits="userSpaceOnUse" maskUnits="objectBoundingBox" x="0" y="0" width="80" height="80" fill="white">
            <use xlink:href="#path-1"></use>
        </mask>
    </defs>
    <g id="Page-1" stroke="none" stroke-width="1" fill="none" fill-rule="evenodd">
        <g id="plusimage">
            <rect id="Rectangle-50" fill="#3B5998" x="8" y="8" width="65" height="63"></rect>
            <use id="Combined-Shape" stroke="#979797" mask="url(#mask-2)" stroke-width="2" fill="#FFFFFF" xlink:href="#path-1"></use>
        </g>
    </g>
</svg>