<?xml version="1.0" encoding="UTF-8"?>
<svg width="128px" height="128px" viewBox="0 0 128 128" version="1.1" xmlns="http://www.w3.org/2000/svg" xmlns:xlink="http://www.w3.org/1999/xlink">
    <!-- Generator: Sketch 3.8.3 (29802) - http://www.bohemiancoding.com/sketch -->
    <title>positionicon</title>
    <desc>Created with Sketch.</desc>
    <defs></defs>
    <g id="Page-1" stroke="none" stroke-width="1" fill="none" fill-rule="evenodd">
        <g id="positionicon" fill="#90949C">
            <g id="Page-1">
                <path d="M107.571144,48.9330953 L66.7110803,13.7058981 L70.9104742,0 L122.883426,0 C125.709232,0 128,2.28968216 128,5.11657409 L128,32.5269795 L107.571144,48.9330953 L107.571144,48.9330953 Z M96.7252045,57.6433116 L56.69,89.7950003 L31.0075,70.3775002 L56.69,46.4125 L63.0613191,25.6179158 L96.7252045,57.6433116 L96.7252045,57.6433116 Z M60.0087849,7.95807866e-15 L48.3275,43.195 L25.1,65.33 L2.84217094e-15,43.8658011 L0,5.11657409 C0,2.29076825 2.28968216,0 5.11657409,0 L60.0087849,0 L60.0087849,7.95807866e-15 Z M128,43.7969323 L128,122.883426 C128,125.709232 125.710318,128 122.883426,128 L97.9833466,128 L62,95.7 L128,43.7969323 L128,43.7969323 Z M85.2217683,128 L25.3503043,128 L54.505,99.6249997 L85.2217683,128 L85.2217683,128 Z M11.992542,128 L5.11657409,128 C2.29076825,128 0,125.710318 0,122.883426 L0,95.6258253 L22.33,74.9724998 L48.3275,95.7 L11.992542,128 L11.992542,128 Z M0,84.4049478 L0,54.8353777 L18.16,69.5049997 L5.68434189e-16,84.4049478 L0,84.4049478 Z M22.72,26.24 C26.0778913,26.24 28.8,23.5178913 28.8,20.16 C28.8,16.8021087 26.0778913,14.08 22.72,14.08 C19.3621087,14.08 16.64,16.8021087 16.64,20.16 C16.64,23.5178913 19.3621087,26.24 22.72,26.24 L22.72,26.24 Z" id="map"></path>
            </g>
        </g>
    </g>
</svg>