<?xml version="1.0" encoding="UTF-8"?>
<svg width="157px" height="157px" viewBox="0 0 157 157" version="1.1" xmlns="http://www.w3.org/2000/svg" xmlns:xlink="http://www.w3.org/1999/xlink">
    <!-- Generator: Sketch 3.8.3 (29802) - http://www.bohemiancoding.com/sketch -->
    <title>removehover</title>
    <desc>Created with Sketch.</desc>
    <defs></defs>
    <g id="Page-1" stroke="none" stroke-width="1" fill="none" fill-rule="evenodd">
        <path d="M63.4213562,63.4213562 L-13.5839967,63.4213562 C-18.0010154,63.4213562 -21.5786438,67.0030964 -21.5786438,71.4213967 L-21.5786438,85.4213158 C-21.5786438,89.8324536 -17.9993184,93.4213562 -13.5839967,93.4213562 L63.4213562,93.4213562 L63.4213562,170.426709 C63.4213562,174.843728 67.0030964,178.421356 71.4213967,178.421356 L85.4213158,178.421356 C89.8324536,178.421356 93.4213562,174.842031 93.4213562,170.426709 L93.4213562,93.4213562 L170.426709,93.4213562 C174.843728,93.4213562 178.421356,89.8396161 178.421356,85.4213158 L178.421356,71.4213967 C178.421356,67.0102589 174.842031,63.4213562 170.426709,63.4213562 L93.4213562,63.4213562 L93.4213562,-13.5839967 C93.4213562,-18.0010154 89.8396161,-21.5786438 85.4213158,-21.5786438 L71.4213967,-21.5786438 C67.0102589,-21.5786438 63.4213562,-17.9993184 63.4213562,-13.5839967 L63.4213562,63.4213562 Z" id="removehover" fill="#BEC2C9" transform="translate(78.421356, 78.421356) rotate(45.000000) translate(-78.421356, -78.421356) "></path>
    </g>
</svg>