<?xml version="1.0" encoding="UTF-8"?>
<svg width="158px" height="158px" viewBox="0 0 158 158" version="1.1" xmlns="http://www.w3.org/2000/svg" xmlns:xlink="http://www.w3.org/1999/xlink">
    <!-- Generator: Sketch 3.8.3 (29802) - http://www.bohemiancoding.com/sketch -->
    <title>remove</title>
    <desc>Created with Sketch.</desc>
    <defs></defs>
    <g id="Page-1" stroke="none" stroke-width="1" fill="none" fill-rule="evenodd">
        <path d="M63.8858223,63.9568901 L-13.1195307,63.9568901 C-17.5365493,63.9568901 -21.1141777,67.5386303 -21.1141777,71.9569306 L-21.1141777,85.9568497 C-21.1141777,90.3679875 -17.5348523,93.9568901 -13.1195307,93.9568901 L63.8858223,93.9568901 L63.8858223,170.962243 C63.8858223,175.379262 67.4675625,178.95689 71.8858628,178.95689 L85.8857818,178.95689 C90.2969197,178.95689 93.8858223,175.377565 93.8858223,170.962243 L93.8858223,93.9568901 L170.891175,93.9568901 C175.308194,93.9568901 178.885822,90.37515 178.885822,85.9568497 L178.885822,71.9569306 C178.885822,67.5457928 175.306497,63.9568901 170.891175,63.9568901 L93.8858223,63.9568901 L93.8858223,-13.0484628 C93.8858223,-17.4654815 90.3040822,-21.0431099 85.8857818,-21.0431099 L71.8858628,-21.0431099 C67.474725,-21.0431099 63.8858223,-17.4637845 63.8858223,-13.0484628 L63.8858223,63.9568901 Z" id="remove" stroke="#979797" fill="#E9EBEE" transform="translate(78.885822, 78.956890) rotate(45.000000) translate(-78.885822, -78.956890) "></path>
    </g>
</svg>