<?xml version="1.0" encoding="UTF-8"?>
<svg width="117px" height="131px" viewBox="0 0 117 131" version="1.1" xmlns="http://www.w3.org/2000/svg" xmlns:xlink="http://www.w3.org/1999/xlink">
    <!-- Generator: Sketch 3.8.3 (29802) - http://www.bohemiancoding.com/sketch -->
    <title>securityicon</title>
    <desc>Created with Sketch.</desc>
    <defs></defs>
    <g id="Page-1" stroke="none" stroke-width="1" fill="none" fill-rule="evenodd">
        <g id="securityicon" transform="translate(-10.000000, -3.000000)" fill="#90949C">
            <path d="M63.5858268,69.6472885 L47.6835947,53.7450564 C46.5076883,52.56915 44.6141539,52.5763376 43.4418242,53.7486673 L37.3822881,59.8082033 C36.2105884,60.9799031 36.2083418,62.8796384 37.3786772,64.0499738 L61.4880589,88.1593555 C62.6639653,89.3352619 64.5574997,89.3280743 65.7298294,88.1557446 L71.7893655,82.0962085 C71.8919076,81.9936664 71.9854929,81.8855483 72.0701192,81.772831 L103.611307,50.2316437 C104.791065,49.051885 104.787925,47.1543037 103.615595,45.981974 L97.5560588,39.9224379 C96.384359,38.7507381 94.4810871,38.7520281 93.3063891,39.9267262 L63.5858268,69.6472885 Z M68.8611599,133.348633 C68.8611599,133.348633 47.4646764,126.974609 34.7547155,114.797852 C22.0447546,102.621094 15.5210624,91.6429533 11.4822537,71.5722656 C7.44344492,51.5015779 12.9383084,18.8818359 12.9383084,18.8818359 L69.1053006,3 L124.628738,18.5927734 C124.628738,18.5927734 128.935376,44.953125 124.628735,71.5722656 C120.322094,98.1914062 113.648266,103.845703 101.936352,114.797852 C90.2244382,125.75 68.8611599,133.348633 68.8611599,133.348633 Z" id="Combined-Shape"></path>
        </g>
    </g>
</svg>