<?xml version="1.0" encoding="UTF-8"?>
<svg width="159px" height="126px" viewBox="0 0 159 126" version="1.1" xmlns="http://www.w3.org/2000/svg" xmlns:xlink="http://www.w3.org/1999/xlink">
    <!-- Generator: Sketch 3.8.3 (29802) - http://www.bohemiancoding.com/sketch -->
    <title>storenameicon</title>
    <desc>Created with Sketch.</desc>
    <defs></defs>
    <g id="Page-1" stroke="none" stroke-width="1" fill="none" fill-rule="evenodd">
        <g id="storenameicon" fill="#F6A623">
            <path d="M9,58.1035527 C9,58.1035527 11.4554804,57.7836769 13.5878906,56.3559941 C15.7203009,54.9283113 17.2827148,52.5581426 17.2827148,52.5581426 C17.2827148,52.5581426 21.7948133,58.0723027 26.421875,58.0723027 C31.0489367,58.0723027 35.7285156,52.5581426 35.7285156,52.5581426 C35.7285156,52.5581426 39.0834961,58.0723027 43.5874023,58.0723027 C48.0913086,58.0723027 52.6333008,52.5581426 52.6333008,52.5581426 C52.6333008,52.5581426 56.0512759,58.073337 61.4755859,58.0723027 C66.8998959,58.0712685 70.8027344,52.5581426 70.8027344,52.5581426 C70.8027344,52.5581426 73.9711914,58.0723027 79.5,58.0723027 C85.0288086,58.0723027 87.4638672,52.5581426 87.4638672,52.5581426 C87.4638672,52.5581426 92.0059921,58.0723027 96.5166016,58.0723027 C101.027211,58.0723027 105.727051,52.5581426 105.727051,52.5581426 C105.727051,52.5581426 109.278809,58.0723027 114.3125,58.0723027 C119.346191,58.0723027 123.053223,53.1059941 123.053223,53.1059941 C123.053223,53.1059941 126.977036,58.215809 131.697266,58.0723027 C136.417495,57.9287965 141.073242,52.5581426 141.073242,52.5581426 C141.073242,52.5581426 142.41027,54.9297179 144.719238,56.3559941 C147.028207,57.7822704 150,58.0723027 150,58.0723027 L150,117.559607 L9,117.559607 L9,58.1035527 Z M17,61.5596074 L101,61.5596074 L101,100.559607 L17,100.559607 L17,61.5596074 Z M110,61.5596074 L139,61.5596074 L139,116.559607 L110,116.559607 L110,61.5596074 Z" id="Combined-Shape"></path>
            <rect id="Rectangle-38" x="22" y="66" width="74" height="29.4418574"></rect>
            <rect id="Rectangle-40" x="114" y="66" width="21.515625" height="47"></rect>
            <path d="M5.33444672,119.558143 C11.7372789,119.558143 145.860814,119.558143 152.841278,119.558143 C159.821742,119.558143 158.080052,125.558143 158.080052,125.558143 L0.080052129,125.558143 C0.080052129,125.558143 -1.06838544,119.558143 5.33444672,119.558143 Z" id="Rectangle-41"></path>
            <path d="M25.5198438,0.558142578 C33.5877147,0.558142578 124.321121,0.558142577 133.004707,0.558142578 C141.688294,0.558142578 139.14875,8.55814258 139.14875,8.55814258 L19.1487501,8.55814258 C19.1487501,8.55814258 17.4519728,0.558142578 25.5198438,0.558142578 Z" id="Rectangle-42"></path>
            <path d="M18.8876953,11.6138066 L32.5917023,11.6075142 L17.9960938,43.8310918 L35.7431641,43.8310918 L45.6156083,11.601534 L59.4223763,11.5951943 L53.2128906,43.8310918 L70.3237305,43.8310918 L72.4583958,11.5892086 L86.4267595,11.5827947 L88.2363281,43.8310918 L105.819336,43.8310918 L99.2118348,11.5769242 L112.94035,11.5706205 L123.637695,43.8310918 L140.115234,43.8310918 L126.314862,11.5644793 L140.115234,11.5581426 L158.794922,44.9155645 C158.794922,44.9155645 158.617676,54.7739629 151.733398,55.8828496 C144.849121,56.9917363 141.161133,50.4224004 141.161133,50.4224004 C141.161133,50.4224004 136.702148,56.0557012 131.603516,55.8828496 C126.504883,55.709998 123.637695,50.5132207 123.637695,50.5132207 C123.637695,50.5132207 120.005371,56.0723027 114.507812,55.8828496 C109.010254,55.6933965 105.819336,50.3100957 105.819336,50.3100957 C105.819336,50.3100957 102.581055,56.376502 96.6567383,55.9399785 C90.7324219,55.5034551 88.2363281,50.479041 88.2363281,50.479041 C88.2363281,50.479041 84.1040039,55.9399785 78.9042969,56.0347051 C73.7045898,56.1294316 70.9130859,50.4184941 70.9130859,50.4184941 C70.9130859,50.4184941 67.2719727,55.9399785 61.2724609,55.9399785 C55.2729492,55.9399785 53.2128906,50.2954473 53.2128906,50.2954473 C53.2128906,50.2954473 49.2338867,55.9399785 43.9682617,55.9399785 C38.7026367,55.9399785 35.7431641,50.610877 35.7431641,50.610877 C35.7431641,50.610877 31.2250977,55.8828496 25.9360352,55.8828496 C20.6469727,55.8828496 17.9960938,50.1333379 17.9960938,50.1333379 C17.9960938,50.1333379 13.8251953,55.9399785 7.51025391,55.9399785 C1.1953125,55.9399785 0,45.2749395 0,45.2749395 L18.8876953,11.6138066 Z M17.7390137,45.2883672 L35.5708008,45.326209 C35.5708008,45.326209 33.5979004,54.3335332 26.3393555,54.3335332 C19.0808105,54.3335332 17.7390137,45.2883672 17.7390137,45.2883672 Z M52.9833984,45.102332 L70.7036133,45.2500371 C70.7036133,45.2500371 69.4455566,54.4911737 61.5383301,54.4541387 C53.6311035,54.4171037 52.9833984,45.102332 52.9833984,45.102332 Z M88.0712891,45.0740117 L106.172119,45.1963262 C106.172119,45.1963262 104.736084,54.4695195 96.7922363,54.4695195 C88.8483887,54.4695195 88.0712891,45.0740117 88.0712891,45.0740117 Z M123.363037,45.1911992 L141.07959,45.2424687 C141.07959,45.2424687 139.841431,54.3935918 131.952637,54.3935918 C124.063843,54.3935918 123.363037,45.1911992 123.363037,45.1911992 Z" id="Combined-Shape"></path>
        </g>
    </g>
</svg>