<?xml version="1.0" encoding="UTF-8"?>
<svg width="265px" height="265px" viewBox="0 0 265 265" version="1.1" xmlns="http://www.w3.org/2000/svg" xmlns:xlink="http://www.w3.org/1999/xlink">
    <!-- Generator: Sketch 3.8.3 (29802) - http://www.bohemiancoding.com/sketch -->
    <title>storenameicon</title>
    <desc>Created with Sketch.</desc>
    <defs></defs>
    <g id="Page-1" stroke="none" stroke-width="1" fill="none" fill-rule="evenodd">
        <g id="storenameicon">
            <circle id="Oval-59" fill="#F85429" cx="132.5" cy="132.5" r="132.5"></circle>
            <path d="M62,117.103553 C62,117.103553 64.4554804,116.783677 66.5878906,115.355994 C68.7203009,113.928311 70.2827148,111.558143 70.2827148,111.558143 C70.2827148,111.558143 74.7948133,117.072303 79.421875,117.072303 C84.0489367,117.072303 88.7285156,111.558143 88.7285156,111.558143 C88.7285156,111.558143 92.0834961,117.072303 96.5874023,117.072303 C101.091309,117.072303 105.633301,111.558143 105.633301,111.558143 C105.633301,111.558143 109.051276,117.073337 114.475586,117.072303 C119.899896,117.071268 123.802734,111.558143 123.802734,111.558143 C123.802734,111.558143 126.971191,117.072303 132.5,117.072303 C138.028809,117.072303 140.463867,111.558143 140.463867,111.558143 C140.463867,111.558143 145.005992,117.072303 149.516602,117.072303 C154.027211,117.072303 158.727051,111.558143 158.727051,111.558143 C158.727051,111.558143 162.278809,117.072303 167.3125,117.072303 C172.346191,117.072303 176.053223,112.105994 176.053223,112.105994 C176.053223,112.105994 179.977036,117.215809 184.697266,117.072303 C189.417495,116.928797 194.073242,111.558143 194.073242,111.558143 C194.073242,111.558143 195.41027,113.929718 197.719238,115.355994 C200.028207,116.78227 203,117.072303 203,117.072303 L203,176.559607 L62,176.559607 L62,117.103553 Z M70,120.559607 L154,120.559607 L154,159.559607 L70,159.559607 L70,120.559607 Z M163,120.559607 L192,120.559607 L192,175.559607 L163,175.559607 L163,120.559607 Z" id="Combined-Shape" fill="#FFFFFF"></path>
            <rect id="Rectangle-38" fill="#FFFFFF" x="75" y="125" width="74" height="29.4418574"></rect>
            <rect id="Rectangle-40" fill="#FFFFFF" x="167" y="125" width="21.515625" height="47"></rect>
            <path d="M58.3344467,178.558143 C64.7372789,178.558143 198.860814,178.558143 205.841278,178.558143 C212.821742,178.558143 211.080052,184.558143 211.080052,184.558143 L53.0800521,184.558143 C53.0800521,184.558143 51.9316146,178.558143 58.3344467,178.558143 Z" id="Rectangle-41" fill="#FFFFFF"></path>
            <path d="M78.5198438,59.5581426 C86.5877147,59.5581426 177.321121,59.5581426 186.004707,59.5581426 C194.688294,59.5581426 192.14875,67.5581426 192.14875,67.5581426 L72.1487501,67.5581426 C72.1487501,67.5581426 70.4519728,59.5581426 78.5198438,59.5581426 Z" id="Rectangle-42" fill="#FFFFFF"></path>
            <path d="M71.8876953,70.6138066 L85.5917023,70.6075142 L70.9960938,102.831092 L88.7431641,102.831092 L98.6156083,70.601534 L112.422376,70.5951943 L106.212891,102.831092 L123.32373,102.831092 L125.458396,70.5892086 L139.426759,70.5827947 L141.236328,102.831092 L158.819336,102.831092 L152.211835,70.5769242 L165.94035,70.5706205 L176.637695,102.831092 L193.115234,102.831092 L179.314862,70.5644793 L193.115234,70.5581426 L211.794922,103.915564 C211.794922,103.915564 211.617676,113.773963 204.733398,114.88285 C197.849121,115.991736 194.161133,109.4224 194.161133,109.4224 C194.161133,109.4224 189.702148,115.055701 184.603516,114.88285 C179.504883,114.709998 176.637695,109.513221 176.637695,109.513221 C176.637695,109.513221 173.005371,115.072303 167.507812,114.88285 C162.010254,114.693396 158.819336,109.310096 158.819336,109.310096 C158.819336,109.310096 155.581055,115.376502 149.656738,114.939979 C143.732422,114.503455 141.236328,109.479041 141.236328,109.479041 C141.236328,109.479041 137.104004,114.939979 131.904297,115.034705 C126.70459,115.129432 123.913086,109.418494 123.913086,109.418494 C123.913086,109.418494 120.271973,114.939979 114.272461,114.939979 C108.272949,114.939979 106.212891,109.295447 106.212891,109.295447 C106.212891,109.295447 102.233887,114.939979 96.9682617,114.939979 C91.7026367,114.939979 88.7431641,109.610877 88.7431641,109.610877 C88.7431641,109.610877 84.2250977,114.88285 78.9360352,114.88285 C73.6469727,114.88285 70.9960938,109.133338 70.9960938,109.133338 C70.9960938,109.133338 66.8251953,114.939979 60.5102539,114.939979 C54.1953125,114.939979 53,104.274939 53,104.274939 L71.8876953,70.6138066 Z M70.7390137,104.288367 L88.5708008,104.326209 C88.5708008,104.326209 86.5979004,113.333533 79.3393555,113.333533 C72.0808105,113.333533 70.7390137,104.288367 70.7390137,104.288367 Z M105.983398,104.102332 L123.703613,104.250037 C123.703613,104.250037 122.445557,113.491174 114.53833,113.454139 C106.631104,113.417104 105.983398,104.102332 105.983398,104.102332 Z M141.071289,104.074012 L159.172119,104.196326 C159.172119,104.196326 157.736084,113.46952 149.792236,113.46952 C141.848389,113.46952 141.071289,104.074012 141.071289,104.074012 Z M176.363037,104.191199 L194.07959,104.242469 C194.07959,104.242469 192.841431,113.393592 184.952637,113.393592 C177.063843,113.393592 176.363037,104.191199 176.363037,104.191199 Z" id="Combined-Shape" fill="#FFFFFF"></path>
        </g>
    </g>
</svg>