<?xml version="1.0" encoding="UTF-8"?>
<svg width="280px" height="280px" viewBox="0 0 280 280" version="1.1" xmlns="http://www.w3.org/2000/svg" xmlns:xlink="http://www.w3.org/1999/xlink">
    <!-- Generator: Sketch 44.1 (41455) - http://www.bohemiancoding.com/sketch -->
    <title>uploadimage</title>
    <desc>Created with Sketch.</desc>
    <defs></defs>
    <g id="Page-1" stroke="none" stroke-width="1" fill="none" fill-rule="evenodd">
        <g id="uploadimage">
            <rect id="Rectangle-8" fill="#FFFFFF" opacity="0.00999999978" x="0" y="0" width="280" height="280"></rect>
            <rect id="Rectangle" fill="#000000" opacity="0.703872295" x="0" y="210" width="280" height="70"></rect>
            <path d="M68.0341013,232.773036 L67.066106,232.773036 L67.066106,230.769019 C67.066106,229.730938 66.2742859,228.886457 65.3009381,228.886457 L59.8346118,228.886457 C58.8612641,228.886457 58.0694439,229.730938 58.0694439,230.769019 L58.0694439,232.773036 L53.848529,232.773036 L53.3915213,229.666809 C53.3911797,229.664502 53.390838,229.662316 53.3904964,229.660129 L53.389927,229.656121 C53.3886743,229.647862 53.3867383,229.640089 53.3852578,229.631952 C53.3786527,229.59345 53.369656,229.555313 53.3582678,229.517662 C53.3561041,229.510375 53.3543958,229.502844 53.3520043,229.495557 C53.348474,229.484748 53.3439187,229.474181 53.3399328,229.463493 C53.3338971,229.447218 53.3280891,229.430821 53.3212562,229.415153 C53.3171565,229.405558 53.3122596,229.396328 53.3078182,229.386854 C53.2998464,229.370093 53.2917608,229.353454 53.2828781,229.3373 C53.278095,229.328556 53.2728565,229.320175 53.2677318,229.311552 C53.2579379,229.295034 53.2478025,229.278759 53.2370976,229.263091 C53.2343644,229.259083 53.2322007,229.254832 53.2294675,229.250946 L50.4963043,225.364367 C50.3350477,225.134937 50.0817746,225 49.8130135,225 L38.8803609,225 C38.6115998,225 38.3583267,225.134937 38.1970701,225.364367 L35.4639069,229.250946 C35.4611738,229.254832 35.4588961,229.259083 35.4562768,229.263091 C35.445572,229.27888 35.4354365,229.295034 35.4256426,229.311552 C35.420518,229.320175 35.4152794,229.328677 35.4104964,229.337422 C35.4016136,229.353575 35.3936419,229.370093 35.3856701,229.386854 C35.3811149,229.396328 35.3762179,229.40568 35.3721182,229.415275 C35.3652853,229.431064 35.3593634,229.447339 35.3534416,229.463614 C35.3494557,229.474302 35.3449004,229.484869 35.3413701,229.495679 C35.3389786,229.502844 35.3373842,229.510496 35.3351066,229.517783 C35.3237184,229.555435 35.3148357,229.593572 35.3081166,229.632073 C35.30675,229.640211 35.3047002,229.648105 35.3034475,229.656243 L35.3028781,229.660251 C35.3025364,229.662437 35.3021948,229.664623 35.3018531,229.666931 L34.8448455,232.773036 L33.3570937,232.773036 L33.3570937,230.769019 C33.3570937,229.730938 32.5652735,228.886457 31.5919258,228.886457 L27.9477082,228.886457 C26.9743605,228.886457 26.1825403,229.730938 26.1825403,230.769019 L26.1825403,232.773036 L25.1576042,232.773036 L25.1576042,231.740664 C25.1576042,230.702583 24.365784,229.858102 23.3924363,229.858102 L21.5703275,229.858102 C20.5969798,229.858102 19.8051596,230.702583 19.8051596,231.740664 L19.8051596,232.922912 C18.7471977,233.30404 17.9830508,234.371877 17.9830508,235.627242 L17.9830508,262.833294 C17.9830508,264.407115 19.1835928,265.6875 20.6592731,265.6875 L38.8801331,265.6875 L38.8803609,265.6875 L50.7804394,265.6875 L68.0341013,265.6875 C69.5097817,265.6875 70.7103236,264.407115 70.7103236,262.833294 L70.7103236,235.627242 C70.7103236,234.053421 69.5097817,232.773036 68.0341013,232.773036 L68.0341013,232.773036 L68.0341013,232.773036 L68.0341013,232.773036 L68.0341013,232.773036 Z M19.6912778,244.311317 L26.3230705,244.311317 C26.6804316,245.439639 27.6816803,246.254606 28.8587626,246.254606 C30.0358449,246.254606 31.0370937,245.439639 31.3944547,244.311317 L33.1470956,244.311317 L32.9579379,245.597046 C32.7816489,246.794598 32.6922517,248.016927 32.6922517,249.230268 C32.6922517,250.443488 32.7816489,251.665938 32.9579379,252.86349 L34.0048533,259.979087 L19.6912778,259.979087 L19.6912778,244.311317 L19.6912778,244.311317 L19.6912778,244.311317 L19.6912778,244.311317 L19.6912778,244.311317 Z M27.8907673,243.4004 C27.8907673,242.831138 28.3249986,242.368027 28.8587626,242.368027 C29.3925266,242.368027 29.8267579,242.831138 29.8267579,243.4004 C29.8267579,243.969662 29.3925266,244.432772 28.8587626,244.432772 C28.3249986,244.432772 27.8907673,243.969662 27.8907673,243.4004 L27.8907673,243.4004 L27.8907673,243.4004 L27.8907673,243.4004 L27.8907673,243.4004 Z M36.8777495,230.708291 L51.815625,230.708291 L53.4180558,241.598606 C51.2993988,238.740149 48.020514,236.902526 44.3466872,236.902526 C40.6728604,236.902526 37.3939756,238.740149 35.2753187,241.598606 L36.8777495,230.708291 L36.8777495,230.708291 L36.8777495,230.708291 L36.8777495,230.708291 L36.8777495,230.708291 Z M34.4959116,249.230268 C34.4959116,243.437322 38.9149809,238.72436 44.3466872,238.72436 C49.7783935,238.72436 54.1974628,243.437322 54.1974628,249.230268 C54.1974628,255.023214 49.7783935,259.736176 44.3466872,259.736176 C38.9149809,259.736176 34.4959116,255.023214 34.4959116,249.230268 L34.4959116,249.230268 L34.4959116,249.230268 L34.4959116,249.230268 L34.4959116,249.230268 Z M55.7355504,252.86349 C55.9118394,251.665938 56.0012366,250.443609 56.0012366,249.230268 C56.0012366,248.017048 55.9118394,246.794598 55.7355504,245.597046 L55.5462788,244.311317 L69.0020966,244.311317 L69.0020966,259.979087 L54.6885211,259.979087 L55.7355504,252.86349 L55.7355504,252.86349 L55.7355504,252.86349 L55.7355504,252.86349 L55.7355504,252.86349 Z M59.7776709,230.769019 C59.7776709,230.735497 59.8032943,230.708291 59.8346118,230.708291 L65.3009381,230.708291 C65.3322556,230.708291 65.357879,230.735497 65.357879,230.769019 L65.357879,232.773036 L59.7776709,232.773036 L59.7776709,230.769019 L59.7776709,230.769019 L59.7776709,230.769019 L59.7776709,230.769019 L59.7776709,230.769019 Z M68.0341013,234.59487 C68.5678653,234.59487 69.0020966,235.05798 69.0020966,235.627242 L69.0020966,242.489483 L55.2783149,242.489483 L54.1167206,234.59487 L68.0341013,234.59487 L68.0341013,234.59487 L68.0341013,234.59487 L68.0341013,234.59487 L68.0341013,234.59487 Z M39.3074176,226.821712 L49.3859568,226.821712 L50.8379497,228.886457 L37.8554247,228.886457 L39.3074176,226.821712 L39.3074176,226.821712 L39.3074176,226.821712 L39.3074176,226.821712 L39.3074176,226.821712 Z M27.8907673,230.769019 C27.8907673,230.735497 27.9163907,230.708291 27.9477082,230.708291 L31.5919258,230.708291 C31.6232433,230.708291 31.6488667,230.735497 31.6488667,230.769019 L31.6488667,232.773036 L27.8907673,232.773036 L27.8907673,230.769019 L27.8907673,230.769019 L27.8907673,230.769019 L27.8907673,230.769019 L27.8907673,230.769019 Z M21.5703275,231.679936 L23.3924363,231.679936 C23.4237538,231.679936 23.4493772,231.707142 23.4493772,231.740664 L23.4493772,232.773036 L21.5133866,232.773036 L21.5133866,231.740664 C21.5133866,231.707142 21.53901,231.679936 21.5703275,231.679936 L21.5703275,231.679936 L21.5703275,231.679936 L21.5703275,231.679936 L21.5703275,231.679936 Z M20.6592731,234.59487 L34.5767677,234.59487 L33.4151734,242.489483 L31.3944547,242.489483 C31.0370937,241.361161 30.0358449,240.546194 28.8587626,240.546194 C27.6816803,240.546194 26.6804316,241.361161 26.3230705,242.489483 L19.6912778,242.489483 L19.6912778,235.627242 C19.6912778,235.05798 20.1255091,234.59487 20.6592731,234.59487 L20.6592731,234.59487 L20.6592731,234.59487 L20.6592731,234.59487 L20.6592731,234.59487 Z M19.6912778,262.833294 L19.6912778,261.800921 L34.2729311,261.800921 L34.3690473,262.454474 C34.4447787,262.969688 34.6129821,263.445794 34.8532727,263.865666 L20.6592731,263.865666 C20.1255091,263.865666 19.6912778,263.402556 19.6912778,262.833294 L19.6912778,262.833294 L19.6912778,262.833294 L19.6912778,262.833294 L19.6912778,262.833294 Z M38.8805886,263.865666 L37.9125934,263.865423 C36.9813819,263.86518 36.2009499,263.153086 36.0566617,262.17209 L35.2753187,256.86193 C37.3939756,259.720387 40.6728604,261.55801 44.3466872,261.55801 C48.020514,261.55801 51.2993988,259.720387 53.4180558,256.86193 L52.6367127,262.172332 C52.4923106,263.153451 51.7116509,263.865545 50.7804394,263.865666 L38.8805886,263.865666 L38.8805886,263.865666 L38.8805886,263.865666 L38.8805886,263.865666 L38.8805886,263.865666 Z M68.0341013,263.865666 L53.8401017,263.865666 C54.0803923,263.445794 54.2484818,262.969931 54.3242132,262.454717 L54.4204433,261.800921 L69.0020966,261.800921 L69.0020966,262.833294 C69.0020966,263.402556 68.5678653,263.865666 68.0341013,263.865666 L68.0341013,263.865666 L68.0341013,263.865666 L68.0341013,263.865666 Z M44.3466872,257.914342 C48.8364771,257.914342 52.4892358,254.018655 52.4892358,249.230268 C52.4892358,244.441882 48.8364771,240.546194 44.3466872,240.546194 C39.8568973,240.546194 36.2041386,244.441882 36.2041386,249.230268 C36.2041386,254.018655 39.8568973,257.914342 44.3466872,257.914342 L44.3466872,257.914342 L44.3466872,257.914342 L44.3466872,257.914342 Z M44.3466872,242.368027 C47.8945608,242.368027 50.7810088,245.446441 50.7810088,249.230268 C50.7810088,253.014095 47.8945608,256.092509 44.3466872,256.092509 C40.7988137,256.092509 37.9123656,253.014095 37.9123656,249.230268 C37.9123656,245.446441 40.7988137,242.368027 44.3466872,242.368027 L44.3466872,242.368027 L44.3466872,242.368027 L44.3466872,242.368027 Z M44.3466872,253.056119 C46.3247002,253.056119 47.9339639,251.33983 47.9339639,249.230268 C47.9339639,247.120706 46.3247002,245.404417 44.3466872,245.404417 C42.3686743,245.404417 40.7594106,247.120706 40.7594106,249.230268 C40.7594106,251.33983 42.3686743,253.056119 44.3466872,253.056119 L44.3466872,253.056119 L44.3466872,253.056119 L44.3466872,253.056119 Z M44.3466872,247.226251 C45.3827838,247.226251 46.2257369,248.125265 46.2257369,249.230268 C46.2257369,250.335271 45.3827838,251.234285 44.3466872,251.234285 C43.3105906,251.234285 42.4676375,250.335271 42.4676375,249.230268 C42.4676375,248.125265 43.3105906,247.226251 44.3466872,247.226251 L44.3466872,247.226251 L44.3466872,247.226251 L44.3466872,247.226251 Z" id="technology" fill="#FFFFFF"></path>
        </g>
    </g>
</svg>