<?xml version="1.0" encoding="UTF-8"?>
<svg width="280px" height="280px" viewBox="0 0 280 280" version="1.1" xmlns="http://www.w3.org/2000/svg" xmlns:xlink="http://www.w3.org/1999/xlink">
    <!-- Generator: Sketch 44.1 (41455) - http://www.bohemiancoding.com/sketch -->
    <title>uploadwait</title>
    <desc>Created with Sketch.</desc>
    <defs></defs>
    <g id="Page-1" stroke="none" stroke-width="1" fill="none" fill-rule="evenodd">
        <g id="uploadwait" fill="#FFFFFF">
            <rect id="Rectangle-8" opacity="0.00999999978" x="0" y="0" width="280" height="280"></rect>
            <path d="M60.9502966,241.119884 L60.3127048,241.119884 L60.3127048,239.799894 C60.3127048,239.116138 59.7911548,238.559902 59.1500375,238.559902 L55.5495192,238.559902 C54.9084019,238.559902 54.3868518,239.116138 54.3868518,239.799894 L54.3868518,241.119884 L51.6066516,241.119884 L51.3056332,239.073899 C51.3054082,239.072379 51.3051832,239.070939 51.3049581,239.069499 L51.3045831,239.066859 C51.303758,239.061419 51.3024828,239.056299 51.3015076,239.050939 C51.297157,239.025579 51.2912312,239.000459 51.2837301,238.975659 C51.2823049,238.970859 51.2811797,238.965899 51.2796045,238.961099 C51.2772792,238.953979 51.2742787,238.947019 51.2716533,238.93998 C51.2676778,238.92926 51.2638522,238.91846 51.2593516,238.90814 C51.2566512,238.90182 51.2534257,238.89574 51.2505003,238.8895 C51.2452495,238.87846 51.2399238,238.8675 51.2340729,238.85686 C51.2309225,238.8511 51.227472,238.84558 51.2240965,238.8399 C51.2176456,238.82902 51.2109696,238.8183 51.2039186,238.80798 C51.2021183,238.80534 51.2006931,238.80254 51.1988929,238.799981 L49.3986337,236.239998 C49.2924184,236.088879 49.1255944,236 48.9485689,236 L41.7475323,236 C41.5705068,236 41.4036828,236.088879 41.2974675,236.239998 L39.4972084,238.799981 C39.4954081,238.80254 39.4939079,238.80534 39.4921826,238.80798 C39.4851316,238.81838 39.4784557,238.82902 39.4720047,238.8399 C39.4686292,238.84558 39.4651788,238.85118 39.4620283,238.85694 C39.4561775,238.86758 39.4509267,238.87846 39.4456759,238.8895 C39.4426755,238.89574 39.43945,238.9019 39.4367497,238.90822 C39.432249,238.91862 39.4283485,238.92934 39.4244479,238.94006 C39.4218225,238.947099 39.4188221,238.954059 39.4164967,238.961179 C39.4149215,238.965899 39.4138714,238.970939 39.4123712,238.975739 C39.4048701,239.000539 39.3990192,239.025659 39.3945936,239.051019 C39.3936935,239.056379 39.3923433,239.061579 39.3915181,239.066939 L39.3911431,239.069579 C39.3909181,239.071019 39.390693,239.072459 39.390468,239.073979 L39.0894497,241.119884 L38.1095086,241.119884 L38.1095086,239.799894 C38.1095086,239.116138 37.5879585,238.559902 36.9468412,238.559902 L34.5464957,238.559902 C33.9053784,238.559902 33.3838283,239.116138 33.3838283,239.799894 L33.3838283,241.119884 L32.7087311,241.119884 L32.7087311,240.439889 C32.7087311,239.756134 32.1871811,239.199898 31.5460638,239.199898 L30.345891,239.199898 C29.7047737,239.199898 29.1832236,239.756134 29.1832236,240.439889 L29.1832236,241.218604 C28.4863733,241.469642 27.9830508,242.172997 27.9830508,242.999871 L27.9830508,260.919747 C27.9830508,261.956379 28.7738147,262.799733 29.7458046,262.799733 L41.7473823,262.799733 L41.7475323,262.799733 L49.5857857,262.799733 L60.9502966,262.799733 C61.9222866,262.799733 62.7130504,261.956379 62.7130504,260.919747 L62.7130504,242.999871 C62.7130504,241.963238 61.9222866,241.119884 60.9502966,241.119884 L60.9502966,241.119884 L60.9502966,241.119884 L60.9502966,241.119884 L60.9502966,241.119884 Z M29.1082128,248.719831 L33.4763916,248.719831 C33.7117755,249.463026 34.3712705,249.999823 35.1465821,249.999823 C35.9218937,249.999823 36.5813886,249.463026 36.8167725,248.719831 L37.9711887,248.719831 L37.8465957,249.566706 C37.730479,250.3555 37.6715956,251.160614 37.6715956,251.959809 C37.6715956,252.758923 37.730479,253.564118 37.8465957,254.352912 L38.53617,259.03976 L29.1082128,259.03976 L29.1082128,248.719831 L29.1082128,248.719831 L29.1082128,248.719831 L29.1082128,248.719831 L29.1082128,248.719831 Z M34.5089903,248.119836 C34.5089903,247.744878 34.7950065,247.43984 35.1465821,247.43984 C35.4981577,247.43984 35.7841739,247.744878 35.7841739,248.119836 C35.7841739,248.494793 35.4981577,248.799831 35.1465821,248.799831 C34.7950065,248.799831 34.5089903,248.494793 34.5089903,248.119836 L34.5089903,248.119836 L34.5089903,248.119836 L34.5089903,248.119836 L34.5089903,248.119836 Z M40.4284674,239.759894 L50.2676338,239.759894 L51.3231108,246.933044 C49.9276099,245.050257 47.767899,243.839865 45.3480506,243.839865 C42.9282023,243.839865 40.7684914,245.050257 39.3729905,246.933044 L40.4284674,239.759894 L40.4284674,239.759894 L40.4284674,239.759894 L40.4284674,239.759894 L40.4284674,239.759894 Z M38.8596166,251.959809 C38.8596166,248.144155 41.7703356,245.039857 45.3480506,245.039857 C48.9257656,245.039857 51.8364847,248.144155 51.8364847,251.959809 C51.8364847,255.775462 48.9257656,258.879761 45.3480506,258.879761 C41.7703356,258.879761 38.8596166,255.775462 38.8596166,251.959809 L38.8596166,251.959809 L38.8596166,251.959809 L38.8596166,251.959809 L38.8596166,251.959809 Z M52.8495805,254.352912 C52.9656972,253.564118 53.0245807,252.759003 53.0245807,251.959809 C53.0245807,251.160694 52.9656972,250.3555 52.8495805,249.566706 L52.7249126,248.719831 L61.5878884,248.719831 L61.5878884,259.03976 L52.1599312,259.03976 L52.8495805,254.352912 L52.8495805,254.352912 L52.8495805,254.352912 L52.8495805,254.352912 L52.8495805,254.352912 Z M55.5120138,239.799894 C55.5120138,239.777814 55.5288912,239.759894 55.5495192,239.759894 L59.1500375,239.759894 C59.1706654,239.759894 59.1875429,239.777814 59.1875429,239.799894 L59.1875429,241.119884 L55.5120138,241.119884 L55.5120138,239.799894 L55.5120138,239.799894 L55.5120138,239.799894 L55.5120138,239.799894 L55.5120138,239.799894 Z M60.9502966,242.319876 C61.3018722,242.319876 61.5878884,242.624914 61.5878884,242.999871 L61.5878884,247.51984 L52.5484121,247.51984 L51.783302,242.319876 L60.9502966,242.319876 L60.9502966,242.319876 L60.9502966,242.319876 L60.9502966,242.319876 L60.9502966,242.319876 Z M42.0288228,237.199912 L48.6672784,237.199912 L49.6236661,238.559902 L41.0724351,238.559902 L42.0288228,237.199912 L42.0288228,237.199912 L42.0288228,237.199912 L42.0288228,237.199912 L42.0288228,237.199912 Z M34.5089903,239.799894 C34.5089903,239.777814 34.5258677,239.759894 34.5464957,239.759894 L36.9468412,239.759894 C36.9674692,239.759894 36.9843466,239.777814 36.9843466,239.799894 L36.9843466,241.119884 L34.5089903,241.119884 L34.5089903,239.799894 L34.5089903,239.799894 L34.5089903,239.799894 L34.5089903,239.799894 L34.5089903,239.799894 Z M30.345891,240.399889 L31.5460638,240.399889 C31.5666917,240.399889 31.5835692,240.417809 31.5835692,240.439889 L31.5835692,241.119884 L30.3083856,241.119884 L30.3083856,240.439889 C30.3083856,240.417809 30.325263,240.399889 30.345891,240.399889 L30.345891,240.399889 L30.345891,240.399889 L30.345891,240.399889 L30.345891,240.399889 Z M29.7458046,242.319876 L38.9128742,242.319876 L38.1477641,247.51984 L36.8167725,247.51984 C36.5813886,246.776645 35.9218937,246.239849 35.1465821,246.239849 C34.3712705,246.239849 33.7117755,246.776645 33.4763916,247.51984 L29.1082128,247.51984 L29.1082128,242.999871 C29.1082128,242.624914 29.394229,242.319876 29.7458046,242.319876 L29.7458046,242.319876 L29.7458046,242.319876 L29.7458046,242.319876 L29.7458046,242.319876 Z M29.1082128,260.919747 L29.1082128,260.239751 L38.7127454,260.239751 L38.7760545,260.670228 C38.8259367,261.009586 38.9367277,261.323184 39.0950005,261.599742 L29.7458046,261.599742 C29.394229,261.599742 29.1082128,261.294704 29.1082128,260.919747 L29.1082128,260.919747 L29.1082128,260.919747 L29.1082128,260.919747 L29.1082128,260.919747 Z M41.7476823,261.599742 L41.1100905,261.599582 C40.4967272,261.599422 39.9826782,261.130385 39.8876396,260.48423 L39.3729905,256.986574 C40.7684914,258.869361 42.9282023,260.079752 45.3480506,260.079752 C47.767899,260.079752 49.9276099,258.869361 51.3231108,256.986574 L50.8084617,260.48439 C50.713348,261.130625 50.199149,261.599662 49.5857857,261.599742 L41.7476823,261.599742 L41.7476823,261.599742 L41.7476823,261.599742 L41.7476823,261.599742 L41.7476823,261.599742 Z M60.9502966,261.599742 L51.6011008,261.599742 C51.7593736,261.323184 51.8700895,261.009746 51.9199717,260.670388 L51.9833558,260.239751 L61.5878884,260.239751 L61.5878884,260.919747 C61.5878884,261.294704 61.3018722,261.599742 60.9502966,261.599742 L60.9502966,261.599742 L60.9502966,261.599742 L60.9502966,261.599742 Z M45.3480506,257.679769 C48.3053513,257.679769 50.7113227,255.113787 50.7113227,251.959809 C50.7113227,248.805831 48.3053513,246.239849 45.3480506,246.239849 C42.3907499,246.239849 39.9847786,248.805831 39.9847786,251.959809 C39.9847786,255.113787 42.3907499,257.679769 45.3480506,257.679769 L45.3480506,257.679769 L45.3480506,257.679769 L45.3480506,257.679769 Z M45.3480506,247.43984 C47.684937,247.43984 49.5861607,249.467506 49.5861607,251.959809 C49.5861607,254.452112 47.684937,256.479777 45.3480506,256.479777 C43.0111642,256.479777 41.1099405,254.452112 41.1099405,251.959809 C41.1099405,249.467506 43.0111642,247.43984 45.3480506,247.43984 L45.3480506,247.43984 L45.3480506,247.43984 L45.3480506,247.43984 Z M45.3480506,254.479791 C46.6509132,254.479791 47.7108908,253.349319 47.7108908,251.959809 C47.7108908,250.570299 46.6509132,249.439826 45.3480506,249.439826 C44.0451881,249.439826 42.9852105,250.570299 42.9852105,251.959809 C42.9852105,253.349319 44.0451881,254.479791 45.3480506,254.479791 L45.3480506,254.479791 L45.3480506,254.479791 L45.3480506,254.479791 Z M45.3480506,250.639818 C46.0304989,250.639818 46.5857288,251.231974 46.5857288,251.959809 C46.5857288,252.687644 46.0304989,253.2798 45.3480506,253.2798 C44.6656024,253.2798 44.1103724,252.687644 44.1103724,251.959809 C44.1103724,251.231974 44.6656024,250.639818 45.3480506,250.639818 L45.3480506,250.639818 L45.3480506,250.639818 L45.3480506,250.639818 Z" id="technology"></path>
        </g>
    </g>
</svg>