<?xml version="1.0" encoding="UTF-8"?>
<svg width="128px" height="128px" viewBox="0 0 128 128" version="1.1" xmlns="http://www.w3.org/2000/svg" xmlns:xlink="http://www.w3.org/1999/xlink">
    <!-- Generator: Sketch 3.8.3 (29802) - http://www.bohemiancoding.com/sketch -->
    <title>Path 26</title>
    <desc>Created with Sketch.</desc>
    <defs></defs>
    <g id="Page-1" stroke="none" stroke-width="1" fill="none" fill-rule="evenodd">
        <path d="M3.94770252,104.983327 C0.993005992,114.576565 0,127.998986 0,127.998986 L128,128 C128,128 123.588173,104.493401 121.57301,98.5232799 C119.557846,92.5531587 114.343631,87.5416564 114.343631,87.5416564 C114.343631,87.5416564 110.647321,84.8927437 102.925947,82.3095112 C95.2045735,79.7262786 87.192048,78.457929 87.192048,78.457929 L84.0557488,73.2328838 L81.2733116,73.1476763 L79.7834849,59.1036555 C79.7834849,59.1036555 81.7160251,57.1914455 82.9096416,54.2868969 C84.103258,51.3823482 84.5414638,47.5255802 84.5414638,47.5255802 C84.5414638,47.5255802 86.5091168,47.1117165 87.3306627,44.9216804 C88.1522086,42.7316444 89.5133781,36.0780996 89.4386209,34.6374403 C89.3638637,33.196781 86.6680167,32.151714 86.6680167,32.151714 L87.3306627,21.4794755 L90.1097191,19.4324669 C90.1097191,19.4324669 86.6245069,8.73365363 79.7834849,4.15192319 C72.942463,-0.429807249 67.0992521,0.116396973 61.8109015,0.00262249748 C56.5225508,-0.111151979 50.5385936,3.5148956 50.5385936,3.5148956 C50.5385936,3.5148956 43.4703692,6.88464875 41.7669857,10.1494144 C40.0636022,13.4141801 41.3939655,31.7895821 41.3939655,31.7895821 C41.3939655,31.7895821 38.5512366,33.0590736 37.889154,34.6374403 C37.2270714,36.2158071 40.1127767,44.3277373 40.6591948,45.6292069 C41.2056128,46.9306766 43.1903223,47.2638715 43.1903223,47.2638715 C43.1903223,47.2638715 43.9650409,51.0652609 45.0475344,53.6696497 C46.1300278,56.2740385 47.8141943,58.3885212 47.8141943,58.3885212 L47.0433611,72.1140283 L44.0338437,73.7710103 L41.7669857,78.6881921 C41.7669857,78.6881921 31.5990471,79.8349869 24.3516785,82.3095112 C17.10431,84.7840355 13.8496403,86.8919505 11.4993881,89.5988093 C9.14913586,92.3056682 6.90239905,95.3900884 3.94770252,104.983327 Z" id="Path-26" fill="#90949C"></path>
    </g>
</svg>