<?xml version="1.0" encoding="UTF-8"?>
<svg width="200px" height="200px" viewBox="0 0 200 200" version="1.1" xmlns="http://www.w3.org/2000/svg" xmlns:xlink="http://www.w3.org/1999/xlink">
    <!-- Generator: Sketch 3.8.3 (29802) - http://www.bohemiancoding.com/sketch -->
    <title>Combined Shape</title>
    <desc>Created with Sketch.</desc>
    <defs></defs>
    <g id="Page-1" stroke="none" stroke-width="1" fill="none" fill-rule="evenodd">
        <path d="M100,200 C155.228475,200 200,155.228475 200,100 C200,44.771525 155.228475,0 100,0 C44.771525,0 0,44.771525 0,100 C0,155.228475 44.771525,200 100,200 Z M33.030599,139.355469 C33.030599,139.355469 46.1509533,158.930086 69.822998,168.649501 C93.4950427,178.368916 116.546224,173.645833 116.546224,173.645833 C116.546224,173.645833 120.379232,155.587565 111.286214,145.690104 C105.588744,139.488589 86.7000326,134.300944 85.6164551,133.660889 C84.5328776,133.020833 81.2548828,130.636392 80.3027344,128.365072 C79.3505859,126.093751 79.5052083,118.535563 79.5052083,118.535563 L86.3761393,114.427083 L94.5133464,112.203776 C94.5133464,112.203776 91.1088053,107.966715 91.1088053,106.56901 C91.1088053,105.171305 93.1616211,86.6381836 91.1088053,78.8741048 C89.0559896,71.110026 84.5291114,66.5801961 80.3027344,62.3535156 C76.0763574,58.1268352 69.1539609,58.2914225 66.6129557,58.2914225 C64.0719506,58.2914225 62.4951172,62.3535155 62.4951172,62.3535155 C62.4951172,62.3535155 54.4889323,61.6764322 51.5169271,63.7369792 C48.5449219,65.7975262 43.8424312,73.0189959 42.7140299,83.0057787 C41.5856287,92.9925614 43.4932454,106.569009 43.4932454,106.569009 L38.3341471,110.23234 L49.1687012,113.447265 L55.6766764,117.196044 C55.6766764,117.196044 55.6766764,127.48942 54.4889323,129.134115 C53.3011882,130.77881 33.030599,139.355469 33.030599,139.355469 Z M148.833415,161.000164 C157.910466,153.039824 166.689453,141.32243 165.985921,138.979493 C165.282389,136.636557 143.014433,125.659225 142.15861,125.108644 C141.302787,124.558063 141.054192,122.187445 140.373535,121.064861 C139.692878,119.942278 137.872721,117.982586 137.872721,117.982586 L138.595785,108.966066 C138.595785,108.966066 140.17278,107.4483 141.444906,103.964438 C142.717031,100.480577 142.591146,96.1556002 142.591146,96.1556002 C142.591146,96.1556002 144.027861,96.3041163 145.270996,93.2088228 C146.514131,90.1135294 146.16237,87.8076537 145.739746,85.7584648 C145.317122,83.7092759 143.404134,82.0308443 143.404134,82.0308443 L143.404134,71.1519368 L147.088623,70.637207 C147.088623,70.637207 146.505542,63.4457067 144.286702,59.7725423 C142.067863,56.0993779 140.523958,54.1791478 133.799235,51.5881348 C127.074512,48.9971219 122.055891,50.5760863 120.16805,50.8317057 C118.28021,51.0873252 116.315511,53.955485 116.315511,53.955485 C116.315511,53.955485 112.413885,53.4060496 109.374593,55.571696 C106.335302,57.7373424 106.150853,58.9978633 105.137533,64.3265784 C104.124212,69.6552936 105.677897,75.0113932 105.677897,75.0113932 L107.156576,82.537843 C107.156576,82.537843 105.03461,81.1367365 104.339193,85.2331543 C103.643775,89.3295721 104.81928,92.7256636 105.677897,94.4506836 C106.536514,96.1757036 108.37972,94.9719238 108.37972,94.9719238 C108.37972,94.9719238 107.650505,98.8663124 108.815104,102.539469 C109.979704,106.212626 111.505754,104.471328 112.622884,108.3549 C113.740014,112.238473 112.622884,115.776774 112.622884,115.776774 L107.156576,125.108643 L100.695801,129.409181 C100.695801,129.409181 110.399396,132.959871 115.241699,136.900636 C120.084003,140.841401 122.320964,143.252768 124.513753,149.558107 C126.706543,155.863445 126.233724,173.841146 126.233724,173.841146 C126.233724,173.841146 139.756363,168.960504 148.833415,161.000164 Z" id="Combined-Shape" fill="#3B5998"></path>
    </g>
</svg>