<?xml version="1.0" encoding="UTF-8"?>
<svg width="656px" height="577px" viewBox="0 0 656 577" version="1.1" xmlns="http://www.w3.org/2000/svg" xmlns:xlink="http://www.w3.org/1999/xlink">
    <!-- Generator: Sketch 3.8.3 (29802) - http://www.bohemiancoding.com/sketch -->
    <title>warning</title>
    <desc>Created with Sketch.</desc>
    <defs></defs>
    <g id="Page-1" stroke="none" stroke-width="1" fill="none" fill-rule="evenodd">
        <path d="M303.026952,17.9482554 C316.819047,-5.97925772 339.176423,-5.98624561 352.972546,17.9482554 L650.026702,533.299065 C663.818796,557.226579 652.621751,576.62366 625.001594,576.62366 L30.9979042,576.62366 C3.38482419,576.62366 -7.82332599,557.233566 5.97279666,533.299065 L303.026952,17.9482554 Z M327,489 C346.329966,489 362,473.329966 362,454 C362,434.670034 346.329966,419 327,419 C307.670034,419 292,434.670034 292,454 C292,473.329966 307.670034,489 327,489 Z M312.728516,303.501907 L323.990234,367.031204 L333.748047,367.031204 C333.748047,367.031204 336.584476,339.879153 344.005859,303.501907 C352.0476,264.083866 364.581846,216.118042 364.095703,196.581986 C363.16092,159.016928 328.431641,160.027299 328.431641,160.027299 C328.431641,160.027299 292,157.492143 292,201.283158 C292,224.075568 312.728516,303.501907 312.728516,303.501907 Z" id="warning" fill="#BD081C"></path>
    </g>
</svg>