<?xml version="1.0" encoding="UTF-8"?>
<svg width="200px" height="200px" viewBox="0 0 200 200" version="1.1" xmlns="http://www.w3.org/2000/svg" xmlns:xlink="http://www.w3.org/1999/xlink">
    <!-- Generator: Sketch 3.8.3 (29802) - http://www.bohemiancoding.com/sketch -->
    <title>default</title>
    <desc>Created with Sketch.</desc>
    <defs></defs>
    <g id="Page-1" stroke="none" stroke-width="1" fill="none" fill-rule="evenodd">
        <g id="default">
            <rect id="Rectangle-48" fill="#000000" opacity="0.495754076" x="0" y="0" width="200" height="200"></rect>
            <path d="M101.533883,98.4661172 L101.533883,71.5434495 C101.533883,70.6945776 100.84714,70 100,70 C99.1469538,70 98.4661172,70.6910259 98.4661172,71.5434495 L98.4661172,98.4661172 L71.5434495,98.4661172 C70.6945776,98.4661172 70,99.1528599 70,100 C70,100.853046 70.6910259,101.533883 71.5434495,101.533883 L98.4661172,101.533883 L98.4661172,128.456551 C98.4661172,129.305422 99.1528599,130 100,130 C100.853046,130 101.533883,129.308974 101.533883,128.456551 L101.533883,101.533883 L128.456551,101.533883 C129.305422,101.533883 130,100.84714 130,100 C130,99.1469538 129.308974,98.4661172 128.456551,98.4661172 L101.533883,98.4661172 Z" id="Combined-Shape" fill="#FFFFFF"></path>
        </g>
    </g>
</svg>