<?xml version="1.0" encoding="UTF-8"?>
<svg width="371px" height="185px" viewBox="0 0 371 185" version="1.1" xmlns="http://www.w3.org/2000/svg" xmlns:xlink="http://www.w3.org/1999/xlink">
    <!-- Generator: Sketch 3.8.3 (29802) - http://www.bohemiancoding.com/sketch -->
    <title>groupimage</title>
    <desc>Created with Sketch.</desc>
    <defs>
        <rect id="path-1" x="1.13686838e-13" y="0" width="371" height="185"></rect>
        <mask id="mask-2" maskContentUnits="userSpaceOnUse" maskUnits="objectBoundingBox" x="0" y="0" width="371" height="185" fill="white">
            <use xlink:href="#path-1"></use>
        </mask>
        <rect id="path-3" x="0" y="0" width="202" height="185"></rect>
        <mask id="mask-4" maskContentUnits="userSpaceOnUse" maskUnits="objectBoundingBox" x="0" y="0" width="202" height="185" fill="white">
            <use xlink:href="#path-3"></use>
        </mask>
        <rect id="path-5" x="185.5" y="0" width="185.421875" height="185"></rect>
        <mask id="mask-6" maskContentUnits="userSpaceOnUse" maskUnits="objectBoundingBox" x="0" y="0" width="185.421875" height="185" fill="white">
            <use xlink:href="#path-5"></use>
        </mask>
        <path d="M283,87 L283,55 L273,55 L273,87 L241,87 L241,97 L273,97 L273,129 L283,129 L283,97 L315,97 L315,87 L283,87 Z" id="path-7"></path>
        <mask id="mask-8" maskContentUnits="userSpaceOnUse" maskUnits="objectBoundingBox" x="0" y="0" width="74" height="74" fill="white">
            <use xlink:href="#path-7"></use>
        </mask>
        <path d="M98,87 L98,55 L88,55 L88,87 L56,87 L56,97 L88,97 L88,129 L98,129 L98,97 L130,97 L130,87 L98,87 Z" id="path-9"></path>
        <mask id="mask-10" maskContentUnits="userSpaceOnUse" maskUnits="objectBoundingBox" x="0" y="0" width="74" height="74" fill="white">
            <use xlink:href="#path-9"></use>
        </mask>
    </defs>
    <g id="Page-1" stroke="none" stroke-width="1" fill="none" fill-rule="evenodd">
        <g id="groupimage" stroke="#979797">
            <use id="Rectangle-6" mask="url(#mask-2)" stroke-width="6" fill="#FFFFFF" xlink:href="#path-1"></use>
            <use id="Rectangle-7" mask="url(#mask-4)" stroke-width="6" fill="#ECEBEB" xlink:href="#path-3"></use>
            <use id="Rectangle-7" mask="url(#mask-6)" stroke-width="6" fill="#ECEBEB" xlink:href="#path-5"></use>
            <use id="Combined-Shape" mask="url(#mask-8)" stroke-width="4" fill="#FFFFFF" xlink:href="#path-7"></use>
            <use id="Combined-Shape" mask="url(#mask-10)" stroke-width="4" fill="#FFFFFF" xlink:href="#path-9"></use>
        </g>
    </g>
</svg>