<?xml version="1.0" encoding="UTF-8"?>
<svg width="371px" height="130px" viewBox="0 0 371 130" version="1.1" xmlns="http://www.w3.org/2000/svg" xmlns:xlink="http://www.w3.org/1999/xlink">
    <!-- Generator: Sketch 3.8.3 (29802) - http://www.bohemiancoding.com/sketch -->
    <title>listproduct</title>
    <desc>Created with Sketch.</desc>
    <defs>
        <rect id="path-1" x="0" y="0" width="371" height="130"></rect>
        <mask id="mask-2" maskContentUnits="userSpaceOnUse" maskUnits="objectBoundingBox" x="0" y="0" width="371" height="130" fill="white">
            <use xlink:href="#path-1"></use>
        </mask>
        <rect id="path-3" x="0" y="0" width="21" height="21" rx="3"></rect>
        <mask id="mask-4" maskContentUnits="userSpaceOnUse" maskUnits="objectBoundingBox" x="0" y="0" width="21" height="21" fill="white">
            <use xlink:href="#path-3"></use>
        </mask>
        <path d="M12,9.5 L12,5 L9,5 L9,9.5 L4.5,9.5 L4.5,12.5 L9,12.5 L9,17 L12,17 L12,12.5 L16.5,12.5 L16.5,9.5 L12,9.5 Z" id="path-5"></path>
        <mask id="mask-6" maskContentUnits="userSpaceOnUse" maskUnits="objectBoundingBox" x="0" y="0" width="12" height="12" fill="white">
            <use xlink:href="#path-5"></use>
        </mask>
        <rect id="path-7" x="0" y="0" width="21" height="21" rx="3"></rect>
        <mask id="mask-8" maskContentUnits="userSpaceOnUse" maskUnits="objectBoundingBox" x="0" y="0" width="21" height="21" fill="white">
            <use xlink:href="#path-7"></use>
        </mask>
        <path d="M12,9.5 L12,5 L9,5 L9,9.5 L4.5,9.5 L4.5,12.5 L9,12.5 L9,17 L12,17 L12,12.5 L16.5,12.5 L16.5,9.5 L12,9.5 Z" id="path-9"></path>
        <mask id="mask-10" maskContentUnits="userSpaceOnUse" maskUnits="objectBoundingBox" x="0" y="0" width="12" height="12" fill="white">
            <use xlink:href="#path-9"></use>
        </mask>
        <rect id="path-11" x="0" y="0" width="21" height="21" rx="3"></rect>
        <mask id="mask-12" maskContentUnits="userSpaceOnUse" maskUnits="objectBoundingBox" x="0" y="0" width="21" height="21" fill="white">
            <use xlink:href="#path-11"></use>
        </mask>
        <path d="M12,9.5 L12,5 L9,5 L9,9.5 L4.5,9.5 L4.5,12.5 L9,12.5 L9,17 L12,17 L12,12.5 L16.5,12.5 L16.5,9.5 L12,9.5 Z" id="path-13"></path>
        <mask id="mask-14" maskContentUnits="userSpaceOnUse" maskUnits="objectBoundingBox" x="0" y="0" width="12" height="12" fill="white">
            <use xlink:href="#path-13"></use>
        </mask>
        <rect id="path-15" x="0" y="95" width="371" height="35"></rect>
        <mask id="mask-16" maskContentUnits="userSpaceOnUse" maskUnits="objectBoundingBox" x="0" y="0" width="371" height="35" fill="white">
            <use xlink:href="#path-15"></use>
        </mask>
    </defs>
    <g id="Page-1" stroke="none" stroke-width="1" fill="none" fill-rule="evenodd">
        <g id="listproduct">
            <use id="Rectangle-21" stroke="#979797" mask="url(#mask-2)" stroke-width="6" fill="#FFFFFF" xlink:href="#path-1"></use>
            <path d="M84.5,1.5 L84.5,128.5" id="Line" stroke="#979797" stroke-linecap="square"></path>
            <path d="M169.5,2.5 L169.5,128.5" id="Line" stroke="#979797" stroke-linecap="square"></path>
            <path d="M249.5,0.5 L249.5,128.5" id="Line" stroke="#979797" stroke-linecap="square"></path>
            <path d="M1.5,33.5 L369.5,33.5" id="Line" stroke="#979797" stroke-linecap="square"></path>
            <path d="M1.5,64.5 L369.5,64.5" id="Line" stroke="#979797" stroke-linecap="square"></path>
            <path d="M1.5,95.5 L369.5,95.5" id="Line" stroke="#979797" stroke-linecap="square"></path>
            <g id="add" transform="translate(257.000000, 8.000000)" stroke="#979797" stroke-width="2">
                <use id="Rectangle-22" mask="url(#mask-4)" fill="#D8D8D8" xlink:href="#path-3"></use>
                <use id="Combined-Shape" mask="url(#mask-6)" fill="#FFFFFF" xlink:href="#path-5"></use>
            </g>
            <g id="add" transform="translate(257.000000, 38.000000)" stroke="#979797" stroke-width="2">
                <use id="Rectangle-22" mask="url(#mask-8)" fill="#D8D8D8" xlink:href="#path-7"></use>
                <use id="Combined-Shape" mask="url(#mask-10)" fill="#FFFFFF" xlink:href="#path-9"></use>
            </g>
            <g id="add" transform="translate(257.000000, 69.000000)" stroke="#979797" stroke-width="2">
                <use id="Rectangle-22" mask="url(#mask-12)" fill="#D8D8D8" xlink:href="#path-11"></use>
                <use id="Combined-Shape" mask="url(#mask-14)" fill="#FFFFFF" xlink:href="#path-13"></use>
            </g>
            <use id="Rectangle-47" stroke="#979797" mask="url(#mask-16)" stroke-width="6" fill="#FFFFFF" xlink:href="#path-15"></use>
            <text id="search-…" fill="#9B9B9B" font-family="Helvetica" font-size="15.5076923" font-weight="normal">
                <tspan x="41" y="116">search …</tspan>
            </text>
        </g>
    </g>
</svg>