<?xml version="1.0" encoding="UTF-8"?>
<svg width="231px" height="231px" viewBox="0 0 231 231" version="1.1" xmlns="http://www.w3.org/2000/svg" xmlns:xlink="http://www.w3.org/1999/xlink">
    <!-- Generator: Sketch 3.8.3 (29802) - http://www.bohemiancoding.com/sketch -->
    <title>like</title>
    <desc>Created with Sketch.</desc>
    <defs></defs>
    <g id="Page-1" stroke="none" stroke-width="1" fill="none" fill-rule="evenodd">
        <g id="like">
            <circle id="Oval-43" fill="#FFFFFF" cx="115.5" cy="115.5" r="115.5"></circle>
            <circle id="Oval-42" fill="#5890FF" cx="115" cy="115" r="100"></circle>
            <g id="likeicon" transform="translate(59.000000, 55.000000)">
                <path d="M1.25115395,107.761364 L26.6578876,107.761364" id="Path-56"></path>
                <rect id="Rectangle-54" fill="#FFFFFF" x="0" y="48.3068182" width="26.274233" height="60.6931818"></rect>
                <path d="M31.5134401,103.463634 C31.5134401,103.463634 83.6293782,102.537756 90.1050774,102.919312 C96.5807765,103.300867 101.818267,98.1491115 101.785772,95.4463667 C101.753278,92.743622 97.4580505,90.1144243 97.4580505,90.1144243 C97.4580505,90.1144243 103.242807,86.1040316 103.837225,83.1724964 C104.431643,80.2409613 100.24871,76.3515292 100.24871,76.3515292 C100.24871,76.3515292 106.659558,72.5402256 107.033532,68.6342441 C107.407506,64.7282625 101.785772,60.2976407 101.785772,60.2976407 C101.785772,60.2976407 107.802064,57.4562766 107.947461,51.670732 C108.092859,45.8851873 101.317812,42.1245228 96.2068966,42.2237105 C91.0959815,42.3228982 65.3385827,42.2237105 65.3385827,42.2237105 C65.3385827,42.2237105 74.2836003,25.0255349 74.2836003,16.9695601 C74.2836003,8.91358532 66.9074124,-1.53637567e-09 63.7379853,0 C60.5685582,1.53637347e-09 57.3575889,4.15136719 57.3575889,7.48020241 C57.3575889,10.8090376 58.7089329,15.4357799 57.1547651,18.8589644 C55.6005973,22.2821489 31.2788488,46.6557062 31.2788488,51.670732 C31.2788487,56.6857577 31.5134401,103.463634 31.5134401,103.463634 Z" id="Path-57" fill="#FFFFFF"></path>
            </g>
        </g>
    </g>
</svg>