<?xml version="1.0" encoding="UTF-8"?>
<svg width="121px" height="120px" viewBox="0 0 121 120" version="1.1" xmlns="http://www.w3.org/2000/svg" xmlns:xlink="http://www.w3.org/1999/xlink">
    <!-- Generator: Sketch 3.8.3 (29802) - http://www.bohemiancoding.com/sketch -->
    <title>likeicon</title>
    <desc>Created with Sketch.</desc>
    <defs></defs>
    <g id="Page-1" stroke="none" stroke-width="1" fill="none" fill-rule="evenodd">
        <g id="likeicon" transform="translate(0.181521, 0.000000)">
            <circle id="Oval-10" fill="#FFFFFF" cx="60" cy="60" r="60"></circle>
            <circle id="Oval-1" fill="#4673CC" cx="60" cy="60" r="50"></circle>
            <polygon id="Path-11" fill="#FFFFFF" points="32 50.4303496 32 82.3566238 41.6077358 82.3566238 41.9713065 48.7570621"></polygon>
            <path d="M44.7331579,48.4464447 L44.270219,82.359904 C44.270219,82.359904 67.4686019,83.320356 76.0084219,83.3203554 C84.5482419,83.3203547 89.495609,49.9858307 88.3522904,47.7773798 C87.2089714,45.568929 70.8623182,47.4859922 70.8623182,47.4859922 C70.8623182,47.4859922 73.4227546,44.0618741 74.527251,38.1015765 C75.6317477,32.1412789 76.054289,26.9969374 73.0916728,26.6962093 C70.1290569,26.3954812 70.0969251,28.2927306 62.9093551,36.9222715 C55.7217853,45.5518125 44.7331579,48.4464447 44.7331579,48.4464447 L44.7331579,48.4464447 Z" id="Path-12" fill="#FFFFFF"></path>
        </g>
    </g>
</svg>