<?xml version="1.0" encoding="UTF-8"?>
<svg width="120px" height="120px" viewBox="0 0 120 120" version="1.1" xmlns="http://www.w3.org/2000/svg" xmlns:xlink="http://www.w3.org/1999/xlink">
    <!-- Generator: Sketch 3.8.3 (29802) - http://www.bohemiancoding.com/sketch -->
    <title>love</title>
    <desc>Created with Sketch.</desc>
    <defs></defs>
    <g id="Page-1" stroke="none" stroke-width="1" fill="none" fill-rule="evenodd">
        <g id="love">
            <circle id="Oval-10" fill="#FFFFFF" cx="60" cy="60" r="60"></circle>
            <ellipse id="Love-Oval" fill="#F55065" cx="60" cy="60" rx="50" ry="50"></ellipse>
            <path d="M30.6052396,54.0253441 C30.3242199,52.8463002 30.1754386,51.6159636 30.1754386,50.3508772 C30.1754386,41.6305917 37.2446268,34.5614035 45.9649123,34.5614035 C52.0753182,34.5614035 57.3750405,38.0323527 60,43.1101718 C62.6249595,38.0323527 67.9246818,34.5614035 74.0350877,34.5614035 C82.7553732,34.5614035 89.8245614,41.6305917 89.8245614,50.3508772 C89.8245614,51.4874347 89.7044758,52.5959448 89.4763003,53.6644115 C89.4579763,53.8709773 89.4279692,54.0822234 89.3859649,54.2982456 C86.3157895,70.0877195 60.4385965,88.0701754 60.4385965,88.0701754 C60.4385965,88.0701754 31.4912281,69.2105265 30.6140351,54.2982456 C30.6086317,54.2063878 30.6057105,54.1154234 30.6052396,54.0253441 Z" id="Love" fill="#FFFFFF"></path>
        </g>
    </g>
</svg>