<?xml version="1.0" encoding="UTF-8"?>
<svg width="120px" height="120px" viewBox="0 0 120 120" version="1.1" xmlns="http://www.w3.org/2000/svg" xmlns:xlink="http://www.w3.org/1999/xlink">
    <!-- Generator: Sketch 3.8.3 (29802) - http://www.bohemiancoding.com/sketch -->
    <title>wow</title>
    <desc>Created with Sketch.</desc>
    <defs></defs>
    <g id="Page-1" stroke="none" stroke-width="1" fill="none" fill-rule="evenodd">
        <g id="wow">
            <circle id="Oval-10" fill="#FFFFFF" cx="60" cy="60" r="60"></circle>
            <ellipse id="Wow-Oval" fill="#FFDA69" cx="60" cy="60" rx="50" ry="50"></ellipse>
            <ellipse id="mouth" fill="#252B37" cx="60.4561404" cy="80.2485627" rx="13.4561404" ry="17.2485627"></ellipse>
            <path d="M85.4359246,57.2151659 C89.729827,56.4580351 92.4264535,51.3964481 91.4590086,45.9097951 C90.4915636,40.423142 86.2263988,36.5891067 81.9324965,37.3462376 C77.6385941,38.1033684 74.9419675,43.1649554 75.9094125,48.6516084 C76.8768574,54.1382615 81.1420222,57.9722968 85.4359246,57.2151659 Z M35.3186577,57.5556245 C31.0247553,56.7984936 28.3281288,51.7369067 29.2955737,46.2502536 C30.2630187,40.7636006 34.5281834,36.9295653 38.8220858,37.6866961 C43.1159882,38.443827 45.8126148,43.5054139 44.8451698,48.992067 C43.8777249,54.47872 39.6125601,58.3127553 35.3186577,57.5556245 Z M91.5359421,27.0827738 C89.3583422,24.7571695 86.3699128,23.3412291 83.1236798,23.1711012 C80.1711932,23.0163679 77.3183723,23.9079143 75.0049501,25.6515901 C74.0377598,26.380582 73.844662,27.7556093 74.5736539,28.7227996 C75.3026459,29.6899898 76.6776732,29.8830876 77.6448634,29.1540957 C79.1421901,28.0255285 80.9812267,27.450804 82.8941362,27.5510553 C84.996858,27.6612543 86.924056,28.5743753 88.3343951,30.0805704 C89.1622137,30.9646532 90.5499841,31.0102643 91.4340669,30.1824456 C92.3181497,29.354627 92.3637608,27.9668566 91.5359421,27.0827738 Z M37.3658215,27.5510553 C39.278731,27.450804 41.1177675,28.0255285 42.6150943,29.1540957 C43.5822845,29.8830876 44.9573118,29.6899898 45.6863037,28.7227996 C46.4152957,27.7556093 46.2221978,26.380582 45.2550076,25.6515901 C42.9415853,23.9079143 40.0887645,23.0163679 37.1362778,23.1711012 C33.8900449,23.3412291 30.9016155,24.7571695 28.7240155,27.0827738 C27.8961969,27.9668566 27.9418079,29.354627 28.8258908,30.1824456 C29.7099736,31.0102643 31.0977439,30.9646532 31.9255626,30.0805704 C33.3359016,28.5743753 35.2630996,27.6612543 37.3658215,27.5510553 Z" id="eyes" fill="#252B37"></path>
        </g>
    </g>
</svg>