<?xml version="1.0" encoding="UTF-8"?>
<svg width="100px" height="100px" viewBox="0 0 100 100" version="1.1" xmlns="http://www.w3.org/2000/svg" xmlns:xlink="http://www.w3.org/1999/xlink">
    <!-- Generator: Sketch 3.8.3 (29802) - http://www.bohemiancoding.com/sketch -->
    <title>haha</title>
    <desc>Created with Sketch.</desc>
    <defs>
        <path d="M0,0 C0,17.9250314 14.531109,32.4561404 32.4561404,32.4561404 C50.3811717,32.4561404 64.9122807,17.9250314 64.9122807,0" id="path-1"></path>
    </defs>
    <g id="Page-1" stroke="none" stroke-width="1" fill="none" fill-rule="evenodd">
        <g id="haha">
            <ellipse id="Haha-Oval" fill="#FFDA69" cx="50" cy="50" rx="50" ry="50"></ellipse>
            <g id="mouth" transform="translate(17.543860, 50.122807)">
                <mask id="mask-2" fill="white">
                    <use xlink:href="#path-1"></use>
                </mask>
                <use fill="#252B39" xlink:href="#path-1"></use>
                <path d="M32.2080935,44.2072711 L-0.543859649,23.9269977 C-0.543859649,23.9269977 8.16610129,12.877193 32.2080935,12.877193 C56.2500857,12.877193 64.9405154,23.9269977 64.9405154,23.9269977 L32.2080935,44.2072711 Z" id="Path-18" fill="#F55065" mask="url(#mask-2)"></path>
            </g>
            <path d="M27.8363475,22.6876995 L35.0636989,34.716032 C35.8129011,35.962914 35.409776,37.5795951 34.1639854,38.3281416 C32.9207297,39.075165 31.3011846,38.6731253 30.552292,37.4267587 L25.3720882,28.8054518 L19.8070385,37.3748769 C19.0147771,38.5948525 17.3849952,38.9412324 16.1660874,38.1496644 C14.9496599,37.3597071 14.6010489,35.727827 15.3929829,34.5083556 L23.0357143,22.7395813 C25.0161804,20.4311583 27.135005,21.5204695 27.8363475,22.6876995 Z M77.2047686,22.6876995 L84.4321199,34.716032 C85.1813222,35.962914 84.7781971,37.5795951 83.5324065,38.3281416 C82.2891508,39.075165 80.6696057,38.6731253 79.9207131,37.4267587 L74.7405093,28.8054518 L69.1754595,37.3748769 C68.3831981,38.5948525 66.7534163,38.9412324 65.5345085,38.1496644 C64.3180809,37.3597071 63.96947,35.727827 64.7614039,34.5083556 L72.4041353,22.7395813 C74.3846014,20.4311583 76.5034261,21.5204695 77.2047686,22.6876995 Z" id="eyes" fill="#252B39"></path>
        </g>
    </g>
</svg>