<?xml version="1.0" encoding="UTF-8"?>
<svg width="100px" height="90px" viewBox="0 0 100 90" version="1.1" xmlns="http://www.w3.org/2000/svg" xmlns:xlink="http://www.w3.org/1999/xlink">
    <!-- Generator: Sketch 3.8.3 (29802) - http://www.bohemiancoding.com/sketch -->
    <title>Love</title>
    <desc>Created with Sketch.</desc>
    <defs></defs>
    <g id="Page-1" stroke="none" stroke-width="1" fill="none" fill-rule="evenodd">
        <path d="M0.720581866,32.6322214 C0.249439007,30.6554983 0,28.5927805 0,26.471803 C0,11.8518299 11.8518299,0 26.471803,0 C36.7161889,0 45.6014251,5.8192112 50.0022946,14.3324164 C54.403164,5.8192112 63.2884003,0 73.5327861,0 C88.1527592,0 100.004589,11.8518299 100.004589,26.471803 C100.004589,28.3772957 99.8032599,30.2357655 99.4207129,32.0271008 C99.3899914,32.3734206 99.3396833,32.7275835 99.2692613,33.0897538 C94.1219663,59.5615571 50.7376224,89.7099991 50.7376224,89.7099991 C50.7376224,89.7099991 2.20598358,58.0909013 0.735327861,33.0897538 C0.726268801,32.9357497 0.721371339,32.7832437 0.720581866,32.6322214 Z" id="Love" fill="#F55065"></path>
    </g>
</svg>