<?xml version="1.0" encoding="UTF-8"?>
<svg width="100px" height="100px" viewBox="0 0 100 100" version="1.1" xmlns="http://www.w3.org/2000/svg" xmlns:xlink="http://www.w3.org/1999/xlink">
    <!-- Generator: Sketch 3.8.3 (29802) - http://www.bohemiancoding.com/sketch -->
    <title>wow</title>
    <desc>Created with Sketch.</desc>
    <defs></defs>
    <g id="Page-1" stroke="none" stroke-width="1" fill="none" fill-rule="evenodd">
        <g id="wow">
            <ellipse id="Wow-Oval" fill="#FFDA69" cx="50" cy="50" rx="50" ry="50"></ellipse>
            <ellipse id="mouth" fill="#252B37" cx="50.4561404" cy="70.2485627" rx="13.4561404" ry="17.2485627"></ellipse>
            <path d="M75.4359246,47.2151659 C79.729827,46.4580351 82.4264535,41.3964481 81.4590086,35.9097951 C80.4915636,30.423142 76.2263988,26.5891067 71.9324965,27.3462376 C67.6385941,28.1033684 64.9419675,33.1649554 65.9094125,38.6516084 C66.8768574,44.1382615 71.1420222,47.9722968 75.4359246,47.2151659 Z M25.3186577,47.5556245 C21.0247553,46.7984936 18.3281288,41.7369067 19.2955737,36.2502536 C20.2630187,30.7636006 24.5281834,26.9295653 28.8220858,27.6866961 C33.1159882,28.443827 35.8126148,33.5054139 34.8451698,38.992067 C33.8777249,44.47872 29.6125601,48.3127553 25.3186577,47.5556245 Z M81.5359421,17.0827738 C79.3583422,14.7571695 76.3699128,13.3412291 73.1236798,13.1711012 C70.1711932,13.0163679 67.3183723,13.9079143 65.0049501,15.6515901 C64.0377598,16.380582 63.844662,17.7556093 64.5736539,18.7227996 C65.3026459,19.6899898 66.6776732,19.8830876 67.6448634,19.1540957 C69.1421901,18.0255285 70.9812267,17.450804 72.8941362,17.5510553 C74.996858,17.6612543 76.924056,18.5743753 78.3343951,20.0805704 C79.1622137,20.9646532 80.5499841,21.0102643 81.4340669,20.1824456 C82.3181497,19.354627 82.3637608,17.9668566 81.5359421,17.0827738 Z M27.3658215,17.5510553 C29.278731,17.450804 31.1177675,18.0255285 32.6150943,19.1540957 C33.5822845,19.8830876 34.9573118,19.6899898 35.6863037,18.7227996 C36.4152957,17.7556093 36.2221978,16.380582 35.2550076,15.6515901 C32.9415853,13.9079143 30.0887645,13.0163679 27.1362778,13.1711012 C23.8900449,13.3412291 20.9016155,14.7571695 18.7240155,17.0827738 C17.8961969,17.9668566 17.9418079,19.354627 18.8258908,20.1824456 C19.7099736,21.0102643 21.0977439,20.9646532 21.9255626,20.0805704 C23.3359016,18.5743753 25.2630996,17.6612543 27.3658215,17.5510553 Z" id="eyes" fill="#252B37"></path>
        </g>
    </g>
</svg>